<svg width="12" height="16" viewBox="0 0 12 16" fill="none" xmlns="http://www.w3.org/2000/svg">
<mask id="path-1-outside-1_136_2166" maskUnits="userSpaceOnUse" x="-1" y="-1" width="14" height="18" fill="black">
<rect fill="white" x="-1" y="-1" width="14" height="18"/>
<path d="M5.69757 8.752C7.87557 8.686 7.65557 10.38 7.65557 10.666C7.54557 11.436 6.73157 12.272 5.58757 12.206C4.77357 12.14 3.73957 11.524 3.45357 10.82L0.747573 12.162C1.49557 13.834 3.34357 15.066 5.34557 15.176C8.22757 15.352 10.7796 13.57 11.0216 11.084C11.1316 9.544 10.1416 7.762 8.55757 7.168C9.61357 6.574 10.4056 5.562 10.4056 4.352C10.4716 2.306 8.66757 0.413999 6.13757 0.303999C4.20157 0.193999 2.50757 1.052 1.64957 2.438L4.13557 3.956C4.39957 3.516 4.88357 3.164 5.65357 3.164C6.73157 3.164 7.10557 4.11 7.10557 4.55C7.10557 4.638 7.19357 6.112 5.69757 6.112H4.17957V8.752H5.69757Z"/>
</mask>
<path d="M5.69757 8.752C7.87557 8.686 7.65557 10.38 7.65557 10.666C7.54557 11.436 6.73157 12.272 5.58757 12.206C4.77357 12.14 3.73957 11.524 3.45357 10.82L0.747573 12.162C1.49557 13.834 3.34357 15.066 5.34557 15.176C8.22757 15.352 10.7796 13.57 11.0216 11.084C11.1316 9.544 10.1416 7.762 8.55757 7.168C9.61357 6.574 10.4056 5.562 10.4056 4.352C10.4716 2.306 8.66757 0.413999 6.13757 0.303999C4.20157 0.193999 2.50757 1.052 1.64957 2.438L4.13557 3.956C4.39957 3.516 4.88357 3.164 5.65357 3.164C6.73157 3.164 7.10557 4.11 7.10557 4.55C7.10557 4.638 7.19357 6.112 5.69757 6.112H4.17957V8.752H5.69757Z" fill="white"/>
<path d="M5.69757 8.752V9.752H5.71272L5.72786 9.75154L5.69757 8.752ZM7.65557 10.666L8.64552 10.8074L8.65557 10.7371V10.666H7.65557ZM5.58757 12.206L5.50676 13.2027L5.51836 13.2037L5.52998 13.2043L5.58757 12.206ZM3.45357 10.82L4.38004 10.4436L3.97452 9.44542L3.00928 9.92412L3.45357 10.82ZM0.747573 12.162L0.303275 11.2661L-0.557702 11.6931L-0.165245 12.5704L0.747573 12.162ZM5.34557 15.176L5.40653 14.1778L5.40044 14.1775L5.34557 15.176ZM11.0216 11.084L12.0169 11.1809L12.0181 11.1681L12.019 11.1552L11.0216 11.084ZM8.55757 7.168L8.06731 6.29642L6.19454 7.34986L8.20645 8.10433L8.55757 7.168ZM10.4056 4.352L9.40609 4.31976L9.40557 4.33587V4.352H10.4056ZM6.13757 0.303999L6.08084 1.30248L6.09414 1.30306L6.13757 0.303999ZM1.64957 2.438L0.799308 1.91164L0.269724 2.76713L1.12843 3.29147L1.64957 2.438ZM4.13557 3.956L3.61443 4.80947L4.47456 5.33468L4.99307 4.4705L4.13557 3.956ZM4.17957 6.112V5.112H3.17957V6.112H4.17957ZM4.17957 8.752H3.17957V9.752H4.17957V8.752ZM5.72786 9.75154C6.14688 9.73884 6.35603 9.81375 6.44781 9.86323C6.52823 9.90658 6.56512 9.95435 6.5924 10.011C6.68364 10.2004 6.65557 10.3861 6.65557 10.666H8.65557C8.65557 10.7147 8.66932 10.4011 8.65363 10.1694C8.63516 9.89661 8.57715 9.52271 8.39425 9.14302C8.20427 8.74865 7.8878 8.36742 7.3969 8.10277C6.91736 7.84425 6.33726 7.73216 5.66728 7.75246L5.72786 9.75154ZM6.66562 10.5246C6.62813 10.787 6.26348 11.2433 5.64517 11.2077L5.52998 13.2043C7.19967 13.3007 8.46301 12.085 8.64552 10.8074L6.66562 10.5246ZM5.66839 11.2093C5.45453 11.1919 5.14611 11.0897 4.85679 10.9069C4.55523 10.7163 4.41446 10.5284 4.38004 10.4436L2.52711 11.1964C2.77868 11.8156 3.29792 12.2877 3.78836 12.5976C4.29104 12.9153 4.90661 13.1541 5.50676 13.2027L5.66839 11.2093ZM3.00928 9.92412L0.303275 11.2661L1.19187 13.0579L3.89787 11.7159L3.00928 9.92412ZM-0.165245 12.5704C0.748254 14.6123 2.94655 16.0457 5.29071 16.1745L5.40044 14.1775C3.74059 14.0863 2.24289 13.0557 1.66039 11.7536L-0.165245 12.5704ZM5.28462 16.1741C8.53719 16.3728 11.7079 14.3546 12.0169 11.1809L10.0263 10.9871C9.85122 12.7854 7.91795 14.3312 5.40653 14.1779L5.28462 16.1741ZM12.019 11.1552C12.1575 9.21618 10.9465 6.99584 8.9087 6.23167L8.20645 8.10433C9.33665 8.52816 10.1056 9.87182 10.0241 11.0128L12.019 11.1552ZM9.04783 8.03958C10.3121 7.32845 11.4056 6.03098 11.4056 4.352H9.40557C9.40557 5.09302 8.91509 5.81955 8.06731 6.29642L9.04783 8.03958ZM11.4051 4.38424C11.4916 1.70138 9.16469 -0.565332 6.18101 -0.695057L6.09414 1.30306C8.17045 1.39333 9.45155 2.91062 9.40609 4.31976L11.4051 4.38424ZM6.1943 -0.694391C3.93849 -0.822562 1.87345 0.176492 0.799308 1.91164L2.49984 2.96435C3.1417 1.92751 4.46466 1.21056 6.08085 1.30239L6.1943 -0.694391ZM1.12843 3.29147L3.61443 4.80947L4.65672 3.10253L2.17072 1.58453L1.12843 3.29147ZM4.99307 4.4705C5.04595 4.38236 5.11402 4.31292 5.20096 4.26324C5.28603 4.21463 5.42563 4.164 5.65357 4.164V2.164C4.52627 2.164 3.71967 2.70552 3.27808 3.4415L4.99307 4.4705ZM5.65357 4.164C5.7717 4.164 5.84009 4.18863 5.87951 4.20881C5.92169 4.2304 5.96042 4.26247 5.99648 4.30851C6.03424 4.35673 6.06474 4.41527 6.0849 4.47374C6.10683 4.53734 6.10557 4.56839 6.10557 4.55H8.10557C8.10557 4.10673 7.93735 3.54314 7.57117 3.07549C7.17197 2.56567 6.52897 2.164 5.65357 2.164V4.164ZM6.10557 4.55C6.10557 4.63549 6.11328 4.80938 6.0455 4.96527C6.01953 5.02501 5.99586 5.04681 5.98051 5.05742C5.96998 5.06469 5.90064 5.112 5.69757 5.112V7.112C6.24251 7.112 6.72317 6.97506 7.11689 6.70321C7.50579 6.43469 7.74062 6.08249 7.87964 5.76273C8.01627 5.44848 8.06927 5.14685 8.09094 4.93114C8.11259 4.7156 8.10557 4.53193 8.10557 4.55H6.10557ZM5.69757 5.112H4.17957V7.112H5.69757V5.112ZM3.17957 6.112V8.752H5.17957V6.112H3.17957ZM4.17957 9.752H5.69757V7.752H4.17957V9.752Z" fill="black" mask="url(#path-1-outside-1_136_2166)"/>
</svg>
