<svg width="15" height="14" viewBox="0 0 15 14" fill="none" xmlns="http://www.w3.org/2000/svg">
<path d="M6.9065 13.9999C6.81867 13.9999 6.74716 13.9999 6.6814 13.9929C6.0641 13.9619 5.45222 13.8577 4.85764 13.6822C4.72805 13.6408 4.58983 13.6113 4.45641 13.5824C4.2587 13.5478 4.06492 13.4922 3.87808 13.4166C3.80513 13.3836 3.72978 13.3531 3.65683 13.3232C3.39504 13.2331 3.15042 13.096 2.93404 12.9182C2.69517 12.7097 2.44451 12.5162 2.18342 12.3389L2.10279 12.2849C1.66837 11.9864 1.3166 11.5747 1.08244 11.0909C1.00657 11.0447 0.940214 10.9834 0.887174 10.9105C0.834134 10.8375 0.795456 10.7544 0.773361 10.6659C0.73925 10.5642 0.691764 10.4679 0.632259 10.3798C0.534034 10.2321 0.457522 10.07 0.405248 9.89884C0.372612 9.80745 0.338537 9.71307 0.298222 9.62617C0.271098 9.55326 0.260584 9.4748 0.267506 9.39695C0.267506 9.27011 0.270865 9.15025 0.134083 9.07534C0.149913 8.93058 0.133491 8.78396 0.0860891 8.64686C0.0612815 8.56243 0.0437741 8.47585 0.0337758 8.38818C-0.0132931 7.99601 -0.0132931 7.59928 0.0337758 7.20711C0.144599 6.44221 0.334806 5.69206 0.601063 4.96983C0.785394 4.52576 1.00669 4.09932 1.26242 3.69538C1.39632 3.47015 1.53454 3.23793 1.65837 3.00122C1.74783 2.83643 1.87918 2.70045 2.038 2.6082C2.0971 2.56519 2.13855 2.50068 2.15414 2.42741C2.18726 2.33303 2.21798 2.24414 2.33988 2.24414C2.35011 2.24359 2.36036 2.24359 2.3706 2.24414C2.6077 1.91418 2.90041 1.63177 3.23449 1.41065C3.2868 1.3712 3.33863 1.33224 3.39047 1.29229C3.85652 0.946448 4.37184 0.678847 4.91763 0.499256C5.1433 0.422639 5.37786 0.377958 5.61498 0.366417C5.99246 0.345048 6.36388 0.258469 6.71404 0.110229C6.92431 0.030269 7.14731 -0.00719011 7.37108 -0.000137469C7.46706 -0.000137469 7.56305 0.00385768 7.65904 0.00785283C7.75503 0.011848 7.85101 0.0158431 7.947 0.0158431C8.04299 0.0158431 8.11738 0.0123474 8.19129 0.00485647C8.231 0.0489564 8.2795 0.0834771 8.33339 0.105994C8.38728 0.128512 8.44526 0.13848 8.50325 0.135198C8.57737 0.133126 8.65121 0.124775 8.72402 0.110229L8.74082 0.107232C8.75852 0.103296 8.7765 0.100791 8.79457 0.0997413C8.87623 0.1047 8.95585 0.128224 9.02782 0.168658C9.09295 0.20412 9.16366 0.227124 9.2366 0.236575C9.71891 0.295432 10.1911 0.423146 10.6399 0.616114C10.7522 0.658063 10.8684 0.70201 10.9836 0.74296C11.599 0.981729 12.1821 1.3027 12.7181 1.6978C13.527 2.23152 14.1688 2.99913 14.5649 3.90662C14.7012 4.25007 14.8098 4.60469 14.8898 4.96683L14.8994 5.00578C15.0007 5.50402 15.0302 6.01518 14.9867 6.52244C14.9829 6.62232 14.9791 6.7222 14.9762 6.82208C14.9392 7.34969 14.8158 7.86684 14.6114 8.35122L14.5898 8.40915C14.4593 8.75523 14.3249 9.1133 14.1891 9.46587C14.1809 9.48179 14.1696 9.49574 14.156 9.50682C14.1406 9.5218 14.1257 9.53578 14.1257 9.55027C14.1107 9.76299 14.0546 9.97037 13.9607 10.16C13.8669 10.3496 13.7372 10.5176 13.5796 10.6539C13.5397 10.6989 13.5008 10.7428 13.462 10.7878C13.4413 10.8117 13.4178 10.8377 13.3953 10.8587C13.3389 10.9086 13.2927 10.9697 13.2594 11.0385C13.0302 11.5198 12.6731 11.9226 12.2305 12.199C12.1402 12.268 12.0476 12.3389 11.9588 12.4108C11.44 12.8028 10.881 13.1335 10.292 13.3971C9.81592 13.6083 9.31958 13.7662 8.81137 13.868L8.69907 13.895C8.38314 13.9605 8.06123 13.9894 7.73919 13.9814C7.60241 13.9814 7.47378 13.9844 7.35044 13.9929C7.25877 13.9929 7.1767 13.9929 7.09751 13.9954C7.03128 13.9989 6.96745 13.9999 6.9065 13.9999ZM5.75896 1.45609C5.51271 1.4677 5.28004 1.57687 5.10865 1.76122L5.05249 1.81466C4.87172 1.99965 4.67236 2.1639 4.45785 2.30456C4.14138 2.51888 3.87268 2.8012 3.66979 3.13256C3.58436 3.25341 3.49605 3.37776 3.40198 3.49312C3.09354 3.90616 2.83724 4.35864 2.63936 4.83949C2.59521 4.93587 2.55057 5.03225 2.50546 5.12764C2.13821 5.9448 1.92309 6.82698 1.87146 7.72748C1.84822 8.30525 1.91549 8.88311 2.07063 9.4384C2.08754 9.50235 2.1097 9.56468 2.13687 9.62468C2.19961 9.73905 2.22456 9.87167 2.2079 10.0022C2.31924 10.0477 2.31156 10.1405 2.30388 10.2384C2.29621 10.3363 2.28661 10.4462 2.41091 10.5086C2.51675 10.5778 2.60512 10.6723 2.66864 10.7843C2.70271 10.8342 2.73823 10.8841 2.77614 10.9311C2.78382 10.9406 2.79246 10.9491 2.8011 10.9581C2.81873 10.9741 2.83351 10.9932 2.84478 11.0145C3.05186 11.3928 3.35972 11.7006 3.73122 11.9009L3.81953 11.9603C4.20433 12.2159 4.64533 12.3652 5.10097 12.3943L5.28334 12.4068C5.54107 12.4248 5.80504 12.4433 6.06564 12.4433C6.41922 12.4511 6.77188 12.4028 7.11143 12.2999C7.23045 12.2615 7.3538 12.2315 7.4733 12.2C7.71395 12.1528 7.94738 12.072 8.16729 11.9598C8.28248 11.8944 8.39862 11.83 8.51093 11.7676C9.04869 11.4916 9.55894 11.1611 10.0343 10.7808C10.7662 10.1701 11.3785 9.41866 11.8379 8.56746C12.0459 8.17082 12.2129 7.75231 12.336 7.31897C12.4636 6.87825 12.5507 6.42594 12.5962 5.96812C12.6441 5.33513 12.5714 4.69852 12.3821 4.09489C12.3067 3.77383 12.1819 3.46758 12.0126 3.18799C11.8079 2.87703 11.5491 2.60872 11.2495 2.39695C11.1971 2.36199 11.1439 2.32404 11.093 2.28808C10.8413 2.06771 10.5304 1.93359 10.2027 1.90405C10.1848 1.90405 10.1667 1.90405 10.1485 1.90405C10.1216 1.83164 10.089 1.79818 10.0448 1.79818C10.0083 1.80234 9.97305 1.81478 9.94163 1.83463H9.93827C9.90355 1.85604 9.8647 1.86917 9.82452 1.87309C9.80446 1.87331 9.78477 1.8674 9.76789 1.85611C9.55111 1.72629 9.31848 1.62751 9.0763 1.56246L8.92944 1.51253C8.8407 1.48716 8.7488 1.47588 8.65683 1.47907C8.57494 1.48174 8.49309 1.47283 8.4135 1.4526C8.28119 1.40387 8.14316 1.37397 8.00315 1.36371C7.87129 1.37284 7.74086 1.39764 7.61441 1.43762L7.57217 1.4481H7.56689C7.54673 1.4481 7.5189 1.42263 7.49346 1.39816C7.48052 1.38493 7.4669 1.37243 7.45267 1.36071L7.36436 1.44661L7.23189 1.57595C7.21204 1.54205 7.18452 1.51372 7.15172 1.49344C7.11893 1.47316 7.08186 1.46154 7.04376 1.45959C6.968 1.46756 6.89497 1.49335 6.83019 1.535L6.78219 1.55947L6.58686 1.35671L6.36081 1.57894H6.35889C6.32481 1.57894 6.29697 1.57894 6.27442 1.58244C6.25186 1.58594 6.24562 1.58244 6.2341 1.58244C6.22106 1.5833 6.20802 1.58072 6.19619 1.57495C6.06212 1.49836 5.9119 1.45753 5.75896 1.45609Z" fill="#1A1A1A"/>
</svg>
