<svg width="150" height="49" viewBox="0 0 150 49" fill="none" xmlns="http://www.w3.org/2000/svg">
<path fill-rule="evenodd" clip-rule="evenodd" d="M92.6922 38.2316C84.0095 45.1798 71.4252 48.8873 60.5895 48.8873C45.3969 48.8873 31.7196 42.7861 21.3718 32.6388C20.5589 31.8406 21.2867 30.7535 22.2625 31.3749C33.4289 38.4289 47.2372 42.6723 61.5006 42.6723C71.1198 42.6723 81.7009 40.5124 91.4306 36.0281C92.9009 35.3499 94.1298 37.0734 92.6922 38.2316Z" fill="#A0A0A0"/>
<path fill-rule="evenodd" clip-rule="evenodd" d="M96.3016 33.7461C95.1964 32.2066 88.9657 33.0182 86.1691 33.379C85.3169 33.4919 85.1868 32.6866 85.9547 32.108C90.9165 28.3152 99.0597 29.4103 100.009 30.6813C100.959 31.9595 99.7621 40.8215 95.099 45.0516C94.3835 45.7005 93.7008 45.3556 94.0192 44.4934C95.0663 41.6553 97.4142 35.2928 96.3016 33.7461Z" fill="#A0A0A0"/>
<path fill-rule="evenodd" clip-rule="evenodd" d="M86.364 5.33855V1.6533C86.364 1.09509 86.7545 0.720873 87.2228 0.720873H102.422C102.91 0.720873 103.3 1.10309 103.3 1.65419V4.80967C103.294 5.33944 102.884 6.03187 102.156 7.12606L94.2796 19.3356C97.2063 19.2582 100.296 19.7311 102.949 21.3551C103.548 21.7222 103.71 22.2591 103.755 22.7888V26.7221C103.755 27.2589 103.209 27.8874 102.637 27.5629C97.9602 24.8999 91.7491 24.611 86.5793 27.5905C86.0521 27.9016 85.4995 27.2794 85.4995 26.7434V23.0075C85.4995 22.4075 85.506 21.3835 86.0586 20.4724L95.1834 6.26475H87.2424C86.7545 6.26475 86.364 5.89054 86.364 5.34033V5.33855ZM30.919 28.338H26.2952C25.8531 28.3025 25.5011 27.9425 25.4684 27.4838V1.71552C25.4684 1.19997 25.8654 0.791094 26.3607 0.791094H30.6717C31.1203 0.811538 31.4789 1.18575 31.5108 1.65241V5.02122H31.5952C32.7208 1.76529 34.8346 0.247106 37.6835 0.247106C40.5774 0.247106 42.385 1.76529 43.6859 5.02033C44.805 1.76529 47.3477 0.247106 50.073 0.247106C52.0108 0.247106 54.1311 1.11553 55.4254 3.06482C56.8891 5.23277 56.5895 8.38204 56.5895 11.1429L56.583 27.4065C56.583 27.922 56.1867 28.338 55.6923 28.338H51.0751C50.6125 28.3025 50.2417 27.9007 50.2417 27.4065V13.749C50.2417 12.6611 50.3334 9.95 50.1115 8.91891C49.7677 7.18828 48.7329 6.70118 47.3936 6.70118C46.2745 6.70118 45.1038 7.51361 44.629 8.81314C44.1541 10.1118 44.2 12.2868 44.2 13.749V27.4065C44.2 27.922 43.8029 28.338 43.3093 28.338H38.6913C38.223 28.3025 37.8587 27.9007 37.8587 27.4065L37.8521 13.749C37.8521 10.8744 38.2877 6.64519 35.0032 6.64519C31.6795 6.64519 31.8105 10.7695 31.8105 13.749V27.4065C31.8105 27.922 31.4134 28.338 30.919 28.338ZM116.386 0.247106C123.248 0.247106 126.961 6.64519 126.961 14.7801C126.961 22.6395 122.857 28.8749 116.386 28.8749C109.648 28.8749 105.98 22.4768 105.98 14.5046C105.98 6.48252 109.693 0.247106 116.386 0.247106ZM116.425 5.50832C113.017 5.50832 112.802 10.55 112.802 13.6921C112.802 16.8423 112.757 23.5648 116.386 23.5648C119.97 23.5648 120.138 18.1409 120.138 14.8361C120.138 12.6611 120.054 10.0629 119.449 8.00071C118.929 6.20697 117.895 5.50832 116.425 5.50832ZM135.859 28.338H131.254C130.792 28.3025 130.422 27.9007 130.422 27.4065L130.415 1.63107C130.454 1.1582 130.838 0.791094 131.307 0.791094H135.592C135.783 0.798171 135.967 0.872129 136.115 1.00191C136.264 1.13169 136.371 1.31032 136.418 1.51108V5.45143H136.503C137.797 1.92796 139.612 0.247106 142.805 0.247106C144.88 0.247106 146.903 1.05864 148.204 3.28348C149.413 5.34566 149.413 8.81225 149.413 11.3055V27.5265C149.361 27.978 148.977 28.338 148.522 28.338H143.884C143.462 28.3025 143.111 27.9647 143.065 27.5265V13.5286C143.065 10.7109 143.364 6.58741 140.171 6.58741C139.046 6.58741 138.012 7.40695 137.498 8.64959C136.847 10.2238 136.763 11.7917 136.763 13.5295V27.4047C136.756 27.9203 136.354 28.338 135.859 28.338ZM74.2479 16.0299C74.2479 17.9854 74.2937 19.6173 73.3834 21.3542C72.6482 22.7675 71.4776 23.635 70.1825 23.635C68.4076 23.635 67.3663 22.1666 67.3663 19.9987C67.3663 15.7197 70.8988 14.9428 74.2479 14.9428V16.0299ZM78.9118 28.2678C78.6056 28.5647 78.1635 28.5851 77.8189 28.3878C76.2839 27.0038 76.0039 26.3612 75.1648 25.0403C72.6286 27.8509 70.8267 28.6918 67.5431 28.6918C63.6463 28.6918 60.6222 26.0856 60.6222 20.8671C60.6222 16.7925 62.6525 14.0175 65.5521 12.6611C68.063 11.4611 71.5693 11.2495 74.2479 10.9171V10.2682C74.2479 9.07446 74.333 7.66205 73.683 6.63096C73.1231 5.70654 72.0433 5.32433 71.0879 5.32433C69.3245 5.32433 67.7576 6.30564 67.3736 8.34026C67.2951 8.7918 66.9897 9.23624 66.5673 9.25757L62.086 8.73492C61.7094 8.64336 61.2861 8.31181 61.3967 7.68338C62.4241 1.77952 67.3409 0 71.7379 0C73.9876 0 76.9282 0.648875 78.703 2.4995C80.9535 4.78034 80.739 7.82383 80.739 11.1366V18.9605C80.739 21.3124 81.6363 22.3426 82.4819 23.6137C82.775 24.0661 82.8397 24.6092 82.4623 24.9488C81.2685 26.0445 80.0868 27.1557 78.9175 28.282L78.911 28.2678H78.9118ZM13.6257 16.0299C13.6257 17.9854 13.6707 19.6173 12.7604 21.3542C12.0252 22.7675 10.8611 23.635 9.56025 23.635C7.78541 23.635 6.75063 22.1666 6.75063 19.9996C6.75063 15.7197 10.2823 14.9419 13.6257 14.9419V16.0299ZM18.2887 28.2678C17.9834 28.5647 17.5405 28.586 17.1958 28.3878C15.6609 27.0038 15.3883 26.3612 14.5426 25.0412C12.0064 27.8509 10.2111 28.6918 6.92009 28.6918C3.03148 28.6918 0 26.0856 0 20.8671C0 16.7925 2.03599 14.0175 4.92994 12.6619C7.43994 11.462 10.9462 11.2486 13.6257 10.9171V10.2682C13.6257 9.07446 13.71 7.66205 13.0666 6.63096C12.5 5.70654 11.4211 5.32433 10.4714 5.32433C8.70885 5.32433 7.13458 6.30653 6.75063 8.34026C6.67286 8.7918 6.3675 9.23713 5.9508 9.25846L1.46375 8.7358C1.08636 8.64336 0.66966 8.31181 0.773629 7.68338C1.80923 1.77952 6.7187 0 11.1149 0C13.3654 0 16.3051 0.649763 18.0808 2.50039C20.3313 4.78123 20.116 7.82471 20.116 11.1366V18.9605C20.116 21.3124 21.0141 22.3435 21.8597 23.6146C22.1585 24.0661 22.2232 24.6101 21.8466 24.9488C20.6528 26.0445 19.4712 27.1557 18.3018 28.282L18.2887 28.2678Z" fill="black"/>
</svg>
