<svg width="351" height="53" viewBox="0 0 351 53" fill="none" xmlns="http://www.w3.org/2000/svg">
<path d="M350.4 2.85521C350.661 2.94497 350.8 3.22944 350.71 3.49058L349.248 7.74623C349.158 8.00738 348.874 8.14631 348.612 8.05656C348.351 7.9668 348.212 7.68233 348.302 7.42118L349.602 3.63839L345.819 2.33821C345.558 2.24845 345.419 1.96399 345.509 1.70284C345.599 1.44169 345.883 1.30275 346.144 1.39251L350.4 2.85521ZM0.96216 0.78646C1.8619 1.22826 2.75906 1.66719 3.65365 2.10323L3.21551 3.00213C2.32003 2.56566 1.422 2.12631 0.521397 1.68408L0.96216 0.78646ZM8.99078 4.68491C10.7665 5.53716 12.5321 6.3778 14.288 7.20684L13.861 8.11111C12.1032 7.28115 10.3356 6.43959 8.55808 5.58644L8.99078 4.68491ZM19.6851 9.7327C21.4739 10.5623 23.2527 11.3796 25.0216 12.1846L24.6074 13.0948C22.8363 12.2888 21.0553 11.4705 19.2644 10.6399L19.6851 9.7327ZM30.441 14.6258C32.2492 15.4318 34.0472 16.2247 35.8353 17.0044L35.4356 17.921C33.6449 17.1402 31.8445 16.3463 30.0339 15.5392L30.441 14.6258ZM41.2695 19.3461C43.0962 20.1239 44.9128 20.8876 46.7197 21.6372L46.3364 22.5609C44.5267 21.81 42.7073 21.0451 40.8777 20.2662L41.2695 19.3461ZM52.18 23.872C54.0246 24.6163 55.8591 25.3457 57.6839 26.0602L57.3194 26.9914C55.4912 26.2756 53.6535 25.5449 51.8058 24.7993L52.18 23.872ZM63.1809 28.1782C65.0423 28.8836 66.8939 29.5732 68.736 30.247L68.3925 31.1861C66.5467 30.511 64.6915 29.8201 62.8265 29.1133L63.1809 28.1782ZM74.2783 32.236C76.1555 32.8967 78.0232 33.5406 79.8819 34.1677L79.5622 35.1152C77.6994 34.4867 75.8276 33.8414 73.9463 33.1793L74.2783 32.236ZM85.4764 36.0132C87.3683 36.6229 89.2511 37.2149 91.1254 37.7892L90.8325 38.7453C88.9535 38.1696 87.0661 37.5761 85.1697 36.965L85.4764 36.0132ZM96.7766 39.4745C98.682 40.0269 100.579 40.5607 102.468 41.0758L102.205 42.0406C100.311 41.524 98.4086 40.9888 96.4982 40.4349L96.7766 39.4745ZM108.178 42.5824C110.095 43.0711 112.005 43.5404 113.908 43.9902L113.678 44.9633C111.769 44.5122 109.854 44.0415 107.931 43.5514L108.178 42.5824ZM119.675 45.2983C121.603 45.7172 123.525 46.1159 125.441 46.4942L125.247 47.4752C123.325 47.0957 121.397 46.6958 119.463 46.2756L119.675 45.2983ZM131.261 47.5844C133.202 47.9282 135.138 48.2509 137.069 48.5526L136.914 49.5406C134.977 49.2379 133.034 48.914 131.086 48.5691L131.261 47.5844ZM142.924 49.4047C144.879 49.6683 146.83 49.91 148.778 50.13L148.665 51.1236C146.711 50.9029 144.753 50.6603 142.79 50.3958L142.924 49.4047ZM154.651 50.7281C156.616 50.9064 158.578 51.0622 160.537 51.1957L160.469 52.1934C158.502 52.0594 156.533 51.9029 154.56 51.724L154.651 50.7281ZM166.425 51.5298C168.394 51.619 170.362 51.6856 172.329 51.7295L172.306 52.7293C170.332 52.6852 168.357 52.6184 166.379 52.5287L166.425 51.5298ZM178.229 51.7931C180.197 51.7916 182.164 51.7674 184.132 51.7205L184.156 52.7202C182.18 52.7673 180.205 52.7916 178.23 52.7931L178.229 51.7931ZM190.029 51.5118C191.993 51.4197 193.959 51.305 195.926 51.1677L195.996 52.1653C194.021 52.3031 192.048 52.4183 190.076 52.5107L190.029 51.5118ZM201.803 50.691C203.76 50.5102 205.719 50.3072 207.681 50.0819L207.795 51.0754C205.826 51.3015 203.859 51.5053 201.895 51.6868L201.803 50.691ZM213.533 49.3459C215.475 49.0802 217.422 48.793 219.373 48.4841L219.53 49.4718C217.571 49.7818 215.618 50.0701 213.668 50.3367L213.533 49.3459ZM225.2 47.5002C227.125 47.1549 229.055 46.7888 230.991 46.4019L231.187 47.3825C229.245 47.7707 227.308 48.138 225.377 48.4845L225.2 47.5002ZM236.79 45.1848C238.695 44.766 240.606 44.3273 242.524 43.8688L242.756 44.8414C240.833 45.3013 238.916 45.7413 237.005 46.1614L236.79 45.1848ZM248.275 42.4394C250.163 41.9525 252.058 41.4466 253.961 40.9217L254.227 41.8857C252.319 42.4121 250.418 42.9194 248.524 43.4078L248.275 42.4394ZM259.655 39.3014C261.529 38.7522 263.41 38.1848 265.299 37.5993L265.595 38.5545C263.701 39.1414 261.815 39.7103 259.937 40.261L259.655 39.3014ZM270.936 35.8074C272.793 35.202 274.659 34.5795 276.534 33.9398L276.857 34.8863C274.978 35.5274 273.108 36.1514 271.245 36.7582L270.936 35.8074ZM282.117 31.9942C283.958 31.3391 285.808 30.6677 287.668 29.9801L288.014 30.918C286.151 31.607 284.297 32.2798 282.452 32.9364L282.117 31.9942ZM293.201 27.8969C295.025 27.1979 296.859 26.4837 298.702 25.7542L299.07 26.684C297.223 27.4149 295.386 28.1304 293.559 28.8307L293.201 27.8969ZM304.194 23.5472C306 22.8103 307.817 22.0589 309.643 21.2932L310.029 22.2154C308.2 22.9824 306.381 23.7349 304.571 24.4731L304.194 23.5472ZM315.102 18.9738C316.891 18.2043 318.689 17.4212 320.497 16.6247L320.9 17.5398C319.089 18.3375 317.289 19.1217 315.497 19.8924L315.102 18.9738ZM325.935 14.2019C327.705 13.4047 329.484 12.5948 331.274 11.7723L331.692 12.681C329.9 13.5045 328.118 14.3154 326.346 15.1137L325.935 14.2019ZM336.673 9.26685C338.433 8.44209 340.203 7.60535 341.984 6.75665L342.414 7.65932C340.632 8.50897 338.859 9.34666 337.097 10.1724L336.673 9.26685ZM347.325 4.18911C348.22 3.75529 349.118 3.31852 350.018 2.87879L350.457 3.77734C349.556 4.21751 348.657 4.65474 347.761 5.08901L347.325 4.18911ZM350.4 2.85521C350.661 2.94497 350.8 3.22944 350.71 3.49058L349.248 7.74623C349.158 8.00738 348.874 8.14631 348.612 8.05656C348.351 7.9668 348.212 7.68233 348.302 7.42118L349.602 3.63839L345.819 2.33821C345.558 2.24845 345.419 1.96399 345.509 1.70284C345.599 1.44169 345.883 1.30275 346.144 1.39251L350.4 2.85521ZM0.96216 0.78646C1.8619 1.22826 2.75906 1.66719 3.65365 2.10323L3.21551 3.00213C2.32003 2.56566 1.422 2.12631 0.521397 1.68408L0.96216 0.78646ZM8.99078 4.68491C10.7665 5.53716 12.5321 6.3778 14.288 7.20684L13.861 8.11111C12.1032 7.28115 10.3356 6.43959 8.55808 5.58644L8.99078 4.68491ZM19.6851 9.7327C21.4739 10.5623 23.2527 11.3796 25.0216 12.1846L24.6074 13.0948C22.8363 12.2888 21.0553 11.4705 19.2644 10.6399L19.6851 9.7327ZM30.441 14.6258C32.2492 15.4318 34.0472 16.2247 35.8353 17.0044L35.4356 17.921C33.6449 17.1402 31.8445 16.3463 30.0339 15.5392L30.441 14.6258ZM41.2695 19.3461C43.0962 20.1239 44.9128 20.8876 46.7197 21.6372L46.3364 22.5609C44.5267 21.81 42.7073 21.0451 40.8777 20.2662L41.2695 19.3461ZM52.18 23.872C54.0246 24.6163 55.8591 25.3457 57.6839 26.0602L57.3194 26.9914C55.4912 26.2756 53.6535 25.5449 51.8058 24.7993L52.18 23.872ZM63.1809 28.1782C65.0423 28.8836 66.8939 29.5732 68.736 30.247L68.3925 31.1861C66.5467 30.511 64.6915 29.8201 62.8265 29.1133L63.1809 28.1782ZM74.2783 32.236C76.1555 32.8967 78.0232 33.5406 79.8819 34.1677L79.5622 35.1152C77.6994 34.4867 75.8276 33.8414 73.9463 33.1793L74.2783 32.236ZM85.4764 36.0132C87.3683 36.6229 89.2511 37.2149 91.1254 37.7892L90.8325 38.7453C88.9535 38.1696 87.0661 37.5761 85.1697 36.965L85.4764 36.0132ZM96.7766 39.4745C98.682 40.0269 100.579 40.5607 102.468 41.0758L102.205 42.0406C100.311 41.524 98.4086 40.9888 96.4982 40.4349L96.7766 39.4745ZM108.178 42.5824C110.095 43.0711 112.005 43.5404 113.908 43.9902L113.678 44.9633C111.769 44.5122 109.854 44.0415 107.931 43.5514L108.178 42.5824ZM119.675 45.2983C121.603 45.7172 123.525 46.1159 125.441 46.4942L125.247 47.4752C123.325 47.0957 121.397 46.6958 119.463 46.2756L119.675 45.2983ZM131.261 47.5844C133.202 47.9282 135.138 48.2509 137.069 48.5526L136.914 49.5406C134.977 49.2379 133.034 48.914 131.086 48.5691L131.261 47.5844ZM142.924 49.4047C144.879 49.6683 146.83 49.91 148.778 50.13L148.665 51.1236C146.711 50.9029 144.753 50.6603 142.79 50.3958L142.924 49.4047ZM154.651 50.7281C156.616 50.9064 158.578 51.0622 160.537 51.1957L160.469 52.1934C158.502 52.0594 156.533 51.9029 154.56 51.724L154.651 50.7281ZM166.425 51.5298C168.394 51.619 170.362 51.6856 172.329 51.7295L172.306 52.7293C170.332 52.6852 168.357 52.6184 166.379 52.5287L166.425 51.5298ZM178.229 51.7931C180.197 51.7916 182.164 51.7674 184.132 51.7205L184.156 52.7202C182.18 52.7673 180.205 52.7916 178.23 52.7931L178.229 51.7931ZM190.029 51.5118C191.993 51.4197 193.959 51.305 195.926 51.1677L195.996 52.1653C194.021 52.3031 192.048 52.4183 190.076 52.5107L190.029 51.5118ZM201.803 50.691C203.76 50.5102 205.719 50.3072 207.681 50.0819L207.795 51.0754C205.826 51.3015 203.859 51.5053 201.895 51.6868L201.803 50.691ZM213.533 49.3459C215.475 49.0802 217.422 48.793 219.373 48.4841L219.53 49.4718C217.571 49.7818 215.618 50.0701 213.668 50.3367L213.533 49.3459ZM225.2 47.5002C227.125 47.1549 229.055 46.7888 230.991 46.4019L231.187 47.3825C229.245 47.7707 227.308 48.138 225.377 48.4845L225.2 47.5002ZM236.79 45.1848C238.695 44.766 240.606 44.3273 242.524 43.8688L242.756 44.8414C240.833 45.3013 238.916 45.7413 237.005 46.1614L236.79 45.1848ZM248.275 42.4394C250.163 41.9525 252.058 41.4466 253.961 40.9217L254.227 41.8857C252.319 42.4121 250.418 42.9194 248.524 43.4078L248.275 42.4394ZM259.655 39.3014C261.529 38.7522 263.41 38.1848 265.299 37.5993L265.595 38.5545C263.701 39.1414 261.815 39.7103 259.937 40.261L259.655 39.3014ZM270.936 35.8074C272.793 35.202 274.659 34.5795 276.534 33.9398L276.857 34.8863C274.978 35.5274 273.108 36.1514 271.245 36.7582L270.936 35.8074ZM282.117 31.9942C283.958 31.3391 285.808 30.6677 287.668 29.9801L288.014 30.918C286.151 31.607 284.297 32.2798 282.452 32.9364L282.117 31.9942ZM293.201 27.8969C295.025 27.1979 296.859 26.4837 298.702 25.7542L299.07 26.684C297.223 27.4149 295.386 28.1304 293.559 28.8307L293.201 27.8969ZM304.194 23.5472C306 22.8103 307.817 22.0589 309.643 21.2932L310.029 22.2154C308.2 22.9824 306.381 23.7349 304.571 24.4731L304.194 23.5472ZM315.102 18.9738C316.891 18.2043 318.689 17.4212 320.497 16.6247L320.9 17.5398C319.089 18.3375 317.289 19.1217 315.497 19.8924L315.102 18.9738ZM325.935 14.2019C327.705 13.4047 329.484 12.5948 331.274 11.7723L331.692 12.681C329.9 13.5045 328.118 14.3154 326.346 15.1137L325.935 14.2019ZM336.673 9.26685C338.433 8.44209 340.203 7.60535 341.984 6.75665L342.414 7.65932C340.632 8.50897 338.859 9.34666 337.097 10.1724L336.673 9.26685ZM347.325 4.18911C348.22 3.75529 349.118 3.31852 350.018 2.87879L350.457 3.77734C349.556 4.21751 348.657 4.65474 347.761 5.08901L347.325 4.18911Z" fill="black"/>
</svg>
