<svg width="351" height="53" viewBox="0 0 351 53" fill="none" xmlns="http://www.w3.org/2000/svg">
<path d="M350.4 50.4866C350.661 50.3968 350.8 50.1124 350.71 49.8512L349.248 45.5956C349.158 45.3344 348.874 45.1955 348.612 45.2852C348.351 45.375 348.212 45.6595 348.302 45.9206L349.602 49.7034L345.819 51.0036C345.558 51.0933 345.419 51.3778 345.509 51.639C345.599 51.9001 345.883 52.039 346.144 51.9493L350.4 50.4866ZM0.96216 52.5553C1.8619 52.1135 2.75906 51.6746 3.65365 51.2386L3.21551 50.3397C2.32003 50.7761 1.422 51.2155 0.521397 51.6577L0.96216 52.5553ZM8.99078 48.6569C10.7665 47.8046 12.5321 46.964 14.288 46.135L13.861 45.2307C12.1032 46.0606 10.3356 46.9022 8.55808 47.7554L8.99078 48.6569ZM19.6851 43.6091C21.4739 42.7795 23.2527 41.9622 25.0216 41.1572L24.6074 40.247C22.8363 41.053 21.0553 41.8713 19.2644 42.7019L19.6851 43.6091ZM30.441 38.716C32.2492 37.91 34.0472 37.1171 35.8353 36.3374L35.4356 35.4207C33.6449 36.2016 31.8445 36.9955 30.0339 37.8026L30.441 38.716ZM41.2695 33.9957C43.0962 33.2179 44.9128 32.4542 46.7197 31.7046L46.3364 30.7809C44.5267 31.5318 42.7073 32.2967 40.8777 33.0756L41.2695 33.9957ZM52.18 29.4698C54.0246 28.7255 55.8591 27.9961 57.6839 27.2816L57.3194 26.3504C55.4912 27.0662 53.6535 27.7969 51.8058 28.5425L52.18 29.4698ZM63.1809 25.1636C65.0423 24.4581 66.8939 23.7686 68.736 23.0948L68.3925 22.1557C66.5467 22.8308 64.6915 23.5217 62.8265 24.2285L63.1809 25.1636ZM74.2783 21.1058C76.1555 20.4451 78.0232 19.8012 79.8819 19.1741L79.5622 18.2266C77.6994 18.8551 75.8276 19.5004 73.9463 20.1625L74.2783 21.1058ZM85.4764 17.3286C87.3683 16.7189 89.2511 16.1269 91.1254 15.5526L90.8325 14.5965C88.9535 15.1722 87.0661 15.7657 85.1697 16.3768L85.4764 17.3286ZM96.7766 13.8673C98.682 13.3149 100.579 12.7811 102.468 12.266L102.205 11.3012C100.311 11.8178 98.4086 12.353 96.4982 12.9069L96.7766 13.8673ZM108.178 10.7594C110.095 10.2707 112.005 9.80142 113.908 9.35164L113.678 8.37846C111.769 8.8296 109.854 9.30025 107.931 9.79042L108.178 10.7594ZM119.675 8.04345C121.603 7.62455 123.525 7.22595 125.441 6.84763L125.247 5.86658C123.325 6.24613 121.397 6.64602 119.463 7.06624L119.675 8.04345ZM131.26 5.75743C133.202 5.4136 135.138 5.09086 137.069 4.78921L136.914 3.8012C134.977 4.1039 133.034 4.42775 131.086 4.77275L131.26 5.75743ZM142.924 3.93707C144.879 3.67349 146.83 3.43175 148.778 3.21183L148.665 2.21815C146.711 2.43888 144.753 2.6815 142.79 2.94603L142.924 3.93707ZM154.651 2.61367C156.616 2.43543 158.578 2.27958 160.537 2.14611L160.469 1.14842C158.502 1.28241 156.533 1.43885 154.56 1.61776L154.651 2.61367ZM166.425 1.81203C168.394 1.72276 170.362 1.65618 172.329 1.61228L172.306 0.612533C170.332 0.656597 168.357 0.723436 166.379 0.813057L166.425 1.81203ZM178.229 1.54866C180.197 1.55015 182.164 1.57438 184.132 1.62134L184.156 0.621625C182.18 0.574484 180.205 0.550159 178.23 0.548658L178.229 1.54866ZM190.029 1.82998C191.993 1.92208 193.959 2.03678 195.926 2.17408L195.996 1.17651C194.021 1.03868 192.048 0.923531 190.076 0.831073L190.029 1.82998ZM201.803 2.65077C203.76 2.83157 205.719 3.03461 207.681 3.25987L207.795 2.2664C205.826 2.0403 203.859 1.8365 201.895 1.65502L201.803 2.65077ZM213.533 3.99592C215.475 4.26156 217.422 4.54881 219.373 4.85767L219.53 3.86997C217.571 3.56002 215.618 3.27174 213.668 3.00514L213.533 3.99592ZM225.2 5.84159C227.125 6.18688 229.055 6.55298 230.991 6.93988L231.187 5.95928C229.245 5.57109 227.308 5.20376 225.377 4.8573L225.2 5.84159ZM236.79 8.15703C238.695 8.57581 240.606 9.01447 242.524 9.47302L242.756 8.50044C240.833 8.04049 238.916 7.60046 237.005 7.18035L236.79 8.15703ZM248.275 10.9024C250.163 11.3893 252.058 11.8952 253.961 12.4201L254.227 11.4561C252.319 10.9297 250.418 10.4224 248.524 9.93403L248.275 10.9024ZM259.655 14.0403C261.528 14.5896 263.41 15.157 265.299 15.7425L265.595 14.7873C263.701 14.2004 261.815 13.6315 259.937 13.0807L259.655 14.0403ZM270.936 17.5344C272.793 18.1398 274.659 18.7623 276.534 19.402L276.857 18.4555C274.978 17.8144 273.108 17.1904 271.245 16.5836L270.936 17.5344ZM282.117 21.3476C283.958 22.0027 285.808 22.6741 287.668 23.3617L288.014 22.4238C286.151 21.7348 284.297 21.062 282.452 20.4054L282.117 21.3476ZM293.201 25.4449C295.025 26.1439 296.859 26.8581 298.702 27.5876L299.07 26.6578C297.223 25.9269 295.386 25.2114 293.559 24.5111L293.201 25.4449ZM304.194 29.7946C306 30.5315 307.817 31.2829 309.643 32.0486L310.029 31.1263C308.2 30.3594 306.381 29.6069 304.571 28.8687L304.194 29.7946ZM315.102 34.368C316.891 35.1375 318.689 35.9206 320.497 36.7171L320.9 35.802C319.089 35.0043 317.289 34.2201 315.497 33.4494L315.102 34.368ZM325.935 39.1399C327.705 39.9371 329.484 40.7469 331.274 41.5695L331.692 40.6608C329.9 39.8373 328.118 39.0264 326.346 38.2281L325.935 39.1399ZM336.673 44.0749C338.433 44.8997 340.203 45.7364 341.984 46.5851L342.414 45.6825C340.632 44.8328 338.859 43.9951 337.097 43.1694L336.673 44.0749ZM347.325 49.1527C348.22 49.5865 349.118 50.0233 350.018 50.463L350.457 49.5645C349.556 49.1243 348.657 48.6871 347.761 48.2528L347.325 49.1527ZM350.4 50.4866C350.661 50.3968 350.8 50.1124 350.71 49.8512L349.248 45.5956C349.158 45.3344 348.874 45.1955 348.612 45.2852C348.351 45.375 348.212 45.6595 348.302 45.9206L349.602 49.7034L345.819 51.0036C345.558 51.0933 345.419 51.3778 345.509 51.639C345.599 51.9001 345.883 52.039 346.144 51.9493L350.4 50.4866ZM0.96216 52.5553C1.8619 52.1135 2.75906 51.6746 3.65365 51.2386L3.21551 50.3397C2.32003 50.7761 1.422 51.2155 0.521397 51.6577L0.96216 52.5553ZM8.99078 48.6569C10.7665 47.8046 12.5321 46.964 14.288 46.135L13.861 45.2307C12.1032 46.0606 10.3356 46.9022 8.55808 47.7554L8.99078 48.6569ZM19.6851 43.6091C21.4739 42.7795 23.2527 41.9622 25.0216 41.1572L24.6074 40.247C22.8363 41.053 21.0553 41.8713 19.2644 42.7019L19.6851 43.6091ZM30.441 38.716C32.2492 37.91 34.0472 37.1171 35.8353 36.3374L35.4356 35.4207C33.6449 36.2016 31.8445 36.9955 30.0339 37.8026L30.441 38.716ZM41.2695 33.9957C43.0962 33.2179 44.9128 32.4542 46.7197 31.7046L46.3364 30.7809C44.5267 31.5318 42.7073 32.2967 40.8777 33.0756L41.2695 33.9957ZM52.18 29.4698C54.0246 28.7255 55.8591 27.9961 57.6839 27.2816L57.3194 26.3504C55.4912 27.0662 53.6535 27.7969 51.8058 28.5425L52.18 29.4698ZM63.1809 25.1636C65.0423 24.4581 66.8939 23.7686 68.736 23.0948L68.3925 22.1557C66.5467 22.8308 64.6915 23.5217 62.8265 24.2285L63.1809 25.1636ZM74.2783 21.1058C76.1555 20.4451 78.0232 19.8012 79.8819 19.1741L79.5622 18.2266C77.6994 18.8551 75.8276 19.5004 73.9463 20.1625L74.2783 21.1058ZM85.4764 17.3286C87.3683 16.7189 89.2511 16.1269 91.1254 15.5526L90.8325 14.5965C88.9535 15.1722 87.0661 15.7657 85.1697 16.3768L85.4764 17.3286ZM96.7766 13.8673C98.682 13.3149 100.579 12.7811 102.468 12.266L102.205 11.3012C100.311 11.8178 98.4086 12.353 96.4982 12.9069L96.7766 13.8673ZM108.178 10.7594C110.095 10.2707 112.005 9.80142 113.908 9.35164L113.678 8.37846C111.769 8.8296 109.854 9.30025 107.931 9.79042L108.178 10.7594ZM119.675 8.04345C121.603 7.62455 123.525 7.22595 125.441 6.84763L125.247 5.86658C123.325 6.24613 121.397 6.64602 119.463 7.06624L119.675 8.04345ZM131.26 5.75743C133.202 5.4136 135.138 5.09086 137.069 4.78921L136.914 3.8012C134.977 4.1039 133.034 4.42775 131.086 4.77275L131.26 5.75743ZM142.924 3.93707C144.879 3.67349 146.83 3.43175 148.778 3.21183L148.665 2.21815C146.711 2.43888 144.753 2.6815 142.79 2.94603L142.924 3.93707ZM154.651 2.61367C156.616 2.43543 158.578 2.27958 160.537 2.14611L160.469 1.14842C158.502 1.28241 156.533 1.43885 154.56 1.61776L154.651 2.61367ZM166.425 1.81203C168.394 1.72276 170.362 1.65618 172.329 1.61228L172.306 0.612533C170.332 0.656597 168.357 0.723436 166.379 0.813057L166.425 1.81203ZM178.229 1.54866C180.197 1.55015 182.164 1.57438 184.132 1.62134L184.156 0.621625C182.18 0.574484 180.205 0.550159 178.23 0.548658L178.229 1.54866ZM190.029 1.82998C191.993 1.92208 193.959 2.03678 195.926 2.17408L195.996 1.17651C194.021 1.03868 192.048 0.923531 190.076 0.831073L190.029 1.82998ZM201.803 2.65077C203.76 2.83157 205.719 3.03461 207.681 3.25987L207.795 2.2664C205.826 2.0403 203.859 1.8365 201.895 1.65502L201.803 2.65077ZM213.533 3.99592C215.475 4.26156 217.422 4.54881 219.373 4.85767L219.53 3.86997C217.571 3.56002 215.618 3.27174 213.668 3.00514L213.533 3.99592ZM225.2 5.84159C227.125 6.18688 229.055 6.55298 230.991 6.93988L231.187 5.95928C229.245 5.57109 227.308 5.20376 225.377 4.8573L225.2 5.84159ZM236.79 8.15703C238.695 8.57581 240.606 9.01447 242.524 9.47302L242.756 8.50044C240.833 8.04049 238.916 7.60046 237.005 7.18035L236.79 8.15703ZM248.275 10.9024C250.163 11.3893 252.058 11.8952 253.961 12.4201L254.227 11.4561C252.319 10.9297 250.418 10.4224 248.524 9.93403L248.275 10.9024ZM259.655 14.0403C261.528 14.5896 263.41 15.157 265.299 15.7425L265.595 14.7873C263.701 14.2004 261.815 13.6315 259.937 13.0807L259.655 14.0403ZM270.936 17.5344C272.793 18.1398 274.659 18.7623 276.534 19.402L276.857 18.4555C274.978 17.8144 273.108 17.1904 271.245 16.5836L270.936 17.5344ZM282.117 21.3476C283.958 22.0027 285.808 22.6741 287.668 23.3617L288.014 22.4238C286.151 21.7348 284.297 21.062 282.452 20.4054L282.117 21.3476ZM293.201 25.4449C295.025 26.1439 296.859 26.8581 298.702 27.5876L299.07 26.6578C297.223 25.9269 295.386 25.2114 293.559 24.5111L293.201 25.4449ZM304.194 29.7946C306 30.5315 307.817 31.2829 309.643 32.0486L310.029 31.1263C308.2 30.3594 306.381 29.6069 304.571 28.8687L304.194 29.7946ZM315.102 34.368C316.891 35.1375 318.689 35.9206 320.497 36.7171L320.9 35.802C319.089 35.0043 317.289 34.2201 315.497 33.4494L315.102 34.368ZM325.935 39.1399C327.705 39.9371 329.484 40.7469 331.274 41.5695L331.692 40.6608C329.9 39.8373 328.118 39.0264 326.346 38.2281L325.935 39.1399ZM336.673 44.0749C338.433 44.8997 340.203 45.7364 341.984 46.5851L342.414 45.6825C340.632 44.8328 338.859 43.9951 337.097 43.1694L336.673 44.0749ZM347.325 49.1527C348.22 49.5865 349.118 50.0233 350.018 50.463L350.457 49.5645C349.556 49.1243 348.657 48.6871 347.761 48.2528L347.325 49.1527Z" fill="black"/>
</svg>
