<svg width="73" height="78" viewBox="0 0 73 78" fill="none" xmlns="http://www.w3.org/2000/svg">
<g filter="url(#filter0_b_217_13)">
<path d="M37.3417 5.8824L16.1169 12.6943C8.38228 15.1767 5.17412 21.8316 7.24641 31.095L12.9276 56.4909C14.9999 65.7543 20.5563 69.5963 28.2909 67.1139L49.5157 60.302C57.2503 57.8197 60.4383 51.1712 58.366 41.9078L52.6848 16.512C50.6125 7.24854 45.0763 3.40004 37.3417 5.8824Z" fill="url(#paint0_linear_217_13)"/>
</g>
<g opacity="0.5" filter="url(#filter1_f_217_13)">
<path d="M47.7999 39.1639L43.9456 21.6763C42.5475 15.333 39.0484 12.4888 34.4476 13.9436L18.8651 18.8708C14.1889 20.3495 12.3781 24.8727 13.7762 31.2159L17.6305 48.7036C19.0511 55.149 22.4669 57.908 27.1431 56.4294L42.7256 51.5022C47.3265 50.0474 49.2205 45.6094 47.7999 39.1639Z" fill="#FF624D"/>
</g>
<g filter="url(#filter2_b_217_13)">
<mask id="path-3-outside-1_217_13" maskUnits="userSpaceOnUse" x="20.279" y="16.8628" width="50" height="59" fill="black">
<rect fill="white" x="20.279" y="16.8628" width="50" height="59"/>
<path d="M55.7936 17.8628H33.8222C25.8155 17.8628 21.279 23.2964 21.279 32.8867V59.1783C21.279 68.7686 25.8155 74.2022 33.8222 74.2022H55.7936C63.8003 74.2022 68.3159 68.7686 68.3159 59.1783V32.8867C68.3159 23.2964 63.8003 17.8628 55.7936 17.8628"/>
</mask>
<path d="M55.7936 17.8628H33.8222C25.8155 17.8628 21.279 23.2964 21.279 32.8867V59.1783C21.279 68.7686 25.8155 74.2022 33.8222 74.2022H55.7936C63.8003 74.2022 68.3159 68.7686 68.3159 59.1783V32.8867C68.3159 23.2964 63.8003 17.8628 55.7936 17.8628" fill="#FFAC95" fill-opacity="0.4"/>
<path d="M55.7936 18.8628C56.3459 18.8628 56.7936 18.4151 56.7936 17.8628C56.7936 17.3105 56.3459 16.8628 55.7936 16.8628V18.8628ZM55.7936 16.8628C55.2413 16.8628 54.7936 17.3105 54.7936 17.8628C54.7936 18.4151 55.2413 18.8628 55.7936 18.8628V16.8628ZM55.7936 16.8628H33.8222V18.8628H55.7936V16.8628ZM33.8222 16.8628C29.5769 16.8628 26.1378 18.314 23.7804 21.1375C21.4455 23.9343 20.279 27.9491 20.279 32.8867H22.279C22.279 28.234 23.3808 24.7369 25.3157 22.4193C27.2283 20.1285 30.0607 18.8628 33.8222 18.8628V16.8628ZM20.279 32.8867V59.1783H22.279V32.8867H20.279ZM20.279 59.1783C20.279 64.1159 21.4455 68.1307 23.7804 70.9275C26.1378 73.751 29.5769 75.2022 33.8222 75.2022V73.2022C30.0607 73.2022 27.2283 71.9365 25.3157 69.6457C23.3808 67.3281 22.279 63.831 22.279 59.1783H20.279ZM33.8222 75.2022H55.7936V73.2022H33.8222V75.2022ZM55.7936 75.2022C60.039 75.2022 63.4735 73.7509 65.8257 70.9265C68.1551 68.1296 69.3159 64.1149 69.3159 59.1783H67.3159C67.3159 63.832 66.2189 67.3292 64.2889 69.6466C62.3816 71.9367 59.5549 73.2022 55.7936 73.2022V75.2022ZM69.3159 59.1783V32.8867H67.3159V59.1783H69.3159ZM69.3159 32.8867C69.3159 27.9501 68.1551 23.9354 65.8257 21.1384C63.4735 18.3141 60.039 16.8628 55.7936 16.8628V18.8628C59.5549 18.8628 62.3816 20.1283 64.2889 22.4184C66.2189 24.7358 67.3159 28.233 67.3159 32.8867H69.3159Z" fill="url(#paint1_linear_217_13)" mask="url(#path-3-outside-1_217_13)"/>
</g>
<g filter="url(#filter3_bd_217_13)">
<mask id="path-5-inside-2_217_13" fill="white">
<path fill-rule="evenodd" clip-rule="evenodd" d="M44.8806 29.3815C43.8144 29.3815 42.9364 30.4332 42.9364 31.7352V60.3306C42.9364 61.6076 43.8144 62.6593 44.8806 62.6593C45.9676 62.6593 46.8457 61.6076 46.8457 60.3306V31.7352C46.8457 30.4332 45.9676 29.3815 44.8806 29.3815ZM33.9054 38.622C32.8392 38.622 31.9612 39.6736 31.9612 40.9757V60.3314C31.9612 61.6084 32.8392 62.6601 33.9054 62.6601C34.9924 62.6601 35.8705 61.6084 35.8705 60.3314V40.9757C35.8705 39.6736 34.9924 38.622 33.9054 38.622ZM53.7447 51.1917C53.7447 49.8897 54.6227 48.838 55.7098 48.838C56.776 48.838 57.654 49.8897 57.654 51.1917V60.3312C57.654 61.6083 56.776 62.6599 55.6889 62.6599C54.6227 62.6599 53.7447 61.6083 53.7447 60.3312V51.1917Z"/>
</mask>
<path fill-rule="evenodd" clip-rule="evenodd" d="M44.8806 29.3815C43.8144 29.3815 42.9364 30.4332 42.9364 31.7352V60.3306C42.9364 61.6076 43.8144 62.6593 44.8806 62.6593C45.9676 62.6593 46.8457 61.6076 46.8457 60.3306V31.7352C46.8457 30.4332 45.9676 29.3815 44.8806 29.3815ZM33.9054 38.622C32.8392 38.622 31.9612 39.6736 31.9612 40.9757V60.3314C31.9612 61.6084 32.8392 62.6601 33.9054 62.6601C34.9924 62.6601 35.8705 61.6084 35.8705 60.3314V40.9757C35.8705 39.6736 34.9924 38.622 33.9054 38.622ZM53.7447 51.1917C53.7447 49.8897 54.6227 48.838 55.7098 48.838C56.776 48.838 57.654 49.8897 57.654 51.1917V60.3312C57.654 61.6083 56.776 62.6599 55.6889 62.6599C54.6227 62.6599 53.7447 61.6083 53.7447 60.3312V51.1917Z" fill="url(#paint2_linear_217_13)"/>
<path d="M43.3364 31.7352C43.3364 30.5805 44.1023 29.7815 44.8806 29.7815V28.9815C43.5264 28.9815 42.5364 30.2858 42.5364 31.7352H43.3364ZM43.3364 60.3306V31.7352H42.5364V60.3306H43.3364ZM44.8806 62.2593C44.0999 62.2593 43.3364 61.4573 43.3364 60.3306H42.5364C42.5364 61.7579 43.5289 63.0593 44.8806 63.0593V62.2593ZM46.4457 60.3306C46.4457 61.4543 45.6846 62.2593 44.8806 62.2593V63.0593C46.2506 63.0593 47.2457 61.7608 47.2457 60.3306H46.4457ZM46.4457 31.7352V60.3306H47.2457V31.7352H46.4457ZM44.8806 29.7815C45.6822 29.7815 46.4457 30.5834 46.4457 31.7352H47.2457C47.2457 30.2829 46.2531 28.9815 44.8806 28.9815V29.7815ZM32.3612 40.9757C32.3612 39.8209 33.1272 39.022 33.9054 39.022V38.222C32.5513 38.222 31.5612 39.5263 31.5612 40.9757H32.3612ZM32.3612 60.3314V40.9757H31.5612V60.3314H32.3612ZM33.9054 62.2601C33.1247 62.2601 32.3612 61.4581 32.3612 60.3314H31.5612C31.5612 61.7587 32.5537 63.0601 33.9054 63.0601V62.2601ZM35.4705 60.3314C35.4705 61.4552 34.7095 62.2601 33.9054 62.2601V63.0601C35.2754 63.0601 36.2705 61.7617 36.2705 60.3314H35.4705ZM35.4705 40.9757V60.3314H36.2705V40.9757H35.4705ZM33.9054 39.022C34.707 39.022 35.4705 39.8239 35.4705 40.9757H36.2705C36.2705 39.5234 35.2779 38.222 33.9054 38.222V39.022ZM55.7098 48.438C54.3372 48.438 53.3447 49.7394 53.3447 51.1917H54.1447C54.1447 50.04 54.9082 49.238 55.7098 49.238V48.438ZM58.054 51.1917C58.054 49.7424 57.0639 48.438 55.7098 48.438V49.238C56.488 49.238 57.254 50.037 57.254 51.1917H58.054ZM58.054 60.3312V51.1917H57.254V60.3312H58.054ZM55.6889 63.0599C57.0589 63.0599 58.054 61.7615 58.054 60.3312H57.254C57.254 61.455 56.493 62.2599 55.6889 62.2599V63.0599ZM53.3447 60.3312C53.3447 61.7585 54.3372 63.0599 55.6889 63.0599V62.2599C54.9082 62.2599 54.1447 61.458 54.1447 60.3312H53.3447ZM53.3447 51.1917V60.3312H54.1447V51.1917H53.3447Z" fill="url(#paint3_linear_217_13)" mask="url(#path-5-inside-2_217_13)"/>
</g>
<defs>
<filter id="filter0_b_217_13" x="-6.36935" y="-7.85466" width="78.3532" height="88.7063" filterUnits="userSpaceOnUse" color-interpolation-filters="sRGB">
<feFlood flood-opacity="0" result="BackgroundImageFix"/>
<feGaussianBlur in="BackgroundImageFix" stdDeviation="6.5"/>
<feComposite in2="SourceAlpha" operator="in" result="effect1_backgroundBlur_217_13"/>
<feBlend mode="normal" in="SourceGraphic" in2="effect1_backgroundBlur_217_13" result="shape"/>
</filter>
<filter id="filter1_f_217_13" x="0.315735" y="0.570412" width="60.947" height="69.2489" filterUnits="userSpaceOnUse" color-interpolation-filters="sRGB">
<feFlood flood-opacity="0" result="BackgroundImageFix"/>
<feBlend mode="normal" in="SourceGraphic" in2="BackgroundImageFix" result="shape"/>
<feGaussianBlur stdDeviation="6.5" result="effect1_foregroundBlur_217_13"/>
</filter>
<filter id="filter2_b_217_13" x="5.27902" y="1.86282" width="79.0369" height="88.3394" filterUnits="userSpaceOnUse" color-interpolation-filters="sRGB">
<feFlood flood-opacity="0" result="BackgroundImageFix"/>
<feGaussianBlur in="BackgroundImageFix" stdDeviation="7.5"/>
<feComposite in2="SourceAlpha" operator="in" result="effect1_backgroundBlur_217_13"/>
<feBlend mode="normal" in="SourceGraphic" in2="effect1_backgroundBlur_217_13" result="shape"/>
</filter>
<filter id="filter3_bd_217_13" x="16.9612" y="14.3815" width="55.6928" height="63.2786" filterUnits="userSpaceOnUse" color-interpolation-filters="sRGB">
<feFlood flood-opacity="0" result="BackgroundImageFix"/>
<feGaussianBlur in="BackgroundImageFix" stdDeviation="7.5"/>
<feComposite in2="SourceAlpha" operator="in" result="effect1_backgroundBlur_217_13"/>
<feColorMatrix in="SourceAlpha" type="matrix" values="0 0 0 0 0 0 0 0 0 0 0 0 0 0 0 0 0 0 127 0" result="hardAlpha"/>
<feOffset dx="5" dy="5"/>
<feGaussianBlur stdDeviation="5"/>
<feColorMatrix type="matrix" values="0 0 0 0 1 0 0 0 0 0.447059 0 0 0 0 0.368627 0 0 0 0.5 0"/>
<feBlend mode="normal" in2="effect1_backgroundBlur_217_13" result="effect2_dropShadow_217_13"/>
<feBlend mode="normal" in="SourceGraphic" in2="effect2_dropShadow_217_13" result="shape"/>
</filter>
<linearGradient id="paint0_linear_217_13" x1="36.9666" y1="39.072" x2="-2.94679" y2="67.9701" gradientUnits="userSpaceOnUse">
<stop stop-color="#FFA78F"/>
<stop offset="1" stop-color="#F23E2C"/>
</linearGradient>
<linearGradient id="paint1_linear_217_13" x1="28.7665" y1="24.4264" x2="65.5099" y2="62.42" gradientUnits="userSpaceOnUse">
<stop stop-color="white" stop-opacity="0.25"/>
<stop offset="1" stop-color="white" stop-opacity="0"/>
</linearGradient>
<linearGradient id="paint2_linear_217_13" x1="25.3106" y1="54.0815" x2="41.2505" y2="81.4207" gradientUnits="userSpaceOnUse">
<stop stop-color="white"/>
<stop offset="1" stop-color="white" stop-opacity="0.2"/>
</linearGradient>
<linearGradient id="paint3_linear_217_13" x1="36.0511" y1="33.2585" x2="57.7451" y2="54.0024" gradientUnits="userSpaceOnUse">
<stop stop-color="white" stop-opacity="0.25"/>
<stop offset="1" stop-color="white" stop-opacity="0"/>
</linearGradient>
</defs>
</svg>
