<svg width="276" height="456" viewBox="0 0 276 456" fill="none" xmlns="http://www.w3.org/2000/svg">
<path d="M110.123 162.133C108.477 166.885 99.7326 177.715 85.8507 182.474L40.9313 192.238C40.9313 191.192 40.8931 190.153 40.8396 189.117C36.2977 191.142 29.3376 189.881 27.0876 190.263L40.7709 188.147C40.1138 178.486 37.3978 169.261 37.0235 159.784C36.9738 158.519 80.3079 149.733 85.251 147.674C87.4436 146.761 93.7008 132.108 97.3642 122.038L82.5884 113.21L88.3948 102.545L70.8228 91.4667C67.973 89.3249 65.2558 87.0121 62.6862 84.5411L53.4074 86.5695C53.3769 86.5695 51.3332 86.7414 51.0849 86.7414C47.9258 86.7414 47.1159 84.2851 46.5926 81.5118L41.3592 43.6938C40.6754 36.8178 39.3766 33.8497 45.8324 33.1888L64.3708 30.1672C68.4544 29.6706 69.3598 35.0071 69.3368 35.0109L72.6602 56.0668C77.0914 55.765 84.0858 58.2824 85.5947 62.8931C87.2335 67.9126 87.5047 70.3498 87.5047 75.7398L98.514 84.0139L99.278 82.6081L105.119 86.4281C110.188 65.697 124.314 77.2067 129.399 81.8441C127.901 75.7321 125.888 68.3099 125.888 65.8001C125.888 65.464 110.677 61.7968 110.845 53.0375C111.128 38.2006 115.769 27.3289 121.659 21.4461C116.281 17.1257 112.533 12.2781 113.515 7.38471C116.189 -5.88979 140.056 6.18141 147.334 18.5009C149.694 22.4928 150.943 33.3989 146.803 35.9048C147.154 38.422 147.357 40.9578 147.41 43.499C147.62 51.3032 148.174 61.8082 149.053 66.5145C157.724 61.1665 170.926 63.9513 181.488 83.3836C178.872 78.9027 211.819 52.7166 234.246 92.6586C234.838 93.7205 239.415 100.822 245.106 109.623C254.928 124.812 268.08 145.069 269.875 148.148C280.468 166.297 272.588 176.187 259.015 176.488L218.107 177.401C222.133 188.919 224.83 197.766 224.761 200.68L219.371 200.745C222.007 210.964 221.663 220.705 219.933 229.457C217.236 242.976 211.147 254.126 207.369 261.029L207.437 261.075H207.342C206.834 262.003 206.364 262.855 205.955 263.623L205.929 264.07L207.437 261.075L248.457 379.743C251.188 385.653 263.76 402.09 265.398 407.526C269.6 406.407 272.584 417.336 267.415 418.386C259.512 419.998 265.005 416.327 262.98 422.798C262.281 425.037 252.109 423.975 252.815 424.12C256.402 434.48 242.501 430.083 242.784 431.061C246.142 443.285 230.659 435.183 231.882 437.742C235.041 444.351 226.843 444.973 225.09 444.236C217.771 441.214 223.111 446.028 220.158 447.529C209.775 452.8 206.387 444.878 206.146 444.821C204.859 451.104 190.251 447.957 194.029 438.25C190.465 417.393 211.261 419.074 212.43 417.729C215.54 414.154 218.848 404.714 215.631 394.943L217.324 394.179L180.652 314.18L182.695 310.158H182.585L136.909 401.204C137.333 401.708 137.581 402.579 136.145 404.68C131.97 416.591 131.809 429.533 128.367 434.476C129.513 435.557 128.493 445.172 126.965 445.501C121.377 446.723 120.04 438.563 118.489 443.338C117.629 445.982 113.221 443.514 111.995 442.475C108.087 439.186 109.844 437.54 107.747 439.369C102.089 444.305 98.3803 435.389 98.323 435.366C94.6596 437.406 97.517 438.311 91.0039 437.123C85.2739 436.077 83.6542 431.061 83.3257 431.496C80.8579 434.743 75.1318 433.609 73.493 430.732C71.3041 426.859 72.645 428.158 71.7129 428.524C67.8929 430.026 67.5109 429.812 63.8666 427.703C62.0979 426.683 61.1277 423.772 61.0283 423.738C60.5088 425.17 56.7538 425.499 55.4893 425.182C54.05 424.834 52.7714 424.008 51.8629 422.838C50.9545 421.669 50.47 420.226 50.489 418.745L51.6961 414.593C50.6838 413.447 60.9023 394.954 79.5018 399.313C97.8684 403.622 99.7096 393.984 102.769 391.921L119.31 340.233L154.248 231C150.462 230.958 146.682 230.671 142.933 230.14C142.91 234.724 142.887 239.228 142.887 243.51V230.14C139.341 229.669 135.873 228.731 132.573 227.352L142.887 227.6V209.111C139.327 209.207 135.713 209.264 132.012 209.264L142.887 208.966V201.67L123.099 201.907C123.077 201.907 111.838 157.805 106.311 127.386L102.651 125.201L110.123 162.133ZM73.2562 59.8066L73.4433 60.9984C74.2387 62.1741 75.1333 63.2796 76.1173 64.3027C76.591 64.7802 77.1564 65.7505 77.8669 65.995C77.6377 65.7428 75.128 62.4767 73.2562 59.8066ZM205.929 263.665C205.669 264.154 205.428 264.612 205.218 265.032L195.668 284.102H195.844L205.94 264.077C205.925 263.936 205.929 263.802 205.929 263.665ZM194.087 438.369C194.61 438.999 196.401 439.232 198.579 439.274C196.161 439.018 194.48 438.651 194.106 438.369H194.087ZM183.096 309.31L195.488 284.732H195.313L182.982 309.306L183.096 309.31ZM142.937 208.958L157.831 208.546C152.941 208.752 148.006 208.958 142.956 209.092C143.002 215.067 142.979 221.358 142.956 227.585L155.252 227.879L155.657 226.618L174.291 218.321L174.818 208.08C175.013 208.049 175.097 211.869 175.078 217.97L197.383 208.038C193.674 207.866 190.041 207.782 186.458 207.763L198.758 207.427L213.656 200.791L142.86 201.67C142.906 204.012 142.937 206.456 142.956 208.958H142.937Z" fill="white"/>
<path d="M15.3679 204.955L13.7559 195.405L20.4714 195.638L26.5606 191.474L33.6658 191.066L34.2922 201.38C32.9934 206.055 19.249 207.4 15.3679 204.955Z" fill="white"/>
<path d="M32.2829 142.617L33.8109 149.202L37.2107 154.321L33.3907 154.852L33.3258 164.161C34.1891 163.94 35.4077 163.665 37.2756 163.336L29.7121 170.728L24.4672 180.305C25.1013 181.451 25.1395 182.96 24.3717 184.56C24.1196 185.084 27.6951 187.379 26.2817 190.447C25.6514 191.807 24.4099 192.105 20.1697 194.336C16.6362 196.204 7.44141 194.928 7.8387 189.339C7.92274 188.132 7.36501 187.288 6.69269 186.382C6.38359 186.079 6.11982 185.733 5.90957 185.355V185.355C4.99241 184.132 4.49046 182.647 4.47707 181.118C4.47419 179.571 4.21606 178.036 3.71307 176.573C3.59433 176.265 3.50232 175.948 3.43804 175.625C3.33108 175.243 3.22413 174.838 3.11717 174.357C2.31497 170.801 4.69481 168.318 8.29708 166.717L6.76908 158.546L2.21948 159.176L4.10272 152.873L3.86206 146.349L32.2829 142.617ZM22.2325 178.57C22.9816 178.783 23.648 179.218 24.1425 179.82C23.9375 179.482 23.6595 179.195 23.329 178.979C22.9985 178.762 22.6239 178.623 22.2325 178.57V178.57Z" fill="white"/>
<path d="M74.8779 105.277C75.044 105.144 75.2224 105.028 75.4106 104.928L74.8779 105.277Z" fill="white"/>
<path d="M54.202 118.822L46.9058 123.597C47.7844 120.01 48.5102 116.366 54.202 118.822Z" fill="white"/>
<path d="M39.5446 128.41L46.8943 123.597C46.0501 127 45.0339 130.354 39.5446 128.41Z" fill="white"/>
<path d="M186.45 207.782L174.811 208.099L157.831 208.546C167.358 208.164 176.721 207.721 186.45 207.782Z" fill="white"/>
<path d="M241.241 103.618C245.061 102.805 244.564 101.678 246.791 104.802C249.847 109.089 254.905 118.207 254.905 118.207C254.744 118.971 252.112 118.623 251.329 119.219L241.241 103.618Z" fill="white"/>
<path d="M32.8863 141.746L34.5557 148.885L38.5705 154.929L34.1737 155.536L34.1202 163.176C34.7429 163.035 35.5031 162.874 36.4428 162.702C36.3626 161.751 36.2938 160.792 36.2556 159.841C36.2136 158.764 36.206 158.508 61.8496 152.667C72.133 150.322 82.7641 147.9 84.9759 146.979C85.885 146.597 88.8226 141.394 93.1239 130.905C94.3234 127.982 95.4617 125.045 96.432 122.405L97.1196 122.814L97.7996 123.223L101.937 125.694L102.846 126.236L103.755 126.779L110.891 161.976L110.933 162.187L110.864 162.389C109.172 167.271 100.168 178.395 86.1028 183.216L40.1482 193.213V192.238C40.1482 191.57 40.1482 190.901 40.11 190.233C38.2735 190.78 36.3688 191.064 34.4526 191.077L35.079 201.483L35.0447 201.609C34.6168 203.137 33.0965 204.459 30.6517 205.41C27.7666 206.441 24.7231 206.958 21.6594 206.938C18.8708 206.938 16.3572 206.506 14.9553 205.628L14.6573 205.44L12.9842 195.558C11.8199 195.306 10.7082 194.854 9.69898 194.221C7.83864 193.01 6.9333 191.303 7.07464 189.289C7.13958 188.376 6.72319 187.723 6.10817 186.913C5.76063 186.563 5.46366 186.166 5.22578 185.733C4.25063 184.402 3.71634 182.799 3.69778 181.149C3.7109 179.685 3.47979 178.228 3.01398 176.84L2.99104 176.76C2.8778 176.46 2.78715 176.152 2.71984 175.839C2.61288 175.457 2.5021 175.022 2.39132 174.525C2.14416 173.544 2.14426 172.518 2.3916 171.537C2.63895 170.556 3.1258 169.652 3.80853 168.906C4.83114 167.78 6.06902 166.871 7.44899 166.232L6.16166 159.398L1.146 160.093L3.3272 152.774L3.06364 145.665L32.8863 141.746ZM5.85604 157.878L11.46 157.114L28.799 154.684L32.619 154.153L33.383 154.046L34.1699 153.935L35.8698 153.702L33.2683 149.787L4.70244 153.561L3.31578 158.21L5.85604 157.878ZM4.68332 147.025L4.86285 151.991L32.81 148.286L31.6869 143.484L4.68332 147.025ZM40.0298 188.598C39.7356 183.926 38.9449 179.323 38.1733 174.846C37.5735 171.385 36.97 167.836 36.5918 164.265C35.5489 164.459 34.7467 164.647 34.1088 164.784V165.304C33.9445 167.867 29.8495 169.888 21.9383 171.282C20.479 171.542 19.0083 171.748 17.6064 171.916C15.5015 172.585 11.9222 174.514 10.5585 176.787C9.90908 177.871 9.8403 178.88 10.3522 179.865C10.4817 180.176 10.6728 180.456 10.9137 180.691C11.1546 180.925 11.4405 181.108 11.7541 181.229C13.0568 181.634 14.9668 180.61 16.8156 179.621C18.5423 178.7 20.3148 177.753 21.9268 177.776V177.7C22.0949 177.734 22.2553 177.772 22.4119 177.818C22.5853 177.843 22.7564 177.881 22.9238 177.933C23.6831 178.186 24.3327 178.691 24.765 179.365C24.9448 179.588 25.101 179.828 25.2311 180.083C25.8996 181.405 25.892 182.998 25.2311 184.595C25.3151 184.705 25.4297 184.843 25.5329 184.977C26.2968 185.901 27.6186 187.483 27.3818 189.477C28.4136 189.417 29.448 189.417 30.4798 189.477C33.2531 189.561 37.1266 189.691 40.0298 188.598ZM27.1296 190.428C27.1029 190.508 27.0685 190.588 27.0341 190.668H27.1716L27.1296 190.428ZM8.63701 189.393C8.53769 190.825 9.18327 192.005 10.547 192.899C13.221 194.657 17.7401 194.741 19.8143 193.663C20.8304 193.125 21.6899 192.693 22.3775 192.345C24.616 191.219 25.212 190.894 25.5596 190.141C26.2931 188.556 25.3419 187.215 24.3105 185.977L24.1386 185.775C20.9604 188.269 17.3008 189.595 13.7253 189.595C12.8708 189.595 12.018 189.519 11.1773 189.366C10.2942 189.21 9.43165 188.953 8.60647 188.602C8.644 188.864 8.65422 189.129 8.63701 189.393V189.393ZM5.27926 181.099C5.3251 183.303 6.23806 184.495 7.1243 185.653L7.29619 185.874C8.22444 186.78 9.7219 187.49 11.4715 187.815C13.4158 188.174 18.485 188.518 23.726 184.079C24.2646 182.876 24.3105 181.711 23.8406 180.782C23.8406 180.748 23.7986 180.714 23.7795 180.675H23.7489C23.6799 180.544 23.6034 180.416 23.5198 180.293C23.1429 179.845 22.6439 179.516 22.0834 179.346C20.8648 179.228 19.1841 180.11 17.5529 180.996C15.8148 181.924 14.0309 182.876 12.3883 182.876C12.0156 182.878 11.6447 182.824 11.2881 182.715C10.3582 182.403 9.58405 181.745 9.12598 180.878V180.927C7.72899 180.741 6.38841 180.256 5.19519 179.506C5.23339 179.972 5.26398 180.492 5.27926 181.099V181.099ZM4.98129 169.933C4.462 170.496 4.09171 171.179 3.90421 171.921C3.71672 172.663 3.71796 173.44 3.90785 174.181C3.99189 174.563 4.07594 174.884 4.15998 175.194C4.15998 175.266 4.18671 175.343 4.19817 175.419C4.29749 175.77 4.39299 176.087 4.48467 176.385C4.94689 177.486 5.99356 178.624 8.48802 179.212C8.32513 178.084 8.57474 176.935 9.19094 175.977C10.0237 174.59 11.4829 173.337 13.0606 172.344C11.2117 172.478 9.84031 172.527 9.35899 172.527H9.19854L8.59499 172.485L7.7202 167.859C6.68778 168.377 5.7594 169.08 4.98129 169.933Z" fill="black"/>
<path d="M49.6906 418.715V418.604L50.8366 414.589C50.7564 414.15 50.8366 413.351 51.6312 411.85L51.6656 411.736H51.6923C51.8413 411.449 52.0132 411.14 52.2156 410.8C53.2165 409.119 62.4953 394.5 79.6471 398.522C93.7428 401.83 97.6431 396.796 100.225 393.464C100.755 392.711 101.372 392.022 102.063 391.413L153.167 231.737C149.998 231.666 146.836 231.426 143.693 231.019C143.67 235.366 143.651 239.492 143.651 243.499H142.085C142.085 239.419 142.085 235.221 142.127 230.79C139.292 230.36 136.507 229.653 133.811 228.677L141.336 252.403L139.843 252.873L123.948 202.663H122.752L122.519 202.43C122.355 202.266 122.278 202.189 119.157 189.412C117.446 182.425 114.867 171.675 112.281 160.147C109.419 147.413 107.184 136.646 105.577 127.845L106.479 128.383L107.38 128.922L139.812 148.301C153.564 155.941 163.985 159.73 171.308 159.73C174.422 159.73 176.983 159.046 178.99 157.679C187.1 152.186 185.167 137.051 183.299 122.397C182.504 116.175 181.771 110.299 181.771 105.242H180.205C180.205 110.399 180.969 116.32 181.759 122.596C183.566 136.772 185.438 151.429 178.127 156.38C171.908 160.582 159.638 157.507 140.61 146.941L107.678 127.264L107.021 126.882L106.96 126.848L106.12 126.347L105.222 125.809L103.346 124.689L102.437 124.143L101.528 123.601L98.3574 121.71L97.6736 121.301L96.9898 120.888L83.6771 112.935L89.113 102.95L88.6852 103.641L88.242 103.362L87.5774 102.942L87.394 102.827L70.437 92.1314L70.3797 92.0932C67.6192 90.0157 64.9815 87.7798 62.48 85.3968L53.4915 87.364H53.4304L52.9491 87.4023C51.8642 87.4901 51.2836 87.5321 51.1155 87.5321C46.9593 87.5321 46.2374 83.7121 45.8515 81.6646L40.6105 43.7931C40.5265 42.9298 40.4271 42.1276 40.3393 41.3827C39.9573 38.2121 39.6899 35.9239 40.9314 34.3692C41.7985 33.2881 43.2883 32.6884 45.7599 32.4363L64.3059 29.4108C68.1527 28.9448 69.8067 32.7762 70.1391 34.8658C70.1407 34.8874 70.1407 34.9091 70.1391 34.9307L73.3517 55.2799C78.142 55.2417 84.8117 57.9539 86.3664 62.6716C88.0052 67.6911 88.3032 70.2084 88.3184 75.3692L98.2504 82.8335L98.4223 82.9634L99.0565 83.4371L99.5187 83.7847L99.553 83.7198L104.236 86.7758L104.92 87.2265L105.608 87.6735L113.133 92.5936L113.844 93.0597L146.314 114.307C146.419 114.422 146.563 114.495 146.719 114.513L151.005 115.502L147.593 113.271V113.29L146.952 112.939C144.419 111.537 142.845 110.471 141.783 109.463L105.986 86.0538L105.31 85.6107L104.637 85.1714C106.23 79.3803 108.702 75.7474 112.037 74.334C117.583 71.9809 124.039 76.2746 128.027 79.598C127.932 79.216 127.84 78.8531 127.745 78.4787C126.48 73.4402 125.281 68.6613 125.113 66.2929L124.532 66.0867C120.911 64.8031 109.898 60.8991 110.05 53.007C110.325 38.5444 114.696 27.6765 120.471 21.4881C115.265 17.1639 111.731 12.2743 112.74 7.2319C113.446 3.70986 115.616 1.54774 119.016 0.970922C127.351 -0.438658 142.249 8.36262 148.002 18.0998C150.489 22.3018 151.742 33.0207 147.639 36.2716C147.956 38.66 148.145 41.0637 148.205 43.4722C148.461 52.8542 149.018 61.0022 149.641 65.2654C151.301 64.3864 153.097 63.7949 154.955 63.5158C164.359 62.0909 173.673 68.5085 181.053 81.0572C181.099 80.9656 181.152 80.8739 181.206 80.7784C183.383 77.008 192.284 70.0174 203.961 70.0174H204.148C212.526 70.0709 224.666 73.9711 234.93 92.2575C235.362 93.0215 237.986 97.1089 241.6 102.728C242.245 102.568 242.746 102.407 243.158 102.274C245.255 101.586 245.729 101.956 247.429 104.344C250.485 108.619 255.382 117.45 255.589 117.825L255.73 118.077L255.673 118.363C255.47 119.345 254.32 119.464 253.209 119.578C253.029 119.597 252.785 119.62 252.548 119.655C260.933 132.612 269.142 145.313 270.555 147.732C277.21 159.134 276.048 166.094 273.905 169.926C271.35 174.51 266.067 177.096 259.034 177.252L219.199 178.143C223.061 189.27 225.617 197.77 225.548 200.681V201.445L220.395 201.506C226.557 227.138 214.501 249.668 208.278 261.029L249.202 379.449C250.386 381.993 253.43 386.539 256.651 391.352C261.376 398.408 264.791 403.626 265.948 406.674C266.653 406.661 267.344 406.874 267.92 407.281C270.066 408.741 271.422 412.629 270.823 415.628C270.441 417.561 269.295 418.814 267.591 419.158C266.485 419.402 265.361 419.56 264.229 419.628C264.329 420.392 264.229 421.469 263.748 423.039C263.232 424.685 260.28 425.262 253.9 424.949C254.454 427.092 254.255 428.769 253.316 429.984C251.387 432.436 247.066 432.027 244.484 431.783L243.773 431.722C244.35 434.323 244.079 436.187 242.96 437.402C240.989 439.541 237 438.785 234.365 438.288C233.872 438.197 233.31 438.09 232.882 438.032C233.956 440.706 233.173 442.387 232.283 443.327C230.315 445.409 226.27 445.581 224.811 444.981C222.794 444.148 222.057 444.045 221.785 444.06C221.793 444.287 221.816 444.513 221.854 444.737C221.992 445.726 222.236 447.388 220.532 448.247C218.057 449.504 215.75 450.127 213.656 450.127C212.236 450.142 210.832 449.818 209.561 449.182C208.291 448.545 207.191 447.614 206.353 446.467C205.65 447.552 204.555 448.323 203.297 448.618C201.717 448.993 200.067 448.947 198.51 448.484C196.954 448.021 195.547 447.156 194.43 445.978C192.574 443.915 192.161 441.157 193.25 438.193C192.318 432.539 193.078 427.951 195.511 424.559C199.309 419.261 206.177 418.168 209.871 417.584C210.56 417.498 211.241 417.363 211.911 417.179C214.993 413.573 217.946 404.432 214.909 395.206L214.692 394.546L216.308 393.782L180.583 315.888L137.799 401.15C138.406 402.403 137.581 403.92 136.829 405.028C134.919 410.528 133.853 416.258 132.917 421.324C131.893 426.859 131.007 431.668 129.257 434.499C130.021 436.508 129.383 441.654 128.784 443.789C128.344 445.317 127.833 446.081 127.114 446.257C126.692 446.351 126.26 446.398 125.827 446.398C123.268 446.398 121.591 444.633 120.533 443.518C120.253 443.202 119.947 442.909 119.62 442.643C119.441 442.932 119.305 443.244 119.215 443.571C119.104 443.956 118.897 444.305 118.612 444.587C118.328 444.869 117.977 445.073 117.591 445.18C115.372 445.81 112.148 443.652 111.479 443.063C110.294 442.134 109.321 440.962 108.626 439.625L108.244 439.946C106.658 441.333 105.035 441.856 103.423 441.535C100.833 441.004 98.9992 438.365 97.9907 436.462C97.565 436.751 97.1796 437.096 96.8447 437.486C95.7827 438.632 95.2212 438.678 90.8626 437.868C86.4352 437.058 84.2845 434.048 83.3257 432.627C82.6655 433.212 81.8911 433.654 81.0515 433.925C80.2119 434.196 79.3253 434.29 78.4476 434.201C76.0066 434.037 73.7948 432.807 72.8131 431.072C72.3661 430.278 72.0491 429.693 71.8504 429.269C67.9693 430.797 67.2894 430.538 63.4732 428.333C62.1897 427.592 61.3225 426.106 60.7992 425.064C59.2062 426.087 56.2801 426.145 55.2869 425.896C53.6788 425.51 52.2495 424.589 51.2328 423.284C50.2162 421.98 49.6725 420.369 49.6906 418.715V418.715ZM98.3001 84.8467L97.666 84.373L97.4941 84.2431L86.7331 76.1753V75.7933C86.7331 70.5522 86.4772 68.1304 84.8613 63.1873C83.6084 59.3673 77.7638 56.9339 73.5809 56.8728C73.3097 56.8728 73.0499 56.8728 72.794 56.8919C72.6183 56.8919 72.4464 56.9072 72.2783 56.9377C72.4502 57.2357 72.6908 57.6101 72.9735 58.0303C73.2562 58.4505 73.6229 58.9891 74.0011 59.5239C75.7468 61.9954 78.0465 65.0209 78.4514 65.5098L80.2277 67.6605L77.5881 66.7475C76.8814 66.503 76.358 65.8536 75.9378 65.3341C75.7927 65.1546 75.6552 64.9827 75.5558 64.8681C75.2808 64.5969 74.9981 64.2798 74.7116 63.9436C74.4251 63.6075 74.0584 63.1529 73.7222 62.7098C73.3861 62.2667 73.0499 61.8006 72.7061 61.304C70.8381 58.63 68.8517 55.2149 67.0258 52.0864C64.9935 48.614 62.4685 44.2897 61.6778 43.923C60.7113 43.5907 59.4431 43.3156 58.8815 43.923C58.2016 44.6412 58.32 46.6237 59.1375 49.2022C59.8251 50.0006 60.7457 51.796 62.1476 54.5502C63.817 57.8507 66.1013 62.3698 67.3772 63.0841L66.6132 64.4517C65.0432 63.5731 63.1943 60.0854 60.7534 55.2569C60.2491 54.2599 59.7372 53.2476 59.275 52.3843L58.8395 52.5906L58.4843 51.9374C55.1571 45.8063 53.1363 44.6335 52.0361 44.7329C51.8559 44.7244 51.6767 44.7646 51.5174 44.8493C51.3581 44.934 51.2246 45.06 51.1308 45.2142C50.0765 47.1242 53.2356 53.3928 54.5688 56.0744C55.0807 57.0944 55.4588 57.8431 55.6116 58.2824C57.4643 61.9687 61.2003 69.0701 61.9643 69.7424C61.8973 69.6957 61.8222 69.662 61.7427 69.6431L61.3875 71.1711C61.0055 71.0832 60.6502 70.9953 58.4843 67.1066L59.084 68.9478L54.1906 58.9432C52.6893 55.8872 51.868 55.448 51.7038 55.3907C51.295 55.7727 50.8137 58.3397 51.8833 63.9398C53.1248 70.4338 55.7033 76.5267 62.9613 83.7198C63.179 83.9375 63.4006 84.1553 63.6298 84.373L64.3174 85.0262C66.5406 87.0863 68.8661 89.0332 71.2851 90.8594L88.1313 101.467L88.1695 101.49L89.7586 98.9119L97.1159 87.0394L98.4109 84.9422L98.3001 84.8467ZM60.3904 39.0067C60.6349 39.4918 61.2079 40.2405 61.716 40.3437C63.8705 40.783 62.8925 38.3114 62.629 37.5474C61.674 34.8008 59.0649 36.3518 60.3904 39.0181V39.0067ZM60.2759 423.429L60.5432 422.695L61.2767 422.959C61.6128 423.077 61.716 423.318 61.8955 423.723C62.2126 424.429 63.0415 426.309 64.241 426.993C67.7822 429.036 67.9426 429.132 71.3424 427.791C71.3835 427.636 71.4709 427.496 71.5931 427.392C71.7152 427.288 71.8663 427.223 72.0261 427.207C72.2145 427.19 72.4028 427.239 72.5584 427.347C72.714 427.454 72.827 427.613 72.878 427.795C73.2512 428.662 73.68 429.504 74.1615 430.316C74.8797 431.584 76.6369 432.524 78.5393 432.654C80.2926 432.772 81.8015 432.173 82.6839 431.007C82.7643 430.9 82.8695 430.814 82.9906 430.756C83.1117 430.698 83.2451 430.67 83.3792 430.675C83.8796 430.675 84.1432 431.057 84.5252 431.649C85.4 432.94 87.2183 435.626 91.1223 436.34C95.0264 437.055 95.1715 436.967 95.6643 436.428C96.3043 435.711 97.0677 435.115 97.9181 434.667L98.2734 434.472L98.6554 434.648C98.8545 434.749 99.0075 434.923 99.0832 435.133C100.413 437.891 102.112 439.667 103.747 440C104.855 440.229 106.039 439.813 107.224 438.766C108.022 438.071 108.427 437.723 109 437.834C109.573 437.945 109.764 438.365 109.959 438.785C110.563 439.989 111.428 441.042 112.491 441.868C113.439 442.662 115.952 444.022 117.175 443.671C117.314 443.636 117.442 443.563 117.542 443.46C117.642 443.357 117.71 443.227 117.74 443.086C118.03 442.192 118.443 441.257 119.287 441.062C120.131 440.867 120.88 441.593 121.682 442.437C122.863 443.682 124.333 445.222 126.721 444.729C127.535 443.938 128.276 438.372 128.054 435.981C128.039 435.69 127.981 435.403 127.882 435.129H127.833L126.962 434.881L52.7543 413.68L52.5594 414.348L52.3188 415.174L52.0858 415.983L51.2568 418.837C51.2688 420.119 51.7087 421.36 52.5066 422.364C53.3046 423.367 54.4149 424.075 55.6613 424.376C56.9754 424.72 60.0008 424.2 60.2759 423.44V423.429ZM111.846 393.549C111.903 384.95 111.911 374.529 111.846 366.09L103.763 391.344L111.846 393.549ZM113.408 393.973L116.403 394.79C120.552 393.377 126.24 393.74 131.026 394.049C132.653 394.152 134.2 394.251 135.557 394.274C136.852 389.53 136.79 380.117 136.668 370.033C134.246 370.193 131.752 370.415 129.276 370.617C124.471 371.03 119.501 371.454 115.379 371.454V369.887C119.436 369.887 124.165 369.483 129.131 369.059C131.641 368.845 134.178 368.627 136.638 368.466C136.515 358.221 136.408 347.697 137.688 341.001C134.632 341.108 131.576 341.188 128.314 341.188C125.64 341.188 122.847 341.134 119.849 341.008L113.332 361.369C113.481 370.514 113.481 383.632 113.412 393.984L113.408 393.973ZM203.419 295.203C203.885 290.332 204.248 286.478 204.343 285.045C201.78 285.194 198.904 285.347 195.829 285.5L183.887 309.298C190.763 308.962 196.917 308.634 202.196 308.321C202.586 304.046 202.999 299.63 203.419 295.203ZM205.058 238.789C205.019 235.702 204.985 232.553 204.954 229.342C197.635 229.411 189.716 229.988 181.947 230.553L175.709 231C175.59 237.544 175.414 244.614 175.193 251.387C175.151 252.652 175.105 253.989 175.055 255.383C186.393 254.776 198.22 255.528 205.188 258.821C205.218 252.113 205.142 245.535 205.058 238.789V238.789ZM204.909 220.159C204.909 218.386 204.794 216.663 204.679 214.998C204.511 212.515 204.374 210.456 204.679 208.955C203.446 209.058 202.207 209.081 200.97 209.023C192.184 208.477 183.918 208.466 175.716 208.668C175.842 210.036 175.926 213.34 175.854 221.748C175.831 224.166 175.796 226.744 175.754 229.426L181.866 228.991C189.663 228.421 197.605 227.845 204.974 227.772C204.93 225.281 204.909 222.744 204.909 220.159V220.159ZM174.914 208.863L174.887 208.687H174.318C174.4 208.757 174.495 208.808 174.597 208.838C174.7 208.869 174.808 208.877 174.914 208.863ZM173.501 284.847C180.82 284.583 188.261 284.274 194.831 283.96L204.519 264.7C204.706 264.318 204.901 263.917 205.145 263.489C205.145 262.519 205.168 261.552 205.176 260.59C198.644 257.152 186.554 256.388 174.998 257.006C174.673 265.682 174.188 276.191 173.516 284.847H173.501ZM205.092 267.038L196.646 283.873C199.461 283.735 202.086 283.594 204.443 283.46C204.779 277.745 204.981 272.313 205.092 267.038ZM194.014 285.584C187.6 285.889 180.426 286.187 173.386 286.44C172.813 293.342 172.106 298.843 171.254 300.91C170.723 302.193 170.49 305.91 170.33 309.929L174.15 309.757C176.895 309.635 179.548 309.507 182.107 309.375L194.014 285.584ZM142.52 293.052C142.337 298.4 142.115 304.711 141.833 311.033C148.942 310.804 158.35 310.448 168.76 309.998C168.917 305.711 169.18 301.827 169.807 300.31C170.513 298.595 171.193 293.816 171.808 286.493C160.784 286.875 150.21 287.135 143.468 287.135H142.731C142.666 288.926 142.593 290.943 142.52 293.052ZM170.277 311.522C170.238 312.805 170.208 314.093 170.177 315.315C170.013 321.916 169.91 323.788 169.49 324.407L168.191 323.524L168.16 323.581C168.42 322.955 168.519 318.875 168.611 315.277C168.642 314.066 168.672 312.82 168.707 311.59C158.687 312.03 149.106 312.393 141.76 312.622C141.275 323.1 140.614 333.422 139.602 339.362L143.613 339.194C148.732 338.972 154.03 338.743 160.016 338.743V340.309C154.061 340.309 148.785 340.538 143.682 340.756L139.308 340.94C137.986 347.434 138.093 358.042 138.215 368.371C143.682 368.062 148.678 368.092 152.128 369.097L181.274 310.998C177.622 311.189 173.928 311.361 170.277 311.522ZM138.001 339.434C139.017 333.651 139.697 323.261 140.19 312.672C135.728 312.801 132.229 312.878 130.151 312.878C129.632 312.878 129.204 312.878 128.872 312.878L120.357 339.484C126.92 339.736 132.512 339.637 138.001 339.434ZM140.263 311.082C140.549 304.73 140.767 298.385 140.954 292.999C141.034 290.707 141.103 288.751 141.164 287.123C139.392 287.104 138.02 287.055 137.153 286.978L129.364 311.323C131.045 311.335 134.896 311.25 140.263 311.082V311.082ZM137.642 285.45C138.467 285.511 139.682 285.546 141.225 285.561C141.378 281.691 141.481 280.041 141.607 279.606L143.101 280.075C143.006 280.457 142.895 282.566 142.776 285.569C149.412 285.569 160.425 285.301 171.923 284.9C172.488 277.719 172.993 268.321 173.409 257.083C165.005 257.633 157.067 258.894 151.91 260.357L151.482 258.852C156.857 257.324 164.955 256.029 173.47 255.475C173.508 254.401 173.546 253.316 173.581 252.212C173.837 244.607 174.012 237.398 174.123 231.103C168.233 231.485 162.388 231.798 156.845 231.798C156.158 231.798 155.482 231.798 154.806 231.798L137.642 285.45ZM153.686 230.198L154.905 226.378L156.395 226.882L155.317 230.244C161.307 230.308 167.706 229.984 174.165 229.552C174.349 218.509 174.322 210.567 174.165 208.729C169.199 208.867 164.233 209.081 159.191 209.298C154.148 209.516 149.022 209.734 143.758 209.879C143.8 216.228 143.758 222.917 143.735 229.476C147.035 229.905 150.356 230.146 153.682 230.198H153.686ZM133.223 226.76C136.093 227.931 139.092 228.757 142.158 229.22C142.192 222.749 142.222 216.159 142.18 209.906C138.842 209.986 135.45 210.04 131.992 210.04V208.473C135.43 208.473 138.83 208.42 142.169 208.336C142.169 206.33 142.127 204.363 142.093 202.445L125.586 202.644L133.223 226.76ZM259 175.694C265.456 175.553 270.265 173.234 272.538 169.166C275.327 164.2 274.173 157.048 269.203 148.538C267.801 146.139 259.538 133.361 251.131 120.361L250.504 119.395L249.553 117.928C247.895 115.361 246.252 112.828 244.694 110.414C244.278 110.414 243.85 110.433 243.395 110.433C240.095 110.433 235.778 110.173 231.251 109.898C226.579 109.619 221.747 109.329 217.927 109.329H215.788C210.142 109.329 199.851 109.302 193.25 109.711L192.433 109.765L191.875 109.807C194.782 117.588 197.987 126.08 201.165 134.32C201.929 136.317 202.693 138.3 203.457 140.252C207.659 151.147 211.636 161.163 214.466 167.955L214.734 168.016L215.23 168.138L215.593 168.222L215.757 168.551V168.585C218.607 174.315 219.012 175.977 218.92 176.607L259 175.694ZM239.969 103.114C236.492 97.7201 233.998 93.8237 233.566 93.052C223.669 75.4227 212.098 71.66 204.152 71.6104H203.946C193.036 71.6104 184.502 78.2037 182.554 81.5882C182.077 82.4133 182.084 82.8603 182.172 82.9978L182.241 83.143C182.245 83.1626 182.252 83.1818 182.26 83.2003C182.81 84.8352 183.524 86.8866 184.372 89.2702C186.179 94.3279 188.601 100.952 191.34 108.259L191.867 108.217L192.685 108.156C199.24 107.717 209.6 107.736 215.815 107.748H217.927C221.793 107.748 226.648 108.038 231.343 108.321C236.038 108.603 240.408 108.871 243.674 108.844L240.618 104.084L239.976 103.091L239.969 103.114ZM193.086 165.632C198.155 169.036 206.123 173.364 216.006 175.354L216.59 175.469L216.972 175.541L217.205 175.591C216.416 173.535 215.523 171.521 214.531 169.555H214.474L214.291 169.513L213.339 169.276C201.612 166.262 191.814 160.139 185.511 151.88C184.837 153.71 184.073 155.505 183.219 157.259C184.082 158.389 187.573 161.942 193.086 165.632ZM119.28 2.51802C116.537 2.98406 114.852 4.67632 114.275 7.54515C113.401 11.9114 116.724 16.3311 121.598 20.3765L122.236 20.8922C122.439 21.0565 122.649 21.2207 122.859 21.3812C129.689 26.6642 138.903 31.1604 144.174 33.7389L145.783 34.5296L146.635 34.9498L146.73 34.9995C146.957 34.8048 147.161 34.5843 147.337 34.3424C149.775 31.0114 148.64 22.2674 146.654 18.902C141.638 10.414 128.852 2.38814 120.93 2.38814C120.377 2.38544 119.825 2.42889 119.28 2.51802V2.51802ZM147.479 59.818C147.097 55.3486 146.799 49.4124 146.638 43.5372C146.579 41.163 146.391 38.7937 146.077 36.4396C145.351 36.0576 144.48 35.6489 143.487 35.1637C137.707 32.3408 128.562 27.8752 121.713 22.5234C120.555 23.7637 119.512 25.1076 118.6 26.5382C115.544 31.2712 111.869 39.7134 111.617 53.0719C111.487 59.8333 121.698 63.4547 125.055 64.6427C126.32 65.0935 126.66 65.2119 126.66 65.8192C126.66 67.7598 127.985 73.0352 129.265 78.1311C129.548 79.2771 129.83 80.3773 130.094 81.4469C130.377 81.7066 130.636 81.9473 130.858 82.1536C131.183 82.4554 131.519 82.7686 131.622 82.8335C131.977 83.078 133.498 82.8641 134.781 82.6425C134.822 82.4733 134.872 82.3063 134.93 82.1421C135.033 81.8747 135.175 81.5042 138.998 79.4146L139.652 79.0594L139.671 79.0899C140.893 73.528 143.991 68.902 148.212 66.1363C147.964 64.7038 147.719 62.6868 147.479 59.8027V59.818ZM143.563 99.7791C142.329 95.5771 141.004 91.0809 140.125 87.3564C140.06 87.0967 140.003 86.8407 139.946 86.5924C139.888 86.3441 139.823 86.05 139.766 85.7864C139.594 84.9842 139.449 84.2317 139.338 83.5479C139.293 83.2767 139.254 83.0169 139.224 82.7648C139.193 82.5127 139.159 82.2338 139.136 82.0008C139.113 81.7678 139.094 81.4278 139.09 81.1718C138.708 81.3934 138.303 81.6188 137.944 81.8365L137.329 82.2185C136.992 82.4166 136.666 82.6321 136.351 82.8641C136.318 82.971 136.287 83.0857 136.259 83.2079C136.199 83.4786 136.155 83.7529 136.13 84.0292C136.048 85.1326 136.066 86.241 136.183 87.3411C136.21 87.6047 136.237 87.8721 136.267 88.1472C136.298 88.4222 136.328 88.6629 136.363 88.9112C136.932 93.201 138.273 98.4077 139.495 101.387C139.953 102.491 140.259 103.404 140.565 104.21C141.508 106.846 141.924 108.03 144.908 109.94C145.393 110.257 145.943 110.593 146.577 110.96C146.207 108.76 144.763 103.855 143.563 99.7638V99.7791ZM253.052 118.012C253.277 117.989 253.591 117.955 253.85 117.913C252.628 115.743 248.674 108.783 246.153 105.245C245.573 104.428 245.007 103.683 244.717 103.53C244.572 103.462 244.308 103.53 243.643 103.756C243.334 103.855 242.956 103.977 242.497 104.107L251.631 118.241C252.097 118.125 252.573 118.048 253.052 118.012ZM218.771 201.51L143.655 202.434C143.693 204.344 143.716 206.304 143.731 208.301C148.976 208.152 154.091 207.919 159.107 207.721C173.08 207.121 186.278 206.552 201.047 207.465C202.465 207.527 203.886 207.486 205.298 207.343C205.454 207.128 205.644 206.941 205.86 206.789C206.708 206.197 207.881 206.235 209.428 206.888L210.02 206.815C212.541 206.447 215.082 206.223 217.629 206.147V207.713C215.146 207.79 212.669 208.009 210.211 208.37C208.908 208.531 207.586 208.691 206.303 208.821C205.921 210.078 206.081 212.519 206.242 214.899C206.353 216.514 206.475 218.337 206.475 220.166C206.475 222.749 206.486 225.285 206.509 227.776C210.786 227.736 215.06 228 219.299 228.567C220.869 220.262 221.136 211.102 218.771 201.521V201.51ZM218.989 230.087C214.856 229.543 210.69 229.288 206.521 229.323C206.546 232.532 206.581 235.677 206.624 238.758C206.712 245.787 206.792 252.636 206.75 259.646C206.868 259.719 206.987 259.791 207.101 259.868C210.776 253.16 216.33 242.689 218.989 230.098V230.087ZM207.243 262.87L206.712 263.856C206.624 270.098 206.418 276.523 206.013 283.338C209.569 283.12 212.388 282.918 214.115 282.738L207.243 262.87ZM214.638 284.262C212.87 284.461 209.821 284.686 205.921 284.927V285.061C205.833 286.47 205.482 290.187 204.993 295.325C204.653 298.908 204.229 303.393 203.789 308.198C213.313 307.614 219.772 307.09 222.393 306.67L214.638 284.262ZM222.901 308.168C220.139 308.641 212.927 309.207 203.633 309.776C202.739 319.708 201.834 330.69 201.539 337.853C209.37 336.776 220.074 335.695 227.206 335.584C227.748 331.603 228.486 328.612 229.464 327.153L222.901 308.168ZM230.159 329.178C229.586 330.61 229.12 332.818 228.749 335.584C229.982 335.578 231.214 335.641 232.439 335.775L230.159 329.178ZM233.02 337.452C231.544 337.209 230.049 337.106 228.554 337.142C227.725 344.4 227.458 354.802 227.542 365.028C233.627 364.555 240.056 364.024 242.058 363.63L233.02 337.452ZM242.57 365.09C240.996 365.472 237.222 365.827 227.557 366.579C227.653 374.506 227.959 382.218 228.379 388.166L247.479 379.311L242.57 365.09ZM202.842 447.082C203.82 446.818 205.046 446.181 205.359 444.66L205.52 443.873L206.303 444.057C206.639 444.133 206.784 444.358 206.983 444.668C209.76 449.003 214.069 449.729 219.788 446.826C220.414 446.505 220.414 446.005 220.265 444.916C220.158 444.152 220.04 443.3 220.72 442.769C221.022 442.552 221.39 442.442 221.762 442.46C222.526 442.46 223.672 442.792 225.369 443.491C226.205 443.839 229.597 443.804 231.099 442.212C232 441.26 232.015 439.858 231.148 438.044C231.04 437.858 230.988 437.645 231 437.431C231.012 437.216 231.086 437.01 231.213 436.837C231.729 436.164 232.741 436.359 234.609 436.711C236.901 437.142 240.381 437.799 241.76 436.302C242.597 435.4 242.677 433.693 242.001 431.233C241.963 431.098 241.959 430.956 241.989 430.819C242.018 430.682 242.08 430.554 242.169 430.446C242.551 429.995 243.105 430.064 244.583 430.186C246.699 430.385 250.638 430.755 252.036 428.975C252.731 428.093 252.8 426.683 252.185 424.773L251.883 424.708L251.975 423.986C252.07 423.257 252.704 423.291 253.373 423.329C261.716 423.799 262.19 422.6 262.205 422.565C262.988 420.067 262.51 419.414 262.518 419.414L261.949 419.032L262.549 417.813L263.198 418.019C263.198 418.019 264.054 418.272 267.232 417.637C268.302 417.42 268.978 416.644 269.241 415.345C269.715 412.985 268.622 409.707 266.995 408.603C266.791 408.462 266.564 408.36 266.323 408.301C266.064 408.242 265.794 408.25 265.54 408.324C265.327 408.386 265.124 408.48 264.94 408.603C264.695 408.76 264.44 408.916 264.176 409.073C262.403 410.131 260.234 411.159 257.953 412.236C254.446 413.894 250.47 415.773 246.875 418.256C244.618 419.819 242.127 421.725 239.491 423.742C235.809 426.561 231.763 429.655 227.592 432.364C223.073 435.294 218.401 437.765 213.867 438.942C212.122 439.413 210.325 439.66 208.519 439.679C208.037 439.679 207.09 439.74 205.99 439.809C202.819 440.015 200.26 440.126 198.296 440.08C196.558 440.038 195.271 439.87 194.415 439.53C193.85 441.639 194.232 443.499 195.538 444.954C197.284 446.83 200.416 447.766 202.861 447.101L202.842 447.082ZM217.698 393.132L226.866 388.888C226.419 382.883 226.079 374.938 225.976 366.732L224.799 366.824C217.285 367.401 209.55 367.997 206.429 368.52L217.698 393.132ZM205.741 367.042C208.71 366.48 216.476 365.896 224.666 365.254L225.945 365.154C225.854 355.028 226.125 344.668 227 337.173C219.998 337.307 209.275 338.361 201.474 339.465C201.379 342.636 201.44 344.813 201.727 345.462L200.298 346.108C199.95 345.344 199.843 343.052 199.916 339.683C197.326 340.065 195.152 340.447 193.685 340.771L205.741 367.042ZM193.028 339.301C194.514 338.957 196.971 338.537 199.969 338.101C200.21 331.374 201.028 321.179 202.044 309.898C196.26 310.246 189.755 310.593 183.062 310.926L181.473 314.093L193.028 339.301ZM151.39 370.533C148.147 369.662 143.41 369.651 138.211 369.949C138.341 380.599 138.406 390.527 136.863 395.317L136.099 395.077V395.841C134.571 395.841 132.776 395.726 130.881 395.604C127.217 395.371 122.996 395.099 119.497 395.634L136.454 400.249L151.39 370.533Z" fill="black"/>
<path d="M21.3042 139.927C20.6089 133.85 22.3775 128.918 26.1517 126.397C27.6667 125.403 29.4273 124.848 31.2383 124.794C33.0493 124.739 34.8401 125.187 36.4123 126.088C39.7815 127.963 42.2225 128.594 43.6703 127.963C45.1753 127.306 45.6758 125.289 46.2068 123.119C46.7798 120.797 47.3718 118.394 49.4232 117.535C51.2109 116.79 53.6787 117.412 57.1969 119.498C58.4346 120.235 59.359 120.495 59.9435 120.262C60.7304 119.96 61.1468 118.642 61.5899 117.244C62.3998 114.677 63.4999 111.163 68.1412 112.152C69.9022 112.534 71.1094 112.485 71.732 112.026C72.3547 111.568 72.496 110.445 72.6183 109.188C72.7749 107.454 72.9697 105.299 75.0554 104.222L75.7736 105.612C74.5435 106.25 74.3487 107.442 74.1768 109.329C74.0431 110.827 73.9018 112.385 72.6488 113.287C71.6212 114.051 70.0818 114.169 67.8012 113.669C64.7223 113.012 63.9812 114.773 63.072 117.703C62.5372 119.391 61.9872 121.141 60.4897 121.71C59.4087 122.122 58.1022 121.84 56.3832 120.82C53.4151 119.055 51.2682 118.428 50.0191 118.956C48.6936 119.51 48.2199 121.431 47.7271 123.467C47.1541 125.782 46.5085 128.406 44.2891 129.373C42.318 130.232 39.5714 129.613 35.6483 127.432C34.3278 126.672 32.8227 126.292 31.2996 126.335C29.7766 126.377 28.2949 126.84 27.0189 127.673C23.7489 129.858 22.2324 134.251 22.8589 139.725L21.3042 139.927Z" fill="black"/>
<path d="M14.9744 139.156L13.4081 139.121C13.5342 133.582 15.7002 125.576 21.3996 121.232C24.7383 118.688 28.818 117.924 33.1957 119.028L33.2989 119.063C39.1091 121.423 40.1749 119.445 41.7907 116.453C43.4486 113.378 45.5152 109.555 53.4111 110.552L53.2163 112.106C46.3785 111.243 44.7512 114.272 43.1697 117.198C41.5271 120.254 39.8311 123.387 32.7602 120.533C28.8295 119.559 25.3227 120.212 22.3469 122.481C17.4268 126.225 15.1004 133.556 14.9744 139.156Z" fill="black"/>
</svg>
