<svg width="91" height="97" viewBox="0 0 91 97" fill="none" xmlns="http://www.w3.org/2000/svg">
<path d="M51.1442 15.9571L26.909 22.8534C18.1183 25.3548 14.3792 32.2775 16.7424 41.6438L24.7463 73.3663C27.1483 82.8861 33.6148 86.7731 42.4055 84.2716L66.6407 77.3753C75.5732 74.8336 79.1987 68.0749 76.7967 58.555L68.7928 26.8325C66.4296 17.4662 60.0767 13.4153 51.1442 15.9571Z" fill="url(#paint0_linear_217_78)"/>
<g filter="url(#filter0_f_217_78)">
<rect width="40.9021" height="32.8792" rx="14" transform="matrix(-0.244644 -0.969613 0.961818 -0.273692 34.5599 73.2051)" fill="#8237FF" fill-opacity="0.5"/>
</g>
<g filter="url(#filter1_b_217_78)">
<path d="M73.9343 32.3726H48.8441C39.7433 32.3726 34.4445 38.0316 34.4445 47.7283V80.5699C34.4445 90.4255 39.7433 95.9574 48.8441 95.9574H73.9343C83.1818 95.9574 88.3309 90.4255 88.3309 80.5699V47.7283C88.3309 38.0316 83.1818 32.3726 73.9343 32.3726Z" fill="#BA90FF" fill-opacity="0.35"/>
<path d="M73.9343 31.8726H48.8441C44.1877 31.8726 40.4435 33.3232 37.8667 36.0722C35.294 38.8168 33.9445 42.792 33.9445 47.7283V80.5699C33.9445 85.5838 35.2931 89.5683 37.8675 92.3023C40.4458 95.0405 44.1909 96.4574 48.8441 96.4574H73.9343C78.659 96.4574 82.4051 95.0415 84.9658 92.3009C87.5216 89.5654 88.8309 85.5802 88.8309 80.5699V47.7283C88.8309 42.7956 87.5207 38.8197 84.9665 36.0736C82.4074 33.3222 78.6621 31.8726 73.9343 31.8726Z" stroke="url(#paint1_linear_217_78)" stroke-linecap="round" stroke-linejoin="round"/>
</g>
<g filter="url(#filter2_bd_217_78)">
<mask id="path-5-inside-1_217_78" fill="white">
<path fill-rule="evenodd" clip-rule="evenodd" d="M49.6522 47.1572V47.189C48.3619 47.189 47.3171 48.3018 47.3171 49.6688C47.3171 51.0359 48.3619 52.1486 49.6522 52.1486H58.6004C59.8906 52.1486 60.9384 51.0359 60.9384 49.6339C60.9384 48.27 59.8906 47.1572 58.6004 47.1572H49.6522ZM73.1228 66.5193H49.6522C48.3619 66.5193 47.3171 65.4066 47.3171 64.0395C47.3171 62.6724 48.3619 61.5565 49.6522 61.5565H73.1228C74.4101 61.5565 75.4579 62.6724 75.4579 64.0395C75.4579 65.4066 74.4101 66.5193 73.1228 66.5193ZM73.1229 81.0483H49.6524C48.7543 81.1754 47.8861 80.6986 47.4071 79.9037C46.9281 79.0771 46.9281 78.028 47.4071 77.2332C47.8861 76.4066 48.7543 75.9615 49.6524 76.0569H73.1229C74.3174 76.184 75.2185 77.265 75.2185 78.5685C75.2185 79.837 74.3174 80.9211 73.1229 81.0483Z"/>
</mask>
<path fill-rule="evenodd" clip-rule="evenodd" d="M49.6522 47.1572V47.189C48.3619 47.189 47.3171 48.3018 47.3171 49.6688C47.3171 51.0359 48.3619 52.1486 49.6522 52.1486H58.6004C59.8906 52.1486 60.9384 51.0359 60.9384 49.6339C60.9384 48.27 59.8906 47.1572 58.6004 47.1572H49.6522ZM73.1228 66.5193H49.6522C48.3619 66.5193 47.3171 65.4066 47.3171 64.0395C47.3171 62.6724 48.3619 61.5565 49.6522 61.5565H73.1228C74.4101 61.5565 75.4579 62.6724 75.4579 64.0395C75.4579 65.4066 74.4101 66.5193 73.1228 66.5193ZM73.1229 81.0483H49.6524C48.7543 81.1754 47.8861 80.6986 47.4071 79.9037C46.9281 79.0771 46.9281 78.028 47.4071 77.2332C47.8861 76.4066 48.7543 75.9615 49.6524 76.0569H73.1229C74.3174 76.184 75.2185 77.265 75.2185 78.5685C75.2185 79.837 74.3174 80.9211 73.1229 81.0483Z" fill="url(#paint2_linear_217_78)"/>
<path d="M49.6522 47.189V47.589H50.0522V47.189H49.6522ZM49.6522 47.1572V46.7572H49.2522V47.1572H49.6522ZM49.6524 81.0483V80.6483H49.6242L49.5963 80.6522L49.6524 81.0483ZM73.1229 81.0483V81.4483H73.1442L73.1653 81.446L73.1229 81.0483ZM47.4071 79.9037L47.061 80.1043L47.0645 80.1102L47.4071 79.9037ZM47.4071 77.2332L47.7497 77.4397L47.7532 77.4337L47.4071 77.2332ZM49.6524 76.0569L49.6101 76.4546L49.6312 76.4569H49.6524V76.0569ZM73.1229 76.0569L73.1653 75.6591L73.1442 75.6569H73.1229V76.0569ZM50.0522 47.189V47.1572H49.2522V47.189H50.0522ZM47.7171 49.6688C47.7171 48.4993 48.6055 47.589 49.6522 47.589V46.789C48.1184 46.789 46.9171 48.1042 46.9171 49.6688H47.7171ZM49.6522 51.7486C48.6055 51.7486 47.7171 50.8383 47.7171 49.6688H46.9171C46.9171 51.2335 48.1184 52.5486 49.6522 52.5486V51.7486ZM58.6004 51.7486H49.6522V52.5486H58.6004V51.7486ZM60.5384 49.6339C60.5384 50.8414 59.6442 51.7486 58.6004 51.7486V52.5486C60.1371 52.5486 61.3384 51.2304 61.3384 49.6339H60.5384ZM58.6004 47.5572C59.6481 47.5572 60.5384 48.4686 60.5384 49.6339H61.3384C61.3384 48.0714 60.1332 46.7572 58.6004 46.7572V47.5572ZM49.6522 47.5572H58.6004V46.7572H49.6522V47.5572ZM49.6522 66.9193H73.1228V66.1193H49.6522V66.9193ZM46.9171 64.0395C46.9171 65.6041 48.1184 66.9193 49.6522 66.9193V66.1193C48.6055 66.1193 47.7171 65.209 47.7171 64.0395H46.9171ZM49.6522 61.1565C48.1177 61.1565 46.9171 62.4755 46.9171 64.0395H47.7171C47.7171 62.8693 48.6061 61.9565 49.6522 61.9565V61.1565ZM73.1228 61.1565H49.6522V61.9565H73.1228V61.1565ZM75.8579 64.0395C75.8579 62.4752 74.6539 61.1565 73.1228 61.1565V61.9565C74.1662 61.9565 75.0579 62.8697 75.0579 64.0395H75.8579ZM73.1228 66.9193C74.6533 66.9193 75.8579 65.6045 75.8579 64.0395H75.0579C75.0579 65.2087 74.1668 66.1193 73.1228 66.1193V66.9193ZM49.6524 81.4483H73.1229V80.6483H49.6524V81.4483ZM47.0645 80.1102C47.614 81.0221 48.6291 81.5972 49.7084 81.4443L49.5963 80.6522C48.8794 80.7537 48.1581 80.375 47.7497 79.6973L47.0645 80.1102ZM47.0645 77.0267C46.5075 77.9509 46.5116 79.1562 47.061 80.1043L47.7532 79.7032C47.3446 78.9981 47.3487 78.105 47.7497 77.4396L47.0645 77.0267ZM49.6946 75.6591C48.6331 75.5464 47.6159 76.0751 47.061 77.0326L47.7532 77.4337C48.1563 76.7381 48.8755 76.3766 49.6101 76.4546L49.6946 75.6591ZM73.1229 75.6569H49.6524V76.4569H73.1229V75.6569ZM75.6185 78.5685C75.6185 77.0876 74.5891 75.8107 73.1653 75.6591L73.0806 76.4546C74.0458 76.5574 74.8185 77.4423 74.8185 78.5685H75.6185ZM73.1653 81.446C74.5864 81.2947 75.6185 80.0172 75.6185 78.5685H74.8185C74.8185 79.6567 74.0485 80.5475 73.0806 80.6505L73.1653 81.446Z" fill="url(#paint3_linear_217_78)" mask="url(#path-5-inside-1_217_78)"/>
</g>
<defs>
<filter id="filter0_f_217_78" x="0.546387" y="0.844727" width="89.6444" height="96.0627" filterUnits="userSpaceOnUse" color-interpolation-filters="sRGB">
<feFlood flood-opacity="0" result="BackgroundImageFix"/>
<feBlend mode="normal" in="SourceGraphic" in2="BackgroundImageFix" result="shape"/>
<feGaussianBlur stdDeviation="13.5" result="effect1_foregroundBlur_217_78"/>
</filter>
<filter id="filter1_b_217_78" x="9.44446" y="7.37256" width="103.886" height="113.585" filterUnits="userSpaceOnUse" color-interpolation-filters="sRGB">
<feFlood flood-opacity="0" result="BackgroundImageFix"/>
<feGaussianBlur in="BackgroundImageFix" stdDeviation="12"/>
<feComposite in2="SourceAlpha" operator="in" result="effect1_backgroundBlur_217_78"/>
<feBlend mode="normal" in="SourceGraphic" in2="effect1_backgroundBlur_217_78" result="shape"/>
</filter>
<filter id="filter2_bd_217_78" x="32.0479" y="32.1572" width="58.41" height="63.9114" filterUnits="userSpaceOnUse" color-interpolation-filters="sRGB">
<feFlood flood-opacity="0" result="BackgroundImageFix"/>
<feGaussianBlur in="BackgroundImageFix" stdDeviation="7.5"/>
<feComposite in2="SourceAlpha" operator="in" result="effect1_backgroundBlur_217_78"/>
<feColorMatrix in="SourceAlpha" type="matrix" values="0 0 0 0 0 0 0 0 0 0 0 0 0 0 0 0 0 0 127 0" result="hardAlpha"/>
<feOffset dx="5" dy="5"/>
<feGaussianBlur stdDeviation="5"/>
<feColorMatrix type="matrix" values="0 0 0 0 0.577356 0 0 0 0 0.359375 0 0 0 0 0.9375 0 0 0 0.5 0"/>
<feBlend mode="normal" in2="effect1_backgroundBlur_217_78" result="effect2_dropShadow_217_78"/>
<feBlend mode="normal" in="SourceGraphic" in2="effect2_dropShadow_217_78" result="shape"/>
</filter>
<linearGradient id="paint0_linear_217_78" x1="39.0252" y1="19.4056" x2="56.3538" y2="80.3025" gradientUnits="userSpaceOnUse">
<stop stop-color="#BC94FF"/>
<stop offset="1" stop-color="#9F66FF"/>
</linearGradient>
<linearGradient id="paint1_linear_217_78" x1="43.0223" y1="39.7803" x2="84.4657" y2="83.2799" gradientUnits="userSpaceOnUse">
<stop stop-color="white" stop-opacity="0.25"/>
<stop offset="1" stop-color="white" stop-opacity="0"/>
</linearGradient>
<linearGradient id="paint2_linear_217_78" x1="73.4435" y1="53.281" x2="41.7875" y2="54.1456" gradientUnits="userSpaceOnUse">
<stop stop-color="white"/>
<stop offset="1" stop-color="white" stop-opacity="0.2"/>
</linearGradient>
<linearGradient id="paint3_linear_217_78" x1="51.5703" y1="51.108" x2="73.684" y2="74.053" gradientUnits="userSpaceOnUse">
<stop stop-color="white" stop-opacity="0.25"/>
<stop offset="1" stop-color="white" stop-opacity="0"/>
</linearGradient>
</defs>
</svg>
