<svg width="88" height="86" viewBox="0 0 88 86" fill="none" xmlns="http://www.w3.org/2000/svg">
<path d="M55.7089 11.7454C52.3602 9.89522 48.4553 9.57629 44.8973 10.8462L21.4267 17.5248C17.7224 18.3215 14.4908 20.6712 12.4618 24.0516C10.7196 27.6078 10.4193 31.7548 11.6218 35.5599L17.9106 60.4849C18.6608 64.4188 20.8734 67.8507 24.0565 70.0054C27.4052 71.8555 31.3101 72.1744 34.8932 70.8974L58.3638 64.2187C62.043 63.4292 65.2997 61.0724 67.3287 57.692C69.0458 54.1429 69.3712 49.9888 68.1687 46.1837L61.8799 21.2587C61.1046 17.332 58.892 13.9 55.7089 11.7454" fill="url(#paint0_linear_136_2095)"/>
<g opacity="0.5" filter="url(#filter0_f_136_2095)">
<path d="M43.8597 18.7697L26.1599 24.0129C19.7397 25.9147 16.9237 30.5323 18.5035 36.5472L23.8543 56.919C25.4601 63.0325 30.0995 65.3567 36.5196 63.4548L54.2194 58.2117C60.7431 56.2793 63.4742 51.7718 61.8685 45.6583L56.5177 25.2865C54.9378 19.2716 50.3833 16.8373 43.8597 18.7697Z" fill="#FF9900"/>
</g>
<g filter="url(#filter1_b_136_2095)">
<mask id="path-3-outside-1_136_2095" maskUnits="userSpaceOnUse" x="25.7175" y="23.6689" width="59" height="63" fill="black">
<rect fill="white" x="25.7175" y="23.6689" width="59" height="63"/>
<path d="M79.3433 28.8742C76.3175 25.9312 72.3021 24.4297 68.2301 24.7H41.8187C37.7185 24.4297 33.703 25.9312 30.6773 28.8742C27.9061 32.0874 26.4922 36.3517 26.7467 40.706V68.7541C26.4922 73.1085 27.9061 77.3727 30.6773 80.586C33.703 83.5289 37.7185 85.0304 41.8187 84.7601H68.2301C72.3021 85.0304 76.3458 83.5289 79.3715 80.586C82.1145 77.3727 83.5566 73.1085 83.3021 68.7541V40.706C83.5284 36.3517 82.1145 32.0874 79.3433 28.8742"/>
</mask>
<path d="M79.3433 28.8742C76.3175 25.9312 72.3021 24.4297 68.2301 24.7H41.8187C37.7185 24.4297 33.703 25.9312 30.6773 28.8742C27.9061 32.0874 26.4922 36.3517 26.7467 40.706V68.7541C26.4922 73.1085 27.9061 77.3727 30.6773 80.586C33.703 83.5289 37.7185 85.0304 41.8187 84.7601H68.2301C72.3021 85.0304 76.3458 83.5289 79.3715 80.586C82.1145 77.3727 83.5566 73.1085 83.3021 68.7541V40.706C83.5284 36.3517 82.1145 32.0874 79.3433 28.8742" fill="#FFC224" fill-opacity="0.53"/>
<path d="M78.646 29.591C79.0419 29.9761 79.675 29.9673 80.0601 29.5714C80.4452 29.1755 80.4364 28.5424 80.0405 28.1573L78.646 29.591ZM68.2301 24.7V25.7C68.2522 25.7 68.2743 25.6993 68.2963 25.6978L68.2301 24.7ZM41.8187 24.7L41.753 25.6978C41.7749 25.6993 41.7968 25.7 41.8187 25.7V24.7ZM30.6773 28.8742L29.9801 28.1573C29.9592 28.1777 29.9391 28.199 29.9201 28.2211L30.6773 28.8742ZM26.7467 40.706H27.7467C27.7467 40.6866 27.7462 40.6671 27.745 40.6477L26.7467 40.706ZM26.7467 68.7541L27.745 68.8125C27.7462 68.793 27.7467 68.7736 27.7467 68.7541H26.7467ZM30.6773 80.586L29.9201 81.2391C29.9391 81.2612 29.9592 81.2824 29.9801 81.3028L30.6773 80.586ZM41.8187 84.7601V83.7601C41.7968 83.7601 41.7749 83.7609 41.753 83.7623L41.8187 84.7601ZM68.2301 84.7601L68.2963 83.7623C68.2743 83.7609 68.2522 83.7601 68.2301 83.7601V84.7601ZM79.3715 80.586L80.0688 81.3028C80.0909 81.2813 80.1121 81.2587 80.1321 81.2352L79.3715 80.586ZM83.3021 68.7541H82.3021C82.3021 68.7736 82.3027 68.793 82.3038 68.8125L83.3021 68.7541ZM83.3021 40.706L82.3035 40.6542C82.3026 40.6714 82.3021 40.6887 82.3021 40.706H83.3021ZM80.1005 28.2211C79.7398 27.8029 79.1084 27.7562 78.6902 28.1169C78.2719 28.4776 78.2253 29.1091 78.586 29.5273L80.1005 28.2211ZM80.0405 28.1573C76.8182 25.0232 72.5278 23.4126 68.1639 23.7022L68.2963 25.6978C72.0764 25.4469 75.8169 26.8393 78.646 29.591L80.0405 28.1573ZM68.2301 23.7H41.8187V25.7H68.2301V23.7ZM41.8845 23.7022C37.4937 23.4128 33.2031 25.0225 29.9801 28.1573L31.3746 29.591C34.2029 26.84 37.9432 25.4467 41.753 25.6978L41.8845 23.7022ZM29.9201 28.2211C26.9734 31.6377 25.4793 36.1593 25.7484 40.7644L27.745 40.6477C27.5052 36.544 28.8388 32.5371 31.4346 29.5273L29.9201 28.2211ZM25.7467 40.706V68.7541H27.7467V40.706H25.7467ZM25.7484 68.6958C25.4793 73.3008 26.9734 77.8225 29.9201 81.2391L31.4346 79.9329C28.8388 76.923 27.5052 72.9161 27.745 68.8125L25.7484 68.6958ZM29.9801 81.3028C33.2031 84.4377 37.4937 86.0474 41.8845 85.758L41.753 83.7623C37.9432 84.0134 34.2029 82.6201 31.3746 79.8691L29.9801 81.3028ZM41.8187 85.7601H68.2301V83.7601H41.8187V85.7601ZM68.1639 85.7579C72.526 86.0475 76.8452 84.4382 80.0688 81.3028L78.6743 79.8691C75.8464 82.6196 72.0782 84.0134 68.2963 83.7623L68.1639 85.7579ZM80.1321 81.2352C83.0445 77.8235 84.5698 73.305 84.3004 68.6958L82.3038 68.8125C82.5434 72.9119 81.1845 76.922 78.611 79.9367L80.1321 81.2352ZM84.3021 68.7541V40.706H82.3021V68.7541H84.3021ZM84.3008 40.7579C84.5398 36.1574 83.0472 31.6377 80.1005 28.2211L78.586 29.5273C81.1817 32.5371 82.5169 36.5459 82.3035 40.6542L84.3008 40.7579Z" fill="url(#paint1_linear_136_2095)" mask="url(#path-3-outside-1_136_2095)"/>
</g>
<g filter="url(#filter2_bd_136_2095)">
<path d="M71.1693 49.0256L52.1384 69.2959C51.1487 70.3169 49.8479 70.8875 48.4906 70.8875H41.8453C41.4777 70.8875 41.1384 70.7373 40.8839 70.467C40.6294 70.1968 40.5163 69.8364 40.5163 69.446L40.686 62.3289C40.7142 60.9175 41.2515 59.5962 42.1847 58.6052L55.6731 44.2808C55.8994 44.0406 56.2953 44.0406 56.5215 44.2808L61.2439 49.2658C61.5549 49.5961 62.0074 49.8064 62.4881 49.8064C63.5343 49.8064 64.3544 48.9055 64.3544 47.8244C64.3544 47.2838 64.1565 46.8033 63.8454 46.443C63.7606 46.3229 59.2644 41.5781 59.2644 41.5781C58.9816 41.2778 58.9816 40.7673 59.2644 40.467L61.159 38.425C62.9122 36.5631 65.74 36.5631 67.4932 38.425L71.1693 42.3289C72.8943 44.1607 72.8943 47.1637 71.1693 49.0256Z" fill="url(#paint2_linear_136_2095)"/>
<path d="M40.7859 62.3313L40.7859 62.3309C40.8137 60.9437 41.3417 59.6462 42.2575 58.6737L55.7459 44.3494C55.9327 44.1511 56.2619 44.1511 56.4487 44.3494L56.4489 44.3496L61.1711 49.3344C61.1711 49.3344 61.1712 49.3345 61.1712 49.3345C61.5003 49.6839 61.9786 49.9064 62.4881 49.9064C63.5961 49.9064 64.4544 48.9539 64.4544 47.8244C64.4544 47.26 64.248 46.7574 63.9231 46.3799C63.9107 46.3641 63.8849 46.3353 63.854 46.3013C63.816 46.2596 63.7631 46.2021 63.6975 46.1314C63.5662 45.99 63.3835 45.7946 63.1667 45.5637C62.7332 45.1019 62.1631 44.4975 61.5958 43.8968C61.0284 43.2962 60.4637 42.6993 60.0409 42.2526L59.5304 41.7135L59.3875 41.5627L59.3499 41.523L59.3403 41.5128L59.3378 41.5102L59.3372 41.5096C59.0907 41.2478 59.0907 40.7974 59.3372 40.5356L59.3377 40.535L61.2318 38.4935C61.2319 38.4935 61.2319 38.4934 61.232 38.4933C62.9458 36.6736 65.7067 36.6736 67.4204 38.4935L71.0965 42.3974C72.7848 44.1903 72.7857 47.1335 71.0962 48.9573C71.0962 48.9574 71.0961 48.9575 71.096 48.9576L52.0666 69.2263C52.0665 69.2264 52.0663 69.2266 52.0661 69.2268C51.0941 70.2293 49.819 70.7875 48.4906 70.7875H41.8453C41.5061 70.7875 41.1929 70.6493 40.9567 70.3985C40.7239 70.1513 40.6165 69.8181 40.6163 69.4472C40.6163 69.4468 40.6163 69.4464 40.6163 69.446L40.7859 62.3313Z" stroke="url(#paint3_linear_136_2095)" stroke-opacity="0.5" stroke-width="0.2"/>
</g>
<defs>
<filter id="filter0_f_136_2095" x="0.0729675" y="0.119629" width="80.2449" height="81.9822" filterUnits="userSpaceOnUse" color-interpolation-filters="sRGB">
<feFlood flood-opacity="0" result="BackgroundImageFix"/>
<feBlend mode="normal" in="SourceGraphic" in2="BackgroundImageFix" result="shape"/>
<feGaussianBlur stdDeviation="9" result="effect1_foregroundBlur_136_2095"/>
</filter>
<filter id="filter1_b_136_2095" x="1.71747" y="-0.331055" width="106.613" height="110.122" filterUnits="userSpaceOnUse" color-interpolation-filters="sRGB">
<feFlood flood-opacity="0" result="BackgroundImageFix"/>
<feGaussianBlur in="BackgroundImageFix" stdDeviation="12"/>
<feComposite in2="SourceAlpha" operator="in" result="effect1_backgroundBlur_136_2095"/>
<feBlend mode="normal" in="SourceGraphic" in2="effect1_backgroundBlur_136_2095" result="shape"/>
</filter>
<filter id="filter2_bd_136_2095" x="25.5163" y="22.0286" width="61.9467" height="63.8589" filterUnits="userSpaceOnUse" color-interpolation-filters="sRGB">
<feFlood flood-opacity="0" result="BackgroundImageFix"/>
<feGaussianBlur in="BackgroundImageFix" stdDeviation="7.5"/>
<feComposite in2="SourceAlpha" operator="in" result="effect1_backgroundBlur_136_2095"/>
<feColorMatrix in="SourceAlpha" type="matrix" values="0 0 0 0 0 0 0 0 0 0 0 0 0 0 0 0 0 0 127 0" result="hardAlpha"/>
<feOffset dx="5" dy="5"/>
<feGaussianBlur stdDeviation="5"/>
<feColorMatrix type="matrix" values="0 0 0 0 1 0 0 0 0 0.6 0 0 0 0 0 0 0 0 1 0"/>
<feBlend mode="normal" in2="effect1_backgroundBlur_136_2095" result="effect2_dropShadow_136_2095"/>
<feBlend mode="normal" in="SourceGraphic" in2="effect2_dropShadow_136_2095" result="shape"/>
</filter>
<linearGradient id="paint0_linear_136_2095" x1="58.3097" y1="6.99999" x2="31.4776" y2="59.8969" gradientUnits="userSpaceOnUse">
<stop stop-color="#FFDD85"/>
<stop offset="1" stop-color="#FF9900"/>
</linearGradient>
<linearGradient id="paint1_linear_136_2095" x1="35.7294" y1="31.6733" x2="74.5025" y2="76.8921" gradientUnits="userSpaceOnUse">
<stop stop-color="white" stop-opacity="0.25"/>
<stop offset="1" stop-color="white" stop-opacity="0"/>
</linearGradient>
<linearGradient id="paint2_linear_136_2095" x1="70.198" y1="43.1428" x2="34.6083" y2="44.2377" gradientUnits="userSpaceOnUse">
<stop stop-color="white"/>
<stop offset="1" stop-color="white" stop-opacity="0.2"/>
</linearGradient>
<linearGradient id="paint3_linear_136_2095" x1="43.9577" y1="48.3866" x2="71.085" y2="48.5279" gradientUnits="userSpaceOnUse">
<stop stop-color="white"/>
<stop offset="1" stop-color="white" stop-opacity="0"/>
</linearGradient>
</defs>
</svg>
