<svg width="99" height="86" viewBox="0 0 99 86" fill="none" xmlns="http://www.w3.org/2000/svg">
<g opacity="0.2" clip-path="url(#clip0_136_2096)">
<path d="M89.5582 68.6823C88.9507 69.2007 88.5678 69.9362 88.4905 70.7332C88.42 71.1849 88.0093 71.2466 87.6999 71.3266C87.4319 71.35 87.1773 71.4546 86.9698 71.6266C86.8986 71.6733 86.817 71.7014 86.7322 71.7084C86.6475 71.7154 86.5623 71.701 86.4845 71.6666C86.0898 71.4657 85.7141 71.2291 85.362 70.9599C84.199 69.8586 83.2058 68.5893 82.4153 67.1938C81.5159 65.8322 80.7141 64.4079 80.016 62.9319C79.8128 62.4594 79.8036 62.4669 80.3163 62.1035C80.7312 62.8978 81.1194 63.7045 81.5682 64.4745C81.9241 65.0862 82.3547 65.6529 82.7886 66.2921C82.8436 66.1897 82.8673 66.0733 82.8568 65.9574C82.8463 65.8415 82.8021 65.7312 82.7297 65.6404C81.8286 64.3851 81.048 63.0469 80.3985 61.6435L80.7527 61.411L80.956 61.5877V61.066L81.9067 60.876C82.1904 61.0085 82.3215 61.5127 82.7919 61.5752C82.777 62.0852 83.2208 62.3394 83.4432 62.7119C83.723 63.1327 84.0292 63.5352 84.3599 63.917C84.6594 63.877 84.8834 63.8336 85.1065 63.8186C85.9005 63.7628 85.8814 63.7878 86.3758 64.2262C86.925 64.7129 87.3008 65.3929 88.0102 65.7029C88.036 65.7169 88.0583 65.7367 88.0754 65.7606C88.0925 65.7846 88.104 65.8122 88.1089 65.8413C88.1313 66.3538 88.4167 66.5396 88.8954 66.6638C89.2969 66.7688 89.4114 67.1938 89.4296 67.6122C89.4437 67.9331 89.5026 68.2514 89.5557 68.6823" fill="white"/>
<path d="M18.697 9.18469C19.2686 9.47054 19.2686 9.47054 19.5714 8.873C19.9596 8.73883 20.43 9.00801 20.7809 8.64966C21.1713 8.76719 21.5675 8.86373 21.9681 8.93884C22.616 9.02801 22.9512 9.53221 23.3171 9.95557C23.5659 10.2431 23.8256 10.5323 24.0529 10.8448C24.3184 11.2106 24.6337 11.5382 24.9024 11.9032C25.1439 12.2365 25.3504 12.5916 25.5661 12.9416C25.6377 13.0331 25.6817 13.1433 25.6931 13.2591C25.6816 13.3807 25.6995 13.5033 25.7453 13.6165C25.7911 13.7296 25.8634 13.83 25.9561 13.9091C26.3261 14.2842 26.297 14.8342 26.4256 15.3025C26.5087 15.7652 26.5129 16.2386 26.4381 16.7026C26.424 16.881 26.3999 17.261 26.01 16.9801C25.9826 16.9601 25.8441 17.106 25.752 17.161C25.6599 17.216 25.484 17.3277 25.4492 17.2993C25.0344 16.936 24.9373 17.196 24.749 17.5552C24.4719 18.0835 24.3026 18.0444 23.5593 17.911C23.1063 17.8277 22.6268 17.8152 22.3622 17.421C21.5425 16.4193 21.0069 15.2142 20.8116 13.9325C20.8096 13.6508 20.7519 13.3724 20.642 13.1134C20.532 12.8543 20.372 12.6197 20.1712 12.4232C19.7846 12.084 19.5282 11.5998 19.0006 11.4115C18.8413 11.354 18.7252 11.164 18.6049 11.0231C18.3398 10.7365 18.1917 10.3602 18.1901 9.9689C18.1826 9.53138 18.5269 9.43304 18.697 9.18469Z" fill="white"/>
<path d="M79.4353 44.8368C78.9715 44.3709 78.5824 43.9142 78.1286 43.5326C76.8294 42.4492 76.2081 40.9149 75.4299 39.4865C75.1699 38.8343 75.0889 38.124 75.1951 37.4297C75.1951 37.3089 75.361 37.1922 75.4606 37.0655L75.8978 37.9347V36.6497C76.1545 36.5554 76.3982 36.4285 76.6229 36.2721C76.718 36.193 76.8324 36.1407 76.9543 36.1207C77.0761 36.1006 77.2011 36.1135 77.3164 36.158C77.5676 36.2633 77.8019 36.4054 78.0116 36.5796C77.9239 37.224 78.0845 37.8778 78.4605 38.4073C78.7533 38.3239 79.0993 38.5364 79.3929 38.2339C79.4462 38.2023 79.5063 38.1844 79.5681 38.1816C79.6299 38.1788 79.6914 38.1914 79.7472 38.2181C80.4665 38.6523 81.3483 38.8848 81.7117 39.7748C81.7772 39.9357 81.8494 40.1432 81.9805 40.2149C82.1788 40.3224 82.0004 40.6591 82.3406 40.6716C82.6201 40.6824 82.4418 40.9691 82.4915 41.1249C82.5656 41.3148 82.626 41.5098 82.6724 41.7083C82.6901 41.8947 82.6923 42.0823 82.679 42.2691C81.9896 42.8952 81.4625 43.6807 81.1434 44.5576L79.4361 44.8368" fill="white"/>
<path d="M1.38696 0.946464C1.55786 0.713117 1.6906 0.518106 1.83827 0.334762C1.8997 0.269498 1.97253 0.216111 2.05314 0.177253C2.27381 0.0530787 2.43061 0.403932 2.67701 0.251424C2.8692 0.121312 3.0876 0.0353777 3.31664 -0.000257693C3.49915 -0.0177587 3.77043 0.203087 3.86916 0.13225C4.08817 -0.0260925 4.21925 -0.0735953 4.40923 0.140584C4.44491 0.179753 4.57516 0.150584 4.65812 0.130583C5.25544 -0.0144252 5.25461 -0.0160919 5.57069 0.567275L5.72085 0.136417C5.81079 0.341758 5.88646 0.553109 5.94733 0.768954C5.98945 1.0076 6.01303 1.24918 6.01785 1.4915C6.00383 1.74499 6.05138 1.99811 6.15639 2.22904L6.24682 1.32399H6.34306C6.36782 1.48331 6.38443 1.64381 6.39283 1.80485C6.39781 2.61906 6.35965 3.43494 6.40611 4.24582C6.47287 4.93396 6.3021 5.62424 5.92244 6.20094C5.77146 6.05593 5.62876 5.83591 5.45703 6.18677C5.26871 6.57012 4.96839 6.54096 4.5793 6.36511C4.51459 6.7818 4.48556 7.27266 3.79864 7.11516V6.06843L3.66092 6.04093L3.32908 7.11932C3.02212 6.91264 2.77075 6.69346 2.82053 6.25927C2.83463 6.1376 2.69277 6.00426 2.64714 5.86842C2.44969 5.27672 2.45301 5.27505 1.96354 5.26088C1.86979 5.26088 1.77688 5.26088 1.68313 5.26088H1.42927C1.192 5.0217 0.977962 4.79335 0.752308 4.58334C0.315814 4.13274 0.0587558 3.53713 0.0297167 2.90908C-0.00844545 2.60073 0.0579234 2.27904 0.013954 1.97152C-0.00215419 1.67023 0.0976444 1.37425 0.292703 1.14481C0.598 0.666448 0.764752 0.656447 1.38696 0.946464Z" fill="white"/>
<path d="M56.0369 8.39797C55.6371 8.67049 55.2521 8.94384 54.8514 9.19052C54.8124 9.21469 54.6731 9.07218 54.5196 8.96717C54.4478 9.12073 54.3646 9.26865 54.2707 9.4097C54.1468 9.55054 54.0159 9.68489 53.8783 9.81222C53.6145 10.0856 53.3598 10.3898 52.9699 9.97473C52.94 9.94306 52.8496 9.97473 52.7873 9.96806C52.3493 9.92056 51.932 10.0306 51.4907 9.67638C51.0918 9.42527 50.7107 9.14681 50.3499 8.843C50.0169 8.53417 49.7295 8.17919 49.4963 7.78877C49.094 7.19407 48.9018 6.48103 48.9504 5.76365C49.0175 5.5489 49.11 5.34298 49.2258 5.15028L49.8066 5.62865C49.9592 5.12028 49.9277 4.52942 50.3972 4.08106L50.978 4.51858V3.83188C51.5635 3.66849 52.166 3.57423 52.7732 3.55103C53.0992 3.55804 53.4118 3.68223 53.6543 3.90105C53.9771 4.14395 54.2708 4.42361 54.5295 4.73443C54.7419 5.05528 55.0323 5.32363 55.2554 5.65115C55.5552 6.21529 55.8085 6.80312 56.0129 7.40875C56.0848 7.73383 56.0924 8.06994 56.0353 8.39797" fill="white"/>
<path d="M16.3491 26.3948V28.4149C16.4899 27.9147 16.5474 27.3946 16.5192 26.8756C16.525 26.6689 16.4279 26.4098 16.6768 26.2889C16.9292 26.1493 17.2014 26.0495 17.484 25.9931C17.5794 25.9789 17.7611 26.2064 17.8159 26.3548C17.8501 26.5392 17.8546 26.728 17.8291 26.9139C17.9843 26.8489 18.078 26.7731 18.161 26.7823C18.3319 26.8014 18.5675 26.9606 18.6587 26.8964C19.1399 26.5373 19.6734 26.7739 20.1769 26.7431C20.3076 26.7425 20.4368 26.7715 20.5549 26.8279C20.6729 26.8843 20.7768 26.9667 20.8589 27.069C21.1268 27.5265 21.6677 27.6665 21.9515 28.204C21.9488 28.501 22.0464 28.7901 22.2286 29.0241C22.4089 29.2232 22.5451 29.4586 22.6281 29.7147C22.711 29.9707 22.7388 30.2415 22.7097 30.5092C22.6842 30.8055 22.6814 31.1033 22.7014 31.4C22.0626 31.7809 21.3981 32.1501 20.761 32.5668C20.4723 32.723 20.1445 32.7914 19.8177 32.7636C19.4909 32.7358 19.1793 32.6129 18.9209 32.4101C18.5061 32.1918 17.9511 32.0901 17.8117 31.5092C16.8859 31.09 16.7208 30.11 16.2271 29.3699C15.9755 28.8717 15.834 28.3247 15.8123 27.7665C15.7327 27.3265 16.0388 26.8264 16.1749 26.3531L16.3491 26.3948Z" fill="white"/>
<path d="M34.482 36.5762L33.1986 35.2912C33.1801 34.9417 33.1856 34.5914 33.2152 34.2428C33.2335 34.1078 33.4268 33.9719 33.5711 33.8927C33.625 33.8627 33.7686 33.9928 33.8681 34.0469C34.0042 33.7761 34.0838 33.4094 34.5442 33.4986C34.6327 33.5237 34.7274 33.5148 34.8097 33.4736C34.9048 33.3651 35.0247 33.2816 35.1592 33.2302C35.2936 33.1788 35.4385 33.161 35.5813 33.1785C36.1262 33.2613 36.6458 33.4654 37.1019 33.7761C37.9566 34.4517 38.6367 35.3241 39.0847 36.3196C39.3368 36.9384 39.5288 37.5804 39.658 38.2363C39.6903 38.4047 39.6746 38.5788 39.6129 38.7386C39.5511 38.8984 39.4456 39.0374 39.3087 39.1397C38.7761 39.5139 38.2642 39.9189 37.72 40.2748C37.5234 40.4045 37.2914 40.4694 37.0563 40.4606C36.4044 40.4546 35.7748 40.2212 35.2753 39.8002C34.7759 39.3792 34.4377 38.7969 34.3186 38.153C34.224 37.9425 34.1678 37.7167 34.1527 37.4863C34.2303 37.175 34.3416 36.8732 34.4845 36.5862" fill="white"/>
<path d="M36.8181 70.5917L36.707 70.0258C36.707 70.7758 35.9172 71.055 35.7454 71.6925C35.7277 71.7445 35.6988 71.7918 35.6608 71.8312C35.6227 71.8706 35.5765 71.901 35.5254 71.9204C35.4742 71.9397 35.4195 71.9475 35.365 71.9431C35.3106 71.9387 35.2578 71.9223 35.2103 71.8951C34.9839 71.6892 34.8295 71.8392 34.7018 71.9234C34.56 72.0269 34.3892 72.0827 34.214 72.0827C34.0387 72.0827 33.8679 72.0269 33.7262 71.9234C32.6642 71.4476 31.7559 70.6829 31.1038 69.7158C30.3895 69.3291 30.1854 68.5449 29.744 67.9482C29.5551 67.6084 29.4096 67.2461 29.311 66.8698C29.5723 66.4872 29.9514 66.5889 30.4102 66.8189C30.4023 66.6327 30.3607 66.4494 30.2874 66.2781C30.1622 66.1114 30.2957 66.0422 30.3704 66.0122C30.705 65.9083 31.017 65.7414 31.2896 65.5205C31.3543 65.458 31.5385 65.4822 31.6521 65.5205C31.8562 65.583 32.0304 65.7139 32.2569 65.5289C32.3208 65.4764 32.5299 65.5814 32.6618 65.6389C33.8132 66.062 34.801 66.8418 35.4825 67.8657C35.6129 68.0322 35.7621 68.1829 35.9271 68.3149C36.3618 68.7207 36.4431 69.3149 36.78 69.7491C36.8729 69.8687 36.9268 70.0142 36.9343 70.1657C36.9419 70.3173 36.9028 70.4674 36.8223 70.5958" fill="white"/>
<path d="M93.7021 26.7016C93.7269 26.5283 93.7518 26.3541 93.7792 26.1624C93.8472 26.2124 93.9078 26.2316 93.9236 26.2699C94.2014 26.8457 94.4303 27.4439 94.608 28.0584C94.6968 28.4551 94.8096 28.8351 94.4271 29.1418C94.1666 29.3526 94.4271 29.9568 93.8464 29.9235C93.5702 30.3693 93.1271 30.3243 92.704 30.2943C92.6299 30.5831 92.5365 30.8665 92.4245 31.1427C92.2843 31.4344 91.8346 31.5169 91.3534 31.3794C91.2431 31.3477 91.1369 31.2402 91.0365 31.2494C90.2567 31.3177 90.2575 31.3236 89.9298 30.706C89.7497 30.4071 89.5866 30.0983 89.4412 29.781C89.3749 29.597 89.2701 29.4295 89.1336 29.2898C88.9972 29.1502 88.8324 29.0417 88.6506 28.9717C88.3697 28.8544 88.1233 28.6669 87.935 28.4269C87.7467 28.187 87.6226 27.9026 87.5745 27.6008C87.5403 27.3216 87.5833 27.0382 87.6987 26.7818C87.8142 26.5255 87.9977 26.306 88.2291 26.1474L89.0529 27.2308C89.0529 26.7758 89.0479 26.4699 89.0529 26.1641C89.0579 25.8582 89.0919 25.9224 89.5714 25.7057C89.9149 25.5482 90.411 25.7349 90.6076 25.2574L91.6214 25.2149C92.2461 25.1899 92.7994 25.2582 93.0906 25.9557C93.2578 26.2313 93.4634 26.4814 93.7012 26.6983" fill="white"/>
<path d="M1.31166 31.2759C1.03358 31.2273 0.779043 31.0884 0.587083 30.8805C0.395124 30.6726 0.276336 30.4072 0.248932 30.125C0.100636 29.5367 0.0196399 28.9333 0.00751532 28.3265C0.0686599 27.5138 0.0686599 26.6975 0.00751532 25.8847C-0.0248395 25.4914 0.226533 25.2005 0.220725 24.833C0.220725 24.7372 0.351804 24.5522 0.414025 24.5563C0.896859 24.5838 1.12583 24.0563 1.63189 24.0563C1.96374 24.0563 2.30056 23.7388 2.67637 23.5413C3.04721 23.9138 3.83783 23.4529 4.13483 24.2738C3.93821 24.8505 4.42768 25.3572 4.59361 25.9472C4.61684 26.0306 4.70311 26.1031 4.70394 26.1814C4.71224 27.1115 4.70892 28.0415 4.70892 29.0516L4.33311 28.7182C4.38371 28.9366 4.37376 29.1041 4.44842 29.1608C4.52309 29.2174 4.69731 29.1541 4.80599 29.1916C4.85659 29.2083 4.88397 29.3433 4.88895 29.4266C4.88895 29.4649 4.80599 29.5491 4.77861 29.5433C4.55213 29.4991 4.32813 29.4366 4.0834 29.3766L3.60305 30.4167L3.04306 30.375C3.3102 30.6458 3.00324 30.7433 2.89207 30.9092C2.78815 31.0795 2.6929 31.255 2.60669 31.4351C2.01683 31.3709 1.79699 30.9892 1.63936 30.4833L1.31166 31.2759Z" fill="white"/>
<path d="M70.2955 74.5668C69.811 74.5527 69.3522 74.4218 69.1174 74.961C68.7217 74.436 68.6752 74.066 69.0776 73.6493C69.3186 73.324 69.5922 73.0243 69.8939 72.7551C70.2042 72.5375 70.3187 72.0567 70.5858 71.7508C70.8222 71.5328 71.0831 71.3431 71.3632 71.1858L71.6735 71.4916L71.2338 71.8058L71.286 71.9183L71.9497 71.8133C72.0136 71.91 72.0883 72.1567 72.2467 72.24C73.1346 72.7764 73.873 73.5299 74.3929 74.4301C74.5506 74.7392 74.6875 75.0586 74.8028 75.386C75.1811 76.1544 75.2789 76.2969 75.1636 76.9953C75.1291 77.5281 74.9299 78.0368 74.5937 78.4504C74.4197 78.6094 74.303 78.8219 74.2618 79.0546C74.2411 79.5796 73.9541 79.663 73.5326 79.638C73.4122 79.6314 73.2914 79.6443 73.1751 79.6763C72.4392 79.8755 72.3629 79.8546 71.9962 79.2879C71.5111 78.4273 71.1354 77.509 70.8779 76.5544C70.6547 75.8952 70.4838 75.221 70.2971 74.5668" fill="white"/>
<path d="M58.3781 64.2387C57.8446 63.9797 57.3493 63.6476 56.9064 63.252C56.1158 62.4503 55.2671 61.6952 54.537 60.8443C53.7235 60.0023 53.0358 59.0462 52.4954 58.0058C52.5443 57.59 53.0836 58.0284 53.0943 57.5417C53.0943 57.4016 53.4395 57.2658 53.6286 57.1333C54.099 56.7999 54.362 56.7483 54.7071 57.115C55.0245 57.4325 55.4364 57.6373 55.8802 57.6983C56.5081 57.9408 57.0956 58.278 57.6224 58.6984C58.2072 59.0919 58.7389 59.5597 59.2044 60.0901C59.4913 60.3139 59.7642 60.5552 60.0216 60.8127C60.2623 61.0909 60.4391 61.419 60.5393 61.7736C60.5441 61.9042 60.5229 62.0345 60.4771 62.1568C60.4312 62.2792 60.3615 62.3911 60.2721 62.4861C60.0755 62.7161 59.9818 63.0486 59.6375 63.1603C59.4384 63.2245 59.4666 63.4478 59.4276 63.6328C59.3828 63.8445 59.3239 64.102 58.9589 63.8362C58.7033 63.6512 58.4885 63.9137 58.3781 64.2387Z" fill="white"/>
<path d="M96.1063 58.7943C95.2193 58.3696 94.5149 57.6375 94.1227 56.7325C93.7168 56.0305 93.3609 55.3006 93.0575 54.5482C92.7605 53.7982 92.2419 53.084 92.4734 52.1423C93.1487 52.6156 93.0923 53.5198 93.7427 54.124C93.5067 53.2079 93.2194 52.3059 92.8824 51.4222L93.498 51.7614C93.527 51.5947 93.5577 51.428 93.5884 51.2547L94.4786 51.0839C94.5657 51.2239 94.6802 51.4314 94.8162 51.6231C95.3472 52.3731 95.3497 52.3664 96.3095 52.7065C96.4174 52.7506 96.52 52.8065 96.6157 52.8731C97.3863 53.2998 98.0224 53.935 98.4516 54.7066C98.6443 55.0752 98.7638 55.478 98.8033 55.8925C98.8159 55.9796 98.8568 56.0602 98.9195 56.1217C98.9492 56.1474 98.9717 56.1805 98.9849 56.2177C98.998 56.2548 99.0013 56.2948 98.9944 56.3336C98.9876 56.3724 98.9708 56.4088 98.9457 56.4391C98.9207 56.4695 98.8882 56.4927 98.8515 56.5067C98.4308 56.745 98.2483 57.2151 97.8742 57.4959C97.8063 57.5552 97.7518 57.6284 97.7145 57.7107C97.6771 57.7929 97.6577 57.8822 97.6576 57.9726C97.5902 58.1343 97.4779 58.2731 97.3343 58.3727C97.1906 58.4722 97.0215 58.5283 96.8471 58.5343C96.6953 58.4993 96.5982 58.2193 96.3908 58.426C96.2873 58.5426 96.1914 58.6659 96.1038 58.7951" fill="white"/>
<path d="M65.7583 36.8555L65.1867 36.9505L65.4165 37.383L64.0302 38.7747C63.9438 38.7667 63.8569 38.7667 63.7705 38.7747C63.3148 38.8347 62.8516 38.7604 62.4371 38.5608C62.0227 38.3612 61.6749 38.045 61.436 37.6505C60.9734 37.0815 60.5858 36.4549 60.2828 35.7862C60.0393 35.3671 59.9594 34.8719 60.0589 34.397L60.9457 36.3554L61.0975 36.3071C61.0855 36.1858 61.0614 36.066 61.0253 35.9496C60.8387 35.4954 60.6188 35.052 60.4396 34.5945C60.3567 34.392 60.1908 34.1395 60.6238 34.0453C60.7557 34.0161 60.8387 33.7236 60.9374 33.5569C61.027 33.4061 61.1133 33.2544 61.1863 33.1327C61.6243 33.0927 61.6285 33.4769 61.9014 33.6328L61.6907 32.8294L62.2051 32.4194C62.3229 32.5377 62.4797 32.7252 62.6257 32.3785C62.7833 32.0035 63.0164 31.8577 63.3939 32.1035C63.4279 32.126 63.4992 32.1435 63.5216 32.1243C63.9589 31.7627 64.2169 32.1243 64.4193 32.4002C64.8488 33.0901 65.1848 33.8345 65.4181 34.6137C65.4862 34.7912 65.6347 35.2079 65.1361 35.2279C65.1079 35.2279 65.0863 35.3845 65.0622 35.4679C65.1659 35.4929 65.3252 35.5737 65.365 35.5337C65.3927 35.4922 65.4334 35.4613 65.4807 35.446C65.528 35.4307 65.5791 35.4319 65.6256 35.4493C65.6721 35.4668 65.7115 35.4995 65.7372 35.5422C65.7629 35.5849 65.7736 35.635 65.7674 35.6846C65.6015 36.0812 65.9889 36.4646 65.7591 36.8513" fill="white"/>
<path d="M62.3652 16.7667L62.7527 17.1559C62.7834 16.89 62.8091 16.67 62.8356 16.4308C63.2214 16.3475 63.6188 16.2475 64.0228 16.1875C64.2703 16.1504 64.5219 16.1504 64.7694 16.1875C64.9553 16.2167 64.8093 16.5634 65.1552 16.5942C65.3792 16.6142 65.5509 16.9959 65.7102 17.2609C65.8396 17.4767 65.6463 17.9434 66.1366 17.9159C66.1532 18.2215 66.1704 18.5271 66.1881 18.8326C66.1907 18.8623 66.1949 18.8918 66.2005 18.921L67.5918 20.3227C67.7443 20.3125 67.8974 20.3142 68.0497 20.3277C68.282 20.3652 68.5326 20.5969 68.4139 20.7444C68.1485 21.0636 68.6238 21.2845 68.4355 21.5453C67.9465 21.7452 67.4091 21.7937 66.8924 21.6845L67.3305 22.6362C67.2367 22.727 67.1123 22.9479 66.9903 22.9479C66.2179 22.9421 65.4058 23.1387 64.7172 22.5879C64.5157 22.4573 64.3291 22.305 64.1605 22.1337C63.8287 21.717 63.5333 21.2728 63.2313 20.8344C63.0828 20.6178 62.9551 20.3861 62.8165 20.1677C62.595 19.826 62.6606 19.3343 62.2549 19.0843C62.2539 18.697 62.1409 18.3183 61.9297 17.9943C61.8754 17.8854 61.8436 17.7666 61.8363 17.6451C61.8289 17.5236 61.8461 17.4018 61.8867 17.2871C61.9274 17.1724 61.9908 17.0672 62.073 16.9778C62.1553 16.8883 62.2547 16.8165 62.3652 16.7667Z" fill="white"/>
<path d="M33.4425 2.81191H34.3077C34.6396 2.81191 35.0038 2.75607 35.0809 3.24194C35.0993 3.27823 35.1267 3.30918 35.1604 3.3318C35.1941 3.35442 35.233 3.36796 35.2734 3.37111C35.6691 3.31194 35.7712 3.68779 36.0143 3.85364C36.5527 4.33153 36.8825 5.0029 36.9326 5.72291C37.0264 6.11294 36.9011 6.38962 36.4598 6.65797C35.8991 6.87606 35.3995 7.22752 35.0038 7.68219C34.7035 7.68803 34.4579 8.15972 34.107 7.7822C34.0356 7.72842 33.947 7.70291 33.8581 7.71053C33.3339 7.7009 32.8219 7.55034 32.3753 7.2745C31.9287 6.99866 31.5638 6.60764 31.3187 6.1421C30.9504 5.72136 30.6684 5.23168 30.489 4.70119C30.4397 4.46717 30.4073 4.22987 30.392 3.99115C30.3862 3.91281 30.4318 3.7778 30.4857 3.7578C30.9628 3.58696 31.3046 3.17943 31.77 3.01359C32.3048 2.81884 32.8769 2.74984 33.4425 2.81191Z" fill="white"/>
<path d="M31.94 48.4761L32.3739 49.162C32.4179 48.8345 32.4345 48.722 32.4478 48.6095C32.4892 48.2361 32.4884 48.2369 32.958 48.1928C33.0169 48.1869 33.1073 48.1928 33.128 48.1611C33.2137 48.0104 33.3493 47.8945 33.5111 47.8336C33.6729 47.7727 33.8509 47.7706 34.0141 47.8277C34.4074 47.9239 34.7778 48.0972 35.1042 48.3378C36.1992 49.3449 37.017 50.6188 37.4785 52.0363C37.5279 52.3037 37.5321 52.5776 37.491 52.8464L37.1326 52.8064C37.1566 53.1439 37.0803 53.3939 36.6871 53.4731C36.6165 53.4988 36.5531 53.5413 36.5026 53.5971C36.452 53.6528 36.4156 53.7201 36.3967 53.7931C36.3569 54.1998 35.9413 54.0014 35.7961 54.2098C35.5646 53.8398 35.1656 54.2881 34.9051 54.0231C34.6446 53.7581 34.3144 53.5747 34.1493 53.2731C33.7698 52.6271 33.4606 51.942 33.2268 51.2296C33.1916 51.0697 33.1248 50.9185 33.0303 50.7851C32.9358 50.6517 32.8156 50.5387 32.6767 50.4529C32.2279 50.2082 31.8676 49.8272 31.6472 49.3645C31.4622 48.9611 31.4539 48.9645 31.94 48.4761Z" fill="white"/>
<path d="M49.5046 37.5272C49.492 37.4134 49.4945 37.2986 49.512 37.1855C49.5319 37.1071 49.6655 37.0546 49.6779 36.9796C49.6904 36.9046 49.595 36.8038 49.595 36.7146C49.595 36.6255 49.7053 36.5388 49.6829 36.4804C49.6351 36.3693 49.5597 36.2723 49.4639 36.1988C49.3742 36.1549 49.2777 36.1267 49.1785 36.1154L49.3312 36.6488C48.9993 36.4463 48.6326 36.2846 48.7944 35.7962L49.2324 35.9854C49.2847 35.397 48.7421 35.7029 48.5331 35.4245C48.8392 35.4612 49.0425 35.2495 49.3502 35.2904C49.4929 35.3095 49.6821 35.0045 49.897 34.797L50.939 35.6512L51.0385 35.0362L52.4157 34.7687C52.6554 35.0762 52.8421 35.352 53.0702 35.5971C53.2685 35.8054 53.5406 35.9446 53.7339 36.1579C54.2217 36.78 54.5639 37.5043 54.7353 38.2772C54.8182 38.5464 54.9012 38.9731 54.3885 39.0456C54.3885 39.5406 53.8716 39.6148 53.6368 39.9281C53.4691 40.1192 53.2411 40.2466 52.991 40.289C52.741 40.3315 52.484 40.2865 52.263 40.1615C51.4931 39.7854 50.83 39.2205 50.335 38.5189C50.067 38.1972 49.7651 37.8947 49.5054 37.5255" fill="white"/>
<path d="M64.9478 49.7354L65.4124 49.8946C65.4464 49.102 64.6317 48.8804 64.5214 48.1511C64.6599 48.1967 64.7929 48.2576 64.9179 48.3328C65.0866 48.483 65.2475 48.6419 65.3999 48.8087C65.3825 48.5238 65.2649 48.2545 65.0681 48.0486C65.5542 47.4486 65.5542 47.4486 66.1358 47.4486C66.4167 47.8582 66.7544 48.2252 67.1388 48.5387C67.5918 48.8162 67.7245 49.2887 68.058 49.6312C68.3627 49.9869 68.6127 50.3863 68.7997 50.8163C68.9316 51.0461 68.9931 51.3099 68.9764 51.5747C68.9283 51.8772 68.7997 52.3247 68.5865 52.4081C68.2364 52.5497 68.3143 52.7989 68.204 53.0131C68.1423 53.1721 68.0428 53.3134 67.9143 53.425C67.7857 53.5365 67.632 53.6149 67.4665 53.6531C67.245 53.6898 66.9812 53.8598 66.8186 53.7856C66.4104 53.6185 66.0381 53.374 65.7218 53.0656C65.1761 52.4657 64.6696 51.831 64.2053 51.1655C64.0867 50.9988 64.1414 50.7105 64.1066 50.3846L64.4592 50.6705C64.3903 50.1904 64.8084 50.0254 64.9478 49.7362" fill="white"/>
<path d="M60.0216 84.2616L59.5238 83.9858C59.3131 84.75 59.2608 84.79 58.6386 84.515L59.0775 85.5409L58.5797 85.8309L57.6306 84.8792C57.4282 85.3375 57.9857 85.5459 57.9309 85.9926C57.4332 86.0626 57.1403 85.7209 56.8524 85.4092C56.6948 85.2375 56.6102 84.9975 56.4476 84.8316C55.7303 84.0907 55.0689 83.2971 54.469 82.4573C54.4093 82.3851 54.3436 82.3181 54.2724 82.2573C54.0652 82.1113 53.8897 81.9245 53.7565 81.7084C53.6233 81.4922 53.5352 81.2511 53.4975 80.9998C53.8617 80.7756 54.055 81.1206 54.303 81.3331C54.5519 80.9164 53.9712 80.8581 53.9986 80.5497C54.0202 80.1789 54.7253 80.6539 54.5461 80.0455H55.5607C55.8511 80.2505 56.1415 80.4539 56.4343 80.6647C56.6894 80.9214 56.9693 81.152 57.2697 81.3531C57.614 81.5198 57.8422 81.9165 58.145 82.1865C58.3424 82.3615 58.4677 82.6032 58.7838 82.6807C59.0119 82.7374 59.1339 83.0857 59.4815 83.0407C59.5777 83.0282 59.7519 83.2074 59.8017 83.3282C59.8958 83.6346 59.9689 83.947 60.0207 84.2633" fill="white"/>
<path d="M53.5821 21.2997C53.9048 21.3213 54.1272 21.1538 54.4217 21.3672L54.045 21.498C54.1554 21.8755 54.279 22.2481 54.3694 22.6323C54.3927 22.7306 54.3412 22.9239 54.2732 22.9523C53.8974 23.1115 53.7837 23.5181 53.4909 23.7407C53.3419 23.8317 53.1723 23.8834 52.9981 23.8907C52.9151 23.8998 52.8131 23.7715 52.7285 23.7798C52.6168 23.816 52.5128 23.8725 52.4215 23.9465C52.2606 23.3756 52.2688 23.3523 51.6359 23.1356C51.2567 23.0056 51.1779 22.6356 50.9091 22.3964L50.7258 22.7889C50.6312 22.6898 50.4719 22.5989 50.4727 22.5089C50.4777 21.3872 50.4727 21.3622 49.9667 20.6905C49.6788 21.1955 50.2297 21.4889 50.2595 21.9856C50.1226 21.9606 49.9194 21.9797 49.8953 21.9214C49.6556 21.338 49.2905 20.7847 49.6647 20.0829C49.7808 19.8654 49.8016 19.7496 50.0629 19.7496C50.2358 19.7283 50.4002 19.6623 50.5399 19.5579C50.9149 19.3221 51.2692 19.0654 51.6666 18.7937L51.8209 19.0254C52.1336 19.2446 52.4605 18.6545 52.5128 19.2696C52.5277 19.4446 52.9168 19.0279 52.9168 19.4846C52.9168 19.6613 53.2403 19.8388 53.4029 20.0013L53.237 20.4413L53.3755 20.538L53.641 20.0313L54.0334 20.698L53.5863 21.2988" fill="white"/>
<path d="M22.0859 49.4187L21.5052 48.6878L21.2671 49.177C20.9365 49.0058 20.6571 48.7496 20.4574 48.4345C20.0028 47.7853 19.6494 47.0744 19.1873 46.4269C19.0572 46.218 18.973 45.9836 18.9404 45.7394C18.9078 45.4952 18.9275 45.2469 18.9981 45.0109C19.4254 44.9276 19.5175 45.4276 19.8734 45.556V44.6393L21.7898 44.3684C22.3697 44.8817 22.824 45.5225 23.1171 46.241C23.2831 46.641 23.6257 46.9411 23.7302 47.3994C23.7717 47.5803 23.5402 47.8236 23.8248 47.9586C23.7996 48.034 23.7705 48.108 23.7377 48.1803C23.2739 48.0136 23.118 48.6878 22.6716 48.5795C22.6426 48.572 22.5638 48.7462 22.5198 48.8403C22.4822 48.9495 22.4381 49.0564 22.3879 49.1604C22.2974 49.2577 22.196 49.3444 22.0859 49.4187Z" fill="white"/>
<path d="M42.8386 60.8035L43.2103 61.6653L43.3828 61.2069C43.4251 61.2327 43.4932 61.2511 43.5023 61.2844C43.5827 61.603 43.7442 61.8951 43.971 62.1319C44.1047 62.2884 44.2164 62.4625 44.3029 62.6495C44.3738 62.8082 44.4826 62.947 44.6196 63.0534C44.7566 63.1598 44.9177 63.2306 45.0885 63.2595L45.2395 62.952L45.753 63.3387C45.753 63.4562 45.7655 63.5054 45.753 63.5154C45.5871 63.6262 45.4096 63.7304 45.2553 63.8279C45.3017 64.0854 45.3424 64.3179 45.4046 64.6671L44.7492 64.3462L44.3709 65.1113L43.9171 65.163V65.5796C43.8312 65.6617 43.7296 65.7253 43.6184 65.7665C43.5072 65.8078 43.3888 65.8258 43.2705 65.8195C43.1521 65.8132 43.0363 65.7826 42.9301 65.7298C42.8239 65.677 42.7295 65.6029 42.6528 65.5121C42.2056 65.1038 41.7037 64.7596 41.2474 64.2746L41.8281 63.892C41.7189 63.5065 41.5294 63.1486 41.2723 62.842C41.0332 62.4849 40.8303 62.1046 40.6667 61.7069C40.9413 61.3669 41.1578 61.6186 41.4133 61.7244C41.4208 61.6319 41.4639 61.5286 41.4341 61.4602C41.2474 61.0361 41.3304 60.826 41.7261 60.8077C42.1003 60.7902 42.4728 60.8077 42.8386 60.8077" fill="white"/>
<path d="M16.1675 64.5262L16.613 65.1879C16.6544 65.0579 16.7117 64.9737 16.6959 64.9037C16.6345 64.5645 16.5516 64.2279 16.4653 63.8445H17.0103L17.2294 64.302V63.5328C17.3204 63.5111 17.4083 63.4775 17.4907 63.4328C17.6359 63.3245 17.8665 63.077 17.8897 63.0995C18.1278 63.2961 18.4223 63.1778 18.653 63.2661C18.8354 63.3101 18.9987 63.4124 19.1184 63.5575C19.2381 63.7027 19.3077 63.8829 19.3167 64.0712C19.3167 64.2029 19.1416 64.3495 19.1673 64.4604C19.1889 64.5504 19.4295 64.5704 19.4992 64.6721C19.5287 64.7265 19.5441 64.7876 19.5441 64.8496C19.5441 64.9116 19.5287 64.9726 19.4992 65.0271C19.2561 65.2221 19.31 65.4738 19.3266 65.7096C19.3484 65.8312 19.3222 65.9566 19.2534 66.059C19.1846 66.1614 19.0787 66.2328 18.9583 66.258C18.6795 66.3413 18.6148 66.5163 18.5567 66.7838C18.5307 66.9668 18.4353 67.1325 18.2904 67.2463C18.1455 67.3602 17.9624 67.4133 17.7794 67.3947C17.6275 67.3852 17.475 67.395 17.3256 67.4239C16.9531 67.5072 16.4835 67.4155 16.3674 67.1414C15.9867 66.5104 15.7765 65.7905 15.7576 65.0529C15.7875 64.7454 15.9717 64.6587 16.1675 64.5262Z" fill="white"/>
<path d="M46.2201 47.5903L46.995 47.8186C47.0757 47.6832 47.1094 47.5247 47.0908 47.368C47.0722 47.2113 47.0023 47.0652 46.8921 46.9527C47.224 46.6527 47.4388 47.1052 47.7616 47.0561C47.7914 46.8894 47.8238 46.7227 47.8545 46.556C48.1034 46.2843 48.334 46.7852 48.6393 46.5494C48.9446 46.3135 49.03 46.8294 49.2947 46.8894C49.4531 46.9532 49.589 47.0632 49.6846 47.2052C50.0364 47.6386 50.0911 48.252 50.5656 48.6311C50.6793 48.722 50.6187 49.0328 50.6436 49.3087C50.1185 49.0495 50.0861 49.8871 49.5801 49.6887C49.4241 49.9387 49.5718 50.4004 48.9993 50.4554L48.7173 49.9612L48.4908 50.4363C48.1722 50.5121 48.0262 50.2362 47.9208 50.0604C47.5848 49.4891 47.1095 49.0133 46.5395 48.6778C46.4449 48.6308 46.3609 48.5646 46.2929 48.4835C46.2249 48.4023 46.1743 48.3079 46.1443 48.2062C46.1143 48.1045 46.1056 47.9976 46.1186 47.8923C46.1317 47.7871 46.1662 47.6856 46.2201 47.5944" fill="white"/>
<path d="M41.6606 22.5787L40.4718 23.5155H39.6845C39.3784 23.0704 39.278 22.4846 38.8267 22.1171C38.7138 21.5563 38.416 21.0501 37.9813 20.6803C37.8635 20.5428 37.8884 20.2811 37.8386 20.0244C37.9738 19.9869 38.1082 19.9894 38.1779 19.9236C38.8972 19.2477 39.575 19.6277 40.1483 20.0903C40.636 20.503 41.0572 20.989 41.3968 21.5312C41.5443 21.8625 41.6335 22.2169 41.6606 22.5787Z" fill="white"/>
</g>
<defs>
<clipPath id="clip0_136_2096">
<rect width="99" height="86" fill="white"/>
</clipPath>
</defs>
</svg>
