<svg width="106" height="96" viewBox="0 0 106 96" fill="none" xmlns="http://www.w3.org/2000/svg">
<g opacity="0.1" clip-path="url(#clip0_255_992)">
<path d="M104.656 49.446C104.618 49.546 104.524 49.814 104.405 50.146L104.783 50.327C104.863 50.619 105.308 50.927 105.038 51.327C104.794 51.683 105.438 52.059 104.946 52.348C104.914 53.0263 104.634 53.6692 104.158 54.154C103.844 54.627 103.767 55.218 103.292 55.629C102.912 56.0514 102.59 56.5222 102.334 57.029L101.458 57.068L101.644 57.661L101.226 58.132L101.542 59.103L101.042 59.675L101.534 59.85L100.852 60.334L101.065 60.583C100.317 60.861 99.651 60.191 98.827 60.515C98.318 60.882 97.939 61.632 97.183 61.909C96.891 62.016 97.141 62.551 96.64 62.488C96.462 62.466 96.594 63.039 96.176 62.927C96.02 63.446 95.557 63.655 95.191 63.982C94.8792 64.2752 94.6024 64.6033 94.366 64.96C94.166 65.254 93.945 65.539 93.729 65.825C93.5185 66.0713 93.3232 66.3301 93.144 66.6C93.007 66.837 93.019 67.243 92.834 67.35C92.7083 67.4076 92.5992 67.496 92.5169 67.607C92.4345 67.718 92.3816 67.848 92.363 67.985L91.82 67.661C91.353 67.889 90.886 68.106 90.42 67.535V66.348C89.4298 65.9707 88.6237 65.2255 88.17 64.268C88.203 63.893 88.02 63.361 88.382 62.922C88.1947 62.4583 88.1363 61.9526 88.2131 61.4584C88.2898 60.9642 88.4988 60.5 88.818 60.115C89.4419 59.0692 90.2322 58.1322 91.158 57.341C90.608 56.516 90.033 55.748 89.565 54.923C89.1881 54.3736 88.9481 53.742 88.865 53.081C88.7132 52.3897 88.7746 51.6687 89.041 51.013C89.221 50.706 89.048 50.262 89.25 49.859C89.349 49.5971 89.4771 49.3472 89.632 49.114C89.732 48.988 89.732 48.778 89.811 48.445C89.997 48.272 90.463 48.039 90.561 47.702C90.702 47.211 91.331 47.402 91.321 46.823L91.668 47.086L92.529 46.831L92.849 47.437L92.095 48.8L93.449 48.666L93.768 48.985L93.268 49.975L94.238 50.075C94.154 50.475 94.07 50.875 93.988 51.269L93.528 51.68C93.628 51.78 93.671 51.836 93.68 51.83C93.827 51.748 93.971 51.659 94.146 51.553C94.205 51.711 94.246 51.809 94.29 51.934L93.32 52.425L93.844 52.6L93.024 53.422L94.149 54.311C94.4119 54.3478 94.6798 54.321 94.9302 54.2327C95.1806 54.1445 95.4062 53.9975 95.588 53.804C96.599 52.931 97.71 52.17 98.707 51.292C99.7984 50.4496 100.753 49.4437 101.538 48.31C101.75 48.0359 101.993 47.7873 102.262 47.569H103.449L103.742 47.939L103.309 49.189L104.342 48.905L104.656 49.447" fill="white"/>
<path d="M32.9681 73.236L31.9111 73.564L32.1481 73.056C31.8891 72.665 31.5951 72.316 31.0591 72.393L30.9541 71.993H30.0221C29.9291 71.9 29.8481 71.855 29.8221 71.793C29.7453 71.3462 29.5996 70.9141 29.3901 70.512C29.0561 70.078 29.2221 69.651 29.2071 69.23C29.23 68.8772 29.3003 68.5291 29.4161 68.195C29.7216 66.9759 30.1792 65.8 30.7781 64.695C31.144 64.0112 31.5528 63.3512 32.0021 62.719C32.4411 62.103 32.9551 61.541 33.4501 60.937C33.3151 60.851 33.1681 60.751 33.0151 60.66C31.5557 59.7692 30.2187 58.6918 29.0381 57.455C28.5977 56.8522 28.3416 56.1345 28.3011 55.389C28.2641 55.0904 28.2604 54.7885 28.2901 54.489C28.5901 53.91 29.2051 53.861 29.7991 53.625L30.4361 54.745L30.6731 54.57C30.7501 54.647 30.8871 54.721 30.9251 54.83C31.0537 55.1276 31.2411 55.3961 31.476 55.6195C31.7109 55.8428 31.9885 56.0165 32.2921 56.13C33.4781 56.723 34.6741 57.292 35.9481 57.911C36.2371 57.5162 36.584 57.1673 36.9771 56.876C37.3771 56.653 37.3961 56.016 38.0171 56.076L37.7751 55.776L38.4271 55.32L38.7681 54.568L39.3961 54.532L39.1411 54.204C39.6211 54.134 39.6531 53.637 39.9541 53.371C40.2667 53.0441 40.5502 52.6904 40.8011 52.314L41.0711 52.514L41.2541 52.082L41.5471 52.319C41.7257 51.5701 42.0965 50.8807 42.6231 50.319C43.0736 49.6413 43.6698 49.0728 44.3681 48.655L44.7581 48.976C44.514 49.6166 44.0636 50.1576 43.4781 50.514V51.414C43.6321 51.376 43.7891 51.383 43.8221 51.323C43.9254 51.1173 44.0173 50.906 44.0971 50.69L45.6231 49.433C45.6541 49.855 45.6741 50.133 45.6941 50.395L45.2621 50.572C45.2971 50.62 45.3401 50.714 45.3621 50.709C45.6361 50.653 45.9081 50.581 46.2411 50.499L46.5671 51.072L46.3511 51.312C46.3981 51.639 46.7921 51.928 46.4871 52.303L46.2391 52.079C46.2021 52.149 46.1291 52.223 46.1441 52.27C46.2018 52.4168 46.2706 52.5589 46.3501 52.695C46.2106 53.2435 45.8738 53.7213 45.4041 54.037C45.0041 54.404 44.5591 54.725 44.0411 55.137L44.6471 55.486L44.3551 56.045L44.5871 56.301L43.8371 56.422L44.0671 57.006H43.3151L42.9381 57.78L43.2301 58.094L42.4921 58.232C42.5651 58.424 42.6321 58.597 42.7101 58.803L42.0381 58.903L42.2891 59.58L41.5221 59.28L41.1551 59.98C41.1981 60.062 41.2151 60.152 41.2661 60.18C41.3561 60.229 41.4771 60.22 41.5661 60.269C41.9121 60.462 41.9931 60.909 42.3331 61.101C42.6484 61.3341 42.908 61.6343 43.0931 61.98C43.3177 62.2199 43.4406 62.5375 43.4361 62.866C43.4281 62.989 43.5361 63.12 43.6061 63.275L43.3451 63.719C43.0401 63.754 42.8181 64.163 42.2611 63.947C41.2862 63.5406 40.2643 63.2577 39.2191 63.105C39.1601 63.098 39.1121 63.005 39.0191 62.905L38.0191 64.034C38.0191 64.075 37.9931 64.253 37.9711 64.444L37.2261 64.561L37.8341 65.414L37.1631 65.214L36.9181 65.504C37.0491 65.866 36.9441 66.087 36.5181 66.327L36.1681 67.596L35.7321 67.757L35.9791 68.004C35.6229 68.2284 35.292 68.4906 34.9921 68.786C34.7735 69.1234 34.5975 69.4865 34.4681 69.867L34.6781 70.181L33.9491 70.931L34.2251 71.275L33.7141 71.859V72.518L32.9681 73.236" fill="white"/>
<path d="M60.749 77.7379C61.271 78.3689 61.271 78.3699 61.905 78.0199C61.9085 78.2015 61.9269 78.3824 61.96 78.5609C62.0082 78.6732 62.0729 78.7777 62.152 78.8709L61.952 79.0709L62.507 79.3309L61.764 80.3839C62.076 80.9449 61.416 81.0439 61.321 81.3449C61.175 81.8089 60.611 81.9089 60.594 82.4049C60.575 82.9829 59.982 83.0539 59.725 83.3909C59.501 83.6839 59.104 83.8749 59.052 84.2489L59.327 84.7199L58.41 85.2389L57.71 85.5719L56.996 86.4139V86.6359L54.819 88.2359L55.403 88.5359L54.435 89.8839L56.961 90.7459L56.712 91.2459L57.839 91.6459V92.1369L58.539 92.7809C58.553 93.0476 58.5663 93.3013 58.579 93.5419L58.989 93.9509L57.95 94.8159C57.705 95.0889 57.45 95.0379 57.176 94.8559C57.086 94.7999 56.9819 94.7708 56.876 94.7719C55.7422 94.7138 54.6296 94.4417 53.597 93.9699C52.814 93.6839 52.061 93.3179 51.249 92.9699C51.027 93.1909 50.682 93.3579 50.638 93.8139L49.238 94.1459L48.638 93.5359L48.889 93.2589L48.589 92.6269L47.629 92.7749L47.158 91.8429L46.997 91.9839L46.147 91.1219C46.255 90.3379 45.754 89.4379 45.888 88.4649C45.8865 88.3419 45.8598 88.2205 45.8096 88.1082C45.7594 87.9959 45.6867 87.895 45.596 87.8119C44.934 87.1909 44.906 86.2839 44.597 85.5179C44.4514 85.1949 44.3628 84.8491 44.335 84.4959C44.2823 83.9336 44.2866 83.3674 44.348 82.8059C44.497 81.9399 44.665 81.0159 45.673 80.6749C46.0474 80.58 46.4285 80.5131 46.813 80.4749V82.2389L47.833 81.5839C47.886 81.7399 47.95 81.9249 48.013 82.1109L48.183 81.9819V83.0189L48.651 82.7839C48.8449 82.9775 48.9841 83.2191 49.0544 83.484C49.1246 83.7489 49.1235 84.0276 49.051 84.2919L49.551 84.4689C49.462 84.7109 49.373 84.9509 49.265 85.2409C49.395 85.2169 49.465 85.2239 49.497 85.1949C49.585 85.1249 49.645 85.0009 49.741 84.9649C50.707 84.5959 51.197 83.5709 52.161 83.2139C52.356 82.5139 53.095 82.3629 53.527 81.8909C54.0315 81.4364 54.5757 81.0277 55.153 80.6699C55.678 80.2699 55.974 79.6049 56.658 79.3949C57.1015 78.5966 57.7597 77.9385 58.558 77.4949C58.532 76.9379 59.297 76.8689 59.277 76.2839H60.297L60.583 76.5689C60.097 76.8119 59.916 77.2839 59.604 77.7839C60.279 77.9239 60.667 77.1019 61.304 77.4839L60.75 77.7439" fill="white"/>
<path d="M58.13 65.799C58.077 65.271 58.82 65.213 58.468 64.721L58.218 64.943C58.191 64.916 58.146 64.892 58.141 64.863C58.077 64.5987 58.0746 64.3233 58.1341 64.058C58.1936 63.7927 58.3133 63.5446 58.484 63.333C58.916 62.833 59.344 62.338 59.758 61.828C59.8863 61.6403 60 61.443 60.098 61.238C59.898 60.705 59.613 60.152 59.369 59.603C59.104 59.014 59.115 58.374 58.831 57.79C58.679 57.481 59.074 56.937 58.981 56.557C58.881 56.132 58.626 55.771 58.993 55.371C59.1299 54.3577 59.6415 53.4325 60.427 52.778H62.304L62.704 53.153L61.814 54.287L62.048 54.787C62.154 54.787 62.357 54.848 62.429 54.776C62.743 54.467 63.107 54.592 63.438 54.556L63.776 55.287L63.165 56.047L64.191 56.178V57.26C64.954 57.285 65.038 56.36 65.68 56.36C65.9998 55.9472 66.3693 55.5754 66.78 55.253C67.222 54.845 67.642 54.413 68.059 53.978C68.443 53.578 68.832 53.178 69.177 52.746C69.522 52.314 69.836 51.815 70.041 51.521L71.098 51.147C71.2355 51.2902 71.3463 51.4568 71.425 51.639C71.459 51.782 71.345 51.972 71.269 52.127C71.1414 52.3181 71.07 52.5412 71.063 52.771L72.084 52.34L72.798 53.732C72.7874 53.8742 72.7894 54.0171 72.804 54.159C72.8409 54.3457 72.8924 54.5293 72.958 54.708L72.758 55.063L73.015 55.34C72.361 56.388 71.772 57.473 71.054 58.487C70.454 59.339 70.536 59.398 70.094 59.639L70.294 59.859L67.614 62.859V63.234L69.719 64.575L69.454 65.095C69.724 65.327 69.906 65.774 70.43 65.609L70.73 66.209L70.47 66.571L71.283 67.385L70.99 68.139L71.23 68.551C71.19 68.637 71.178 68.725 71.13 68.758C71.019 68.83 70.856 68.845 70.775 68.937C70.289 69.485 70.202 69.516 69.591 69.307C68.7811 69.0988 67.99 68.8232 67.226 68.483C66.2473 67.889 65.2997 67.2451 64.387 66.554C63.9037 66.9211 63.4537 67.33 63.042 67.776C62.5445 68.2955 61.9145 68.6693 61.22 68.857L61.545 68.319L60.196 68.57L60.124 68.425L60.887 67.831L60.494 67.438H59.717L59.365 66.547H58.429L58.129 65.794" fill="white"/>
<path d="M63.027 43.6341L61.815 43.9241C61.32 43.5581 60.728 43.1031 60.115 42.6751C59.4395 42.0956 58.7063 41.5869 57.927 41.1571C57.734 41.0741 57.532 41.0141 57.265 40.9181C56.94 40.4271 56.902 39.5271 55.951 39.6271C55.521 39.2341 55.468 38.5501 54.839 38.4841C54.6836 38.1246 54.4797 37.7881 54.233 37.4841C52.9977 36.2973 52.0117 34.8759 51.333 33.3031C51.266 32.7911 51.266 32.1031 51.155 31.4231C51.0902 30.9057 51.1829 30.3808 51.4211 29.9169C51.6592 29.4531 52.0318 29.0719 52.49 28.8231C52.748 28.6581 52.881 28.2961 53.31 28.3341C53.6586 28.3062 54.0013 28.2274 54.327 28.1001L54.795 28.5161C54.476 29.0511 53.874 29.3881 53.829 30.1071C54.538 30.3441 54.855 29.5561 55.569 29.4651L55.955 29.8101L55.219 30.9101C55.707 30.7561 56.053 30.7531 56.181 30.5851C56.504 30.1581 57.028 29.9851 57.331 29.5131C57.6573 29.0742 58.0715 28.7081 58.547 28.4381C59.1872 27.9469 59.8023 27.4239 60.39 26.8711C61.2785 26.0815 62.2204 25.3541 63.209 24.6941C63.601 24.4 63.9529 24.0561 64.256 23.6711C64.563 23.3491 65.056 23.2081 65.148 22.7271H66.667V23.7071L66.303 24.0711C66.503 24.0351 66.703 24.0061 66.903 23.9621C67.103 23.9181 67.303 23.8551 67.603 23.7721C67.5349 24.0986 67.5462 24.4367 67.636 24.7579C67.7258 25.0792 67.8915 25.3741 68.119 25.6181L67.819 26.0261L68.513 26.4071L67.869 26.5831C67.9423 26.7185 68.0019 26.8608 68.047 27.0081C68.0648 27.1564 68.0672 27.3062 68.054 27.4551L66.754 29.2361L66.23 29.2941L66.423 29.5601L66.196 30.1011C65.202 30.0531 65.196 31.0771 64.58 31.4761L64.804 31.7711L63.567 33.0081C63.601 33.0391 63.547 32.9901 63.567 33.0081L62.999 33.5761L62.813 33.4311V34.0271L62.434 33.7161L62.534 34.3751L61.545 35.6561L61.167 35.3781L59.927 36.8351L60.456 37.0981L59.915 37.7841C59.942 37.8761 59.942 37.9601 59.983 38.0071C60.7276 38.7229 61.41 39.5007 62.023 40.3321C62.623 41.3051 63.382 42.3091 63.031 43.6321" fill="white"/>
<path d="M78.701 27.3031L78.879 27.1251C78.8424 27.0695 78.8013 27.0169 78.756 26.9681C78.463 26.7011 78.093 26.4681 77.856 26.2101C77.619 25.9521 77.364 25.7591 77.128 25.5241C76.7783 25.2244 76.5395 24.8159 76.45 24.3641C76.3841 23.6326 76.4177 22.8956 76.55 22.1731C76.848 20.952 77.4995 19.8459 78.423 18.9931C79.567 17.8541 80.707 16.7101 81.908 15.5101C81.452 15.1181 81.429 14.3771 80.708 14.2331L79.801 12.4651C79.5852 11.9219 79.5072 11.3338 79.574 10.7531C79.574 10.3391 79.574 9.92512 79.574 9.51212L80.711 8.06312H82.592L81.78 9.45012C82.48 9.95512 82.731 8.86112 83.343 9.19412C83.724 9.71612 83.015 9.96212 82.79 10.4681L83.785 10.2291C83.8694 10.4795 83.8953 10.7459 83.8606 11.0079C83.8259 11.2698 83.7316 11.5203 83.585 11.7401L84.044 11.9181C84.174 12.0581 83.904 12.0781 83.858 12.2851L84.534 13.3181C86.398 11.3631 88.775 10.0521 90.228 7.81812H91.361L91.093 8.96212L91.983 8.64812V9.52412L92.368 9.62412C92.4043 9.68447 92.4316 9.74983 92.449 9.81812C92.463 9.92912 92.434 10.0471 92.456 10.1561C92.5138 10.6934 92.4576 11.2368 92.291 11.7509C92.1243 12.2649 91.851 12.738 91.489 13.1391C90.826 14.0901 90.057 14.9671 89.279 15.9451C89.9692 16.5497 90.7137 17.0893 91.503 17.5571C91.517 17.6571 91.541 17.8331 91.569 18.0321C91.776 18.2911 92.111 18.5411 92.206 18.8631C92.414 19.5631 92.928 20.2241 92.579 21.1331C92.494 21.1721 92.306 21.2641 92.113 21.3461C91.92 21.4281 91.725 21.4981 91.507 21.5831C91.207 21.2831 90.532 21.3751 90.623 20.7831L88.738 20.2381L88.343 19.5521H87.094C87.063 19.4171 87.038 19.3151 87.008 19.1901C86.547 18.8351 86.159 19.2531 85.889 19.3251L84.923 20.4391L84.642 20.2181L84.19 20.8571L84.308 21.0091C83.784 21.1401 83.739 21.6661 83.508 22.0991L83.026 21.7991C82.995 21.9941 82.965 22.1841 82.926 22.4101L82.565 22.5101C82.517 22.9681 82.452 23.5251 81.773 23.3731C81.545 23.6731 81.163 23.9431 81.189 24.1731C81.267 24.8601 80.689 25.1891 80.535 25.7261C80.4806 25.9148 80.4656 26.1127 80.4909 26.3074C80.5162 26.5021 80.5812 26.6896 80.682 26.8581C80.1861 27.2489 79.6117 27.5279 78.998 27.6761L78.698 27.2991" fill="white"/>
<path d="M12.641 14.5399L11.977 14.6219L12.3 14.9749C12.02 15.4959 11.488 15.8089 11.128 16.2649L11.304 16.4409L10.485 17.0829C10.35 17.4389 10.638 17.8399 10.163 18.0609C10.584 18.3429 10.969 18.5949 11.347 18.8559C12.5938 19.588 13.7464 20.4699 14.779 21.4819C15.4063 22.0318 15.7998 22.8005 15.879 23.6309C15.879 23.7839 16.036 23.9309 16.16 24.1589L15.1 24.8299C12.7547 23.5956 10.5072 22.1838 8.37702 20.6069C8.22402 20.6939 7.88902 20.7679 7.82702 20.9399C7.55251 21.5758 7.13624 22.1405 6.61002 22.5909C6.55002 22.6509 6.57302 22.7909 6.55702 22.8959L5.89902 22.9679L6.07302 23.5679C5.60444 23.9833 5.27869 24.5358 5.14202 25.1469C4.93621 25.5813 4.66319 25.9805 4.33302 26.3299V28.7749L3.73902 28.8129L3.59402 29.2229H2.81502L2.42502 28.0949L1.73502 28.3949L1.60002 27.9749C1.53602 27.9479 1.46602 27.8899 1.40802 27.8999C1.219 27.9276 1.0264 27.8847 0.867022 27.7793C0.707642 27.674 0.592653 27.5136 0.544021 27.3289C0.300021 26.2849 -0.375979 25.2489 0.275021 24.1249C0.287021 23.0119 0.975021 22.1619 1.37502 21.1939C1.50302 20.8779 2.05302 20.9329 1.90402 20.3879C1.84302 20.1639 2.25002 19.8079 2.45102 19.5159C2.6237 19.2453 2.81132 18.9846 3.01302 18.7349C3.25902 18.4509 3.55802 18.2139 3.80102 17.9289C4.00055 17.6701 4.18647 17.4011 4.35802 17.1229C3.10023 16.0119 2.02716 14.708 1.17902 13.2599C0.70037 11.9305 0.485033 10.5206 0.545021 9.1089L1.70602 7.7749C2.19002 7.8749 2.73402 7.5749 3.17602 8.0749L2.30802 9.2469L2.53502 9.4889C3.14802 9.6159 3.37302 8.7239 4.01302 8.9299L4.30302 9.4919L3.64302 9.9149L4.00002 10.2749C4.32002 9.9439 4.63002 9.9399 5.00602 10.3929C4.97202 10.6449 5.16802 11.0099 4.79002 11.3029L5.31902 11.5569L4.81902 12.2339L5.37602 12.4339L4.79602 12.5899C4.81802 12.7729 4.77402 13.0239 4.87802 13.1649C5.31002 13.7469 5.78802 14.2949 6.29902 14.9159C6.58102 14.6629 6.79902 14.4749 7.00602 14.2799C8.24202 13.1279 9.27602 11.7459 10.806 10.9299C10.798 10.5049 11.242 10.5349 11.434 10.3079C11.651 10.0509 11.891 9.8139 12.047 9.6479H12.806C12.462 10.1549 11.875 10.4409 12.067 11.1709L13.622 10.2439C13.57 10.5779 13.529 10.8359 13.484 11.1289L14.319 11.5509L14.082 12.0409L14.41 12.1089C14.421 12.1529 14.464 12.2279 14.444 12.2559C14.1303 12.5938 13.8559 12.9662 13.626 13.3659C13.406 13.8819 12.926 14.1139 12.641 14.5439" fill="white"/>
<path d="M33.26 26.07C34.16 24.97 34.92 24.048 35.66 23.117C36.3553 22.2327 36.9773 21.2933 37.52 20.308L37.266 19.995L37.845 19.334H38.589C38.867 19.612 39.089 20.01 39.41 20.111C39.799 20.234 39.854 20.545 40.01 20.778C40.3247 21.1375 40.5371 21.575 40.6251 22.0446C40.713 22.5143 40.6733 22.9989 40.51 23.448C40.2526 24.0927 39.991 24.7367 39.725 25.38C39.645 25.573 39.586 25.78 39.484 26.07L38.914 26.641V27.352L37.696 29.573C38.258 29.955 38.776 30.323 39.309 30.667C40.3747 31.3015 41.2287 32.2376 41.763 33.357C41.874 33.6577 41.9674 33.9645 42.043 34.276L41.796 34.824L41.115 35.141C40.584 34.958 40.115 34.82 39.665 34.634C39.215 34.448 38.787 34.212 38.349 33.997C38.274 33.343 37.529 33.607 37.222 33.162C36.97 32.797 36.41 32.645 35.922 32.362C34.4639 33.8687 33.139 35.4988 31.962 37.234C31.87 37.367 31.9 37.582 31.873 37.759C31.6548 37.9397 31.3792 38.0366 31.0959 38.032C30.8125 38.0274 30.5402 37.9217 30.328 37.734V37.375L28.345 36.185C28.019 35.8 28.186 35.196 27.972 34.734C27.734 34.209 27.935 33.705 27.845 33.322C28.5289 31.6924 29.5126 30.2057 30.745 28.939V28.171C30.052 27.6021 29.4894 26.8911 29.095 26.086C28.9673 25.7966 28.8831 25.49 28.845 25.176C28.6499 24.5618 28.5356 23.9247 28.505 23.281C28.5125 22.6897 28.7076 22.1161 29.0622 21.6428C29.4168 21.1696 29.9126 20.8212 30.478 20.648C31.2413 20.4685 32.0254 20.3931 32.809 20.424C32.366 21.341 31.309 21.262 30.685 22.031C31.755 21.984 32.406 20.976 33.497 21.168L33.368 21.953L34.144 22.228V23.662C33.853 24.169 33.534 24.676 33.273 25.211C33.189 25.383 33.26 25.631 33.26 26.07Z" fill="white"/>
<path d="M52.349 12.009L51.113 13.559V15.008L49.893 15.498C49.435 14.9929 49.1265 14.3704 49.002 13.7L48.295 13.963C48.0468 13.6636 47.8278 13.3412 47.641 13C47.2764 11.9846 47.1522 10.8985 47.278 9.827L47.842 8.541C47.53 8.494 47.253 8.541 47.142 8.422C46.412 7.684 45.692 6.934 45.023 6.141C44.6314 5.73197 44.329 5.24604 44.135 4.714C43.9705 3.91253 43.8655 3.09998 43.821 2.283C44.121 1.76589 44.4764 1.28304 44.881 0.843C45.3765 0.500685 45.9105 0.217747 46.472 0L46.899 0.461L45.713 1.6L45.99 1.877C46.49 1.509 46.998 1.027 47.819 1.345L47.178 2.223L48.057 1.881L48.521 2.581L47.669 3.433L48.133 3.533C47.876 3.963 48.021 4.56 47.361 4.78C47.9701 5.47152 48.6874 6.05951 49.485 6.521L56.88 0.389H57.97L57.47 1.389C57.797 1.639 58.056 1.358 58.346 1.232C58.7254 1.59002 59.0046 2.04104 59.1558 2.54029C59.307 3.03953 59.325 3.56964 59.208 4.078L58.141 5.448L58.368 5.658L57.78 5.733L58.007 5.977H57.587C56.813 7.434 55.504 8.425 54.546 9.752C55.859 10.483 57.328 11.028 58.717 11.852C58.759 12.061 58.807 12.298 58.863 12.578L59.285 12.131C59.844 12.206 59.833 12.849 60.302 13.084C60.713 13.29 60.953 13.838 61.272 14.24V15.581L60.908 15.945C59.7743 15.7039 58.6942 15.2575 57.721 14.628L57.586 14.75C56.845 14.567 56.403 13.772 55.548 13.891C55.148 13.379 54.494 13.339 53.983 13.037C53.472 12.735 52.971 12.4 52.349 12.009Z" fill="white"/>
<path d="M85.245 30.0561L85.931 30.4431C85.87 30.8111 85.808 31.1821 85.731 31.6381C85.921 31.9661 86.075 32.4661 86.654 32.6661C86.911 32.3071 87.069 31.8971 87.564 31.6961C87.912 31.5551 88.116 31.0601 88.382 30.7211C88.729 30.3947 89.0407 30.0327 89.312 29.6411C89.506 29.2601 89.923 28.9991 90.186 28.6411C90.449 28.2831 90.663 27.8661 90.897 27.4661H92.17C92.2478 27.6487 92.2662 27.8511 92.2226 28.0448C92.179 28.2384 92.0756 28.4134 91.927 28.5451L92.827 28.5861C92.942 29.1131 93.045 29.5861 93.147 30.0561L92.681 30.2381C92.6872 30.3396 92.7043 30.4402 92.732 30.5381C92.8186 30.6681 92.8784 30.8141 92.9081 30.9675C92.9378 31.1209 92.9367 31.2786 92.9049 31.4316C92.8731 31.5846 92.8112 31.7297 92.7228 31.8585C92.6344 31.9874 92.5212 32.0973 92.39 32.1821C92.2708 32.2919 92.1839 32.4322 92.1388 32.5879C92.0937 32.7435 92.092 32.9085 92.134 33.0651C92.296 33.4471 91.811 33.3001 92.04 33.6521L91.589 33.2801V33.9091L90.899 34.0411V34.6661L90.236 35.3571L91.296 36.3951V37.2461L92.055 38.0061C91.974 38.1501 91.922 38.2411 91.831 38.4001L92.282 39.3171L91.595 40.7511H90.655L87.435 38.9071L86.975 39.6261L86.369 39.3261V40.3771L85.335 39.9921L85.669 40.4481L84.896 41.1741C84.826 40.7541 84.783 40.4901 84.735 40.2001L85.185 40.0441L85.244 39.7311L84.838 39.5911C84.886 39.3911 84.938 39.1911 85.019 38.8491L84.675 39.1661L83.26 38.9011L82.978 38.3581C83.063 38.0271 83.16 37.6521 83.258 37.2691L84.04 37.3991C84.052 37.3581 84.063 37.3161 84.075 37.2741L83.232 36.8501L83.69 35.9031C82.8883 34.7021 82.2152 33.42 81.682 32.0781C81.5376 31.1384 81.6011 30.1785 81.868 29.2661C81.9577 28.9142 82.1267 28.5876 82.3621 28.3111C82.5974 28.0347 82.8929 27.8157 83.226 27.6711C83.319 27.6191 83.407 27.5591 83.556 27.4661H84.675L85.124 27.9151L84.545 28.4941V29.1941L85.306 28.9941L85.763 29.4211L85.245 30.0561Z" fill="white"/>
<path d="M17.3111 41.658L17.6961 42.043L15.6271 43.811L15.6741 43.93C15.825 43.9121 15.9712 43.866 16.1051 43.794C16.3051 43.627 16.4601 43.412 16.7331 43.358L18.1671 42.548C18.5761 42.879 18.2781 43.14 18.1021 43.542L18.7301 43.303L19.0251 43.598C19.0251 44.049 19.0251 44.498 19.0251 44.957L18.6171 45.357C18.6381 45.409 18.6431 45.481 18.6821 45.509C18.9391 45.702 19.1951 45.897 19.4661 46.068C19.7571 46.252 20.1661 46.305 20.1761 46.776C20.1761 46.83 20.2691 46.892 20.3301 46.934C20.5772 47.0738 20.8097 47.238 21.0241 47.424C21.213 47.6757 21.3762 47.9457 21.5111 48.23C21.5111 48.421 21.5111 48.722 21.5111 49.023L20.9821 49.552L16.7421 48.035L15.7551 48.561L15.7131 48.493L14.7531 49.452C14.7481 49.541 14.7371 49.716 14.7231 49.939L13.0081 51.589C12.7571 52.369 12.8841 53.17 11.8451 53.334C11.6301 52.99 10.8581 52.934 11.0341 52.134L10.2711 51.913L9.99909 52.095L9.08809 51.129L8.78809 48.574L11.6311 45.499C11.2452 45.2831 10.872 45.0454 10.5131 44.787C10.1713 44.4852 9.8462 44.165 9.53909 43.828L9.82109 42.914L9.34309 42.749V41.986L9.57909 41.75L10.6601 41.535L14.1881 43.512C15.3741 43.059 16.1451 42.015 17.3111 41.658Z" fill="white"/>
</g>
<defs>
<clipPath id="clip0_255_992">
<rect width="105.136" height="95.011" fill="white"/>
</clipPath>
</defs>
</svg>
