<svg width="82" height="73" viewBox="0 0 82 73" fill="none" xmlns="http://www.w3.org/2000/svg">
<g clip-path="url(#clip0_136_2185)">
<path d="M37.29 48.3301C37.2557 48.3313 37.2215 48.3248 37.19 48.3111C36.0455 47.8589 35.0614 47.0764 34.363 46.0631C34.0373 45.5949 33.874 45.0329 33.898 44.4631C33.9185 44.2121 33.9158 43.9597 33.89 43.7091C33.8036 43.2319 33.8778 42.7396 34.101 42.3091L33.69 42.1401C33.733 42.0661 33.781 41.9931 33.827 41.9231C33.9341 41.7756 34.0224 41.6154 34.09 41.4461C34.2504 41.0669 34.5046 40.7347 34.8288 40.4809C35.1529 40.227 35.5364 40.0598 35.943 39.9951L36.07 39.9591C36.5178 39.8096 36.9843 39.7238 37.456 39.7041C37.518 39.7041 37.58 39.7041 37.64 39.7101C38.2692 39.7379 38.8804 39.9291 39.4133 40.2648C39.9462 40.6006 40.3824 41.0694 40.679 41.6251C41.0207 42.1516 41.2772 42.7287 41.439 43.3351L41.447 43.3711C41.5745 43.7718 41.5999 44.198 41.521 44.6111C41.3443 45.3429 40.9972 46.0226 40.508 46.5948C40.0188 47.1671 39.4014 47.6157 38.706 47.9041C38.381 48.0281 38.041 48.1281 37.712 48.2251H37.706L37.413 48.3121C37.3731 48.324 37.3317 48.33 37.29 48.3301ZM37.868 41.7621C37.756 41.9541 37.539 41.9701 37.329 41.9851C37.052 42.0051 36.766 42.0261 36.704 42.4431C36.686 42.5671 36.56 42.6071 36.427 42.6491C36.3135 42.6672 36.2116 42.729 36.143 42.8211C36.1265 42.8639 36.1187 42.9096 36.12 42.9554C36.1214 43.0013 36.1319 43.0464 36.151 43.0881C35.9237 43.5674 35.8427 44.103 35.918 44.6281C35.9429 44.9454 35.9355 45.2643 35.896 45.5801C36.078 45.5801 36.254 45.5891 36.423 45.5981C36.592 45.6071 36.732 45.6141 36.879 45.6141C37.0574 45.6172 37.2356 45.5997 37.41 45.5621C37.9297 45.2949 38.3752 44.9032 38.7067 44.4219C39.0382 43.9407 39.2455 43.3849 39.31 42.8041C39.302 42.6901 39.263 42.4821 39.166 42.4251C38.858 42.2491 38.533 42.0911 38.218 41.9381L37.869 41.7671L37.868 41.7621Z" fill="black"/>
<path d="M0.685003 55.4021C0.327003 55.3211 0.118003 55.1701 0.246003 54.7461C0.326735 54.7187 0.404202 54.6824 0.477003 54.6381C1.24256 54.2173 2.07133 53.9234 2.931 53.7681C3.13995 53.7173 3.35716 53.7104 3.56889 53.748C3.78062 53.7855 3.98224 53.8666 4.161 53.9861C5.20615 54.5796 6.04758 55.4751 6.575 56.5551C6.75962 57.0761 6.81719 57.6336 6.74292 58.1813C6.66865 58.729 6.46469 59.2511 6.148 59.7041C5.774 60.1861 5.248 60.4891 4.864 60.9791C4.232 60.8791 3.564 61.1331 2.937 60.7531C2.643 60.5751 1.365 59.8991 1.115 59.7131C0.599649 59.2626 0.239555 58.6611 0.0860029 57.9941C0.0410029 57.8611 -0.0309971 57.6911 0.0140029 57.5811C0.300003 56.8731 0.100003 56.0211 0.685003 55.4021Z" fill="black"/>
<path d="M55.785 35.455C55.5527 35.4549 55.3232 35.4047 55.112 35.308C54.9783 35.2476 54.8352 35.2104 54.689 35.198C54.6743 35.1955 54.6591 35.1964 54.6448 35.2006C54.6304 35.2047 54.6172 35.2121 54.606 35.222C54.5687 35.282 54.5177 35.3322 54.4572 35.3687C54.3967 35.4052 54.3285 35.4269 54.258 35.432C54.1246 35.4177 53.9968 35.3706 53.886 35.295C53.7721 35.217 53.6404 35.1689 53.503 35.155C53.4761 35.155 53.4492 35.158 53.423 35.164H53.401C53.333 35.164 53.263 35.092 53.183 35.01C53.1264 34.9351 53.0556 34.872 52.9746 34.8245C52.8936 34.777 52.804 34.7459 52.711 34.733C52.5705 34.7013 52.4454 34.6217 52.357 34.508C52.2837 34.4317 52.2015 34.3645 52.112 34.308C52.0276 34.2539 51.9526 34.1863 51.89 34.108C51.8447 34.0365 51.7836 33.9763 51.7116 33.932C51.6395 33.8876 51.5582 33.8603 51.474 33.852C51.4506 33.852 51.4272 33.8536 51.404 33.857C51.2854 33.5545 51.09 33.288 50.837 33.084C50.6686 32.9373 50.52 32.7692 50.395 32.584C50.0973 32.0506 49.9317 31.4537 49.9123 30.8431C49.8928 30.2326 50.0199 29.6263 50.283 29.075C50.385 28.8301 50.5539 28.6189 50.7704 28.4655C50.9868 28.3122 51.2421 28.2229 51.507 28.208C51.8232 28.2173 52.1276 28.3296 52.374 28.528L52.392 28.541C52.5725 28.7185 52.8046 28.8344 53.055 28.872C53.2112 28.8642 53.3599 28.8028 53.476 28.698C53.535 28.792 53.597 28.84 53.66 28.84C53.723 28.84 53.8 28.783 53.872 28.67C53.9209 28.5881 53.991 28.5209 54.075 28.4757C54.159 28.4304 54.2537 28.4088 54.349 28.413C54.4217 28.414 54.494 28.4223 54.565 28.438C55.4653 28.5784 56.3243 28.9124 57.083 29.417C57.5129 29.7721 57.8963 30.18 58.224 30.631C58.377 30.824 58.536 31.024 58.7 31.21C58.7019 31.4074 58.7491 31.6017 58.838 31.778C58.9503 31.9444 59.0002 32.1452 58.9788 32.3449C58.9574 32.5445 58.8661 32.7302 58.721 32.869L58.966 32.954H58.977L59.207 33.034L59.012 33.645L58.882 34.055L58.476 34.102L58.276 34.125L58.413 34.309L58.49 34.409C58.3322 34.6449 58.1211 34.8403 57.8737 34.9793C57.6262 35.1183 57.3495 35.197 57.066 35.209H56.989H56.968C56.8196 35.2193 56.6738 35.2531 56.536 35.309L56.48 35.328C56.2566 35.4073 56.022 35.4501 55.785 35.455ZM52.192 30.659C51.708 30.9 51.723 31.252 51.738 31.624C51.7532 31.7938 51.7438 31.9649 51.71 32.132C52.6732 32.9602 53.9007 33.417 55.171 33.42C55.2277 33.42 55.2837 33.42 55.339 33.42C55.6076 33.4168 55.8727 33.3589 56.1182 33.2499C56.3637 33.1409 56.5845 32.9831 56.767 32.786C56.93 32.617 57.093 32.456 57.267 32.286L57.467 32.086C57.421 32.022 57.376 31.968 57.336 31.92C57.2667 31.849 57.212 31.7651 57.175 31.673C57.1277 31.3994 56.9875 31.1505 56.778 30.9683C56.5685 30.7862 56.3025 30.6818 56.025 30.673C55.8357 30.6489 55.6518 30.5932 55.481 30.508C55.3709 30.4563 55.2577 30.4115 55.142 30.374C54.9801 30.3183 54.8123 30.2814 54.642 30.264C54.598 30.264 54.57 30.272 54.559 30.289C54.495 30.389 54.434 30.43 54.367 30.43C54.3046 30.4226 54.2452 30.3988 54.195 30.361L54.185 30.355C54.1266 30.312 54.0573 30.286 53.985 30.28C53.9095 30.2834 53.8381 30.3152 53.785 30.369L53.349 30.779L53.336 30.791L52.886 31.208L52.475 30.885L52.192 30.659Z" fill="black"/>
<path d="M66.952 58.5689C67.1277 58.4255 67.3364 58.3282 67.5592 58.2858C67.782 58.2434 68.0119 58.2572 68.228 58.3259L68.016 58.6159C68.236 58.6729 68.593 58.6849 68.616 58.7849C68.801 59.4779 69.583 59.6739 69.816 60.3169C70.0829 60.8216 70.2357 61.3787 70.2637 61.9489C70.2917 62.5191 70.1942 63.0886 69.978 63.6169C69.913 63.7419 69.848 63.7709 69.94 63.9479C70.196 64.4359 69.958 64.7879 69.51 65.0409C69.199 65.2169 69.371 65.3929 69.552 65.5689L68.392 67.0579H67.152C66.923 66.8109 66.64 66.5129 66.364 66.2099C66.078 65.9741 65.8106 65.7167 65.564 65.4399C65.3295 65.098 65.1697 64.7105 65.0947 64.3027C65.0198 63.8949 65.0314 63.4759 65.129 63.0729C65.262 62.4319 65.577 61.8299 65.735 61.1919C65.7556 60.9917 65.8223 60.7989 65.9301 60.6288C66.0379 60.4588 66.1837 60.316 66.356 60.2119C66.4472 60.131 66.5194 60.031 66.5674 59.919C66.6155 59.807 66.6382 59.6858 66.634 59.5639C66.627 59.2429 66.852 59.1199 66.993 58.9149C67.039 58.8479 66.97 58.7019 66.952 58.5689Z" fill="black"/>
<path d="M76.482 28.1621C76.44 27.9051 76.41 27.7011 76.377 27.5141L76.31 27.0761L75.977 27.5611V27.5681L75.839 27.7681C75.806 27.7371 75.774 27.7001 75.739 27.6681C75.679 27.5991 75.628 27.5401 75.584 27.5401H75.574C75.5197 27.5481 75.4649 27.5521 75.41 27.5521C75.2202 27.5341 75.0364 27.4757 74.8712 27.3806C74.7059 27.2855 74.563 27.1561 74.452 27.0011C74.3096 26.8372 74.1446 26.6945 73.962 26.5771C73.9127 26.522 73.885 26.451 73.884 26.3771C73.884 26.3301 73.884 26.2971 73.897 26.2861C74.284 25.9561 74.118 25.6801 73.957 25.4131C73.8778 25.2982 73.8195 25.1702 73.785 25.0351L73.66 25.1501L73.535 25.2621C73.5252 25.2524 73.5149 25.2434 73.504 25.2351C73.482 25.2141 73.458 25.1981 73.46 25.1811C73.4632 25.0416 73.4551 24.9022 73.436 24.7641C73.3832 24.5825 73.3808 24.3899 73.429 24.2071C73.4773 24.0242 73.5744 23.8579 73.71 23.7261C73.7722 23.6525 73.8097 23.5611 73.817 23.4651C73.8287 23.3877 73.852 23.3125 73.886 23.2421C73.9528 23.1169 74.011 22.9872 74.06 22.8541C74.1371 22.5611 74.3099 22.3024 74.551 22.1191C74.7212 21.9995 74.8381 21.8184 74.877 21.6141C74.9191 21.4057 75.0322 21.2183 75.197 21.0841C75.7182 20.719 76.3377 20.5203 76.974 20.5141C77.2343 20.5111 77.4931 20.5548 77.738 20.6431C78.2742 20.849 78.7597 21.1683 79.1613 21.579C79.5629 21.9898 79.8712 22.4823 80.065 23.0231C80.4348 23.8965 80.5543 24.8556 80.41 25.7931C80.2407 26.3188 79.8851 26.7644 79.41 27.0461C79.3746 27.0696 79.3324 27.0808 79.29 27.0781C79.1772 27.0697 79.0658 27.0482 78.958 27.0141C78.8592 26.986 78.7591 26.9629 78.658 26.9451C78.658 26.9651 78.667 26.9911 78.671 27.0211C78.6797 27.1231 78.7096 27.2223 78.759 27.3121C78.846 27.4461 78.876 27.5481 78.849 27.6221C78.8348 27.6529 78.8135 27.68 78.787 27.7012C78.7604 27.7224 78.7293 27.7371 78.696 27.7441C78.6615 27.7559 78.6254 27.7623 78.589 27.7631C78.5653 27.7641 78.5416 27.7603 78.5194 27.7519C78.4973 27.7435 78.477 27.7306 78.46 27.7141C78.4305 27.6737 78.4093 27.6279 78.3977 27.5794C78.386 27.5308 78.3841 27.4804 78.392 27.4311C78.392 27.4071 78.353 27.3811 78.292 27.3421C78.256 27.3191 78.215 27.2931 78.172 27.2601L77.572 27.7601C77.54 27.6521 77.51 27.5461 77.459 27.3711L77.433 27.2811L76.96 27.7141L76.483 28.1561L76.482 28.1621ZM77.155 22.4271C76.9783 22.4671 76.8143 22.5507 76.678 22.6701C76.6 22.7251 76.519 22.7811 76.446 22.8231C76.2478 23.0349 76.0814 23.2744 75.952 23.5341C75.925 23.5821 75.898 23.6341 75.87 23.6921C75.776 23.8801 75.67 24.0921 75.547 24.1091C75.26 24.1471 75.247 24.2861 75.241 24.4461C75.241 24.4851 75.241 24.5261 75.23 24.5671C75.2084 24.6697 75.1691 24.7678 75.114 24.8571C75.092 24.8971 75.072 24.9351 75.055 24.9721C75.1864 25.1224 75.3476 25.2438 75.5283 25.3287C75.709 25.4136 75.9054 25.46 76.105 25.4651C76.5616 25.4243 77.0045 25.288 77.405 25.0651C77.7696 24.904 78.0672 24.6216 78.2471 24.2659C78.427 23.9102 78.4782 23.5032 78.392 23.1141C78.375 23.0971 78.356 23.0811 78.337 23.0661C78.2951 23.0369 78.2608 22.9982 78.237 22.9531C78.103 22.6141 77.81 22.5611 77.524 22.5141C77.4173 22.4971 77.3122 22.471 77.21 22.4361C77.1923 22.43 77.1737 22.427 77.155 22.4271Z" fill="black"/>
<path d="M19.409 38.7279L19.78 39.0409C19.851 38.8969 19.905 38.6409 20 38.6279C20.2462 38.5607 20.5082 38.5812 20.741 38.6859C21.2939 39.0389 21.7935 39.4689 22.225 39.9629C22.5927 40.4708 22.8614 41.0435 23.017 41.6509C23.108 42.0417 23.0514 42.4524 22.858 42.8039C22.5324 43.6687 21.9425 44.4088 21.172 44.9189C20.791 45.1399 20.363 45.1499 20.003 45.3729C19.8485 45.4513 19.6872 45.5152 19.521 45.5639L19.3 45.1729C19.172 45.3549 19.087 45.3339 18.892 45.1989C18.542 44.9559 17.86 44.3369 17.565 44.0939C16.614 43.3179 17.165 42.3519 17.203 41.4669C17.213 41.2449 17.567 41.0389 17.777 40.8109C18.475 41.2106 18.9938 41.8621 19.227 42.6319C19.989 42.5369 20.112 41.8259 20.527 41.4319C20.619 41.3449 20.557 41.0929 20.574 40.7319L19.763 41.5419C19.19 41.5009 19.263 40.8109 18.777 40.7689C18.7296 40.3245 18.7296 39.8764 18.777 39.4319C18.827 39.1889 19.145 39.0009 19.398 38.7319" fill="black"/>
<path d="M62.564 9.36399L63.407 8.52099H64.807C64.953 7.90999 64.501 8.15699 64.207 8.07699C64.238 7.99799 64.247 7.90399 64.298 7.85999C64.655 7.55299 64.127 7.43399 64.177 7.12299C64.419 6.55399 65.085 6.45099 65.586 6.14099C65.7824 6.07232 65.998 6.08382 66.186 6.17299C66.5795 6.3793 66.9262 6.66469 67.2043 7.01125C67.4824 7.35782 67.6859 7.7581 67.802 8.18699C68.04 8.71999 67.819 9.34999 68.234 9.81599C68.1292 10.4383 67.9538 11.0465 67.711 11.629C67.5375 11.9028 67.3014 12.1315 67.0222 12.2962C66.743 12.4608 66.4286 12.5567 66.105 12.576C65.757 12.611 65.454 13.019 65.113 12.754C64.823 12.53 64.413 12.654 64.152 12.301C63.964 12.048 63.552 12.031 63.435 11.589C63.38 11.371 62.964 11.336 62.774 10.994C62.47 10.43 62.695 9.89399 62.564 9.36399Z" fill="black"/>
<path d="M60.512 49.931C60.3856 49.9301 60.2594 49.9184 60.135 49.896L60.025 49.877C58.825 49.668 58.806 49.664 58.238 49.04C57.7772 48.5446 57.4716 47.9251 57.359 47.258C57.3399 47.1567 57.3152 47.0565 57.285 46.958C57.2207 46.8237 57.1914 46.6754 57.1998 46.5268C57.2082 46.3782 57.254 46.2341 57.333 46.108C57.242 46.021 57.201 45.948 57.205 45.888C57.209 45.828 57.285 45.768 57.365 45.718C57.445 45.668 57.55 45.59 57.565 45.478L57.344 45.052L57.165 44.705C57.235 44.334 57.503 44.222 57.765 44.112C57.9949 44.0478 58.1912 43.8973 58.313 43.692C58.436 43.429 58.695 43.358 58.965 43.282C59.2493 43.2364 59.5096 43.0953 59.703 42.882L59.393 42.667L59.237 42.567C59.2448 42.5548 59.2519 42.5421 59.258 42.529C59.278 42.494 59.303 42.451 59.334 42.446C59.433 42.4276 59.5334 42.4182 59.634 42.418C60.2209 42.4712 60.7668 42.7415 61.165 43.176C61.4514 43.4563 61.6962 43.7762 61.892 44.126C61.98 44.267 62.071 44.413 62.167 44.551C62.1987 44.6022 62.2187 44.6597 62.2256 44.7195C62.2325 44.7793 62.2262 44.8399 62.207 44.897C62.182 45.022 62.16 45.13 62.307 45.219C62.4189 45.2864 62.5061 45.3881 62.5558 45.5089C62.6055 45.6297 62.6151 45.7633 62.583 45.89C62.5723 46.0639 62.6111 46.2373 62.695 46.39C62.7498 46.48 62.7756 46.5848 62.769 46.69C62.7138 46.8727 62.6717 47.0592 62.643 47.248C62.6152 47.441 62.5724 47.6316 62.515 47.818C62.2986 48.4972 61.9172 49.1122 61.405 49.608C61.1608 49.8279 60.8404 49.9438 60.512 49.931ZM59.094 44.338C58.941 44.338 58.845 44.461 58.752 44.58C58.7081 44.6436 58.6548 44.7002 58.594 44.748C58.633 44.902 58.67 45.048 58.706 45.193C58.799 45.562 58.888 45.91 58.967 46.253C58.982 46.315 59.025 46.522 58.967 46.58C58.6 46.92 58.758 47.22 58.911 47.51C58.9683 47.6105 59.0159 47.7163 59.053 47.826H59.239C59.873 47.826 59.925 47.751 60.262 47.266L60.344 47.148C60.724 46.5081 60.876 45.7583 60.775 45.021C60.775 44.929 60.77 44.838 60.768 44.747C60.732 44.5749 60.6337 44.4221 60.492 44.318C60.418 44.2598 60.3249 44.2313 60.231 44.238C60.184 44.238 60.131 44.238 60.088 44.246C60.045 44.254 59.988 44.254 59.939 44.254C59.8694 44.2599 59.7995 44.2466 59.7371 44.2153C59.6746 44.1841 59.622 44.1362 59.585 44.077L59.349 44.439C59.275 44.3826 59.1859 44.3495 59.093 44.344L59.094 44.338Z" fill="black"/>
<path d="M27.274 14.8359C28.302 15.4149 28.539 15.8979 27.974 16.7799C27.683 17.2349 28.043 17.7479 27.632 18.1219C27.571 18.1769 27.732 18.4789 27.792 18.6649C27.961 19.1769 28.127 19.2229 28.685 19.0759C29.1568 18.9496 29.5812 18.6879 29.9059 18.323C30.2306 17.9582 30.4413 17.5062 30.512 17.0229C30.112 16.9099 29.712 16.8029 29.32 16.6829C28.836 16.5359 29.012 15.9949 28.814 15.7449L29.543 15.0169C30.231 14.6359 30.658 15.3839 31.286 15.5549C31.747 16.2979 32.386 16.9429 32.323 17.9399C32.3278 18.5591 32.137 19.1639 31.7779 19.6683C31.4188 20.1727 30.9096 20.5509 30.323 20.7489C29.8132 20.9676 29.2485 21.0245 28.7054 20.9118C28.1622 20.7991 27.6667 20.5224 27.286 20.1189C26.9596 19.8867 26.69 19.5837 26.4975 19.2324C26.3049 18.8812 26.1943 18.491 26.174 18.0909C26.1175 17.5015 26.1864 16.9068 26.3759 16.3458C26.5655 15.7848 26.8716 15.2703 27.274 14.8359" fill="black"/>
<path d="M25.699 61.143C24.719 61.431 24.147 60.77 23.488 60.376C22.882 60.015 22.805 59.302 22.626 58.717C22.5706 58.149 22.6985 57.5781 22.991 57.088C23.1834 56.6538 23.4046 56.2328 23.653 55.828L23.263 55.686L23.763 55.165L22.982 55.023C23.198 54.861 23.353 54.65 23.493 54.66C23.882 54.686 24.267 54.551 24.682 54.775C25.6311 55.3529 26.3312 56.2633 26.646 57.329C26.9301 57.9803 26.9912 58.7072 26.82 59.3968C26.6488 60.0864 26.2547 60.7002 25.699 61.143Z" fill="black"/>
<path d="M38.244 66.502L37.937 67.118C38.2951 67.4728 38.5657 67.9061 38.7274 68.3836C38.8892 68.861 38.9376 69.3696 38.869 69.869C38.8765 70.1212 38.8025 70.3691 38.658 70.576C38.299 71.026 38.25 71.682 37.558 71.92C37.299 72.0457 37.0039 72.0755 36.725 72.004C36.1087 71.7947 35.5646 71.4146 35.156 70.908C34.9574 70.6171 34.8293 70.284 34.782 69.935C34.7306 68.7517 35.0926 67.5874 35.806 66.642C35.9768 66.4079 36.2115 66.2281 36.482 66.124C36.815 65.974 37.021 65.851 37.354 66.1C37.6351 66.2655 37.9336 66.3996 38.244 66.5" fill="black"/>
<path d="M78.972 40.6241C78.526 40.2811 78.264 39.6611 77.572 39.6871C77.3557 39.4142 77.1867 39.1069 77.072 38.7781C76.9691 38.4171 76.999 38.0312 77.1562 37.6903C77.3135 37.3495 77.5876 37.0762 77.929 36.9201C78.029 36.8751 78.09 36.7661 78.193 36.6621L77.913 36.5671L78.593 35.8871L78.436 35.7031C78.537 35.6758 78.6414 35.6633 78.746 35.6661C79.2 35.7441 79.722 35.4361 80.107 35.8991C80.6194 36.4811 80.9694 37.1878 81.122 37.9481C81.1295 38.4863 80.9838 39.0156 80.7017 39.4741C80.4196 39.9325 80.0129 40.3012 79.529 40.5371C79.329 40.6371 79.089 40.2471 78.97 40.6241" fill="black"/>
<path d="M49.031 54.377C49.0187 54.5808 49.0187 54.7851 49.031 54.989C49.149 55.755 48.509 56.027 48.064 56.364C47.619 56.701 47.199 56.207 46.785 56.084C46.3945 55.8987 46.0453 55.6369 45.758 55.314C45.4762 55.0124 45.2877 54.6356 45.2155 54.2292C45.1433 53.8228 45.1903 53.4042 45.351 53.024C45.43 52.87 45.346 52.606 45.713 52.572C45.932 52.551 46.139 52.202 46.313 51.972C46.78 51.377 47.18 51.307 47.675 51.829C48.0375 52.1382 48.3501 52.5015 48.602 52.906C48.869 53.435 49.168 53.916 49.031 54.375" fill="black"/>
<path d="M36.722 28.6571C37.2721 29.1286 37.7121 29.7151 38.011 30.3751C38.1008 30.5438 38.1556 30.7289 38.1722 30.9194C38.1889 31.1098 38.1669 31.3016 38.1078 31.4833C38.0486 31.6651 37.9534 31.833 37.8278 31.9771C37.7022 32.1212 37.5489 32.2386 37.377 32.3221C37.2175 32.4672 37.0283 32.576 36.8227 32.6409C36.617 32.7058 36.3997 32.7253 36.1857 32.698C35.9718 32.6707 35.7663 32.5973 35.5836 32.4829C35.4008 32.3684 35.245 32.2156 35.127 32.0351C35.022 31.9281 34.915 31.8231 34.827 31.7351C34.699 31.3351 34.993 30.8821 34.571 30.5731C34.5105 30.3383 34.5065 30.0924 34.5593 29.8558C34.6121 29.6191 34.7201 29.3983 34.8746 29.2114C35.0292 29.0245 35.2257 28.8768 35.4483 28.7805C35.6708 28.6841 35.913 28.6418 36.155 28.6571C36.343 28.6571 36.527 28.6571 36.722 28.6571Z" fill="black"/>
<path d="M47.223 17.0469L47.675 16.6989L47.242 16.3299L47.469 16.0789L46.711 15.9129C47.031 15.0529 47.818 14.9909 48.434 14.7099C48.555 14.6549 48.814 14.8099 48.963 14.9319C49.5551 15.4088 50.0185 16.0262 50.311 16.7279C50.351 16.8209 50.405 16.9899 50.367 17.0219C49.834 17.4769 50.538 18.3579 49.838 18.6629C49.701 18.7229 49.393 18.3709 49.025 18.3449L49.493 18.8589C49.219 19.0409 48.96 19.2299 48.682 19.3859C48.5735 19.4166 48.4585 19.4166 48.35 19.3859C48.284 19.3789 48.163 19.3279 48.166 19.3119C48.261 18.6989 47.525 19.1589 47.443 18.7539C47.402 18.5539 47.252 18.3699 47.233 18.1709C47.199 17.7989 47.223 17.4239 47.223 17.0469Z" fill="black"/>
<path d="M48.826 0.5V0H49.833C50.343 0.766 51.042 1.492 50.795 2.647L50.147 2.688V1.755C49.966 1.789 49.827 1.774 49.776 1.835C49.691 1.935 49.682 2.096 49.606 2.207C49.465 2.407 49.388 2.366 49.199 2.062C49.0516 1.85312 48.8917 1.65341 48.72 1.464L49.268 1.211C48.793 0.977 48.801 0.985 49.193 0.578C49.261 0.507 49.22 0.335 49.241 0.115L48.826 0.5Z" fill="black"/>
</g>
<defs>
<clipPath id="clip0_136_2185">
<rect width="81.147" height="72.051" fill="white"/>
</clipPath>
</defs>
</svg>
