<svg width="99" height="149" viewBox="0 0 99 149" fill="none" xmlns="http://www.w3.org/2000/svg">
<g clip-path="url(#clip0_253_786)">
<path d="M6.06698 40.7499C5.15484 37.4224 4.60591 34.0045 4.42821 30.5463C4.22529 26.3407 4.25379 21.8892 6.93268 17.7429C7.22317 17.2055 7.63044 16.7257 8.12787 16.335C8.6253 15.9442 9.20167 15.6513 9.8193 15.4753C10.0792 15.3837 10.3602 15.3697 10.6215 15.4354C10.8829 15.501 11.111 15.643 11.2729 15.8406C11.3518 15.9277 11.4105 16.0293 11.4453 16.1395C11.5098 16.3799 11.3418 16.5369 11.1279 16.7354C11.0524 16.8047 10.9745 16.8777 10.9009 16.9603C8.6658 19.4399 8.81131 22.3277 8.94834 25.1212C8.96391 25.4239 8.97948 25.7265 8.99192 26.0299C9.14132 29.4382 9.67028 32.8073 10.5705 36.0841C11.9389 40.9142 13.7659 45.6056 16.0308 50.105C18.8369 55.9427 22.3267 61.4566 26.4401 66.5521C26.498 66.624 26.5512 66.7033 26.6036 66.7798C26.7464 66.9931 26.8822 67.1929 27.1055 67.2236C27.2283 67.2229 27.3508 67.1987 27.4654 67.1527C27.58 67.1067 27.6841 67.0398 27.7713 66.9562C29.1885 65.9217 30.8015 65.1492 32.5166 64.6836C34.2316 64.218 36.0143 64.0686 37.7608 64.2443C40.4218 64.3329 43.0159 64.8967 45.4008 65.9048C47.79 66.9627 49.7617 68.6563 51.0744 70.7782C51.4197 71.304 51.6823 71.8747 51.8548 72.4743C52.0535 73.3708 51.9939 74.3104 51.6821 75.2008C51.3702 76.0911 50.8167 76.9017 50.0758 77.5529C48.9563 78.8254 47.5685 79.8763 46.0037 80.6367C44.4389 81.397 42.7326 81.8495 40.997 81.9644C37.6988 82.0934 34.4972 81.2088 31.8932 79.449L31.244 79.0262L30.4545 78.5122C30.316 78.5846 30.1798 78.6594 30.0432 78.7328C30.0837 78.9276 30.1338 79.1335 30.1902 79.3439C30.8424 81.3929 31.7744 83.3464 32.9644 85.1583L33.3072 85.7353C38.4485 94.4467 46.3037 101.869 57.3215 108.425C63.9456 112.288 70.8626 115.725 78.0262 118.712L78.1535 118.767C78.7885 118.977 79.3438 119.341 79.7621 119.824C79.8938 119.992 79.9945 120.179 80.0604 120.379C80.0837 120.441 80.0897 120.508 80.078 120.573C80.0664 120.639 80.0373 120.702 79.9934 120.756C79.8631 120.897 79.5854 120.958 79.1578 120.936C79.0821 120.929 79.0078 120.914 78.9362 120.892C78.8151 120.86 78.701 120.83 78.6225 120.881C78.5439 120.933 78.5287 121.008 78.5252 121.145C78.4247 122.72 77.2488 122.739 76.1097 122.757L75.889 122.761C74.0943 122.705 72.3412 122.342 70.7175 121.692C70.3632 121.574 70.0016 121.453 69.6457 121.341C63.9694 119.635 58.4787 117.487 53.2307 114.919C48.4676 112.368 43.971 109.431 39.7912 106.141C36.9679 104.238 34.546 101.881 32.6331 99.1757C32.031 98.2662 31.3325 97.4167 30.5473 96.639C29.8019 95.8983 29.1336 95.0936 28.5508 94.2348C26.2302 90.8481 24.3397 87.2142 22.9147 83.401C22.7988 83.0563 22.6931 82.7057 22.6007 82.3608C21.8144 79.5252 21.8635 76.5135 22.7428 73.6311C22.9272 73.0852 22.9524 72.5101 22.8156 71.9656C22.6974 71.5465 22.4891 71.157 22.2029 70.8198C20.5809 68.8353 18.902 66.6513 16.9001 63.9572C14.2005 60.1278 11.9253 56.0462 10.1069 51.7706C8.46154 48.2073 7.11119 44.5236 6.06698 40.7499ZM25.8493 67.9023L19.3406 59.097C20.9368 62.3752 23.1378 65.3528 25.8493 67.9023ZM33.8397 90.262C33.4476 89.5633 33.0433 88.8571 32.6522 88.1749C30.9237 85.294 29.3837 82.3143 28.0402 79.2511C28.1196 79.7039 28.2219 80.1735 28.348 80.6444C29.4814 84.173 31.3455 87.4376 33.8397 90.262ZM45.6061 75.5737C45.5301 75.323 45.4348 75.0784 45.3209 74.8417L45.2865 74.7635C43.9549 71.7624 40.7971 70.8674 38.0104 70.0786C35.8744 69.3556 33.531 69.2228 31.2572 69.6961C30.8753 69.7496 30.5227 69.9334 30.2695 70.2107C30.2327 70.2689 30.2088 70.3329 30.1993 70.3987C30.1898 70.4646 30.1949 70.531 30.2142 70.5937C30.2978 70.8267 30.4424 71.0349 30.6355 71.2003C33.0006 73.6588 36.0013 75.5238 39.381 76.6358C40.9902 77.1641 42.738 77.2952 44.4573 77.0167C44.8817 76.9504 45.2679 76.7321 45.5311 76.4099C45.6047 76.2804 45.6492 76.1394 45.6619 75.9959C45.6746 75.8523 45.6552 75.7092 45.6049 75.5755L45.6061 75.5737Z" fill="#FF196E"/>
<path d="M69.5612 133.848C69.5139 133.543 69.5633 133.229 69.7035 132.943C70.6634 130.538 71.1436 130.23 75.3976 129.21C78.4066 128.536 81.4535 128.056 84.5158 127.773C85.2006 127.695 85.9049 127.615 86.5979 127.531C86.7242 127.518 86.8508 127.511 86.9772 127.51C87.435 127.501 87.9066 127.493 88.1453 126.911C88.2262 126.734 88.2455 126.54 88.2003 126.357C88.0834 126.067 87.8731 125.819 87.5965 125.646L87.4547 125.531C85.9506 124.205 84.6163 122.723 83.4756 121.113C83.0343 120.538 82.5777 119.944 82.1086 119.372C81.6091 118.762 81.0355 118.182 80.4802 117.621C79.7986 116.954 79.1613 116.25 78.5713 115.512C77.0483 113.527 75.3449 111.621 73.6897 109.764L73.2674 109.291C72.9578 108.919 72.6832 108.524 72.4463 108.107C72.0453 107.292 71.4042 106.604 70.593 106.119C70.3626 106.019 70.1585 105.876 69.9927 105.699C69.8269 105.521 69.7028 105.314 69.6279 105.087C69.4453 104.406 69.821 103.545 70.7702 102.454C70.9346 102.211 71.15 102.001 71.4029 101.835C71.6559 101.669 71.9408 101.551 72.2399 101.49C72.5391 101.429 72.8458 101.425 73.141 101.479C73.4362 101.532 73.7134 101.642 73.9552 101.802C74.9507 102.497 75.8655 103.284 76.6865 104.152C79.5597 107.232 82.4693 110.373 85.2821 113.41L85.2852 113.422C87.7075 116.029 90.206 118.727 92.6735 121.371C93.6133 122.371 94.616 123.342 95.5914 124.28L96.4388 125.098C97.156 125.695 97.6953 126.453 98.0095 127.305C98.2906 128.354 97.741 129.331 96.0499 130.787C95.1307 131.602 94.0408 132.231 92.8548 132.632C91.6688 133.033 90.4147 133.196 89.1782 133.11C84.1054 132.84 78.9946 133.013 73.9134 133.626C73.3229 133.711 72.7278 133.841 72.1563 133.965C71.7375 134.057 71.3042 134.152 70.8824 134.227C70.1069 134.367 69.6659 134.238 69.5612 133.848ZM95.3091 126.267L91.741 122.531L91.592 122.376L88.1698 118.795C90.0505 121.665 92.4653 124.192 95.3091 126.267Z" fill="#FF196E"/>
</g>
<defs>
<clipPath id="clip0_253_786">
<rect width="134.67" height="66.4077" fill="white" transform="translate(64.1448 0.918701) rotate(75)"/>
</clipPath>
</defs>
</svg>
