<svg width="60" height="38" viewBox="0 0 60 38" fill="none" xmlns="http://www.w3.org/2000/svg">
<g clip-path="url(#clip0_136_2176)">
<path d="M8.29493 32.6158C8.19299 32.5571 8.08673 32.5016 7.98371 32.4483C7.43556 32.1629 6.91831 31.8943 7.07718 31.1254C7.09199 31.0536 7.10663 30.9818 7.12109 30.91C7.20117 30.3925 7.35127 29.8882 7.56731 29.4105C7.72617 29.1015 7.88449 28.7871 8.03793 28.4829C8.66148 27.1635 9.38333 25.8921 10.1975 24.6795C10.8306 23.7084 11.6877 22.901 12.6976 22.3242C13.7074 21.7475 14.8412 21.4179 16.0048 21.3628C16.5757 21.3407 17.1711 21.33 17.8244 21.33C19.0438 21.33 20.2843 21.3687 21.4842 21.4059C22.0063 21.422 22.5463 21.4393 23.0771 21.4522C23.3829 21.4597 23.6925 21.4694 23.9923 21.4786C24.6841 21.5001 25.402 21.5222 26.0998 21.5222C28.0799 21.5222 30.3982 21.3606 32.5789 20.1761C34.8599 18.9378 36.2821 17.5949 37.1875 15.8305C38.5685 13.1433 39.7759 11.0155 40.9866 9.13423C43.0138 5.99094 45.8142 4.14901 49.307 3.65958C49.3927 3.64881 49.4848 3.62943 49.5813 3.61112C49.7525 3.57205 49.9269 3.54862 50.1024 3.54113C50.2081 3.53583 50.3132 3.55968 50.406 3.61005C50.8483 3.90859 51.2163 4.30316 51.4823 4.76388C51.5158 4.85294 51.5158 4.95103 51.4823 5.04009C51.441 5.2353 51.336 5.41152 51.1835 5.54136C50.9238 5.67958 50.6484 5.78658 50.3632 5.8601C50.1619 5.91647 49.964 5.98424 49.7706 6.06308C49.5134 6.18216 49.2656 6.32039 49.0294 6.47659C48.9302 6.53851 48.8283 6.60258 48.7269 6.66235C48.7022 6.67826 48.679 6.69627 48.6575 6.71619C48.6184 6.74957 48.5821 6.7808 48.549 6.7808H48.5431C48.4727 6.77296 48.4019 6.76901 48.3311 6.76895C47.6712 6.82869 47.0617 7.14466 46.6351 7.64819C46.4087 7.86766 46.1624 8.06592 45.8994 8.24045C43.8656 9.49335 42.6511 11.513 41.6703 13.307C41.2474 14.0823 40.8256 14.8754 40.4184 15.6421C39.8518 16.7087 39.2657 17.8114 38.666 18.8834C38.3718 19.4217 37.9843 19.9043 37.5215 20.3091C36.2208 21.4813 34.7377 22.437 33.1298 23.139C31.3382 23.8363 29.4231 24.166 27.4997 24.1082C26.3931 24.1082 25.2616 24.0361 24.1669 23.9661C23.8416 23.9451 23.5076 23.9241 23.1774 23.9047C21.7932 23.8239 20.5456 23.7566 19.2872 23.7566C18.43 23.7566 17.6607 23.7878 16.9287 23.853C14.6515 24.0549 12.7783 25.3132 11.0378 27.8131C10.8341 28.0864 10.6064 28.3414 10.3574 28.5749C10.1135 28.8043 9.88973 29.0537 9.68835 29.3206C9.53977 29.5616 9.43155 29.8249 9.36791 30.1003C9.32177 30.2708 9.26565 30.4385 9.19984 30.6026C9.00465 31.0635 8.79699 31.5136 8.57686 31.9901C8.48957 32.1915 8.39252 32.4004 8.29493 32.6158ZM50.0666 3.99825L48.8369 4.3353L46.3776 5.00994L46.3976 5.08047C46.4106 5.12731 46.4237 5.17416 46.4367 5.22154L48.8001 4.55067L50.1154 4.177C50.1073 4.14739 50.0991 4.11724 50.091 4.08763C50.0829 4.05801 50.0747 4.02571 50.0666 3.99825Z" fill="black"/>
<path d="M1.26523 28.127C1.14658 28.1165 1.03355 28.072 0.939921 27.9989C-0.000772411 27.3705 -0.1515 26.9565 0.120677 25.7843C1.12318 21.4668 3.6861 17.9541 7.96178 15.0445C9.32972 14.1136 10.9942 13.6796 13.2015 13.6796C13.3695 13.6796 13.5452 13.6796 13.7236 13.6871C15.0931 13.7564 16.453 13.9527 17.7857 14.2735C18.5404 14.4382 19.2908 14.6789 20.0168 14.9121C20.4885 15.0633 20.9759 15.22 21.4601 15.3546C22.0036 15.5022 22.5649 15.5747 23.1284 15.57C24.0176 15.5444 24.9032 15.4451 25.7759 15.2733L25.9326 15.247C29.5929 14.6321 31.9481 12.5452 33.1322 8.86615C33.7152 6.99382 34.6862 5.26339 35.9831 3.78616C37.3026 2.32794 38.913 1.15799 40.712 0.350511C41.0456 0.216676 41.396 0.128467 41.7536 0.0883007C41.9162 0.0624566 42.0875 0.0344588 42.2502 0L42.3239 0.215368L42.3483 0.285362L42.0968 0.496961L41.8528 0.702098H42.5457C42.6562 0.876581 42.7301 1.07145 42.7629 1.27501C42.7957 1.47856 42.7867 1.6866 42.7365 1.88662C42.6064 2.26153 42.3683 2.59027 42.0518 2.83208C41.9878 2.88593 41.9243 2.93977 41.8609 2.99792C41.4118 3.50377 40.7848 3.81989 40.1086 3.88146H40.0495H40.0392C39.9492 3.88146 39.8093 3.917 39.7849 3.97407C39.7343 4.15696 39.6258 4.31884 39.4755 4.43578C39.3251 4.55271 39.1408 4.6185 38.9499 4.6234C38.7059 4.61242 38.467 4.5504 38.2489 4.44142C38.2375 4.55718 38.2342 4.67402 38.231 4.78762C38.2416 5.02382 38.2047 5.25974 38.1225 5.48164C37.9876 5.72671 37.8093 5.94559 37.5961 6.12775C37.5353 6.18643 37.4725 6.24728 37.4139 6.30758C36.1631 7.58632 35.5509 9.22312 34.9578 10.8061C34.8531 11.085 34.7453 11.3725 34.6357 11.6541C34.3135 12.5204 33.8852 13.3441 33.3605 14.1066C32.8263 14.8773 32.1358 15.5287 31.3333 16.019C31.1665 16.1055 30.9876 16.1663 30.8025 16.1994C30.6875 16.2274 30.5569 16.2586 30.411 16.3017C30.2683 16.5936 30.053 16.8445 29.7853 17.0306C29.5176 17.2167 29.2065 17.3318 28.8815 17.3651C28.6203 17.409 28.3694 17.5002 28.1414 17.6343C27.9183 17.7647 27.6741 17.8557 27.4198 17.9035C27.2116 17.9277 26.999 17.9541 26.7935 17.98C25.8942 18.1104 24.9875 18.1858 24.0788 18.2056C23.7893 18.2056 23.5209 18.1943 23.259 18.1706C21.9721 18.0004 20.7139 17.66 19.5179 17.1583C17.9587 16.5718 16.3056 16.2703 14.6383 16.2683C13.5837 16.2711 12.5325 16.3866 11.5028 16.6129C9.97357 16.902 8.59336 17.7107 7.59906 18.9001C7.39853 19.131 7.17731 19.3433 6.93813 19.5344C6.79662 19.655 6.65023 19.7794 6.51577 19.9113C4.8029 21.5692 3.4344 23.5448 2.48786 25.7262C2.33226 26.088 2.17773 26.4568 2.02863 26.8138C1.89634 27.1299 1.75754 27.4556 1.62308 27.7754C1.54066 27.9585 1.44361 28.127 1.26523 28.127ZM9.584 14.8507L8.86127 15.2588L7.7281 15.8995L7.75412 15.9458L7.83816 16.0966L9.2164 15.3449L9.70816 15.0757L9.58509 14.855L9.584 14.8507ZM28.2938 15.2782L26.414 15.7811L26.0155 15.8887L26.0399 15.9787L26.0643 16.0702L27.2029 15.7638L28.3415 15.4575L28.2938 15.2782Z" fill="black"/>
<path d="M49.0912 16.8428C48.8017 17.1562 48.5067 17.4658 48.2237 17.7845C48.1022 17.9213 47.8799 18.1684 47.9125 18.212C47.9863 18.3172 48.0363 18.4371 48.059 18.5633C48.0817 18.6895 48.0765 18.8191 48.0439 18.9432C48.0113 19.0673 47.952 19.1828 47.87 19.2819C47.7881 19.381 47.6855 19.4613 47.5693 19.5172C46.7462 20.0949 47.0157 20.9171 46.9018 21.6439C46.8356 21.906 46.7095 22.1494 46.5333 22.3553C46.3571 22.5611 46.1355 22.724 45.8858 22.8311C45.8532 22.6335 45.8213 22.4403 45.7893 22.247C45.604 22.3107 45.4285 22.3995 45.2677 22.5108C45.0173 22.7642 44.7804 23.0303 44.558 23.3082L45.2498 23.4417C45.2899 23.6905 45.3284 23.9301 45.3664 24.1664C44.6138 24.4416 43.8553 24.574 43.2789 25.2142C42.9656 25.5625 42.5313 25.7251 42.7796 26.2996C42.8007 26.3486 42.5009 26.6227 42.4543 26.5979C41.281 25.9944 40.6434 27.0696 40.2855 27.6328C40.0449 28.0246 39.6902 28.3347 39.2684 28.5222C38.9772 28.6579 38.537 28.4727 38.1618 28.4425C38.0483 28.4483 37.9357 28.4664 37.8262 28.4964C37.843 28.7177 37.8587 28.9185 37.8733 29.114C37.201 29.3972 37.201 29.3972 35.6759 28.9777C35.5403 29.8123 34.8561 30.0933 33.9707 29.6395L33.8666 29.9851C32.9508 29.9652 31.9933 29.0531 31.2055 30.3895C30.5121 29.6325 29.7958 29.9587 29.0064 30.3534C28.5877 30.5008 28.1416 30.5559 27.6992 30.5149C25.9061 30.4777 24.1169 30.6953 22.3858 31.161C21.5291 31.4141 20.8037 31.9293 19.9958 32.1636C18.2511 32.6691 17.4508 34.2015 16.2282 35.2573C15.6545 35.7527 15.3607 36.5641 14.9269 37.2231C14.6623 37.6253 14.5474 38.2595 13.7813 37.8837C13.6439 37.8426 13.5177 37.771 13.4123 37.6744C13.3068 37.5777 13.2249 37.4585 13.1727 37.3258C13.1205 37.1931 13.0993 37.0503 13.1108 36.9083C13.1223 36.7662 13.1662 36.6286 13.2391 36.5059C14.5181 33.1871 16.586 30.6086 19.9947 29.157C22.5615 28.0646 25.2355 28.0506 27.9313 27.9784C29.6739 27.9316 31.4137 27.8099 33.1563 27.7324C33.4274 27.7205 33.885 27.4782 33.763 28.1093L33.7663 28.0969L33.4296 28.2234C33.4269 28.2622 33.4242 28.3015 33.4215 28.3402C33.5878 28.3709 33.7571 28.3837 33.9262 28.3785C34.1187 28.3537 34.3058 28.217 34.4912 28.2234C35.9914 28.2773 37.2563 27.5585 38.5115 26.9312C39.8322 26.2288 41.1128 25.4544 42.3475 24.6117C42.7131 24.3265 43.0503 24.007 43.3543 23.6576L43.3321 23.6759L44.2256 22.9733L43.1776 22.9087C43.6709 22.3164 44.0814 21.7484 44.5683 21.2563C44.8903 20.93 45.1105 21.0727 45.3425 21.652L46.4881 21.5729C46.2843 21.301 46.113 21.0711 45.9915 20.9095C45.6694 20.8831 45.2704 20.9445 45.2048 20.8255C45.1047 20.5622 45.0903 20.2742 45.1636 20.0023C45.2366 19.6178 45.3513 19.2423 45.5057 18.8824C45.649 18.64 45.8186 18.4139 46.0116 18.2083C45.8673 17.616 46.12 17.0092 47.1778 15.6594L47.6658 15.8979C47.5709 14.9826 47.6658 14.8372 48.1174 14.8749V15.8112L48.1022 15.7902C48.2606 16.1133 48.4189 16.4326 48.5956 16.7917L48.9508 16.6937L49.0928 16.8423" fill="black"/>
<path d="M49.366 16.2812L49.2262 16.1342C49.3248 15.0946 49.2804 15.0483 48.3907 15.241L48.4058 15.262L49.4143 14.3085L48.6325 13.8115C48.9177 13.6468 49.1204 13.5229 49.3324 13.4115C49.4018 13.3748 49.5227 13.3975 49.5634 13.3474C51.1581 11.4951 53.2531 10.1345 55.6012 9.42608C56.678 9.05727 57.8171 8.86128 58.9313 8.59584C59.096 8.57089 59.2625 8.56044 59.429 8.56461L59.499 8.79775L55.3068 10.0183L55.361 10.2213L59.6985 9.03088C60.2033 10.1368 60.1252 10.273 59.0869 10.7156C57.7249 11.2971 56.3847 11.9292 55.0303 12.5279C54.7592 12.6469 54.5049 12.8354 54.1823 12.5064C54.0511 12.3734 53.6672 12.4843 53.3273 12.4843V11.9884L52.2846 12.6437L53.0529 12.7352C53.0529 12.8084 53.0719 12.866 53.0529 12.893C52.8182 13.1875 52.4668 13.3312 52.4966 13.8804C52.5172 14.2573 52.0168 14.2439 51.7918 13.8896L51.0869 14.6681C51.1412 15.3562 50.6413 15.7584 49.7093 15.4855C49.7697 15.6814 49.7943 15.8866 49.7819 16.0912C49.758 16.1838 49.5108 16.2204 49.3671 16.2818" fill="black"/>
<path d="M40.1213 25.3084L37.0194 26.6933L36.8682 26.4854C37.0051 26.388 37.1474 26.2981 37.2943 26.2162C38.0143 25.8555 38.7338 25.4969 39.4674 25.1588C39.6495 25.1064 39.8379 25.0792 40.0275 25.078L40.1213 25.3084Z" fill="black"/>
<path d="M33.615 27.7701C34.1116 26.8052 35.0209 26.9851 35.7837 26.6932C35.7474 27.2144 35.0995 27.5143 33.6204 27.7518C33.6182 27.7577 33.6164 27.7639 33.615 27.7701" fill="black"/>
<path d="M43.3743 23.4088C43.0864 23.4281 42.8008 23.4741 42.5215 23.5461C42.2494 23.6728 41.9903 23.8251 41.7478 24.0011C41.8188 23.4433 42.4776 22.8473 42.9032 22.9323C43.087 22.969 43.203 23.2522 43.351 23.4228L43.3743 23.4088Z" fill="black"/>
</g>
<defs>
<clipPath id="clip0_136_2176">
<rect width="60" height="38" fill="white"/>
</clipPath>
</defs>
</svg>
