<svg width="100" height="86" viewBox="0 0 100 86" fill="none" xmlns="http://www.w3.org/2000/svg">
<g opacity="0.2" clip-path="url(#clip0_255_1004)">
<path d="M89.6942 68.6823C89.0867 69.2007 88.7038 69.9362 88.6265 70.7332C88.556 71.1849 88.1453 71.2466 87.8359 71.3266C87.5679 71.35 87.3133 71.4546 87.1058 71.6266C87.0346 71.6733 86.9529 71.7014 86.8682 71.7084C86.7835 71.7154 86.6983 71.701 86.6205 71.6666C86.2258 71.4657 85.8501 71.2291 85.498 70.9599C84.335 69.8586 83.3418 68.5893 82.5512 67.1938C81.6519 65.8322 80.8501 64.4079 80.152 62.9319C79.9488 62.4594 79.9396 62.4669 80.4523 62.1035C80.8671 62.8978 81.2554 63.7045 81.7042 64.4745C82.0601 65.0862 82.4907 65.6529 82.9246 66.2921C82.9795 66.1897 83.0033 66.0733 82.9928 65.9574C82.9823 65.8415 82.9381 65.7312 82.8657 65.6404C81.9646 64.3851 81.184 63.0469 80.5345 61.6435L80.8887 61.411L81.092 61.5877V61.066L82.0427 60.876C82.3264 61.0085 82.4575 61.5127 82.9279 61.5752C82.913 62.0852 83.3568 62.3394 83.5791 62.7119C83.859 63.1327 84.1652 63.5352 84.4959 63.917C84.7953 63.877 85.0193 63.8336 85.2425 63.8186C86.0364 63.7628 86.0174 63.7878 86.5118 64.2262C87.061 64.7129 87.4368 65.3929 88.1461 65.7029C88.172 65.7169 88.1943 65.7367 88.2114 65.7606C88.2285 65.7846 88.24 65.8122 88.2449 65.8413C88.2673 66.3538 88.5527 66.5396 89.0313 66.6638C89.4329 66.7688 89.5474 67.1938 89.5656 67.6122C89.5797 67.9331 89.6386 68.2514 89.6917 68.6823" fill="white"/>
<path d="M18.8329 9.18469C19.4045 9.47054 19.4045 9.47054 19.7073 8.873C20.0956 8.73883 20.566 9.00801 20.9169 8.64966C21.3072 8.76719 21.7035 8.86373 22.1041 8.93884C22.752 9.02801 23.0872 9.53221 23.453 9.95557C23.7019 10.2431 23.9616 10.5323 24.1889 10.8448C24.4544 11.2106 24.7696 11.5382 25.0384 11.9032C25.2798 12.2365 25.4864 12.5916 25.7021 12.9416C25.7737 13.0331 25.8177 13.1433 25.8291 13.2591C25.8176 13.3807 25.8355 13.5033 25.8813 13.6165C25.9271 13.7296 25.9994 13.83 26.092 13.9091C26.462 14.2842 26.433 14.8342 26.5616 15.3025C26.6447 15.7652 26.6489 16.2386 26.574 16.7026C26.5599 16.881 26.5359 17.261 26.146 16.9801C26.1186 16.9601 25.98 17.106 25.888 17.161C25.7959 17.216 25.62 17.3277 25.5851 17.2993C25.1703 16.936 25.0733 17.196 24.885 17.5552C24.6079 18.0835 24.4386 18.0444 23.6953 17.911C23.2423 17.8277 22.7628 17.8152 22.4982 17.421C21.6785 16.4193 21.1429 15.2142 20.9476 13.9325C20.9456 13.6508 20.8879 13.3724 20.778 13.1134C20.668 12.8543 20.508 12.6197 20.3072 12.4232C19.9206 12.084 19.6642 11.5998 19.1366 11.4115C18.9773 11.354 18.8611 11.164 18.7409 11.0231C18.4757 10.7365 18.3277 10.3602 18.326 9.9689C18.3186 9.53138 18.6629 9.43304 18.8329 9.18469Z" fill="white"/>
<path d="M79.5712 44.8368C79.1074 44.3709 78.7183 43.9142 78.2645 43.5326C76.9654 42.4492 76.344 40.9149 75.5658 39.4865C75.3059 38.8343 75.2248 38.124 75.331 37.4297C75.331 37.3089 75.497 37.1922 75.5965 37.0655L76.0337 37.9347V36.6497C76.2904 36.5554 76.5341 36.4285 76.7588 36.2721C76.8539 36.193 76.9683 36.1407 77.0902 36.1207C77.2121 36.1006 77.3371 36.1135 77.4524 36.158C77.7035 36.2633 77.9378 36.4054 78.1476 36.5796C78.0599 37.224 78.2204 37.8778 78.5964 38.4073C78.8892 38.3239 79.2352 38.5364 79.5289 38.2339C79.5821 38.2023 79.6423 38.1844 79.704 38.1816C79.7658 38.1788 79.8273 38.1914 79.8831 38.2181C80.6024 38.6523 81.4843 38.8848 81.8476 39.7748C81.9132 39.9357 81.9853 40.1432 82.1164 40.2149C82.3147 40.3224 82.1363 40.6591 82.4765 40.6716C82.7561 40.6824 82.5777 40.9691 82.6275 41.1249C82.7015 41.3148 82.7619 41.5098 82.8083 41.7083C82.826 41.8947 82.8282 42.0823 82.815 42.2691C82.1255 42.8952 81.5984 43.6807 81.2793 44.5576L79.572 44.8368" fill="white"/>
<path d="M1.52289 0.946464C1.69379 0.713117 1.82652 0.518106 1.97419 0.334762C2.03562 0.269498 2.10845 0.216111 2.18906 0.177253C2.40974 0.0530787 2.56654 0.403932 2.81293 0.251424C3.00513 0.121312 3.22352 0.0353777 3.45256 -0.000257693C3.63508 -0.0177587 3.90636 0.203087 4.00508 0.13225C4.2241 -0.0260925 4.35518 -0.0735953 4.54516 0.140584C4.58083 0.179753 4.71108 0.150584 4.79404 0.130583C5.39136 -0.0144252 5.39053 -0.0160919 5.70662 0.567275L5.85677 0.136417C5.94671 0.341758 6.02239 0.553109 6.08326 0.768954C6.12538 1.0076 6.14895 1.24918 6.15378 1.4915C6.13976 1.74499 6.1873 1.99811 6.29232 2.22904L6.38275 1.32399H6.47898C6.50374 1.48331 6.52036 1.64381 6.52876 1.80485C6.53374 2.61906 6.49558 3.43494 6.54203 4.24582C6.60879 4.93396 6.43803 5.62424 6.05837 6.20094C5.90738 6.05593 5.76469 5.83591 5.59296 6.18677C5.40464 6.57012 5.10432 6.54096 4.71523 6.36511C4.65052 6.7818 4.62148 7.27266 3.93457 7.11516V6.06843L3.79685 6.04093L3.46501 7.11932C3.15805 6.91264 2.90668 6.69346 2.95645 6.25927C2.97056 6.1376 2.82869 6.00426 2.78307 5.86842C2.58562 5.27672 2.58894 5.27505 2.09947 5.26088C2.00572 5.26088 1.9128 5.26088 1.81906 5.26088H1.5652C1.32793 5.0217 1.11389 4.79335 0.888233 4.58334C0.45174 4.13274 0.194681 3.53713 0.165642 2.90908C0.12748 2.60073 0.193849 2.27904 0.149879 1.97152C0.133771 1.67023 0.23357 1.37425 0.428629 1.14481C0.733926 0.666448 0.900677 0.656447 1.52289 0.946464Z" fill="white"/>
<path d="M56.1729 8.39797C55.773 8.67049 55.3881 8.94384 54.9874 9.19052C54.9484 9.21469 54.809 9.07218 54.6556 8.96717C54.5837 9.12073 54.5005 9.26866 54.4067 9.4097C54.2828 9.55054 54.1519 9.68489 54.0143 9.81222C53.7505 10.0856 53.4958 10.3898 53.1058 9.97473C53.076 9.94306 52.9856 9.97473 52.9233 9.96806C52.4853 9.92056 52.068 10.0306 51.6266 9.67638C51.2278 9.42527 50.8466 9.14681 50.4859 8.843C50.1529 8.53417 49.8654 8.17919 49.6323 7.78877C49.2299 7.19407 49.0377 6.48103 49.0864 5.76365C49.1535 5.5489 49.246 5.34298 49.3618 5.15028L49.9425 5.62865C50.0952 5.12028 50.0637 4.52942 50.5332 4.08106L51.1139 4.51858V3.83188C51.6995 3.66849 52.302 3.57423 52.9092 3.55103C53.2351 3.55804 53.5477 3.68223 53.7903 3.90105C54.1131 4.14395 54.4068 4.42361 54.6655 4.73443C54.8779 5.05528 55.1683 5.32363 55.3914 5.65115C55.6912 6.21529 55.9445 6.80312 56.1489 7.40875C56.2208 7.73383 56.2284 8.06994 56.1713 8.39797" fill="white"/>
<path d="M16.4851 26.3948V28.4149C16.6259 27.9147 16.6834 27.3946 16.6552 26.8756C16.661 26.6689 16.5639 26.4098 16.8128 26.2889C17.0652 26.1493 17.3374 26.0495 17.62 25.9931C17.7154 25.9789 17.8971 26.2064 17.9518 26.3548C17.9861 26.5392 17.9906 26.728 17.9651 26.9139C18.1202 26.8489 18.214 26.7731 18.297 26.7823C18.4679 26.8014 18.7035 26.9606 18.7947 26.8964C19.2759 26.5373 19.8093 26.7739 20.3129 26.7431C20.4436 26.7425 20.5728 26.7715 20.6909 26.8279C20.8089 26.8843 20.9128 26.9667 20.9949 27.069C21.2628 27.5265 21.8037 27.6665 22.0875 28.204C22.0847 28.501 22.1824 28.7901 22.3645 29.0241C22.5449 29.2232 22.6811 29.4586 22.764 29.7147C22.847 29.9707 22.8748 30.2415 22.8457 30.5092C22.8201 30.8055 22.8174 31.1033 22.8374 31.4C22.1986 31.7809 21.5341 32.1501 20.897 32.5668C20.6082 32.723 20.2805 32.7914 19.9537 32.7636C19.6269 32.7358 19.3153 32.6129 19.0569 32.4101C18.6421 32.1918 18.0871 32.0901 17.9477 31.5092C17.0218 31.09 16.8568 30.11 16.3631 29.3699C16.1115 28.8717 15.97 28.3247 15.9483 27.7665C15.8687 27.3265 16.1748 26.8264 16.3109 26.3531L16.4851 26.3948Z" fill="white"/>
<path d="M34.6179 36.5762L33.3345 35.2912C33.316 34.9417 33.3216 34.5914 33.3511 34.2428C33.3694 34.1078 33.5627 33.9719 33.707 33.8927C33.761 33.8627 33.9045 33.9928 34.004 34.0469C34.1401 33.7761 34.2197 33.4094 34.6802 33.4986C34.7687 33.5237 34.8633 33.5148 34.9456 33.4736C35.0407 33.3651 35.1606 33.2816 35.2951 33.2302C35.4295 33.1788 35.5744 33.161 35.7172 33.1785C36.2621 33.2613 36.7817 33.4654 37.2379 33.7761C38.0925 34.4517 38.7726 35.3241 39.2206 36.3196C39.4727 36.9384 39.6647 37.5804 39.7939 38.2363C39.8262 38.4047 39.8106 38.5788 39.7488 38.7386C39.687 38.8984 39.5816 39.0374 39.4446 39.1397C38.912 39.5139 38.4001 39.9189 37.8559 40.2748C37.6593 40.4045 37.4273 40.4694 37.1922 40.4606C36.5403 40.4546 35.9107 40.2212 35.4113 39.8002C34.9118 39.3792 34.5736 38.7969 34.4545 38.153C34.3599 37.9425 34.3037 37.7167 34.2886 37.4863C34.3662 37.175 34.4775 36.8732 34.6204 36.5862" fill="white"/>
<path d="M36.9542 70.5917L36.843 70.0258C36.843 70.7758 36.0532 71.055 35.8815 71.6925C35.8638 71.7445 35.8349 71.7918 35.7968 71.8312C35.7588 71.8706 35.7125 71.901 35.6614 71.9204C35.6103 71.9397 35.5555 71.9475 35.5011 71.9431C35.4466 71.9387 35.3938 71.9223 35.3464 71.8951C35.1199 71.6892 34.9656 71.8392 34.8378 71.9234C34.6961 72.0269 34.5253 72.0827 34.35 72.0827C34.1748 72.0827 34.004 72.0269 33.8622 71.9234C32.8002 71.4476 31.8919 70.6829 31.2398 69.7158C30.5255 69.3291 30.3214 68.5449 29.8801 67.9482C29.6911 67.6084 29.5456 67.2461 29.447 66.8698C29.7083 66.4872 30.0875 66.5889 30.5463 66.8189C30.5383 66.6327 30.4967 66.4494 30.4235 66.2781C30.2982 66.1114 30.4318 66.0422 30.5064 66.0122C30.8411 65.9083 31.153 65.7414 31.4256 65.5205C31.4904 65.458 31.6745 65.4822 31.7882 65.5205C31.9923 65.583 32.1665 65.7139 32.393 65.5289C32.4569 65.4764 32.6659 65.5814 32.7978 65.6389C33.9493 66.062 34.937 66.8418 35.6185 67.8657C35.7489 68.0322 35.8981 68.1829 36.0632 68.3149C36.4979 68.7207 36.5792 69.3149 36.916 69.7491C37.0089 69.8687 37.0628 70.0142 37.0704 70.1657C37.0779 70.3173 37.0388 70.4674 36.9583 70.5958" fill="white"/>
<path d="M93.838 26.7016C93.8629 26.5283 93.8878 26.3541 93.9152 26.1624C93.9832 26.2124 94.0438 26.2316 94.0596 26.2699C94.3374 26.8457 94.5663 27.4439 94.744 28.0584C94.8327 28.4551 94.9456 28.8351 94.5631 29.1418C94.3026 29.3526 94.5631 29.9568 93.9824 29.9235C93.7061 30.3693 93.2631 30.3243 92.84 30.2943C92.7659 30.5831 92.6725 30.8665 92.5604 31.1427C92.4202 31.4344 91.9706 31.5169 91.4894 31.3794C91.3791 31.3477 91.2729 31.2402 91.1725 31.2494C90.3927 31.3177 90.3935 31.3236 90.0658 30.706C89.8857 30.4071 89.7226 30.0983 89.5772 29.781C89.5109 29.597 89.406 29.4295 89.2696 29.2898C89.1332 29.1502 88.9684 29.0417 88.7865 28.9717C88.5057 28.8544 88.2593 28.6669 88.071 28.4269C87.8827 28.187 87.7586 27.9026 87.7105 27.6008C87.6763 27.3216 87.7193 27.0382 87.8347 26.7818C87.9502 26.5255 88.1337 26.306 88.3651 26.1474L89.1889 27.2308C89.1889 26.7758 89.1839 26.4699 89.1889 26.1641C89.1939 25.8582 89.2279 25.9224 89.7074 25.7057C90.0509 25.5482 90.547 25.7349 90.7436 25.2574L91.7574 25.2149C92.3821 25.1899 92.9354 25.2582 93.2266 25.9557C93.3938 26.2313 93.5994 26.4814 93.8372 26.6983" fill="white"/>
<path d="M1.44765 31.2759C1.16956 31.2273 0.915029 31.0884 0.72307 30.8805C0.53111 30.6726 0.412322 30.4072 0.384919 30.125C0.236622 29.5367 0.155626 28.9333 0.143502 28.3265C0.204646 27.5138 0.204646 26.6975 0.143502 25.8847C0.111147 25.4914 0.362519 25.2005 0.356712 24.833C0.356712 24.7372 0.48779 24.5522 0.550011 24.5563C1.03284 24.5838 1.26182 24.0563 1.76788 24.0563C2.09972 24.0563 2.43655 23.7388 2.81236 23.5413C3.1832 23.9138 3.97382 23.4529 4.27082 24.2738C4.0742 24.8505 4.56367 25.3572 4.72959 25.9472C4.75282 26.0306 4.8391 26.1031 4.83993 26.1814C4.84823 27.1115 4.84491 28.0415 4.84491 29.0516L4.46909 28.7182C4.5197 28.9366 4.50975 29.1041 4.58441 29.1608C4.65908 29.2174 4.83329 29.1541 4.94197 29.1916C4.99258 29.2083 5.01996 29.3433 5.02493 29.4266C5.02493 29.4649 4.94197 29.5491 4.9146 29.5433C4.68811 29.4991 4.46412 29.4366 4.21938 29.3766L3.73904 30.4167L3.17905 30.375C3.44618 30.6458 3.13923 30.7433 3.02806 30.9092C2.92414 31.0795 2.82889 31.255 2.74267 31.4351C2.15282 31.3709 1.93297 30.9892 1.77535 30.4833L1.44765 31.2759" fill="white"/>
<path d="M70.4315 74.5668C69.947 74.5527 69.4882 74.4218 69.2534 74.961C68.8577 74.436 68.8112 74.066 69.2136 73.6493C69.4546 73.324 69.7281 73.0243 70.0299 72.7551C70.3402 72.5375 70.4547 72.0567 70.7218 71.7508C70.9582 71.5328 71.2191 71.3431 71.4992 71.1858L71.8094 71.4916L71.3698 71.8058L71.422 71.9183L72.0857 71.8133C72.1496 71.91 72.2243 72.1567 72.3827 72.24C73.2706 72.7764 74.009 73.5299 74.5289 74.4301C74.6866 74.7392 74.8235 75.0586 74.9387 75.386C75.317 76.1544 75.4149 76.2969 75.2996 76.9953C75.2651 77.5281 75.0659 78.0368 74.7297 78.4504C74.5557 78.6094 74.439 78.8219 74.3978 79.0546C74.3771 79.5796 74.09 79.663 73.6686 79.638C73.5481 79.6314 73.4274 79.6443 73.311 79.6763C72.5752 79.8755 72.4989 79.8546 72.1322 79.2879C71.6471 78.4273 71.2714 77.509 71.0138 76.5544C70.7907 75.8952 70.6198 75.221 70.4331 74.5668" fill="white"/>
<path d="M58.5141 64.2387C57.9805 63.9797 57.4853 63.6476 57.0424 63.252C56.2518 62.4503 55.4031 61.6952 54.673 60.8443C53.8595 60.0023 53.1718 59.0462 52.6313 58.0058C52.6803 57.59 53.2195 58.0284 53.2303 57.5417C53.2303 57.4016 53.5754 57.2658 53.7646 57.1333C54.235 56.7999 54.498 56.7483 54.8431 57.115C55.1605 57.4325 55.5724 57.6373 56.0162 57.6983C56.6441 57.9408 57.2316 58.278 57.7583 58.6984C58.3432 59.0919 58.8749 59.5597 59.3404 60.0901C59.6273 60.3139 59.9002 60.5552 60.1576 60.8127C60.3983 61.0909 60.5751 61.419 60.6753 61.7736C60.6801 61.9042 60.6589 62.0345 60.6131 62.1568C60.5672 62.2792 60.4975 62.3911 60.4081 62.4861C60.2115 62.7161 60.1178 63.0486 59.7735 63.1603C59.5744 63.2245 59.6026 63.4478 59.5636 63.6328C59.5188 63.8445 59.4599 64.102 59.0949 63.8362C58.8393 63.6512 58.6245 63.9137 58.5141 64.2387Z" fill="white"/>
<path d="M96.2423 58.7943C95.3554 58.3696 94.651 57.6375 94.2587 56.7325C93.8529 56.0305 93.4969 55.3006 93.1935 54.5482C92.8965 53.7982 92.378 53.084 92.6095 52.1423C93.2848 52.6156 93.2283 53.5198 93.8788 54.124C93.6427 53.2079 93.3555 52.3059 93.0185 51.4222L93.634 51.7614C93.6631 51.5947 93.6938 51.428 93.7245 51.2547L94.6146 51.0839C94.7017 51.2239 94.8162 51.4314 94.9523 51.6231C95.4832 52.3731 95.4857 52.3664 96.4456 52.7065C96.5534 52.7506 96.6561 52.8065 96.7517 52.8731C97.5223 53.2998 98.1584 53.935 98.5876 54.7066C98.7804 55.0752 98.8998 55.478 98.9394 55.8925C98.952 55.9796 98.9928 56.0602 99.0555 56.1217C99.0852 56.1474 99.1078 56.1805 99.1209 56.2177C99.134 56.2548 99.1373 56.2948 99.1305 56.3336C99.1236 56.3724 99.1068 56.4088 99.0818 56.4391C99.0567 56.4695 99.0242 56.4927 98.9875 56.5067C98.5669 56.745 98.3844 57.2151 98.0102 57.4959C97.9423 57.5552 97.8879 57.6284 97.8505 57.7107C97.8132 57.7929 97.7938 57.8822 97.7937 57.9726C97.7262 58.1343 97.614 58.2731 97.4703 58.3727C97.3267 58.4722 97.1576 58.5283 96.9832 58.5343C96.8313 58.4993 96.7343 58.2193 96.5269 58.426C96.4233 58.5426 96.3274 58.6659 96.2398 58.7951" fill="white"/>
<path d="M65.8943 36.8556L65.3227 36.9506L65.5525 37.3831L64.1662 38.7749C64.0799 38.7668 63.9929 38.7668 63.9066 38.7749C63.4509 38.8348 62.9876 38.7605 62.5732 38.5609C62.1587 38.3613 61.8109 38.0451 61.5721 37.6506C61.1094 37.0816 60.7219 36.455 60.4189 35.7863C60.1753 35.3672 60.0955 34.8721 60.1949 34.3971L61.0818 36.3555L61.2336 36.3072C61.2216 36.1859 61.1974 36.0661 61.1614 35.9497C60.9747 35.4955 60.7549 35.0521 60.5757 34.5946C60.4927 34.3921 60.3268 34.1396 60.7599 34.0454C60.8918 34.0162 60.9747 33.7237 61.0735 33.5571C61.1631 33.4062 61.2493 33.2545 61.3223 33.1329C61.7604 33.0929 61.7645 33.477 62.0375 33.6329L61.8267 32.8295L62.3411 32.4195C62.4589 32.5378 62.6157 32.7253 62.7617 32.3787C62.9193 32.0036 63.1525 31.8578 63.5299 32.1036C63.564 32.1261 63.6353 32.1436 63.6577 32.1245C64.0949 31.7628 64.3529 32.1245 64.5553 32.4003C64.9849 33.0902 65.3208 33.8346 65.5542 34.6138C65.6222 34.7913 65.7707 35.208 65.2721 35.228C65.2439 35.228 65.2223 35.3847 65.1983 35.468C65.302 35.493 65.4613 35.5738 65.5011 35.5338C65.5287 35.4924 65.5695 35.4615 65.6168 35.4461C65.6641 35.4308 65.7151 35.432 65.7616 35.4494C65.8082 35.4669 65.8475 35.4996 65.8733 35.5423C65.899 35.585 65.9096 35.6352 65.9035 35.6847C65.7375 36.0814 66.125 36.4647 65.8952 36.8514" fill="white"/>
<path d="M62.5012 16.7667L62.8887 17.1559C62.9193 16.89 62.9451 16.67 62.9716 16.4308C63.3574 16.3475 63.7548 16.2475 64.1588 16.1875C64.4063 16.1504 64.6579 16.1504 64.9054 16.1875C65.0913 16.2167 64.9453 16.5634 65.2912 16.5942C65.5152 16.6142 65.6869 16.9959 65.8462 17.2609C65.9756 17.4767 65.7823 17.9434 66.2726 17.9159C66.2892 18.2215 66.3064 18.5271 66.3241 18.8326C66.3267 18.8623 66.3309 18.8918 66.3365 18.921L67.7278 20.3227C67.8803 20.3125 68.0334 20.3142 68.1857 20.3277C68.418 20.3652 68.6685 20.5969 68.5499 20.7444C68.2844 21.0636 68.7598 21.2845 68.5715 21.5453C68.0824 21.7452 67.5451 21.7937 67.0284 21.6845L67.4664 22.6362C67.3727 22.727 67.2483 22.9479 67.1263 22.9479C66.3539 22.9421 65.5417 23.1387 64.8532 22.5879C64.6517 22.4573 64.4651 22.305 64.2965 22.1337C63.9647 21.717 63.6693 21.2728 63.3673 20.8344C63.2188 20.6178 63.0911 20.3861 62.9525 20.1677C62.731 19.826 62.7966 19.3343 62.3909 19.0843C62.3898 18.697 62.2769 18.3183 62.0657 17.9943C62.0114 17.8854 61.9796 17.7666 61.9722 17.6451C61.9649 17.5236 61.982 17.4018 62.0227 17.2871C62.0634 17.1724 62.1268 17.0672 62.209 16.9778C62.2913 16.8883 62.3906 16.8165 62.5012 16.7667" fill="white"/>
<path d="M33.5784 2.81191H34.4437C34.7756 2.81191 35.1398 2.75607 35.2169 3.24194C35.2353 3.27823 35.2626 3.30918 35.2964 3.3318C35.3301 3.35442 35.369 3.36796 35.4094 3.37111C35.8051 3.31194 35.9072 3.68779 36.1502 3.85364C36.6887 4.33153 37.0185 5.0029 37.0686 5.72291C37.1624 6.11294 37.0371 6.38962 36.5957 6.65797C36.0351 6.87606 35.5355 7.22752 35.1398 7.68219C34.8395 7.68803 34.5939 8.15972 34.243 7.7822C34.1716 7.72842 34.083 7.70291 33.9941 7.71053C33.4699 7.7009 32.9579 7.55034 32.5113 7.2745C32.0646 6.99866 31.6998 6.60763 31.4546 6.1421C31.0864 5.72136 30.8044 5.23168 30.625 4.70119C30.5757 4.46717 30.5432 4.22987 30.528 3.99115C30.5222 3.91281 30.5678 3.7778 30.6217 3.7578C31.0987 3.58696 31.4405 3.17943 31.9059 3.01359C32.4408 2.81884 33.0129 2.74984 33.5784 2.81191" fill="white"/>
<path d="M32.0761 48.4761L32.51 49.162C32.5539 48.8345 32.5705 48.722 32.5838 48.6095C32.6253 48.2361 32.6245 48.2369 33.094 48.1928C33.1529 48.1869 33.2434 48.1928 33.2641 48.1611C33.3498 48.0104 33.4853 47.8945 33.6471 47.8336C33.809 47.7727 33.9869 47.7706 34.1501 47.8277C34.5434 47.9239 34.9139 48.0972 35.2402 48.3378C36.3353 49.3449 37.1531 50.6188 37.6146 52.0363C37.664 52.3037 37.6682 52.5776 37.627 52.8464L37.2686 52.8064C37.2927 53.1439 37.2164 53.3939 36.8231 53.4731C36.7525 53.4988 36.6892 53.5413 36.6386 53.5971C36.588 53.6528 36.5517 53.7201 36.5328 53.7931C36.4929 54.1998 36.0773 54.0014 35.9321 54.2098C35.7007 53.8398 35.3016 54.2881 35.0411 54.0231C34.7806 53.7581 34.4504 53.5747 34.2853 53.2731C33.9059 52.6271 33.5966 51.942 33.3628 51.2296C33.3277 51.0697 33.2609 50.9185 33.1664 50.7851C33.0719 50.6517 32.9516 50.5387 32.8128 50.4529C32.364 50.2082 32.0036 49.8272 31.7832 49.3645C31.5982 48.9611 31.5899 48.9645 32.0761 48.4761Z" fill="white"/>
<path d="M49.6405 37.5272C49.628 37.4134 49.6305 37.2986 49.648 37.1855C49.6679 37.1071 49.8015 37.0546 49.8139 36.9796C49.8264 36.9046 49.731 36.8038 49.731 36.7146C49.731 36.6255 49.8413 36.5388 49.8189 36.4804C49.771 36.3693 49.6956 36.2723 49.5999 36.1988C49.5102 36.1549 49.4137 36.1267 49.3145 36.1154L49.4672 36.6488C49.1353 36.4463 48.7686 36.2846 48.9304 35.7962L49.3684 35.9854C49.4207 35.397 48.8781 35.7029 48.6691 35.4245C48.9752 35.4612 49.1784 35.2495 49.4862 35.2904C49.6289 35.3095 49.8181 35.0045 50.0329 34.797L51.0749 35.6512L51.1745 35.0362L52.5516 34.7687C52.7914 35.0762 52.9781 35.352 53.2062 35.5971C53.4045 35.8054 53.6766 35.9446 53.8699 36.1579C54.3576 36.78 54.6999 37.5043 54.8712 38.2772C54.9542 38.5464 55.0372 38.9731 54.5245 39.0456C54.5245 39.5406 54.0076 39.6148 53.7728 39.9281C53.605 40.1192 53.3771 40.2466 53.127 40.289C52.877 40.3315 52.62 40.2865 52.399 40.1615C51.6291 39.7854 50.966 39.2205 50.471 38.5189C50.203 38.1972 49.901 37.8947 49.6414 37.5255" fill="white"/>
<path d="M65.0838 49.7354L65.5484 49.8946C65.5824 49.102 64.7677 48.8804 64.6574 48.1511C64.7959 48.1967 64.9289 48.2576 65.0539 48.3328C65.2226 48.483 65.3835 48.6419 65.5359 48.8087C65.5184 48.5238 65.4008 48.2545 65.2041 48.0486C65.6902 47.4486 65.6902 47.4486 66.2718 47.4486C66.5527 47.8582 66.8904 48.2252 67.2748 48.5387C67.7277 48.8162 67.8605 49.2887 68.194 49.6312C68.4987 49.9869 68.7487 50.3863 68.9357 50.8163C69.0676 51.0461 69.1291 51.3099 69.1124 51.5747C69.0642 51.8772 68.9357 52.3247 68.7224 52.4081C68.3723 52.5497 68.4503 52.7989 68.34 53.0131C68.2782 53.1721 68.1788 53.3134 68.0502 53.425C67.9217 53.5365 67.768 53.6149 67.6025 53.6531C67.381 53.6898 67.1172 53.8598 66.9545 53.7856C66.5464 53.6185 66.174 53.374 65.8578 53.0656C65.3121 52.4657 64.8056 51.831 64.3413 51.1655C64.2226 50.9988 64.2774 50.7105 64.2426 50.3846L64.5951 50.6705C64.5263 50.1904 64.9444 50.0254 65.0838 49.7362" fill="white"/>
<path d="M60.1576 84.2616L59.6598 83.9858C59.4491 84.75 59.3969 84.79 58.7746 84.515L59.2135 85.5409L58.7157 85.8309L57.7667 84.8792C57.5642 85.3375 58.1217 85.5459 58.067 85.9926C57.5692 86.0626 57.2764 85.7209 56.9885 85.4092C56.8309 85.2375 56.7462 84.9975 56.5836 84.8316C55.8663 84.0907 55.2049 83.2971 54.605 82.4573C54.5454 82.3851 54.4796 82.3181 54.4084 82.2573C54.2013 82.1113 54.0258 81.9245 53.8926 81.7084C53.7594 81.4922 53.6713 81.2511 53.6335 80.9998C53.9977 80.7756 54.191 81.1206 54.4391 81.3331C54.688 80.9164 54.1073 80.8581 54.1346 80.5497C54.1562 80.1789 54.8614 80.6539 54.6822 80.0455H55.6968C55.9872 80.2505 56.2775 80.4539 56.5704 80.6647C56.8255 80.9214 57.1053 81.152 57.4058 81.3531C57.7501 81.5198 57.9782 81.9165 58.281 82.1865C58.4785 82.3615 58.6037 82.6032 58.9198 82.6807C59.148 82.7374 59.2699 83.0857 59.6175 83.0407C59.7138 83.0282 59.888 83.2074 59.9378 83.3282C60.0318 83.6346 60.105 83.947 60.1568 84.2633" fill="white"/>
<path d="M53.718 21.2997C54.0408 21.3213 54.2631 21.1538 54.5576 21.3672L54.181 21.498C54.2913 21.8755 54.4149 22.2481 54.5053 22.6323C54.5286 22.7306 54.4771 22.9239 54.4091 22.9523C54.0333 23.1115 53.9196 23.5181 53.6268 23.7407C53.4778 23.8317 53.3083 23.8834 53.134 23.8907C53.051 23.8998 52.949 23.7715 52.8644 23.7798C52.7528 23.816 52.6487 23.8725 52.5574 23.9465C52.3965 23.3756 52.4048 23.3523 51.7718 23.1356C51.3926 23.0056 51.3138 22.6356 51.045 22.3964L50.8617 22.7889C50.7671 22.6898 50.6078 22.5989 50.6087 22.5089C50.6136 21.3872 50.6087 21.3622 50.1026 20.6905C49.8147 21.1955 50.3656 21.4889 50.3955 21.9856C50.2586 21.9606 50.0553 21.9797 50.0313 21.9214C49.7915 21.338 49.4265 20.7847 49.8006 20.0829C49.9168 19.8654 49.9375 19.7496 50.1988 19.7496C50.3717 19.7283 50.5361 19.6623 50.6759 19.5579C51.0508 19.3221 51.4051 19.0654 51.8025 18.7937L51.9568 19.0254C52.2695 19.2446 52.5964 18.6545 52.6487 19.2696C52.6636 19.4446 53.0527 19.0279 53.0527 19.4846C53.0527 19.6613 53.3762 19.8388 53.5389 20.0013L53.3729 20.4413L53.5115 20.538L53.7769 20.0313L54.1694 20.698L53.7222 21.2988" fill="white"/>
<path d="M22.2219 49.4187L21.6411 48.6878L21.403 49.177C21.0725 49.0058 20.7931 48.7496 20.5933 48.4345C20.1387 47.7853 19.7853 47.0744 19.3232 46.4269C19.1931 46.218 19.109 45.9836 19.0763 45.7394C19.0437 45.4952 19.0634 45.2469 19.134 45.0109C19.5613 44.9276 19.6534 45.4276 20.0093 45.556V44.6393L21.9257 44.3684C22.5057 44.8817 22.9599 45.5225 23.2531 46.241C23.419 46.641 23.7616 46.9411 23.8661 47.3994C23.9076 47.5803 23.6762 47.8236 23.9607 47.9586C23.9355 48.034 23.9064 48.108 23.8736 48.1803C23.4099 48.0136 23.2539 48.6878 22.8076 48.5795C22.7785 48.572 22.6997 48.7462 22.6557 48.8403C22.6181 48.9495 22.5741 49.0564 22.5238 49.1604C22.4333 49.2577 22.332 49.3444 22.2219 49.4187Z" fill="white"/>
<path d="M42.9747 60.8035L43.3463 61.6653L43.5189 61.2069C43.5612 61.2327 43.6292 61.2511 43.6383 61.2844C43.7187 61.603 43.8803 61.8951 44.1071 62.1319C44.2408 62.2884 44.3524 62.4625 44.4389 62.6495C44.5098 62.8082 44.6186 62.947 44.7556 63.0534C44.8927 63.1598 45.0538 63.2306 45.2246 63.2595L45.3756 62.952L45.8891 63.3387C45.8891 63.4562 45.9015 63.5054 45.8891 63.5154C45.7232 63.6262 45.5456 63.7304 45.3913 63.8279C45.4378 64.0854 45.4784 64.3179 45.5406 64.6671L44.8853 64.3462L44.5069 65.1113L44.0532 65.163V65.5796C43.9673 65.6617 43.8656 65.7253 43.7545 65.7665C43.6433 65.8078 43.5249 65.8258 43.4065 65.8195C43.2882 65.8132 43.1723 65.7826 43.0661 65.7298C42.9599 65.677 42.8656 65.6029 42.7888 65.5121C42.3417 65.1038 41.8397 64.7596 41.3835 64.2746L41.9642 63.892C41.8549 63.5065 41.6655 63.1486 41.4084 62.842C41.1692 62.4849 40.9664 62.1046 40.8027 61.7069C41.0773 61.3669 41.2939 61.6186 41.5494 61.7244C41.5569 61.6319 41.6 61.5286 41.5701 61.4602C41.3835 61.0361 41.4664 60.826 41.8621 60.8077C42.2363 60.7902 42.6088 60.8077 42.9747 60.8077" fill="white"/>
<path d="M16.3034 64.5262L16.7489 65.1879C16.7904 65.0579 16.8476 64.9737 16.8318 64.9037C16.7705 64.5645 16.6875 64.2279 16.6012 63.8445H17.1463L17.3653 64.302V63.5328C17.4564 63.5111 17.5442 63.4775 17.6266 63.4328C17.7718 63.3245 18.0024 63.077 18.0257 63.0995C18.2638 63.2961 18.5583 63.1778 18.7889 63.2661C18.9713 63.3101 19.1347 63.4124 19.2543 63.5575C19.374 63.7027 19.4436 63.8829 19.4526 64.0712C19.4526 64.2029 19.2775 64.3495 19.3033 64.4604C19.3248 64.5504 19.5654 64.5704 19.6351 64.6721C19.6646 64.7265 19.68 64.7876 19.68 64.8496C19.68 64.9116 19.6646 64.9726 19.6351 65.0271C19.392 65.2221 19.446 65.4738 19.4625 65.7096C19.4844 65.8312 19.4581 65.9566 19.3893 66.059C19.3205 66.1614 19.2146 66.2328 19.0942 66.258C18.8154 66.3413 18.7507 66.5163 18.6927 66.7838C18.6666 66.9668 18.5712 67.1325 18.4263 67.2463C18.2814 67.3602 18.0983 67.4133 17.9153 67.3947C17.7634 67.3852 17.611 67.395 17.4615 67.4239C17.089 67.5072 16.6195 67.4155 16.5033 67.1414C16.1226 66.5104 15.9125 65.7905 15.8936 65.0529C15.9234 64.7454 16.1076 64.6587 16.3034 64.5262" fill="white"/>
<path d="M46.3561 47.5903L47.1309 47.8186C47.2117 47.6832 47.2454 47.5247 47.2267 47.368C47.2081 47.2113 47.1382 47.0652 47.0281 46.9527C47.3599 46.6527 47.5748 47.1052 47.8975 47.0561C47.9274 46.8894 47.9597 46.7227 47.9904 46.556C48.2393 46.2843 48.4699 46.7852 48.7752 46.5494C49.0805 46.3135 49.166 46.8294 49.4306 46.8894C49.5891 46.9532 49.7249 47.0632 49.8205 47.2052C50.1723 47.6386 50.227 48.252 50.7016 48.6311C50.8152 48.722 50.7547 49.0328 50.7796 49.3087C50.2544 49.0495 50.2221 49.8871 49.716 49.6887C49.56 49.9387 49.7077 50.4004 49.1353 50.4554L48.8532 49.9612L48.6267 50.4363C48.3081 50.5121 48.1621 50.2362 48.0568 50.0604C47.7208 49.4891 47.2454 49.0133 46.6755 48.6778C46.5808 48.6308 46.4968 48.5646 46.4288 48.4835C46.3608 48.4023 46.3102 48.3079 46.2802 48.2062C46.2502 48.1045 46.2415 47.9976 46.2545 47.8923C46.2676 47.7871 46.3022 47.6856 46.3561 47.5944" fill="white"/>
<path d="M41.7966 22.5787L40.6078 23.5155H39.8205C39.5144 23.0704 39.414 22.4846 38.9627 22.1171C38.8498 21.5563 38.5519 21.0501 38.1173 20.6803C37.9995 20.5428 38.0244 20.2811 37.9746 20.0244C38.1098 19.9869 38.2442 19.9894 38.3139 19.9236C39.0332 19.2477 39.711 19.6277 40.2842 20.0903C40.772 20.503 41.1931 20.989 41.5328 21.5312C41.6803 21.8625 41.7695 22.2169 41.7966 22.5787" fill="white"/>
</g>
<defs>
<clipPath id="clip0_255_1004">
<rect width="99" height="86" fill="white" transform="translate(0.135986)"/>
</clipPath>
</defs>
</svg>
