<svg width="69" height="69" viewBox="0 0 69 69" fill="none" xmlns="http://www.w3.org/2000/svg">
<g clip-path="url(#clip0_209_774)">
<path d="M57.934 34.098L57.6597 34.2416L57.3251 34.4168C57.3204 34.4381 57.3171 34.4597 57.315 34.4814C57.3136 34.5679 57.2858 34.6518 57.2353 34.722L57.2281 34.7291C57.167 34.7697 57.0954 34.7914 57.022 34.7916C56.9531 34.7948 56.8856 34.8132 56.8246 34.8455C56.7626 34.8876 56.7051 34.936 56.653 34.9898C56.612 35.0307 56.5704 35.0724 56.5338 35.1162C56.4971 35.16 56.4555 35.2016 56.4146 35.2426C56.3736 35.2835 56.3485 35.3086 56.3198 35.3445C56.2911 35.3804 56.2559 35.4156 56.2228 35.4486C56.1822 35.4911 56.1364 35.5283 56.0864 35.5592C55.995 35.6045 55.8967 35.6344 55.7956 35.6475C55.7382 35.659 55.675 35.6705 55.6067 35.6928C55.6211 35.7981 55.6115 35.9054 55.5785 36.0065C55.5456 36.1076 55.4902 36.1999 55.4165 36.2766C55.2797 36.3963 55.1245 36.4933 54.9569 36.5638L54.9253 36.5796C54.7278 36.666 54.546 36.7846 54.3875 36.9307C54.3107 37.0072 54.2458 37.0949 54.195 37.1907L54.0823 36.5121L54.0191 36.1358C53.9558 36.1385 53.896 36.1658 53.8525 36.2119C53.7546 36.3764 53.6911 36.559 53.6658 36.7487C53.6405 36.9384 53.6539 37.1313 53.7053 37.3156C53.6314 37.2675 53.5675 37.2266 53.5021 37.1842L53.3901 37.1124C53.3378 37.1103 53.2856 37.1187 53.2366 37.1369C53.1875 37.1552 53.1426 37.1829 53.1043 37.2187C53.0225 37.3191 52.967 37.4383 52.9427 37.5655C52.9167 37.6897 52.8645 37.8069 52.7898 37.9094L52.6225 37.9145L52.1241 37.9288L52.1062 38.1981L52.1004 38.2857L51.8384 38.1371L51.7321 38.0767L51.4808 38.2146C50.8525 38.5557 50.2084 38.9126 49.5413 39.2407C49.4135 39.3135 49.2693 39.3525 49.1223 39.354C48.9753 39.3555 48.8303 39.3195 48.7011 39.2493L48.6825 39.268C48.6164 39.3341 48.5525 39.4109 48.4958 39.4777L48.4922 39.4813C48.4311 39.5538 48.3737 39.6227 48.3141 39.6823C48.2456 39.7615 48.1551 39.8185 48.0542 39.8461C47.1681 40.0227 46.2597 40.1685 45.3815 40.3085C44.9543 40.3767 44.5156 40.4478 44.0854 40.5203C43.963 40.5452 43.8433 40.5817 43.7278 40.6295C43.6467 40.6603 43.5634 40.6919 43.4787 40.7149C43.3027 40.763 43.1247 40.8032 42.9365 40.8463L42.7089 40.8987L42.729 40.9375L42.9107 41.2915C42.8456 41.3433 42.7838 41.3989 42.7254 41.4581C42.6536 41.5299 42.5811 41.6096 42.5129 41.6865L42.5014 41.6979C42.4296 41.7769 42.3556 41.8595 42.2773 41.9378C42.0655 42.173 41.7835 42.3336 41.4731 42.3959L41.2125 43.231C40.9653 43.2806 40.7409 43.4088 40.5727 43.5965C40.4729 43.6963 40.3809 43.8069 40.2919 43.9132C40.2029 44.0194 40.1081 44.1315 40.0119 44.2277C39.8484 44.4103 39.6307 44.5359 39.3907 44.586L39.0116 45.2653L38.7969 45.1597L38.5772 45.052C38.5318 45.2335 38.438 45.3993 38.3057 45.5317C38.1122 45.7025 37.8932 45.8421 37.6566 45.9453C37.5303 46.0109 37.4084 46.0848 37.2918 46.1664C37.0411 46.3808 36.7247 46.5032 36.395 46.5133L36.3943 46.5255C36.3885 46.5944 36.3835 46.6655 36.3734 46.8048L36.1674 46.8357L35.9871 46.8622L35.9053 47.1035L35.8988 47.11L35.8629 47.2177C35.725 47.3024 35.5864 47.3907 35.4522 47.4762C35.154 47.6737 34.846 47.8561 34.5295 48.0226C34.2207 48.1792 33.9213 48.3652 33.6312 48.5447C33.0399 48.962 32.3776 49.2681 31.6766 49.448C31.3707 49.5347 31.0831 49.6763 30.8278 49.8659L30.6426 49.9837C28.6802 51.0747 26.5458 51.8224 24.3315 52.1946C23.0964 52.4683 21.8306 52.5782 20.5667 52.5213L20.3736 52.5105C20.0233 52.4676 19.6681 52.4868 19.3245 52.5673C19.1116 52.6198 18.8883 52.6131 18.6789 52.5479C18.5158 52.502 18.3459 52.4853 18.177 52.4983C17.4316 52.5555 16.6818 52.4979 15.9539 52.3274C15.6379 52.27 15.3105 52.2111 14.9888 52.1723C13.9575 52.0293 12.9372 51.816 11.9349 51.534L11.5084 51.4219C10.5787 51.2129 9.67227 50.9112 8.80271 50.5215C8.51548 50.3779 8.20959 50.2529 7.91662 50.1309C7.24867 49.8885 6.6197 49.5498 6.04966 49.1256C5.98803 49.089 5.91735 49.0706 5.84573 49.0724C5.7743 49.0752 5.70387 49.055 5.64467 49.015C5.35677 48.7628 5.03389 48.5536 4.68605 48.3939C4.41365 48.2632 4.15402 48.1074 3.91055 47.9286C3.64562 47.71 3.39677 47.4727 3.16592 47.2184C3.04385 47.0963 2.92465 46.9642 2.79324 46.8328L2.80617 46.5987L2.80617 46.5844L2.85212 45.9395L3.48402 45.5949L3.48761 45.5913L3.88541 45.373C4.00605 45.4491 4.09293 45.5044 4.18197 45.5604L4.20423 45.574L4.52305 45.2552C4.63005 45.2689 4.7356 45.2782 4.83972 45.2847C5.06347 45.2945 5.28537 45.3299 5.50105 45.3902C5.81013 45.4777 6.0949 45.6352 6.33329 45.8505C6.89177 46.3416 7.55001 46.7059 8.26272 46.9183C8.56934 47.0339 8.88744 47.1552 9.17969 47.2938C9.53513 47.4654 9.91211 47.6155 10.2762 47.7598C10.6237 47.8977 10.9849 48.0377 11.326 48.2022C11.6198 48.3233 11.9288 48.4038 12.2444 48.4413C12.355 48.4599 12.4684 48.4786 12.5768 48.5009C12.9359 48.5727 13.3042 48.6624 13.6568 48.7479C14.2384 48.9001 14.8279 49.0206 15.4225 49.1091C15.6642 49.1443 15.9039 49.1923 16.1406 49.2527C16.4258 49.3289 16.7166 49.383 17.0102 49.4142C18.0614 49.4961 19.2836 49.5823 20.4971 49.5765C22.9205 49.4898 25.3121 48.9956 27.5714 48.1145C27.964 47.9548 28.3356 47.7477 28.678 47.4977C28.7727 47.4345 28.8661 47.3728 28.9594 47.3125C29.2255 47.1522 29.5055 47.0164 29.796 46.9068C30.1744 46.7729 30.5304 46.5829 30.8523 46.3431C31.2168 46.0599 31.6042 45.8075 32.0105 45.5884C32.5314 45.318 33.0143 44.98 33.4466 44.5831L33.4509 44.5788C33.6363 44.4086 33.8415 44.2613 34.062 44.1401C34.1848 44.0661 34.3119 43.9893 34.4289 43.9053C34.4835 43.8648 34.5349 43.8202 34.5826 43.7717C34.6242 43.7301 34.6673 43.687 34.709 43.6453C34.7506 43.6037 34.7923 43.562 34.8346 43.5197C34.9841 43.3493 35.1934 43.2428 35.4191 43.2224C35.4772 43.2131 35.5299 43.1833 35.5678 43.1384C35.6782 43.0092 35.7723 42.8669 35.8478 42.7147L35.8887 42.6436C36.0251 42.3907 36.1957 42.1577 36.3957 41.9514C36.6598 41.6952 36.9729 41.495 37.3163 41.3626L37.345 41.2075L37.4046 40.8808L37.5209 40.8679C37.6214 40.8564 37.7241 40.8442 37.8261 40.8399C37.9023 40.8377 37.9785 40.8401 38.0544 40.847L38.1219 40.8513L38.0918 39.9595C37.9654 39.915 37.8318 39.869 37.6904 39.8209C37.3529 39.706 36.9701 39.5761 36.6011 39.4267C36.3584 39.3276 36.1171 39.2142 35.8844 39.1036C35.6137 38.9765 35.3358 38.8422 35.0536 38.7352C34.506 38.5331 33.9886 38.2572 33.5156 37.9152H33.359H33.1378C33.051 37.8283 32.9626 37.74 32.8736 37.6509L32.8693 37.6466C32.6474 37.4248 32.4241 37.1899 32.1843 36.976C32.1227 36.9182 32.0649 36.8566 32.0112 36.7914C31.9441 36.6805 31.8492 36.589 31.7358 36.526C31.6225 36.463 31.4946 36.4308 31.365 36.4324C31.2739 36.4062 31.1904 36.3585 31.1217 36.2933C31.0529 36.228 31.0009 36.1472 30.97 36.0576C30.8169 35.6247 30.5422 35.2452 30.1787 34.9647C30.0187 34.8218 29.8682 34.6686 29.7285 34.5058C29.5106 34.2996 29.3406 34.0481 29.2303 33.7691C29.12 33.4901 29.0722 33.1904 29.0901 32.8909C28.6993 32.575 28.4091 32.1521 28.255 31.6738C28.2019 31.527 28.1294 31.3879 28.0396 31.2602C27.9171 31.1052 27.8382 30.9202 27.8113 30.7245C27.7981 30.5118 27.7109 30.3104 27.565 30.1551C27.489 30.0667 27.4275 29.9668 27.3826 29.8592C27.3381 29.7343 27.2792 29.6122 27.2275 29.4873C27.0113 29.0055 26.7887 28.5071 27.1715 27.9119L26.8361 27.8637L26.625 27.835L26.7399 27.1457L26.7622 27.01L26.6703 26.8017L26.3464 26.0657C26.3321 25.8919 26.304 25.6988 26.2739 25.4949C26.1656 24.949 26.1436 24.3895 26.2085 23.8369C26.2657 23.4242 26.2814 23.0068 26.2552 22.591C26.2379 22.261 26.243 21.9302 26.2703 21.6008C26.3292 21.0536 26.4433 20.5043 26.5532 19.9722C26.6006 19.741 26.6509 19.5026 26.6947 19.2678C26.7993 19.3269 26.9132 19.3679 27.0314 19.3892C27.1716 19.3951 27.3059 19.4472 27.4134 19.5373C27.5209 19.6274 27.5956 19.7505 27.626 19.8875L27.463 19.9069L27.3323 19.9198C27.3936 20.1036 27.4119 20.299 27.3858 20.491C27.3596 20.683 27.2897 20.8664 27.1815 21.0271C27.188 21.2288 27.1973 21.4278 27.2031 21.6231C27.226 22.0769 27.244 22.5084 27.2325 22.945C27.221 23.4074 27.1794 23.8598 27.1377 24.3395C27.1198 24.537 27.1018 24.7344 27.0867 24.9333L26.8562 24.947L26.7033 24.9563C26.9473 25.1983 27.1286 25.4963 27.2313 25.8243C27.3341 26.1522 27.3552 26.5004 27.2928 26.8384L27.3603 26.8599L27.9427 27.0473L28.1351 26.8549L28.036 26.7084L28.0281 26.7005C27.9448 26.577 27.8543 26.4434 27.7474 26.2862C27.7893 26.2554 27.8289 26.2216 27.8658 26.1849C28.1911 25.8596 28.1394 25.4331 28.0547 24.9908L27.7093 24.9326L27.603 24.9139C27.9348 24.4207 28.0665 23.8197 27.9714 23.233C27.8545 21.9313 27.9589 20.6193 28.2802 19.3525C28.3269 19.194 28.4034 19.0458 28.5056 18.916C28.571 18.8176 28.6456 18.7056 28.7282 18.5641L28.3017 18.6776L27.8105 18.8111L27.8543 19.1091L27.9118 19.4825C27.6296 19.3439 27.3912 19.2362 27.1736 19.1321L27.1636 19.1221L26.8577 18.977L27.1686 17.9538L27.2584 17.6687L27.5851 17.6292C27.7558 16.9525 28.0793 16.3239 28.5308 15.7917C28.7038 15.5526 28.8819 15.3056 29.0406 15.0478L29.2316 14.986L29.5662 14.8783L29.931 15.2431L30.2728 14.9989L30.364 14.9336L29.9188 14.7354L29.7299 14.6514L29.7299 14.5078L29.7278 14.3376L29.7486 14.3168C29.9999 14.0655 30.2814 14.1186 30.5794 14.1753C30.7423 14.213 30.9092 14.2304 31.0763 14.227L30.9025 13.9814C30.83 13.8788 30.7568 13.7754 30.6691 13.6518C30.71 13.5901 30.7569 13.5326 30.8092 13.4802C31.0409 13.2795 31.3136 13.1317 31.6084 13.0472C31.8367 12.9753 32.0542 12.8723 32.2546 12.7413C32.432 12.8857 32.572 12.9984 32.8908 13.254L32.7838 12.9187C32.7336 12.7593 32.7013 12.6581 32.6833 12.6042L33.3942 11.8933L33.4165 11.9745C33.4509 12.0994 33.4818 12.2107 33.5357 12.411L33.9083 11.7985C34.1611 11.7239 34.4167 11.6449 34.6652 11.5688C35.2554 11.3864 35.8622 11.1975 36.4697 11.064C37.6399 10.7972 38.8458 10.723 40.0399 10.8442C40.48 10.8923 40.9224 10.9799 41.351 11.064C41.9115 11.1879 42.4799 11.2726 43.0521 11.3174C43.1969 11.3345 43.338 11.3748 43.47 11.4366C43.5361 11.4625 43.6043 11.4905 43.6725 11.5127L43.6733 11.535L43.6725 11.8C43.8506 11.7268 44.0443 11.6997 44.2356 11.7213C44.4269 11.7429 44.6096 11.8124 44.7669 11.9235C45.877 12.6171 45.8813 12.6272 46.0687 13.1377L46.0766 13.1456L46.3674 13.2727L46.3804 13.2785C46.6999 13.4185 46.9907 13.5456 47.2801 13.6712L47.1674 14.0094L47.0683 14.3082L47.1853 14.3347L47.5192 14.4101L48.0527 15.1878C48.3852 15.6725 48.7076 16.1414 49.0329 16.616L48.8081 16.8968L48.6624 17.0784C49.2268 17.5768 49.2067 18.2575 49.1894 19.0517L49.188 19.112L49.5671 19.0043L49.8938 18.9117L50.0073 19.4086L50.0626 19.6405C49.8701 19.5457 49.761 19.4911 49.6088 19.4165C49.5812 19.4796 49.5503 19.5412 49.5161 19.601C49.43 19.7242 49.3809 19.8695 49.3747 20.0196C49.4453 20.6679 49.5505 21.312 49.6899 21.9491C49.7273 22.0641 49.7962 22.1663 49.8888 22.2442C49.9017 22.2557 49.9139 22.2679 49.9254 22.2808C49.9147 22.4582 49.891 22.6284 49.8651 22.7949C49.7971 23.0907 49.7966 23.398 49.8637 23.694C50.0631 24.4636 50.0435 25.2736 49.807 26.0327C49.7596 26.2539 49.71 26.4829 49.672 26.7105C49.6364 26.9005 49.5882 27.0878 49.5276 27.2713C49.5011 27.3597 49.4738 27.4487 49.4486 27.5399L49.3381 27.4853L49.0932 27.3697C49.0867 27.3877 49.0774 27.4085 49.0673 27.43C49.048 27.4738 49.0271 27.5191 49.0372 27.5291C49.1856 27.6172 49.2932 27.7604 49.3365 27.9274C49.3798 28.0945 49.3553 28.2719 49.2684 28.421L48.7966 28.8927L48.8483 29.4284L48.9194 30.163L48.4893 30.3992L48.4821 30.4064L48.2696 30.5227C48.3493 30.8428 48.364 31.1755 48.313 31.5014C48.2619 31.8272 48.1461 32.1395 47.9723 32.4199C47.9084 32.5656 47.8395 32.7179 47.7842 32.8651L47.637 32.8816L47.4273 32.9045L47.4007 33.8833L46.7595 34.5245C46.8629 34.8218 46.9541 35.16 46.7257 35.3883C46.6431 35.4657 46.545 35.5247 46.4378 35.5614L46.3502 36.0195L46.1815 36.8977L47.0058 36.6693L47.0812 36.6485L48.6695 36.2091L48.7026 36.0095L48.722 35.8852L49.1471 35.6655L49.5125 35.4766L49.6899 35.654L49.7517 35.6253C49.7808 35.6147 49.8086 35.6004 49.8342 35.5829C49.8342 35.5829 49.8393 35.5779 49.84 35.5772C49.8262 35.5016 49.832 35.4238 49.8569 35.3511C49.8818 35.2784 49.9249 35.2134 49.9822 35.1621C50.0365 35.1102 50.0944 35.062 50.1552 35.0178C50.1868 34.9934 50.2184 34.9704 50.2478 34.9453C50.3927 34.8325 50.5472 34.7328 50.7096 34.6473C50.828 34.5805 50.9508 34.5109 51.0686 34.4319C51.1617 34.3623 51.2495 34.2859 51.3314 34.2035C51.4517 34.0709 51.5972 33.9635 51.7594 33.8876C51.8254 33.8638 51.8853 33.8255 51.9346 33.7756C52.0103 33.6898 52.0671 33.589 52.1012 33.4797C52.1367 33.3649 52.1964 33.2592 52.2764 33.1695L52.285 33.1609C52.3818 33.078 52.4881 33.0069 52.6017 32.9491C52.7293 32.8851 52.8475 32.8036 52.9528 32.7071C53.0252 32.635 53.0824 32.549 53.1208 32.4543C53.1892 32.3048 53.2866 32.1703 53.4073 32.0587C53.487 31.979 53.5753 31.9007 53.6615 31.826C53.7477 31.7513 53.8145 31.6917 53.8834 31.6242L53.9487 31.5589C54.7114 30.7233 55.3535 29.7853 55.8566 28.7721C55.9974 28.5193 56.1539 28.2695 56.3054 28.0289C56.5383 27.6736 56.7505 27.3051 56.9409 26.9252C57.4417 25.9121 57.8829 24.8706 58.2621 23.806C58.3258 23.6385 58.4051 23.4774 58.4991 23.3249C58.7199 23.0292 58.8195 22.6604 58.7777 22.2937C58.7766 22.2571 58.7827 22.2206 58.7958 22.1863C58.8088 22.152 58.8286 22.1207 58.8538 22.0941C58.9321 21.9799 59.0132 21.8629 58.8158 21.7114C58.7906 21.6863 58.8201 21.5979 58.8589 21.4917C58.8925 21.4087 58.9168 21.3222 58.9314 21.2339C58.9401 21.1161 58.9418 20.9979 58.9364 20.8799C58.9317 20.7686 58.9329 20.6571 58.94 20.546C58.9615 20.2372 58.9982 19.9378 59.0362 19.5881L59.0843 19.1551L59.7212 19.792C59.5841 20.2824 59.5841 20.2824 59.9683 21.2569L60.3711 20.854C60.2271 20.4663 60.1788 20.0495 60.2304 19.6391C60.2525 19.3508 60.2443 19.061 60.2059 18.7745L60.3065 18.7774L60.6569 18.7889L60.9506 19.6441L60.9764 19.6182C60.998 19.5967 61.0202 19.5744 61.0432 19.5515L61.0475 19.5471C61.0705 19.5242 61.0927 19.5019 61.1136 19.4811C61.1545 19.4483 61.1819 19.4015 61.1904 19.3497C61.1807 19.1415 61.1538 18.9345 61.11 18.7307C61.0906 18.6223 61.0683 18.4995 61.0475 18.3623L61.6155 18.679L61.622 18.6855L61.7139 18.7372L62.6258 18.562L62.21 19.522C62.3465 19.5953 62.4994 19.6778 62.6775 19.7726L62.6825 19.7776L62.8455 19.8645L62.7306 20.5826L62.6789 20.9043L63.2146 20.7521L63.3202 20.7226L63.3116 21.0012L63.2994 21.5161L63.0868 21.5764L62.628 21.7064L62.638 21.7164L62.6466 21.725C62.9403 21.901 63.0961 21.9936 63.2426 22.0812L63.206 22.2787L63.1651 22.4962L63.1306 22.4646L63.122 22.456L62.8908 22.3038L62.7558 22.9888L62.6294 23.6279L62.6991 23.6315L62.8348 23.6394L62.8771 23.8957L62.9877 24.5808L62.7062 24.6066L62.4994 24.6253C62.5447 24.7883 62.5885 24.9513 62.633 25.1164L62.6976 25.3577L62.2553 25.8C62.2108 26.0169 62.172 26.2309 62.1339 26.437C62.0615 26.8883 61.9618 27.3348 61.8352 27.774C61.7516 27.9951 61.6293 28.1996 61.474 28.3779C61.2165 28.6485 61.0605 28.9999 61.0324 29.3724L60.8852 29.3688H60.8766L60.3481 29.353L60.211 29.5117L60.1973 29.5253L59.8943 29.8758L60.3014 29.7271L60.6002 29.618C60.5389 29.813 60.4895 30.0115 60.4522 30.2125C60.4125 30.6228 60.2521 31.0121 59.9912 31.3313C59.8309 31.4861 59.6337 31.5974 59.4182 31.6544L59.4175 32.0084V32.2195L59.2394 32.2339L59.0391 32.2504C59.0056 32.5195 58.8874 32.7709 58.7016 32.9685C58.5055 33.1543 58.2531 33.2698 57.9843 33.2966L57.9448 33.9106L57.944 33.9228L57.9333 34.0958L57.934 34.098ZM30.9011 20.7959L31.2644 21.1592C31.2551 21.338 31.2544 21.5039 31.2529 21.6647C31.2661 21.9742 31.2378 22.284 31.1689 22.586C31.1245 22.7893 31.1252 22.9998 31.1711 23.2028C31.2211 23.4062 31.2167 23.6192 31.1582 23.8203C31.0808 24.0793 31.094 24.3569 31.1955 24.6073C31.2407 24.7458 31.2705 24.8889 31.2845 25.0339C31.3047 25.2522 31.3456 25.4681 31.4066 25.6787C31.496 25.8931 31.5377 26.1244 31.5287 26.3565C31.5198 26.5886 31.4605 26.816 31.3549 27.0229C31.7794 27.4942 32.022 28.1014 32.0392 28.7355L32.6603 29.3566C32.5878 29.511 32.5268 29.6338 32.4715 29.7652C32.832 29.8212 33.1321 29.9045 33.14 30.3403C33.1469 30.6332 33.2189 30.9209 33.3508 31.1824C33.4827 31.444 33.6712 31.6729 33.9026 31.8526C34.1104 32.0467 34.281 32.2772 34.4059 32.5326C34.4784 32.6669 34.5582 32.7971 34.6451 32.9225C34.7033 32.9985 34.7674 33.0698 34.8368 33.1358C34.9328 33.2072 35.0108 33.3 35.0648 33.4068C35.1187 33.5136 35.1471 33.6315 35.1477 33.7511C35.1463 33.7727 35.1973 33.8007 35.2554 33.8244C35.2798 33.8359 35.3042 33.8474 35.3236 33.8581L35.5706 33.7404L35.7049 33.6765C35.7178 33.7253 35.7279 33.7741 35.7365 33.8215C35.7493 33.9177 35.7785 34.0109 35.8227 34.0972C35.9083 34.2246 36.0178 34.3341 36.1451 34.4197C36.2033 34.4598 36.2653 34.494 36.3304 34.5216C36.4078 34.5526 36.4802 34.5949 36.5451 34.6473C36.5889 34.6959 36.6222 34.7531 36.6427 34.8153C36.6594 34.8845 36.7011 34.9452 36.7598 34.9855C37.2418 35.2022 37.7002 35.4681 38.1277 35.779C38.1952 35.8244 38.2624 35.8701 38.3294 35.9161C38.9561 36.3286 39.6796 36.5704 40.4283 36.6176C40.6792 36.2602 40.8833 35.8722 41.0358 35.463C41.1591 35.1372 41.3145 34.8246 41.4997 34.5295C41.7627 34.0849 41.9594 33.6042 42.0835 33.1027C42.1731 32.7844 42.2805 32.4713 42.4052 32.1649C42.6669 31.5028 42.8702 30.819 43.0126 30.1213C43.1762 29.2482 43.4573 28.4013 43.8485 27.6038C43.8894 27.5298 43.8657 27.42 43.8442 27.3123C43.8331 27.2642 43.8247 27.2155 43.819 27.1665C43.8154 27.127 43.8083 27.0868 43.7982 27.0437C43.7778 26.9613 43.7737 26.8757 43.786 26.7917C44.1063 25.2667 44.2368 23.7079 44.1745 22.1508C44.1299 21.3131 43.9981 20.4824 43.781 19.6721C43.7328 19.4895 43.6719 19.3105 43.5986 19.1364C43.4841 18.8912 43.4101 18.6291 43.3796 18.3602C43.3024 17.7443 43.0414 17.1661 42.6306 16.7007C42.5703 16.6175 42.51 16.5342 42.4504 16.4501C41.9911 15.8382 41.451 15.2914 40.8448 14.8244C40.2262 14.3364 39.4875 14.0238 38.7064 13.9197C38.5747 13.9119 38.443 13.9337 38.3208 13.9836C38.2097 14.0261 38.0922 14.0498 37.9733 14.054C37.799 14.0377 37.6282 13.9956 37.4663 13.929C37.3866 13.901 37.3048 13.8723 37.2186 13.8479L37.1971 14.0604L37.182 14.2191L36.5307 14.2371L36.028 14.7397L35.5297 14.6507L34.9474 14.5466L34.9912 14.8589L34.9962 14.8927L35.045 15.2388L34.737 15.1318L34.7255 15.1275L34.4261 15.0234L34.5187 15.2797L34.5158 15.2941L34.5955 15.5174L34.3909 15.722L34.2214 15.6043L33.8394 15.3357L33.1479 16.0272C32.6532 15.8728 32.2575 15.8822 32.0873 16.0523C32.0523 16.0883 32.027 16.1327 32.0139 16.1812C32.0009 16.2297 32.0004 16.2808 32.0126 16.3295C32.0478 16.3331 32.0844 16.3338 32.1196 16.3345C32.1957 16.3289 32.272 16.3425 32.3415 16.374C32.401 16.4233 32.4463 16.4875 32.4729 16.56C32.4988 16.6103 32.5282 16.6684 32.5684 16.7345C32.4571 16.7481 32.3537 16.7568 32.2518 16.7639C32.0503 16.773 31.8504 16.8043 31.6558 16.8573C31.5948 16.8799 31.5401 16.9168 31.4964 16.965C31.4583 17.0031 31.4159 17.0454 31.3793 17.0964C31.3427 17.1474 31.2809 17.212 31.2228 17.2702L31.5236 17.3168L31.7477 17.3513C31.79 17.7915 31.808 17.9717 31.6981 18.0816C31.5583 18.1787 31.3991 18.2444 31.2314 18.274C31.207 18.3433 31.1792 18.4114 31.1481 18.478C31.072 18.5994 31.037 18.7422 31.0483 18.8851C31.0646 18.9381 31.0857 18.9896 31.1115 19.0388C31.1653 19.1501 31.212 19.2456 31.1215 19.336C31.091 19.3648 31.0561 19.3886 31.0181 19.4064L30.3525 19.2491L30.4702 20.118L30.5758 20.8741L30.1715 20.9007C30.2311 21.1556 30.2886 21.3983 30.3561 21.6597L30.1909 22.1121L30.1845 22.1185L30.1801 22.1315L30.0502 22.4869C30.1909 22.5041 30.2864 22.5149 30.3941 22.5264L30.2153 22.8488L30.2103 22.8538L29.7077 23.7873L29.8814 23.7959L29.8908 23.7966L29.9999 23.8024L30.0796 23.9855L30.6893 25.3864C30.8779 24.9416 30.9019 24.4442 30.7568 23.9833C30.6786 23.6939 30.6553 23.3924 30.6878 23.0944C30.7669 22.5792 30.8194 22.0603 30.8451 21.5398C30.8609 21.2999 30.8781 21.0529 30.8996 20.8002L30.9011 20.7959Z" fill="#FF196E"/>
</g>
<defs>
<clipPath id="clip0_209_774">
<rect width="62.3178" height="33.9185" fill="white" transform="translate(0 44.0654) rotate(-45)"/>
</clipPath>
</defs>
</svg>
