<svg width="82" height="101" viewBox="0 0 82 101" fill="none" xmlns="http://www.w3.org/2000/svg">
<g opacity="0.1" clip-path="url(#clip0_255_1031)">
<path d="M12.327 19.1634C15.7472 12.5278 19.6896 6.17591 24.117 0.167995C24.6123 0.295272 24.1769 0.605058 24.3567 0.800376C24.6379 0.930054 24.9503 0.252046 25.3153 0.855609C25.4408 1.07213 25.4985 1.3214 25.481 1.57116C25.4635 1.82092 25.3716 2.05965 25.2171 2.25645C23.986 4.52021 22.2077 6.43177 21.1348 8.8204C20.7673 9.63689 20.6067 10.6367 19.7016 11.2723C19.1423 11.6637 19.2758 12.6531 18.7828 13.3047C18.4745 13.7129 18.3035 14.2837 17.96 14.7456C16.6076 16.5453 15.7809 18.6862 15.5721 20.9293C15.5314 21.3399 15.3612 21.7114 14.9809 21.7242C13.9424 21.7586 12.9166 22.1892 11.9012 21.2807C11.5938 21.0493 11.3694 20.7244 11.2618 20.3545C11.1542 19.9846 11.1692 19.5897 11.3045 19.2291C11.8877 17.3604 12.7208 15.5794 13.781 13.9347C14.9258 11.9591 16.2256 10.0772 17.4375 8.1456C19.0704 5.54723 20.8959 3.09376 22.6263 0.571438C22.7909 0.331293 22.9458 -0.164205 23.3101 0.0543268C23.5818 0.218426 23.2958 0.614664 23.1408 0.850006C22.1621 2.35491 21.114 3.81179 20.0403 5.25266C19.0372 6.66135 18.1189 8.12885 17.2905 9.6473C15.9029 12.0688 14.3738 14.4086 13.1195 16.9109C12.7171 17.6053 12.4488 18.3695 12.3286 19.1634" fill="white"/>
<path d="M7.0344 48.1385C6.40568 48.6453 5.95031 47.8568 5.75139 47.6967C5.21374 47.2636 4.37011 47.7103 4.16001 47.198C3.84045 46.4215 3.15581 45.7651 3.44101 44.7253C4.04568 42.7433 4.76592 40.7985 5.59801 38.901C6.1069 37.4866 6.7489 36.1239 7.51533 34.8313C7.84338 34.2522 8.3332 33.7817 8.92457 33.4777C9.20822 33.3111 9.53838 33.2417 9.86495 33.2801C10.1915 33.3185 10.4967 33.4627 10.7341 33.6907C11.2426 34.0281 11.7301 34.3965 12.1936 34.7937C12.5931 35.2284 12.9126 35.6839 12.4397 36.277C12.1081 36.6925 12.1681 37.2376 12.0019 37.7123C11.3316 39.6174 11.076 41.6691 10.0047 43.4309C9.24587 44.7535 8.57598 46.1254 7.99946 47.5374C7.82371 47.9376 7.65274 48.4179 7.0352 48.1385" fill="white"/>
<path d="M46.6935 33.8708L46.358 34.6273C46.4675 34.7706 46.5681 34.6849 46.6776 34.6545C46.9004 34.5913 46.9763 34.1638 47.2464 34.3343C47.5723 34.5409 47.1529 34.7882 47.1785 35.0331C47.5356 35.1132 47.6306 34.6745 47.9214 34.6625C48.1038 34.9531 48.1827 35.297 48.1453 35.6383C48.1079 35.9795 47.9563 36.2981 47.7153 36.5421C46.5479 38.2196 45.6077 40.0449 44.9192 41.9701C44.6676 42.7066 43.7265 43.066 43.7081 43.9209C43.6404 44.9457 43.2578 45.9244 42.6128 46.7226C41.6326 48.0618 41.4233 49.6363 40.8401 51.0916C40.6763 51.5015 40.9008 52.0058 40.4974 52.3412C40.3671 52.4492 40.1618 52.6966 40.0772 52.4885C39.7856 51.7768 39.2167 52.1194 38.7454 52.0018C37.869 51.7816 37.6973 50.9211 37.6118 50.1679C37.5286 48.9919 37.7669 47.8154 38.3012 46.765C40.1058 42.6902 42.3337 38.8172 44.948 35.2101C45.3522 34.6625 45.7149 33.9749 46.6935 33.8708Z" fill="white"/>
<path d="M34.4682 17.7395C34.2661 18.3719 34.0688 19.0339 33.8427 19.6847C32.3579 23.7862 30.574 27.7727 28.5053 31.6119C27.6578 33.0564 26.9032 34.5537 26.2461 36.0946C26.0783 36.5476 25.7755 36.9046 25.2371 36.4228C25.091 36.3183 24.9269 36.242 24.7529 36.1978C24.5038 36.1355 24.2711 36.0197 24.0709 35.8586C23.8707 35.6975 23.7078 35.4948 23.5933 35.2645C23.4788 35.0342 23.4155 34.7817 23.4077 34.5246C23.3999 34.2674 23.4478 34.0116 23.5482 33.7748C23.9595 32.6094 24.5205 31.5026 25.2171 30.4824C28.0127 26.0901 30.4367 21.4713 32.4638 16.6741C32.7123 16.0601 32.7834 16.0609 33.2187 16.5284C33.2471 16.5552 33.2805 16.576 33.317 16.5898C33.3535 16.6035 33.3923 16.6099 33.4312 16.6084C34.2429 16.5356 34.3164 17.1319 34.4698 17.7387" fill="white"/>
<path d="M7.13422 64.0786C6.39125 65.9109 5.17614 67.3134 4.46833 68.9728C3.65796 70.6111 2.97863 72.3114 2.43676 74.0574C3.08865 72.6222 3.73655 71.1845 4.39243 69.7508C5.18143 68.1297 6.06492 66.5564 7.03835 65.0392C7.50969 64.2619 8.03856 64.3019 8.56902 64.7278C8.69529 64.8156 8.80069 64.9302 8.87771 65.0634C8.95473 65.1967 9.00146 65.3453 9.01458 65.4987C9.0277 65.6522 9.00689 65.8066 8.95363 65.951C8.90036 66.0955 8.81596 66.2264 8.70643 66.3344C7.78119 67.3258 7.12158 68.5359 6.7891 69.8517C6.15718 72.0282 5.04592 74.0454 4.71199 76.318C4.6321 76.8415 4.25662 77.2882 4.17913 77.8717C4.03916 78.4875 4.11095 79.1326 4.38285 79.7024C4.57138 80.0578 5.03554 80.5253 4.62251 80.9216C4.45311 81.1154 4.22388 81.247 3.97127 81.2953C3.71867 81.3436 3.4572 81.3059 3.22845 81.1881C2.96806 81.1187 2.69639 81.1023 2.42957 81.1401C2.0906 81.1655 1.75044 81.1103 1.43683 80.9789C1.12321 80.8476 0.845015 80.6438 0.624922 80.3843C0.404829 80.1247 0.249069 79.8167 0.170344 79.4854C0.0916183 79.1541 0.0921553 78.8088 0.171911 78.4777C0.55675 76.3736 1.21308 74.3285 2.12439 72.394C3.16793 69.7976 4.48701 67.3211 6.05891 65.0072C6.2901 64.5748 6.67331 64.2439 7.13422 64.0786" fill="white"/>
<path d="M49.9178 84.1346C47.7928 84.1306 47.1529 83.198 47.8719 81.4322C48.501 80.0987 49.3237 78.8659 50.3133 77.774C52.4703 75.1132 54.712 72.5292 57.0998 70.0709C57.6699 69.5511 58.3673 69.192 59.121 69.0303C59.3751 68.9502 59.9415 68.7998 59.9199 69.0215C59.8752 69.4754 60.3289 69.8868 59.9199 70.3727C58.0937 72.5404 56.4631 74.861 54.7783 77.1352C54.0337 78.1382 53.2101 79.0835 52.4927 80.105C52.0077 80.7958 51.5124 81.5458 52.0037 82.4728C52.0629 82.5841 52.0325 82.873 51.9798 82.8922C51.1409 83.1724 50.6336 84.0681 49.921 84.1338" fill="white"/>
<path d="M71.6396 35.92C72.7316 34.6913 73.4083 33.1976 74.486 31.9761C74.8286 31.6412 75.1519 31.2871 75.4542 30.9154C75.9016 30.275 76.3618 30.7625 76.6574 30.965C76.7383 31.0273 76.8057 31.1053 76.8555 31.1945C76.9054 31.2837 76.9365 31.3821 76.9471 31.4837C76.9578 31.5854 76.9476 31.6881 76.9173 31.7857C76.887 31.8833 76.8371 31.9737 76.7708 32.0513C75.5338 33.824 74.487 35.7226 73.648 37.7155C73.0464 39.118 72.0406 40.3443 71.8313 41.9773C71.6429 42.6706 71.3971 43.347 71.0963 43.9993C70.784 44.9238 70.1424 44.1594 69.6471 44.125C69.5672 44.1194 69.5001 43.8896 69.4282 43.8912C69.1239 43.8952 68.9441 44.6733 68.587 44.1314C68.1029 43.4013 67.586 42.7105 67.9247 41.6251C68.4915 39.9462 69.2535 38.3401 70.1952 36.8398C71.4223 34.7777 72.5535 32.6437 74.2999 30.9418C74.4285 30.8186 74.5467 30.6793 74.6865 30.564C74.8263 30.4487 75.0173 30.3447 75.1658 30.4904C75.3592 30.6761 75.2569 30.9002 75.086 31.0395C73.6104 32.2538 72.873 34.0061 71.8353 35.5414C71.7627 35.6636 71.6977 35.79 71.6404 35.92" fill="white"/>
<path d="M35.1129 66.4369C35.5974 66.0358 36.0513 65.5992 36.471 65.1305C36.631 64.8751 36.8796 64.688 37.1689 64.6053C37.4583 64.5225 37.768 64.5499 38.0384 64.6822C38.4123 64.8311 38.3324 65.2233 38.2964 65.4739C38.2606 65.7822 38.1389 66.0742 37.9452 66.3164C37.7515 66.5586 37.4937 66.7413 37.2012 66.8435C37.0526 66.8979 36.8289 66.7859 36.8289 67.0548C36.8289 68.37 35.6809 69.0704 35.1864 70.1239C35.0346 70.4441 34.7518 70.7539 34.5521 71.0845C33.9705 72.0514 33.4943 73.1025 32.2617 73.4723C31.9741 73.5587 31.5195 73.8165 31.6745 74.2536C32.1482 75.5872 31.2159 76.4781 30.6862 77.4675C29.8179 79.0933 28.7146 80.5862 27.9085 82.2512C27.8174 82.4385 27.7615 82.7058 27.4995 82.641C27.1727 82.561 27.6057 82.2688 27.3789 82.0983C26.9722 82.3152 26.6143 82.8988 26.0471 82.2103C25.845 81.963 25.547 82.3809 25.4016 82.6434C25.2906 82.8427 25.1691 83.03 24.9223 82.8836C24.6203 82.7058 24.8807 82.5209 24.9606 82.3576C26.4578 79.4213 28.1666 76.5983 30.0735 73.911L34.9946 66.7274L35.1177 66.4377" fill="white"/>
<path d="M52.9344 58.2751C52.9277 58.2758 52.921 58.2747 52.9149 58.2721C52.9087 58.2694 52.9033 58.2652 52.8993 58.2599C52.8713 58.2198 52.9104 58.107 52.9488 57.9981C52.9871 57.8892 53.0287 57.7756 52.9983 57.7371C52.9944 57.732 52.9893 57.728 52.9834 57.7253C52.9776 57.7227 52.9712 57.7215 52.9648 57.7219C52.8276 57.7651 52.7026 57.8399 52.5997 57.9405C52.5786 57.9587 52.5538 57.9721 52.527 57.9797H52.5214C52.3147 57.7966 52.0523 57.6889 51.7768 57.6739C51.6171 57.6843 51.4612 57.7276 51.3189 57.8012C51.1766 57.8747 51.051 57.9769 50.95 58.1014C50.9459 58.1053 50.941 58.1084 50.9356 58.1103C50.9302 58.1122 50.9245 58.113 50.9188 58.1126C50.3999 57.7726 49.9917 57.2878 49.7445 56.7181C49.7191 56.2036 49.8328 55.6916 50.0736 55.2364C51.3584 52.6786 53.2203 50.4559 55.5116 48.7445C56.0106 48.3488 56.6265 48.13 57.2628 48.1226C57.8789 48.1408 58.481 48.3113 59.0155 48.6189C59.3151 48.779 59.4741 48.9551 59.5013 49.1536C59.5308 49.3681 59.4062 49.6067 59.1194 49.8836C58.5625 50.4232 58.0335 50.991 57.5344 51.5846C57.3107 51.8504 57.0982 52.1306 56.8953 52.4019C56.5712 52.8461 56.2201 53.2698 55.844 53.6707C55.3531 54.2377 54.9654 54.8866 54.6984 55.5879C54.5281 55.9868 54.3352 56.3756 54.1208 56.7526L54.0041 56.9503C53.7517 57.4568 53.3982 57.9061 52.9656 58.2703C52.9554 58.2732 52.945 58.2748 52.9344 58.2751V58.2751ZM54.1375 51.2981C52.6806 52.5072 51.5928 54.1028 50.9987 55.9024C52.0732 54.2358 53.0526 52.7397 54.1375 51.2981Z" fill="white"/>
<path d="M79.332 59.8289L78.9989 60.9687C79.201 60.8086 79.324 60.7646 79.3608 60.6798C79.662 59.989 80.2148 60.1683 80.651 60.3892C80.8632 60.5061 81.0227 60.6999 81.097 60.9309C81.1713 61.1618 81.1546 61.4125 81.0504 61.6315C80.7527 62.397 80.3897 63.1354 79.9655 63.8385C79.321 64.7609 78.7632 65.7411 78.2991 66.7666C77.8773 67.8585 77.2605 68.9215 77.5249 70.2087C77.5622 70.3312 77.5613 70.4621 77.5221 70.584C77.483 70.7059 77.4076 70.8129 77.306 70.8906C77.2045 70.9683 77.0816 71.0131 76.954 71.0188C76.8263 71.0246 76.6999 70.991 76.5918 70.9227C76.3165 70.8145 76.0182 70.7784 75.7251 70.8179C73.8445 70.9123 72.873 69.5755 73.604 67.776C74.721 65.3047 76.2131 63.0217 78.0274 61.008C78.3582 60.6077 78.5867 60.0794 79.3328 59.8289" fill="white"/>
<path d="M10.7684 99.4358C10.7572 100.113 11.3276 100.442 11.4075 100.982C10.5727 101.096 10.0454 100.644 9.86566 99.7112C9.71103 98.7493 9.92909 97.7645 10.4752 96.9583C11.5218 95.2405 12.3925 93.4242 13.8561 91.9409C14.4281 91.3606 14.8236 90.42 15.3796 89.7196C16.9646 87.7184 18.6199 85.7708 20.2528 83.808C20.5805 83.4133 20.9764 83.0808 21.4216 82.8266C21.5191 82.7542 21.6377 82.7161 21.759 82.7181C21.8803 82.7201 21.9976 82.7622 22.0926 82.8378C22.1405 82.8753 22.1806 82.9218 22.2106 82.9748C22.2405 83.0278 22.2597 83.0862 22.2672 83.1466C22.2746 83.2071 22.27 83.2684 22.2538 83.3271C22.2376 83.3857 22.2099 83.4406 22.1725 83.4886C21.998 83.8378 21.7971 84.1731 21.5718 84.4916C19.3628 87.3037 17.098 90.0702 14.9482 92.9287C14.1058 94.0604 13.4486 95.3193 13.0013 96.6581C12.8912 97.3052 12.9203 97.9684 13.0868 98.6033C13.106 98.7802 13.352 99.0212 13.0396 99.154C12.4397 99.4094 11.9372 99.6616 12.4652 100.444C12.5851 100.622 12.3127 100.717 12.1225 100.721C11.783 100.729 11.3923 100.721 11.3524 100.3C11.3156 99.9121 11.0968 99.7152 10.766 99.4358" fill="white"/>
<path d="M25.1516 53.2568C24.9566 53.1184 24.848 53.0919 24.7625 53.2993C24.4883 54.0671 24.1635 54.8159 23.7902 55.5406C23.5458 55.9641 23.5985 56.8382 22.6622 56.5812C22.5136 56.5404 22.544 56.7285 22.6111 56.835C22.7709 57.0839 22.671 57.2656 22.5 57.4754C22.3606 57.6465 22.2615 57.8469 22.2101 58.0618C22.1588 58.2766 22.1566 58.5003 22.2037 58.7161C22.3443 59.6183 21.7179 60.0585 20.8935 59.6879C20.7944 59.6431 20.6187 59.4926 20.6099 59.555C20.403 61.0303 19.6041 59.0803 19.2797 59.7928C19.1647 59.6968 19.071 59.5778 19.0045 59.4434C18.9381 59.309 18.9004 59.1621 18.8939 59.0123C18.8787 58.3164 19.0791 57.633 19.4675 57.0559C20.824 54.8375 22.5113 52.8401 24.4709 51.1332C24.9891 50.7915 25.5802 50.5765 26.1965 50.5056C26.5416 50.4047 26.7453 50.6905 26.874 50.9651C27.0529 51.3405 26.8556 51.3797 26.5496 51.2796C26.4351 51.8994 26.1434 52.4726 25.71 52.9294C25.5502 53.1544 25.4479 53.4265 25.1508 53.2568" fill="white"/>
<path d="M46.6768 25.785C46.5953 25.3078 46.5993 24.8199 46.6888 24.3441C46.7398 24.0215 46.7628 23.695 46.7575 23.3684C46.7627 23.3419 46.7665 23.3152 46.7687 23.2883C47.1704 22.8901 47.4669 22.3979 47.6315 21.8562C47.7169 21.6401 47.8048 21.4168 47.9103 21.2071C47.9698 21.0808 48.0206 20.9505 48.0621 20.8172C48.1141 20.6358 48.1901 20.4621 48.2881 20.3009C48.8889 19.4156 49.4521 18.4854 49.997 17.5865C50.7568 16.2843 51.5817 15.0214 52.4687 13.8026C52.9409 13.1766 53.4002 12.5218 53.8436 11.8926C54.5474 10.892 55.2744 9.85702 56.0741 8.90125C56.1157 8.85162 56.154 8.80119 56.1987 8.74996C56.4903 8.35471 56.8589 8.02277 57.282 7.77417L56.5574 9.08936L56.0326 10.0411C56.0398 10.0187 56.0477 9.99311 56.0573 9.95708C55.5268 10.4252 55.0792 10.9801 54.7336 11.5981C54.4648 12.0532 54.154 12.482 53.8053 12.8788C53.8655 12.9393 53.9449 12.9767 54.0298 12.9845C54.097 12.9792 54.1605 12.9509 54.2095 12.9045C54.2425 12.8748 54.2814 12.8527 54.3237 12.8396C54.3526 12.8335 54.3821 12.8303 54.4116 12.83C54.577 12.83 54.7096 12.9365 54.8039 13.1502L54.8191 13.1822C54.8518 13.2519 54.8886 13.3295 54.8622 13.3847C54.8539 13.3995 54.8424 13.4123 54.8286 13.4221C54.8148 13.4319 54.799 13.4386 54.7823 13.4416C54.1943 13.5929 54.2055 14.0195 54.2167 14.4318C54.2167 14.5182 54.2215 14.6079 54.2167 14.6919C54.206 14.9146 54.1337 15.1298 54.0078 15.3136C53.882 15.4974 53.7076 15.6425 53.5041 15.7326C53.1981 15.871 52.9435 16.1025 52.7763 16.3942C52.6091 16.6859 52.5378 17.023 52.5726 17.3575L52.2434 17.8466C51.8159 18.164 51.455 18.5628 51.1817 19.0203C50.9083 19.4777 50.7278 19.9847 50.6505 20.5122C50.4983 20.5431 50.3625 20.6285 50.2686 20.7524C50.1722 20.882 50.0287 20.9683 49.8691 20.9925C49.7736 20.9879 49.6818 20.9538 49.6063 20.8949C49.6559 21.6574 49.4414 22.4137 48.9992 23.0362C48.7884 23.3875 48.6141 23.7595 48.4791 24.1464C48.4719 24.1696 48.4511 24.1808 48.4152 24.1808C48.3703 24.1781 48.3259 24.1706 48.2826 24.1584H48.2746C48.2276 24.1453 48.1794 24.1373 48.1308 24.1344C48.1158 24.1328 48.1006 24.1349 48.0867 24.1406C48.0727 24.1464 48.0604 24.1555 48.0509 24.1672C48.0245 24.2057 48.0349 24.2801 48.0804 24.393C48.1146 24.4686 48.1702 24.5324 48.2405 24.5764C48.3107 24.6204 48.3923 24.6427 48.4751 24.6403C48.6105 24.6378 48.7402 24.5847 48.8386 24.4914C48.7632 24.6149 48.7092 24.7502 48.6788 24.8917C48.5941 25.2119 48.5062 25.5369 47.9318 25.5737C47.8967 25.5737 47.8631 25.5737 47.832 25.5737C47.7734 25.5805 47.714 25.5757 47.6572 25.5595C47.6005 25.5433 47.5474 25.516 47.5012 25.4792C47.435 25.3773 47.4117 25.2533 47.4365 25.1342C47.4365 25.0934 47.4365 25.0542 47.4365 25.0085C47.1665 25.0334 47.0962 25.2103 47.0219 25.3968C46.9564 25.5617 46.8885 25.7314 46.6728 25.7898L46.6768 25.785ZM49.2923 20.4314C49.2013 20.4314 49.0846 20.5323 48.9145 20.7596C48.7017 21.0783 48.547 21.4322 48.4575 21.805C48.3634 22.2501 48.1568 22.6635 47.8575 23.0057C47.8354 23.0257 47.8183 23.0506 47.8074 23.0784C47.7966 23.1062 47.7924 23.1361 47.7952 23.1658C47.8 23.1964 47.8116 23.2254 47.8294 23.2507C47.8471 23.2759 47.8704 23.2968 47.8975 23.3115C47.9418 23.3404 47.9932 23.3564 48.0461 23.358C48.0955 23.3577 48.143 23.3389 48.1792 23.3053C48.2155 23.2716 48.2378 23.2256 48.2418 23.1762C48.3208 22.8141 48.4692 22.4707 48.6788 22.1652C48.8522 21.9018 48.9868 21.6147 49.0782 21.3127C49.1501 21.031 49.222 20.8324 49.4953 20.8324C49.5158 20.8314 49.5363 20.8314 49.5568 20.8324C49.4729 20.6003 49.405 20.4322 49.29 20.4322L49.2923 20.4314ZM51.7521 16.1168L51.4757 16.5547C51.1474 17.0742 50.807 17.6121 50.4819 18.146L50.4763 18.1556C50.429 18.2155 50.4054 18.2907 50.41 18.3669C50.4155 18.386 50.4247 18.4038 50.4372 18.4192C50.4497 18.4346 50.4652 18.4473 50.4827 18.4566C50.5312 18.4853 50.5862 18.501 50.6425 18.5022C50.6737 18.506 50.7053 18.4986 50.7316 18.4813C50.7579 18.464 50.7773 18.438 50.7863 18.4078C50.9157 18.0189 51.117 17.658 51.3798 17.3439C51.6423 17.0304 51.8431 16.67 51.9718 16.2817L51.7953 16.1504L51.7521 16.1168Z" fill="white"/>
<path d="M69.3045 84.5925C69.169 85.0583 69.2117 85.5581 69.4244 85.9941C69.5091 86.2247 69.5738 86.4 69.2974 86.496C69.0457 86.5833 68.8907 86.4064 68.8012 86.2134C68.6086 85.7322 68.5961 85.1975 68.7661 84.7077C69.3123 82.9522 70.2252 81.3333 71.444 79.9585C71.827 79.5661 72.1778 79.1434 72.4929 78.6945C73.0199 77.9807 73.7998 77.4963 74.6723 77.3409C75.0541 77.216 75.1276 77.7291 75.2059 78.0053C75.2188 78.109 75.2062 78.2143 75.1692 78.3119C75.1321 78.4096 75.0718 78.4967 74.9934 78.5656C73.6353 79.4566 73.4156 81.116 72.4937 82.3087C72.1901 82.7017 72.3291 83.499 71.9345 84.0209C71.6245 84.4332 71.4552 84.9487 70.8808 85.1416C70.5484 85.2545 70.8009 85.6835 70.6499 85.9421C70.57 86.0734 70.5252 86.2303 70.3615 86.2519C70.1977 86.2735 69.9916 86.1334 70.0211 86.0285C70.2193 85.3249 69.39 85.148 69.3021 84.5949" fill="white"/>
<path d="M35.1137 66.4368L34.9907 66.7266C33.8369 67.8107 32.8008 69.0142 31.8998 70.3167C30.6136 72.057 29.4512 73.8949 28.3319 75.7488C27.3844 77.3177 26.1749 78.7282 25.5119 80.4765C25.2361 81.243 24.7077 81.8924 24.0139 82.3176C23.8302 81.2489 24.5093 80.5653 24.9007 79.812C25.9794 77.8567 27.1868 75.9754 28.5149 74.1807C30.8261 70.8923 32.9966 67.4886 35.8766 64.6357C36.0412 64.4756 36.173 64.2483 36.5693 64.3692C36.3104 65.2329 35.4836 65.6867 35.1137 66.4368" fill="white"/>
<path d="M70.0906 53.8316C69.7359 54.0918 70.1537 54.7922 69.6113 54.6801C69.1447 54.5849 69.3157 54.0173 69.4315 53.6579C69.7645 52.5938 70.3081 51.6078 71.0298 50.7588C71.7515 49.9098 72.6365 49.2152 73.6321 48.7165C73.9436 48.5565 74.3958 48.3043 74.6842 48.7662C74.9406 49.176 74.5444 49.425 74.3183 49.6811C73.2835 50.6704 72.5596 51.9411 72.2356 53.3369C72.1765 53.7092 71.8753 53.8436 71.5677 53.9693C71.457 54.0144 71.3577 54.0836 71.2769 54.1718C70.6754 54.8571 70.2224 54.9291 70.0914 53.8308" fill="white"/>
<path d="M51.5364 13.97C51.4373 15.0762 50.4931 15.687 49.9802 16.5483C49.6582 17.2412 49.2193 17.8733 48.6828 18.4166C48.5318 18.5423 48.4711 18.8169 48.2218 18.68C48.1754 18.6536 48.1353 18.6174 48.1042 18.5738C48.0732 18.5303 48.052 18.4805 48.0421 18.428C48.0322 18.3754 48.0339 18.3213 48.047 18.2694C48.0601 18.2176 48.0843 18.1692 48.118 18.1277C48.8904 16.8226 49.7443 15.5676 50.6744 14.3702C50.9005 14.0972 51.2592 14.1045 51.5628 13.9916L51.5364 13.97Z" fill="white"/>
<path d="M51.5619 13.9925C51.4493 13.7475 51.3183 13.5194 51.5236 13.24C52.6456 11.6257 53.8635 10.0804 55.1705 8.61242C55.2744 8.50116 55.3303 8.237 55.57 8.4019C55.7194 8.50676 55.6818 8.66846 55.5795 8.80214C54.2622 10.4711 52.984 12.1642 51.7872 13.9252C51.7529 13.9725 51.6219 13.9524 51.5364 13.9701L51.5619 13.9925Z" fill="white"/>
<path d="M46.7687 23.2893C46.767 23.3162 46.7632 23.3429 46.7575 23.3693C46.5977 23.7695 46.251 24.0993 46.2781 24.5812C46.2885 24.7533 46.3117 24.9967 46.0505 24.9743C45.8172 24.9543 45.8483 24.7341 45.8691 24.5516C46.1021 22.9287 46.5617 21.3466 47.2344 19.852C47.3415 19.5918 47.6538 19.3133 47.9398 19.4461C48.2778 19.6062 48.0197 19.9392 47.9031 20.1354C47.3687 21.1235 46.9863 22.1868 46.7687 23.2893" fill="white"/>
<path d="M56.0549 9.96119C56.0477 9.99001 56.0397 10.0172 56.0302 10.0412C56.4104 9.65941 57.0727 9.54254 57.1366 8.82771C57.147 8.71004 57.4474 8.27778 57.7502 8.54434C58.0386 8.79729 57.731 9.06465 57.564 9.22235C56.7803 9.92734 56.1958 10.8269 55.8696 11.8303C55.5804 11.4917 55.1474 11.27 55.7234 10.8601C56.0326 10.6392 55.9087 10.2486 56.0549 9.96199" fill="white"/>
<path d="M52.2387 17.842L52.5694 17.3537L52.9689 17.0415L53.1079 17.1384L52.194 18.7657L51.999 18.7017L52.2387 17.842Z" fill="white"/>
<path d="M49.1892 24.0145C49.0127 23.3917 49.4688 22.9778 49.7029 22.4976C49.937 22.0173 50.207 21.5746 50.4618 21.1135C50.5064 21.2221 50.524 21.34 50.5133 21.4569C50.5026 21.5738 50.4638 21.6864 50.4003 21.7851C49.9825 22.52 49.5911 23.27 49.1892 24.0145Z" fill="white"/>
</g>
<defs>
<clipPath id="clip0_255_1031">
<rect width="81" height="101" fill="white" transform="translate(0.135986)"/>
</clipPath>
</defs>
</svg>
