<svg width="81" height="101" viewBox="0 0 81 101" fill="none" xmlns="http://www.w3.org/2000/svg">
<g opacity="0.1" clip-path="url(#clip0_136_2123)">
<path d="M12.191 19.1634C15.6112 12.5278 19.5536 6.17591 23.981 0.167995C24.4763 0.295272 24.0409 0.605058 24.2207 0.800376C24.5019 0.930054 24.8143 0.252046 25.1794 0.855609C25.3048 1.07213 25.3626 1.3214 25.345 1.57116C25.3275 1.82092 25.2356 2.05965 25.0811 2.25645C23.85 4.52022 22.0717 6.43177 20.9988 8.8204C20.6313 9.63689 20.4707 10.6367 19.5656 11.2723C19.0064 11.6637 19.1398 12.6531 18.6469 13.3047C18.3385 13.7129 18.1675 14.2837 17.824 14.7456C16.4716 16.5453 15.6449 18.6862 15.4361 20.9293C15.3954 21.3399 15.2252 21.7114 14.845 21.7242C13.8064 21.7586 12.7806 22.1892 11.7652 21.2807C11.4578 21.0493 11.2334 20.7244 11.1258 20.3545C11.0183 19.9846 11.0332 19.5897 11.1685 19.2291C11.7518 17.3604 12.5848 15.5794 13.645 13.9347C14.7898 11.9591 16.0896 10.0772 17.3015 8.1456C18.9345 5.54723 20.7599 3.09376 22.4903 0.571438C22.6549 0.331293 22.8099 -0.164205 23.1742 0.0543268C23.4458 0.218426 23.1598 0.614664 23.0048 0.850006C22.0262 2.35491 20.978 3.81179 19.9043 5.25266C18.9012 6.66135 17.9829 8.12885 17.1545 9.6473C15.7669 12.0688 14.2378 14.4086 12.9835 16.9109C12.5811 17.6053 12.3128 18.3695 12.1926 19.1634" fill="white"/>
<path d="M6.89842 48.1385C6.26969 48.6453 5.81433 47.8568 5.61541 47.6967C5.07775 47.2636 4.23413 47.7103 4.02402 47.198C3.70447 46.4215 3.01982 45.7651 3.30502 44.7253C3.9097 42.7433 4.62994 40.7985 5.46202 38.901C5.97091 37.4866 6.61291 36.1239 7.37935 34.8313C7.70739 34.2522 8.19722 33.7817 8.78859 33.4777C9.07223 33.3111 9.4024 33.2417 9.72897 33.2801C10.0555 33.3185 10.3607 33.4627 10.5981 33.6907C11.1066 34.0281 11.5941 34.3965 12.0576 34.7937C12.4571 35.2284 12.7766 35.6839 12.3037 36.277C11.9722 36.6925 12.0321 37.2376 11.8659 37.7123C11.1956 39.6174 10.94 41.6691 9.86868 43.4309C9.10989 44.7535 8.44 46.1254 7.86347 47.5374C7.68772 47.9376 7.51676 48.4179 6.89922 48.1385" fill="white"/>
<path d="M46.5576 33.8708L46.222 34.6273C46.3315 34.7706 46.4321 34.6849 46.5416 34.6545C46.7645 34.5913 46.8404 34.1638 47.1104 34.3343C47.4363 34.5409 47.0169 34.7882 47.0425 35.0331C47.3996 35.1132 47.4946 34.6745 47.7854 34.6625C47.9678 34.9531 48.0467 35.297 48.0093 35.6383C47.9719 35.9795 47.8203 36.2981 47.5793 36.5421C46.4119 38.2196 45.4717 40.0449 44.7832 41.9701C44.5316 42.7066 43.5905 43.066 43.5721 43.9209C43.5044 44.9457 43.1218 45.9244 42.4768 46.7226C41.4966 48.0618 41.2873 49.6363 40.7041 51.0916C40.5403 51.5015 40.7648 52.0058 40.3614 52.3412C40.2312 52.4492 40.0258 52.6966 39.9412 52.4885C39.6496 51.7768 39.0808 52.1194 38.6094 52.0018C37.733 51.7816 37.5613 50.9211 37.4758 50.1679C37.3926 48.9919 37.631 47.8154 38.1652 46.765C39.9698 42.6902 42.1977 38.8172 44.812 35.2101C45.2162 34.6625 45.5789 33.9749 46.5576 33.8708Z" fill="white"/>
<path d="M34.3322 17.7395C34.1301 18.3719 33.9328 19.0339 33.7067 19.6847C32.2219 23.7862 30.438 27.7727 28.3693 31.6119C27.5218 33.0564 26.7672 34.5537 26.1101 36.0946C25.9423 36.5476 25.6395 36.9046 25.1011 36.4228C24.9551 36.3183 24.7909 36.242 24.617 36.1978C24.3678 36.1355 24.1352 36.0197 23.935 35.8586C23.7348 35.6975 23.5718 35.4948 23.4573 35.2645C23.3428 35.0342 23.2795 34.7817 23.2717 34.5246C23.2639 34.2674 23.3119 34.0116 23.4122 33.7748C23.8235 32.6094 24.3845 31.5026 25.0811 30.4824C27.8767 26.0901 30.3008 21.4713 32.3278 16.6741C32.5763 16.0601 32.6474 16.0609 33.0828 16.5284C33.1111 16.5552 33.1445 16.576 33.181 16.5898C33.2175 16.6035 33.2563 16.6099 33.2953 16.6084C34.1069 16.5356 34.1804 17.1319 34.3338 17.7387" fill="white"/>
<path d="M6.99823 64.0786C6.25526 65.9109 5.04016 67.3134 4.33234 68.9728C3.52197 70.6111 2.84265 72.3114 2.30077 74.0574C2.95266 72.6222 3.60056 71.1845 4.25645 69.7508C5.04544 68.1297 5.92894 66.5564 6.90236 65.0392C7.37371 64.2619 7.90257 64.3019 8.43303 64.7278C8.55931 64.8156 8.66471 64.9302 8.74172 65.0634C8.81874 65.1967 8.86547 65.3453 8.8786 65.4987C8.89172 65.6522 8.87091 65.8066 8.81764 65.951C8.76438 66.0955 8.67997 66.2264 8.57044 66.3344C7.64521 67.3258 6.9856 68.5359 6.65311 69.8517C6.02119 72.0282 4.90994 74.0454 4.576 76.318C4.49611 76.8415 4.12064 77.2882 4.04314 77.8717C3.90318 78.4875 3.97497 79.1326 4.24686 79.7024C4.4354 80.0578 4.89955 80.5253 4.48653 80.9216C4.31712 81.1154 4.08789 81.247 3.83529 81.2953C3.58268 81.3436 3.32122 81.3059 3.09247 81.1881C2.83207 81.1187 2.5604 81.1023 2.29358 81.1401C1.95462 81.1655 1.61446 81.1103 1.30084 80.9789C0.987225 80.8476 0.709029 80.6438 0.488936 80.3843C0.268842 80.1247 0.113083 79.8167 0.0343575 79.4854C-0.0443681 79.1541 -0.043831 78.8088 0.0359248 78.4777C0.420763 76.3736 1.0771 74.3285 1.98841 72.394C3.03194 69.7976 4.35103 67.3211 5.92293 65.0072C6.15411 64.5748 6.53733 64.2439 6.99823 64.0786" fill="white"/>
<path d="M49.7819 84.1346C47.6568 84.1306 47.0169 83.198 47.7359 81.4322C48.365 80.0987 49.1878 78.8659 50.1773 77.774C52.3343 75.1132 54.576 72.5292 56.9639 70.0709C57.5339 69.5511 58.2313 69.192 58.985 69.0303C59.2391 68.9502 59.8055 68.7998 59.7839 69.0215C59.7392 69.4754 60.193 69.8868 59.7839 70.3727C57.9577 72.5404 56.3271 74.861 54.6423 77.1352C53.8977 78.1382 53.0741 79.0835 52.3567 80.105C51.8717 80.7958 51.3764 81.5458 51.8677 82.4728C51.9269 82.5841 51.8965 82.873 51.8438 82.8922C51.005 83.1724 50.4977 84.0681 49.785 84.1338" fill="white"/>
<path d="M71.5036 35.92C72.5957 34.6913 73.2723 33.1976 74.35 31.9761C74.6926 31.6412 75.0159 31.2871 75.3183 30.9154C75.7656 30.275 76.2258 30.7625 76.5214 30.965C76.6023 31.0273 76.6697 31.1053 76.7196 31.1945C76.7694 31.2837 76.8005 31.3821 76.8112 31.4837C76.8218 31.5854 76.8116 31.6881 76.7813 31.7857C76.751 31.8833 76.7011 31.9737 76.6348 32.0513C75.3978 33.824 74.351 35.7226 73.512 37.7155C72.9104 39.118 71.9046 40.3443 71.6953 41.9773C71.5069 42.6706 71.2611 43.347 70.9603 43.9993C70.648 44.9238 70.0065 44.1594 69.5111 44.125C69.4313 44.1194 69.3642 43.8896 69.2923 43.8912C68.9879 43.8952 68.8081 44.6733 68.451 44.1314C67.9669 43.4013 67.45 42.7105 67.7887 41.6251C68.3555 39.9462 69.1176 38.3401 70.0592 36.8398C71.2863 34.7777 72.4175 32.6437 74.1639 30.9418C74.2925 30.8186 74.4107 30.6793 74.5505 30.564C74.6903 30.4487 74.8813 30.3447 75.0299 30.4904C75.2232 30.6761 75.1209 30.9002 74.95 31.0395C73.4744 32.2538 72.7371 34.0061 71.6993 35.5414C71.6268 35.6636 71.5617 35.79 71.5044 35.92" fill="white"/>
<path d="M34.9769 66.4369C35.4614 66.0358 35.9153 65.5992 36.335 65.1305C36.495 64.8751 36.7436 64.688 37.0329 64.6053C37.3223 64.5225 37.632 64.5499 37.9024 64.6822C38.2763 64.8311 38.1964 65.2233 38.1605 65.4739C38.1246 65.7822 38.0029 66.0742 37.8092 66.3164C37.6155 66.5586 37.3577 66.7413 37.0652 66.8435C36.9166 66.8979 36.6929 66.7859 36.6929 67.0548C36.6929 68.37 35.5449 69.0704 35.0504 70.1239C34.8986 70.4441 34.6158 70.7539 34.4161 71.0845C33.8345 72.0514 33.3583 73.1025 32.1257 73.4723C31.8381 73.5587 31.3835 73.8165 31.5385 74.2536C32.0122 75.5872 31.0799 76.4781 30.5503 77.4675C29.6819 79.0933 28.5786 80.5862 27.7725 82.2512C27.6815 82.4385 27.6255 82.7058 27.3635 82.641C27.0368 82.561 27.4698 82.2688 27.2429 82.0983C26.8362 82.3152 26.4783 82.8988 25.9111 82.2103C25.709 81.963 25.411 82.3809 25.2656 82.6434C25.1546 82.8427 25.0331 83.03 24.7863 82.8836C24.4843 82.7058 24.7447 82.5209 24.8246 82.3576C26.3218 79.4213 28.0306 76.5983 29.9375 73.911L34.8587 66.7274L34.9817 66.4377" fill="white"/>
<path d="M52.7984 58.2751C52.7918 58.2758 52.785 58.2747 52.7789 58.2721C52.7727 58.2694 52.7673 58.2652 52.7633 58.2599C52.7353 58.2198 52.7745 58.107 52.8128 57.9981C52.8512 57.8892 52.8927 57.7756 52.8623 57.7371C52.8584 57.732 52.8533 57.728 52.8475 57.7253C52.8416 57.7227 52.8352 57.7215 52.8288 57.7219C52.6917 57.7651 52.5666 57.8399 52.4637 57.9405C52.4426 57.9587 52.4178 57.9721 52.391 57.9797H52.3854C52.1787 57.7966 51.9163 57.6889 51.6408 57.6739C51.4811 57.6843 51.3252 57.7276 51.1829 57.8012C51.0406 57.8747 50.915 57.9769 50.814 58.1014C50.8099 58.1053 50.805 58.1084 50.7996 58.1103C50.7942 58.1122 50.7885 58.113 50.7828 58.1126C50.2639 57.7726 49.8557 57.2878 49.6085 56.7181C49.5831 56.2036 49.6968 55.6916 49.9376 55.2364C51.2224 52.6786 53.0843 50.4559 55.3756 48.7445C55.8746 48.3488 56.4905 48.13 57.1268 48.1226C57.7429 48.1408 58.345 48.3113 58.8796 48.6189C59.1791 48.779 59.3381 48.9551 59.3653 49.1536C59.3948 49.3681 59.2702 49.6067 58.9834 49.8836C58.4265 50.4232 57.8975 50.991 57.3984 51.5846C57.1747 51.8504 56.9622 52.1306 56.7593 52.4019C56.4352 52.8461 56.0841 53.2698 55.708 53.6707C55.2172 54.2377 54.8294 54.8866 54.5624 55.5879C54.3921 55.9868 54.1993 56.3756 53.9848 56.7526L53.8681 56.9503C53.6157 57.4568 53.2622 57.9061 52.8296 58.2703C52.8195 58.2732 52.809 58.2748 52.7984 58.2751ZM54.0016 51.2981C52.5446 52.5072 51.4569 54.1028 50.8627 55.9024C51.9372 54.2358 52.9167 52.7397 54.0016 51.2981Z" fill="white"/>
<path d="M79.196 59.8289L78.8629 60.9687C79.065 60.8086 79.1881 60.7646 79.2248 60.6798C79.526 59.989 80.0788 60.1683 80.515 60.3892C80.7272 60.5061 80.8868 60.6999 80.961 60.9309C81.0353 61.1618 81.0186 61.4125 80.9144 61.6315C80.6167 62.397 80.2538 63.1354 79.8296 63.8385C79.1851 64.7609 78.6272 65.7411 78.1631 66.7666C77.7413 67.8585 77.1245 68.9215 77.389 70.2087C77.4263 70.3312 77.4253 70.4621 77.3861 70.584C77.347 70.7059 77.2716 70.8129 77.17 70.8906C77.0685 70.9683 76.9456 71.0131 76.818 71.0188C76.6903 71.0246 76.564 70.991 76.4559 70.9227C76.1805 70.8145 75.8822 70.7784 75.5891 70.8179C73.7085 70.9123 72.737 69.5755 73.468 67.776C74.585 65.3047 76.0771 63.0217 77.8915 61.008C78.2222 60.6077 78.4507 60.0794 79.1968 59.8289" fill="white"/>
<path d="M10.6324 99.4358C10.6212 100.113 11.1916 100.442 11.2715 100.982C10.4367 101.096 9.90943 100.644 9.72968 99.7112C9.57504 98.7493 9.7931 97.7645 10.3392 96.9583C11.3858 95.2405 12.2566 93.4242 13.7201 91.9409C14.2921 91.3606 14.6876 90.42 15.2436 89.7196C16.8286 87.7184 18.4839 85.7708 20.1168 83.808C20.4445 83.4133 20.8404 83.0808 21.2856 82.8266C21.3831 82.7542 21.5017 82.7161 21.623 82.7181C21.7444 82.7201 21.8616 82.7622 21.9567 82.8378C22.0046 82.8753 22.0446 82.9218 22.0746 82.9748C22.1045 83.0278 22.1238 83.0862 22.1312 83.1466C22.1386 83.2071 22.1341 83.2684 22.1178 83.3271C22.1016 83.3857 22.074 83.4406 22.0365 83.4886C21.862 83.8378 21.6612 84.1731 21.4358 84.4916C19.2269 87.3037 16.962 90.0702 14.8122 92.9287C13.9698 94.0604 13.3126 95.3193 12.8653 96.6581C12.7552 97.3052 12.7844 97.9684 12.9508 98.6033C12.97 98.7802 13.216 99.0212 12.9037 99.154C12.3037 99.4094 11.8012 99.6616 12.3293 100.444C12.4491 100.622 12.1767 100.717 11.9865 100.721C11.647 100.729 11.2564 100.721 11.2164 100.3C11.1797 99.9121 10.9608 99.7152 10.63 99.4358" fill="white"/>
<path d="M25.0156 53.2568C24.8206 53.1184 24.712 53.0919 24.6265 53.2993C24.3523 54.0671 24.0275 54.8159 23.6543 55.5406C23.4098 55.9641 23.4625 56.8382 22.5262 56.5812C22.3776 56.5404 22.408 56.7285 22.4751 56.835C22.6349 57.0839 22.535 57.2656 22.3641 57.4754C22.2246 57.6465 22.1255 57.8469 22.0742 58.0618C22.0228 58.2766 22.0206 58.5003 22.0677 58.7161C22.2083 59.6183 21.5819 60.0585 20.7575 59.6879C20.6584 59.6431 20.4827 59.4926 20.4739 59.555C20.267 61.0303 19.4681 59.0803 19.1437 59.7928C19.0287 59.6968 18.935 59.5778 18.8685 59.4434C18.8021 59.309 18.7644 59.1621 18.7579 59.0123C18.7427 58.3164 18.9431 57.633 19.3315 57.0559C20.688 54.8375 22.3754 52.8401 24.3349 51.1332C24.8532 50.7915 25.4442 50.5765 26.0605 50.5056C26.4056 50.4047 26.6093 50.6905 26.738 50.9651C26.9169 51.3405 26.7196 51.3797 26.4136 51.2796C26.2991 51.8994 26.0074 52.4726 25.574 52.9294C25.4142 53.1544 25.312 53.4265 25.0148 53.2568" fill="white"/>
<path d="M46.5408 25.785C46.4593 25.3078 46.4633 24.8199 46.5528 24.3441C46.6038 24.0215 46.6268 23.695 46.6215 23.3684C46.6268 23.3419 46.6305 23.3152 46.6327 23.2883C47.0344 22.8901 47.3309 22.3979 47.4955 21.8562C47.581 21.6401 47.6688 21.4168 47.7743 21.2071C47.8339 21.0808 47.8846 20.9505 47.9261 20.8172C47.9781 20.6358 48.0541 20.4621 48.1522 20.3009C48.7529 19.4156 49.3161 18.4854 49.861 17.5865C50.6208 16.2843 51.4458 15.0214 52.3327 13.8026C52.8049 13.1766 53.2642 12.5218 53.7076 11.8926C54.4114 10.892 55.1384 9.85702 55.9381 8.90125C55.9797 8.85162 56.018 8.80119 56.0627 8.74996C56.3544 8.35471 56.7229 8.02277 57.146 7.77417L56.4214 9.08936L55.8966 10.0411C55.9038 10.0187 55.9118 9.99311 55.9213 9.95708C55.3908 10.4252 54.9432 10.9801 54.5976 11.5981C54.3288 12.0532 54.018 12.482 53.6693 12.8788C53.7295 12.9393 53.8089 12.9767 53.8938 12.9845C53.961 12.9792 54.0245 12.9509 54.0735 12.9045C54.1065 12.8748 54.1454 12.8527 54.1878 12.8396C54.2167 12.8335 54.2461 12.8303 54.2756 12.83C54.441 12.83 54.5736 12.9365 54.6679 13.1502L54.6831 13.1822C54.7158 13.2519 54.7526 13.3295 54.7262 13.3847C54.7179 13.3995 54.7064 13.4123 54.6926 13.4221C54.6788 13.4319 54.663 13.4386 54.6463 13.4416C54.0583 13.5929 54.0695 14.0195 54.0807 14.4318C54.0807 14.5182 54.0855 14.6079 54.0807 14.6919C54.07 14.9146 53.9977 15.1298 53.8719 15.3136C53.746 15.4974 53.5716 15.6425 53.3681 15.7326C53.0621 15.871 52.8075 16.1025 52.6403 16.3942C52.4731 16.6859 52.4018 17.023 52.4366 17.3575L52.1075 17.8466C51.6799 18.164 51.3191 18.5628 51.0457 19.0203C50.7723 19.4777 50.5918 19.9847 50.5145 20.5122C50.3623 20.5431 50.2266 20.6285 50.1326 20.7524C50.0362 20.882 49.8927 20.9683 49.7332 20.9925C49.6376 20.9879 49.5458 20.9538 49.4703 20.8949C49.5199 21.6574 49.3054 22.4137 48.8632 23.0362C48.6524 23.3875 48.4781 23.7595 48.3431 24.1464C48.3359 24.1696 48.3151 24.1808 48.2792 24.1808C48.2343 24.1781 48.1899 24.1706 48.1466 24.1584H48.1386C48.0916 24.1453 48.0434 24.1373 47.9948 24.1344C47.9798 24.1328 47.9646 24.1349 47.9507 24.1406C47.9367 24.1464 47.9244 24.1555 47.9149 24.1672C47.8885 24.2057 47.8989 24.2801 47.9445 24.393C47.9786 24.4686 48.0343 24.5324 48.1045 24.5764C48.1747 24.6204 48.2563 24.6427 48.3391 24.6403C48.4746 24.6378 48.6042 24.5847 48.7026 24.4914C48.6272 24.6149 48.5732 24.7502 48.5428 24.8917C48.4581 25.2119 48.3703 25.5369 47.7959 25.5737C47.7607 25.5737 47.7272 25.5737 47.696 25.5737C47.6374 25.5805 47.578 25.5757 47.5212 25.5595C47.4645 25.5433 47.4115 25.516 47.3653 25.4792C47.299 25.3773 47.2757 25.2533 47.3005 25.1342C47.3005 25.0934 47.3005 25.0542 47.3005 25.0085C47.0305 25.0334 46.9602 25.2103 46.8859 25.3968C46.8204 25.5617 46.7525 25.7314 46.5368 25.7898L46.5408 25.785ZM49.1564 20.4314C49.0653 20.4314 48.9487 20.5323 48.7785 20.7596C48.5657 21.0783 48.411 21.4322 48.3215 21.805C48.2274 22.2501 48.0208 22.6635 47.7216 23.0057C47.6994 23.0257 47.6823 23.0506 47.6715 23.0784C47.6606 23.1062 47.6565 23.1361 47.6592 23.1658C47.664 23.1964 47.6757 23.2254 47.6934 23.2507C47.7111 23.2759 47.7344 23.2968 47.7615 23.3115C47.8059 23.3404 47.8573 23.3564 47.9101 23.358C47.9595 23.3577 48.007 23.3389 48.0433 23.3053C48.0795 23.2716 48.1018 23.2256 48.1058 23.1762C48.1849 22.8141 48.3333 22.4707 48.5428 22.1652C48.7162 21.9018 48.8508 21.6147 48.9423 21.3127C49.0142 21.031 49.0861 20.8324 49.3593 20.8324C49.3798 20.8314 49.4003 20.8314 49.4208 20.8324C49.3369 20.6003 49.269 20.4322 49.154 20.4322L49.1564 20.4314ZM51.6161 16.1168L51.3397 16.5547C51.0114 17.0742 50.6711 17.6121 50.3459 18.146L50.3403 18.1556C50.293 18.2155 50.2694 18.2907 50.274 18.3669C50.2795 18.386 50.2887 18.4038 50.3012 18.4192C50.3137 18.4346 50.3292 18.4473 50.3467 18.4566C50.3952 18.4853 50.4502 18.501 50.5065 18.5022C50.5377 18.506 50.5693 18.4986 50.5956 18.4813C50.6219 18.464 50.6413 18.438 50.6503 18.4078C50.7797 18.0189 50.9811 17.658 51.2439 17.3439C51.5063 17.0304 51.7071 16.67 51.8358 16.2817L51.6593 16.1504L51.6161 16.1168Z" fill="white"/>
<path d="M69.1686 84.5925C69.033 85.0583 69.0757 85.5581 69.2884 85.9941C69.3731 86.2247 69.4378 86.4 69.1614 86.496C68.9097 86.5833 68.7547 86.4064 68.6653 86.2134C68.4726 85.7322 68.4601 85.1975 68.6301 84.7077C69.1763 82.9522 70.0892 81.3333 71.308 79.9585C71.691 79.5661 72.0418 79.1434 72.3569 78.6945C72.8839 77.9807 73.6638 77.4963 74.5363 77.3409C74.9182 77.216 74.9917 77.7291 75.0699 78.0053C75.0828 78.109 75.0702 78.2143 75.0332 78.3119C74.9961 78.4096 74.9358 78.4967 74.8574 78.5656C73.4993 79.4566 73.2796 81.116 72.3577 82.3087C72.0541 82.7017 72.1931 83.499 71.7985 84.0209C71.4885 84.4332 71.3192 84.9487 70.7448 85.1416C70.4124 85.2545 70.6649 85.6835 70.5139 85.9421C70.434 86.0734 70.3893 86.2303 70.2255 86.2519C70.0617 86.2735 69.8556 86.1334 69.8852 86.0285C70.0833 85.3249 69.254 85.148 69.1662 84.5949" fill="white"/>
<path d="M34.9777 66.4368L34.8547 66.7266C33.7009 67.8107 32.6649 69.0142 31.7638 70.3167C30.4776 72.057 29.3152 73.8949 28.1959 75.7488C27.2485 77.3177 26.0389 78.7282 25.3759 80.4764C25.1001 81.243 24.5717 81.8924 23.878 82.3176C23.6942 81.2489 24.3733 80.5653 24.7647 79.812C25.8434 77.8567 27.0508 75.9754 28.3789 74.1807C30.6901 70.8923 32.8606 67.4886 35.7406 64.6357C35.9052 64.4756 36.037 64.2483 36.4333 64.3692C36.1744 65.2329 35.3476 65.6867 34.9777 66.4368Z" fill="white"/>
<path d="M69.9546 53.8316C69.5999 54.0918 70.0177 54.7922 69.4753 54.6801C69.0087 54.5849 69.1797 54.0173 69.2955 53.6579C69.6285 52.5938 70.1721 51.6078 70.8938 50.7588C71.6155 49.9098 72.5005 49.2152 73.4961 48.7165C73.8076 48.5565 74.2598 48.3043 74.5482 48.7662C74.8047 49.176 74.4084 49.425 74.1823 49.6811C73.1475 50.6704 72.4236 51.9411 72.0996 53.3369C72.0405 53.7092 71.7393 53.8436 71.4317 53.9693C71.321 54.0144 71.2217 54.0836 71.141 54.1718C70.5394 54.8571 70.0864 54.9291 69.9554 53.8308" fill="white"/>
<path d="M51.4004 13.97C51.3014 15.0762 50.3571 15.687 49.8442 16.5483C49.5222 17.2412 49.0833 17.8733 48.5468 18.4166C48.3958 18.5423 48.3351 18.8169 48.0858 18.68C48.0394 18.6536 47.9993 18.6174 47.9683 18.5738C47.9372 18.5303 47.916 18.4805 47.9061 18.428C47.8962 18.3754 47.8979 18.3213 47.911 18.2694C47.9241 18.2176 47.9483 18.1692 47.982 18.1277C48.7544 16.8226 49.6083 15.5676 50.5384 14.3702C50.7645 14.0972 51.1232 14.1045 51.4268 13.9916L51.4004 13.97Z" fill="white"/>
<path d="M51.426 13.9925C51.3133 13.7475 51.1823 13.5194 51.3876 13.24C52.5096 11.6257 53.7275 10.0804 55.0345 8.61242C55.1384 8.50116 55.1943 8.237 55.434 8.4019C55.5834 8.50676 55.5458 8.66846 55.4436 8.80214C54.1262 10.4711 52.848 12.1642 51.6512 13.9252C51.6169 13.9725 51.4859 13.9524 51.4004 13.9701L51.426 13.9925Z" fill="white"/>
<path d="M46.6327 23.2893C46.631 23.3162 46.6273 23.3429 46.6215 23.3693C46.4617 23.7695 46.115 24.0993 46.1422 24.5812C46.1525 24.7533 46.1757 24.9967 45.9145 24.9743C45.6812 24.9543 45.7124 24.7341 45.7331 24.5516C45.9661 22.9287 46.4257 21.3466 47.0984 19.852C47.2055 19.5918 47.5178 19.3133 47.8038 19.4461C48.1418 19.6062 47.8837 19.9392 47.7671 20.1354C47.2328 21.1235 46.8503 22.1868 46.6327 23.2893Z" fill="white"/>
<path d="M55.9189 9.96119C55.9117 9.99001 55.9038 10.0172 55.8942 10.0412C56.2744 9.65941 56.9367 9.54254 57.0006 8.82771C57.011 8.71004 57.3114 8.27778 57.6142 8.54434C57.9026 8.79729 57.595 9.06465 57.428 9.22235C56.6443 9.92734 56.0598 10.8269 55.7336 11.8303C55.4444 11.4917 55.0114 11.27 55.5874 10.8601C55.8966 10.6392 55.7727 10.2486 55.9189 9.96199" fill="white"/>
<path d="M52.1027 17.842L52.4334 17.3537L52.8329 17.0415L52.9719 17.1384L52.058 18.7657L51.863 18.7017L52.1027 17.842Z" fill="white"/>
<path d="M49.0532 24.0145C48.8767 23.3917 49.3328 22.9778 49.5669 22.4976C49.801 22.0173 50.071 21.5746 50.3259 21.1135C50.3704 21.2221 50.388 21.34 50.3773 21.4569C50.3666 21.5738 50.3279 21.6864 50.2643 21.7851C49.8465 22.52 49.4551 23.27 49.0532 24.0145Z" fill="white"/>
</g>
<defs>
<clipPath id="clip0_136_2123">
<rect width="81" height="101" fill="white"/>
</clipPath>
</defs>
</svg>
