<svg width="60" height="60" viewBox="0 0 60 60" fill="none" xmlns="http://www.w3.org/2000/svg">
<path d="M20.0284 17.7283L30.6062 14.7183C34.4609 13.6215 37.2532 15.4109 38.3268 19.666L41.2701 31.3314C42.3437 35.5865 40.768 38.6188 36.9133 39.7157L26.3355 42.7257C22.4808 43.8225 19.6986 42.0303 18.625 37.7752L15.6817 26.1098C14.6081 21.8547 16.1737 18.8252 20.0284 17.7283Z" fill="url(#paint0_linear_255_122)"/>
<g filter="url(#filter0_f_255_122)">
<path d="M23.0028 22.0359L30.1869 19.9916C32.8049 19.2466 34.6687 20.3326 35.3403 22.9942L37.1814 30.2912C37.853 32.9529 36.7501 34.883 34.1322 35.628L26.9481 37.6722C24.3301 38.4172 22.4731 37.3293 21.8015 34.6676L19.9604 27.3707C19.2889 24.709 20.3848 22.7808 23.0028 22.0359Z" fill="#0062FF" fill-opacity="0.5"/>
</g>
<g filter="url(#filter1_b_255_122)">
<mask id="path-3-outside-1_255_122" maskUnits="userSpaceOnUse" x="21.0238" y="19.3269" width="27" height="29" fill="black">
<rect fill="white" x="21.0238" y="19.3269" width="27" height="29"/>
<path d="M39.9013 20.3269H29.0925C24.8662 20.3269 22.0238 23.4779 22.0238 28.1647V38.9814C22.0238 43.655 24.8662 46.806 29.0925 46.806H39.9013C44.1275 46.806 46.9575 43.655 46.9575 38.9814V28.1647C46.9575 23.4779 44.1275 20.3269 39.9013 20.3269"/>
</mask>
<path d="M39.9013 20.3269H29.0925C24.8662 20.3269 22.0238 23.4779 22.0238 28.1647V38.9814C22.0238 43.655 24.8662 46.806 29.0925 46.806H39.9013C44.1275 46.806 46.9575 43.655 46.9575 38.9814V28.1647C46.9575 23.4779 44.1275 20.3269 39.9013 20.3269" fill="#3EA0FE" fill-opacity="0.35"/>
<path d="M39.9013 21.3269C40.4536 21.3269 40.9013 20.8792 40.9013 20.3269C40.9013 19.7746 40.4536 19.3269 39.9013 19.3269V21.3269ZM39.9013 19.3269C39.349 19.3269 38.9013 19.7746 38.9013 20.3269C38.9013 20.8792 39.349 21.3269 39.9013 21.3269V19.3269ZM39.9013 19.3269H29.0925V21.3269H39.9013V19.3269ZM29.0925 19.3269C26.7168 19.3269 24.6725 20.2199 23.2307 21.8185C21.797 23.4081 21.0238 25.6211 21.0238 28.1647H23.0238C23.0238 26.0215 23.6718 24.3156 24.7159 23.158C25.7519 22.0094 27.242 21.3269 29.0925 21.3269V19.3269ZM21.0238 28.1647V38.9814H23.0238V28.1647H21.0238ZM21.0238 38.9814C21.0238 41.5191 21.7974 43.7288 23.2311 45.3165C24.6729 46.913 26.7168 47.806 29.0925 47.806V45.806C27.2419 45.806 25.7515 45.1234 24.7155 43.9761C23.6714 42.8198 23.0238 41.1173 23.0238 38.9814H21.0238ZM29.0925 47.806H39.9013V45.806H29.0925V47.806ZM39.9013 47.806C42.2772 47.806 44.3185 46.9128 45.7573 45.3155C47.1877 43.7275 47.9575 41.5179 47.9575 38.9814H45.9575C45.9575 41.1184 45.3124 42.8211 44.2712 43.977C43.2384 45.1236 41.7516 45.806 39.9013 45.806V47.806ZM47.9575 38.9814V28.1647H45.9575V38.9814H47.9575ZM47.9575 28.1647C47.9575 25.6222 47.1881 23.4094 45.7577 21.8194C44.3188 20.2201 42.2772 19.3269 39.9013 19.3269V21.3269C41.7516 21.3269 43.2381 22.0092 44.2708 23.1571C45.312 24.3143 45.9575 26.0204 45.9575 28.1647H47.9575Z" fill="url(#paint1_linear_255_122)" mask="url(#path-3-outside-1_255_122)"/>
</g>
<g filter="url(#filter2_bd_255_122)">
<mask id="path-5-inside-2_255_122" fill="white">
<path fill-rule="evenodd" clip-rule="evenodd" d="M27.0315 28.9673C27.0315 30.7995 28.4337 32.2906 30.1595 32.2906C31.884 32.2906 33.2875 30.7995 33.2875 28.9673C33.2875 27.135 31.884 25.6439 30.1595 25.6439C28.4337 25.6439 27.0315 27.135 27.0315 28.9673ZM44.0853 41.164C44.5334 40.0336 44.7511 38.6617 44.332 37.5203C44.1922 37.1416 43.9833 36.7891 43.69 36.479C42.9209 35.6682 42.2022 34.911 41.3475 34.3512C40.0056 33.4622 38.9697 34.7107 38.6902 35.1099C38.4673 35.4289 38.2703 35.7752 38.0705 36.1261C38.0289 36.1993 37.9872 36.2726 37.945 36.346L37.9351 36.3634C37.3408 37.4089 36.6583 38.6094 35.4817 39.3092C33.7622 40.3203 32.4569 39.3888 31.5178 38.7111C31.1654 38.4587 30.823 38.2199 30.4819 38.0608C29.641 37.6753 28.8845 38.1143 27.7617 39.6289C27.1726 40.4205 26.5886 41.2052 25.997 41.9871C25.6432 42.455 25.7276 43.1766 26.2046 43.4894C26.9662 43.9874 27.8952 44.2549 28.945 44.2549H39.4946C40.09 44.2549 40.6866 44.1684 41.2556 43.9709C42.537 43.5264 43.5541 42.5085 44.0853 41.164Z"/>
</mask>
<path fill-rule="evenodd" clip-rule="evenodd" d="M27.0315 28.9673C27.0315 30.7995 28.4337 32.2906 30.1595 32.2906C31.884 32.2906 33.2875 30.7995 33.2875 28.9673C33.2875 27.135 31.884 25.6439 30.1595 25.6439C28.4337 25.6439 27.0315 27.135 27.0315 28.9673ZM44.0853 41.164C44.5334 40.0336 44.7511 38.6617 44.332 37.5203C44.1922 37.1416 43.9833 36.7891 43.69 36.479C42.9209 35.6682 42.2022 34.911 41.3475 34.3512C40.0056 33.4622 38.9697 34.7107 38.6902 35.1099C38.4673 35.4289 38.2703 35.7752 38.0705 36.1261C38.0289 36.1993 37.9872 36.2726 37.945 36.346L37.9351 36.3634C37.3408 37.4089 36.6583 38.6094 35.4817 39.3092C33.7622 40.3203 32.4569 39.3888 31.5178 38.7111C31.1654 38.4587 30.823 38.2199 30.4819 38.0608C29.641 37.6753 28.8845 38.1143 27.7617 39.6289C27.1726 40.4205 26.5886 41.2052 25.997 41.9871C25.6432 42.455 25.7276 43.1766 26.2046 43.4894C26.9662 43.9874 27.8952 44.2549 28.945 44.2549H39.4946C40.09 44.2549 40.6866 44.1684 41.2556 43.9709C42.537 43.5264 43.5541 42.5085 44.0853 41.164Z" fill="url(#paint2_linear_255_122)"/>
<path d="M44.332 37.5203L44.5197 37.4513L44.5196 37.451L44.332 37.5203ZM44.0853 41.164L43.8993 41.0903L43.8992 41.0905L44.0853 41.164ZM43.69 36.479L43.8353 36.3416L43.8351 36.3414L43.69 36.479ZM41.3475 34.3512L41.237 34.518L41.2379 34.5185L41.3475 34.3512ZM38.6902 35.1099L38.5264 34.9952L38.5263 34.9953L38.6902 35.1099ZM38.0705 36.1261L38.2443 36.225L38.2443 36.225L38.0705 36.1261ZM37.945 36.346L37.7716 36.2464L37.7712 36.2471L37.945 36.346ZM37.9351 36.3634L37.7612 36.2646L37.7612 36.2646L37.9351 36.3634ZM35.4817 39.3092L35.583 39.4816L35.5839 39.4811L35.4817 39.3092ZM31.5178 38.7111L31.6349 38.5489L31.6343 38.5485L31.5178 38.7111ZM30.4819 38.0608L30.5664 37.8796L30.5652 37.879L30.4819 38.0608ZM27.7617 39.6289L27.9222 39.7483L27.9224 39.748L27.7617 39.6289ZM25.997 41.9871L25.8375 41.8665L25.8374 41.8665L25.997 41.9871ZM26.2046 43.4894L26.095 43.6566L26.0952 43.6568L26.2046 43.4894ZM41.2556 43.9709L41.19 43.7819L41.19 43.782L41.2556 43.9709ZM30.1595 32.0906C28.5555 32.0906 27.2315 30.7006 27.2315 28.9673H26.8315C26.8315 30.8983 28.312 32.4906 30.1595 32.4906V32.0906ZM33.0875 28.9673C33.0875 30.7006 31.7623 32.0906 30.1595 32.0906V32.4906C32.0057 32.4906 33.4875 30.8983 33.4875 28.9673H33.0875ZM30.1595 25.8439C31.7623 25.8439 33.0875 27.2339 33.0875 28.9673H33.4875C33.4875 27.0362 32.0057 25.4439 30.1595 25.4439V25.8439ZM27.2315 28.9673C27.2315 27.2339 28.5555 25.8439 30.1595 25.8439V25.4439C28.312 25.4439 26.8315 27.0362 26.8315 28.9673H27.2315ZM44.1442 37.5892C44.5394 38.6654 44.3386 39.9823 43.8993 41.0903L44.2712 41.2377C44.7282 40.0849 44.9628 38.658 44.5197 37.4513L44.1442 37.5892ZM43.5447 36.6165C43.818 36.9054 44.0133 37.2343 44.1443 37.5895L44.5196 37.451C44.3712 37.049 44.1485 36.6727 43.8353 36.3416L43.5447 36.6165ZM41.2379 34.5185C42.0696 35.0632 42.7725 35.8024 43.5449 36.6167L43.8351 36.3414C43.0693 35.534 42.3347 34.7587 41.457 34.1839L41.2379 34.5185ZM38.8541 35.2246C38.9872 35.0345 39.2945 34.6522 39.7159 34.4232C39.9241 34.3101 40.155 34.2371 40.4043 34.2386C40.652 34.2401 40.9308 34.3151 41.237 34.518L41.4579 34.1845C41.0932 33.9428 40.7393 33.8406 40.4067 33.8386C40.0756 33.8366 39.7785 33.934 39.525 34.0718C39.0231 34.3445 38.6727 34.7861 38.5264 34.9952L38.8541 35.2246ZM38.2443 36.225C38.4449 35.8726 38.6375 35.5346 38.8542 35.2244L38.5263 34.9953C38.2971 35.3232 38.0956 35.6778 37.8967 36.0272L38.2443 36.225ZM38.1185 36.4455C38.1608 36.3718 38.2028 36.2981 38.2443 36.225L37.8967 36.0272C37.855 36.1004 37.8135 36.1734 37.7716 36.2464L38.1185 36.4455ZM38.109 36.4623L38.1189 36.4448L37.7712 36.2471L37.7612 36.2646L38.109 36.4623ZM35.5839 39.4811C36.8133 38.7499 37.5192 37.4998 38.109 36.4623L37.7612 36.2646C37.1624 37.3179 36.5033 38.4688 35.3794 39.1373L35.5839 39.4811ZM31.4008 38.8733C31.8668 39.2096 32.4545 39.6332 33.1513 39.8355C33.8605 40.0414 34.6738 40.0163 35.583 39.4816L35.3803 39.1368C34.57 39.6133 33.871 39.6279 33.2629 39.4514C32.6424 39.2713 32.1079 38.8903 31.6349 38.5489L31.4008 38.8733ZM30.3973 38.2421C30.7192 38.3922 31.0472 38.62 31.4014 38.8737L31.6343 38.5485C31.2836 38.2973 30.9269 38.0477 30.5664 37.8796L30.3973 38.2421ZM27.9224 39.748C28.4807 38.9949 28.9303 38.5348 29.3275 38.3055C29.5227 38.1929 29.7007 38.1386 29.8703 38.1299C30.0396 38.1212 30.2125 38.1573 30.3985 38.2426L30.5652 37.879C30.3309 37.7716 30.0939 37.7179 29.8498 37.7305C29.6059 37.743 29.367 37.8209 29.1276 37.9591C28.6556 38.2316 28.1656 38.7483 27.6011 39.5098L27.9224 39.748ZM26.1564 42.1078C26.7486 41.3251 27.3331 40.5398 27.9222 39.7483L27.6013 39.5095C27.0121 40.3011 26.4285 41.0852 25.8375 41.8665L26.1564 42.1078ZM26.3143 43.3221C25.9471 43.0814 25.8627 42.4963 26.1565 42.1078L25.8374 41.8665C25.4237 42.4137 25.508 43.2718 26.095 43.6566L26.3143 43.3221ZM28.945 44.0549C27.9297 44.0549 27.0397 43.7964 26.3141 43.322L26.0952 43.6568C26.8927 44.1783 27.8606 44.4549 28.945 44.4549V44.0549ZM39.4946 44.0549H28.945V44.4549H39.4946V44.0549ZM41.19 43.782C40.6449 43.9712 40.0708 44.0549 39.4946 44.0549V44.4549C40.1091 44.4549 40.7283 44.3657 41.3212 44.1598L41.19 43.782ZM43.8992 41.0905C43.3874 42.3859 42.4114 43.3583 41.19 43.7819L41.3211 44.1599C42.6626 43.6945 43.7207 42.6311 44.2713 41.2375L43.8992 41.0905Z" fill="url(#paint3_linear_255_122)" fill-opacity="0.5" mask="url(#path-5-inside-2_255_122)"/>
</g>
<defs>
<filter id="filter0_f_255_122" x="0.767334" y="0.762054" width="55.6065" height="56.1395" filterUnits="userSpaceOnUse" color-interpolation-filters="sRGB">
<feFlood flood-opacity="0" result="BackgroundImageFix"/>
<feBlend mode="normal" in="SourceGraphic" in2="BackgroundImageFix" result="shape"/>
<feGaussianBlur stdDeviation="9.5" result="effect1_foregroundBlur_255_122"/>
</filter>
<filter id="filter1_b_255_122" x="-2.9762" y="-4.6731" width="74.9337" height="76.4791" filterUnits="userSpaceOnUse" color-interpolation-filters="sRGB">
<feFlood flood-opacity="0" result="BackgroundImageFix"/>
<feGaussianBlur in="BackgroundImageFix" stdDeviation="12"/>
<feComposite in2="SourceAlpha" operator="in" result="effect1_backgroundBlur_255_122"/>
<feBlend mode="normal" in="SourceGraphic" in2="effect1_backgroundBlur_255_122" result="shape"/>
</filter>
<filter id="filter2_bd_255_122" x="10.7797" y="10.6439" width="48.7766" height="48.611" filterUnits="userSpaceOnUse" color-interpolation-filters="sRGB">
<feFlood flood-opacity="0" result="BackgroundImageFix"/>
<feGaussianBlur in="BackgroundImageFix" stdDeviation="7.5"/>
<feComposite in2="SourceAlpha" operator="in" result="effect1_backgroundBlur_255_122"/>
<feColorMatrix in="SourceAlpha" type="matrix" values="0 0 0 0 0 0 0 0 0 0 0 0 0 0 0 0 0 0 127 0" result="hardAlpha"/>
<feOffset dx="5" dy="5"/>
<feGaussianBlur stdDeviation="5"/>
<feColorMatrix type="matrix" values="0 0 0 0 0.15375 0 0 0 0 0.522433 0 0 0 0 0.9 0 0 0 0.5 0"/>
<feBlend mode="normal" in2="effect1_backgroundBlur_255_122" result="effect2_dropShadow_255_122"/>
<feBlend mode="normal" in="SourceGraphic" in2="effect2_dropShadow_255_122" result="shape"/>
</filter>
<linearGradient id="paint0_linear_255_122" x1="15.6195" y1="18.9829" x2="44.6169" y2="28.1672" gradientUnits="userSpaceOnUse">
<stop stop-color="#39AFFD"/>
<stop offset="1" stop-color="#3A76FF"/>
</linearGradient>
<linearGradient id="paint1_linear_255_122" x1="25.9928" y1="23.4117" x2="43.0693" y2="43.327" gradientUnits="userSpaceOnUse">
<stop stop-color="white" stop-opacity="0.25"/>
<stop offset="1" stop-color="white" stop-opacity="0.06"/>
</linearGradient>
<linearGradient id="paint2_linear_255_122" x1="43.225" y1="29.0046" x2="22.3101" y2="29.6926" gradientUnits="userSpaceOnUse">
<stop stop-color="white"/>
<stop offset="1" stop-color="white" stop-opacity="0.2"/>
</linearGradient>
<linearGradient id="paint3_linear_255_122" x1="27.8023" y1="31.8869" x2="43.7462" y2="31.9757" gradientUnits="userSpaceOnUse">
<stop stop-color="white"/>
<stop offset="1" stop-color="white" stop-opacity="0"/>
</linearGradient>
</defs>
</svg>
