<svg width="151" height="20" viewBox="0 0 151 20" fill="none" xmlns="http://www.w3.org/2000/svg">
<g clip-path="url(#clip0_136_1656)">
<path d="M19.7644 5.15506C19.656 4.72945 19.4423 4.341 19.1445 4.02861C18.8468 3.71622 18.4756 3.49084 18.068 3.37506C16.5723 2.95422 10.5726 2.95422 10.5726 2.95422C10.5726 2.95422 4.57291 2.95422 3.07639 3.37506C2.66901 3.49105 2.29798 3.7165 2.00042 4.02888C1.70286 4.34125 1.4892 4.72959 1.3808 5.15506C0.979492 6.72506 0.979492 10.0001 0.979492 10.0001C0.979492 10.0001 0.979492 13.2751 1.3808 14.8451C1.4892 15.2707 1.70295 15.6591 2.00067 15.9715C2.29839 16.2839 2.66962 16.5093 3.07719 16.6251C4.57291 17.0459 10.5726 17.0459 10.5726 17.0459C10.5726 17.0459 16.5723 17.0459 18.0688 16.6251C18.4764 16.5094 18.8477 16.284 19.1454 15.9716C19.4432 15.6592 19.6569 15.2707 19.7652 14.8451C20.1657 13.2751 20.1657 10.0001 20.1657 10.0001C20.1657 10.0001 20.1657 6.72506 19.7644 5.15506ZM8.61001 12.9734V7.02672L13.6248 10.0001L8.61001 12.9734Z" fill="#1A1A1A"/>
</g>
<g clip-path="url(#clip1_136_1656)">
<path d="M43.1892 0C40.5831 0 40.2577 0.0125 39.2344 0.06C38.2128 0.11 37.5173 0.2775 36.9057 0.525C36.2749 0.78 35.7393 1.1225 35.2061 1.67833C34.6729 2.23417 34.3435 2.79167 34.0997 3.45C33.8623 4.0875 33.7008 4.8125 33.6536 5.8775C33.6057 6.94417 33.5961 7.28333 33.5961 10C33.5961 12.7167 33.6081 13.0558 33.6536 14.1225C33.7016 15.1867 33.8623 15.9125 34.0997 16.55C34.3443 17.2067 34.6729 17.7658 35.2061 18.3217C35.7393 18.8767 36.2741 19.2208 36.9057 19.475C37.5181 19.7217 38.2136 19.8908 39.2344 19.94C40.2577 19.99 40.5831 20 43.1892 20C45.7953 20 46.1207 19.9875 47.1439 19.94C48.1648 19.89 48.8611 19.7217 49.4727 19.475C50.1026 19.22 50.639 18.8767 51.1723 18.3217C51.7047 17.7658 52.0348 17.2092 52.2787 16.55C52.5153 15.9125 52.6776 15.1867 52.7247 14.1225C52.7727 13.0558 52.7823 12.7167 52.7823 10C52.7823 7.28333 52.7703 6.94417 52.7247 5.8775C52.6768 4.81333 52.5153 4.08667 52.2787 3.45C52.034 2.7925 51.7047 2.23417 51.1723 1.67833C50.639 1.1225 50.105 0.779167 49.4727 0.525C48.8611 0.2775 48.1648 0.109167 47.1439 0.06C46.1207 0.01 45.7953 0 43.1892 0ZM43.1892 1.8C45.7497 1.8 46.0551 1.81333 47.0664 1.85917C48.0017 1.905 48.5094 2.06667 48.8467 2.205C49.296 2.38583 49.6142 2.6025 49.9515 2.95167C50.2865 3.30167 50.4943 3.63417 50.6678 4.1025C50.7989 4.45417 50.9556 4.98333 50.998 5.95833C51.0435 7.01333 51.0539 7.33 51.0539 10C51.0539 12.67 51.0419 12.9875 50.9948 14.0417C50.946 15.0167 50.7901 15.5458 50.6582 15.8975C50.4792 16.3658 50.2753 16.6975 49.9395 17.0492C49.6046 17.3983 49.2808 17.615 48.8363 17.7958C48.5006 17.9325 47.9849 18.0958 47.0496 18.14C46.0311 18.1875 45.7314 18.1983 43.1652 18.1983C40.5982 18.1983 40.2985 18.1858 39.2808 18.1367C38.3447 18.0858 37.829 17.9233 37.4933 17.7858C37.0384 17.5992 36.7258 17.3867 36.3909 17.0367C36.0543 16.6875 35.8393 16.35 35.6714 15.8867C35.5395 15.5367 35.3844 14.9992 35.3356 14.0242C35.2996 12.9742 35.2869 12.65 35.2869 9.9875C35.2869 7.32417 35.2996 6.99917 35.3356 5.93667C35.3844 4.96167 35.5395 4.425 35.6714 4.075C35.8393 3.6 36.0543 3.275 36.3909 2.92417C36.7258 2.575 37.0384 2.35 37.4933 2.17583C37.829 2.0375 38.3335 1.875 39.2688 1.825C40.2881 1.7875 40.5879 1.775 43.1532 1.775L43.1892 1.8ZM43.1892 4.865C40.4671 4.865 38.2631 7.165 38.2631 10C38.2631 12.8375 40.4695 15.135 43.1892 15.135C45.9112 15.135 48.1152 12.835 48.1152 10C48.1152 7.1625 45.9088 4.865 43.1892 4.865ZM43.1892 13.3333C41.4225 13.3333 39.9915 11.8417 39.9915 10C39.9915 8.15833 41.4225 6.66667 43.1892 6.66667C44.9559 6.66667 46.3869 8.15833 46.3869 10C46.3869 11.8417 44.9559 13.3333 43.1892 13.3333ZM49.4615 4.6625C49.4615 5.325 48.9451 5.8625 48.3103 5.8625C47.6748 5.8625 47.1591 5.32417 47.1591 4.6625C47.1591 4.00083 47.6756 3.46333 48.3103 3.46333C48.9443 3.4625 49.4615 4.00083 49.4615 4.6625Z" fill="#1A1A1A"/>
</g>
<g clip-path="url(#clip2_136_1656)">
<path d="M85.3613 3.80832C84.643 4.138 83.882 4.35561 83.1029 4.45416C83.9232 3.9402 84.5374 3.1342 84.8321 2.18499C84.0718 2.64749 83.2292 2.98416 82.3323 3.17166C81.7405 2.51202 80.9564 2.07451 80.1016 1.92708C79.2468 1.77964 78.3693 1.93053 77.6052 2.35632C76.8412 2.7821 76.2333 3.45895 75.8762 4.28176C75.519 5.10457 75.4324 6.0273 75.6299 6.90666C72.3602 6.74582 69.4639 5.10832 67.5237 2.63499C67.171 3.25984 66.987 3.97251 66.9913 4.69749C66.9913 6.12249 67.6868 7.37499 68.7404 8.11082C68.116 8.0901 67.5053 7.9141 66.9593 7.59749V7.64749C66.959 8.59448 67.2729 9.51244 67.8479 10.2456C68.4229 10.9788 69.2235 11.4821 70.1138 11.67C69.5369 11.8311 68.9326 11.8553 68.3455 11.7408C68.5982 12.5558 69.0887 13.2683 69.7485 13.7787C70.4083 14.2892 71.2045 14.5722 72.0261 14.5883C70.6347 15.7266 68.9167 16.3444 67.148 16.3425C66.8362 16.3425 66.5252 16.3233 66.2126 16.2867C68.0159 17.4903 70.1127 18.1292 72.2539 18.1275C79.4911 18.1275 83.4443 11.8808 83.4443 6.47332C83.4443 6.29832 83.4443 6.12332 83.4323 5.94832C84.2045 5.36904 84.8706 4.64984 85.3989 3.82499L85.3613 3.80832Z" fill="#1A1A1A"/>
</g>
<g clip-path="url(#clip3_136_1656)">
<path d="M118.015 10.0608C118.015 4.53829 113.72 0.060791 108.422 0.060791C103.125 0.060791 98.8292 4.53829 98.8292 10.0608C98.8292 15.0525 102.337 19.1891 106.923 19.9391V12.9516H104.488V10.06H106.923V7.85829C106.923 5.35246 108.356 3.96746 110.547 3.96746C111.596 3.96746 112.694 4.16329 112.694 4.16329V6.62412H111.484C110.292 6.62412 109.92 7.39496 109.92 8.18579V10.0608H112.581L112.156 12.9525H109.92V19.94C114.508 19.1891 118.015 15.0516 118.015 10.0608Z" fill="#1A1A1A"/>
</g>
<g clip-path="url(#clip4_136_1656)">
<path d="M147.792 17.0433H144.951V12.4025C144.951 11.2958 144.929 9.87167 143.47 9.87167C141.989 9.87167 141.762 11.0758 141.762 12.3208V17.0433H138.921V7.5H141.65V8.80083H141.687C142.069 8.05083 142.996 7.25917 144.381 7.25917C147.26 7.25917 147.792 9.23417 147.792 11.805V17.0433H147.792ZM135.712 6.19417C134.798 6.19417 134.063 5.4225 134.063 4.47333C134.063 3.525 134.799 2.75417 135.712 2.75417C136.624 2.75417 137.362 3.525 137.362 4.47333C137.362 5.4225 136.623 6.19417 135.712 6.19417ZM137.137 17.0433H134.288V7.5H137.137V17.0433ZM149.213 0H132.862C132.079 0 131.446 0.645 131.446 1.44083V18.5592C131.446 19.3558 132.079 20 132.862 20H149.211C149.992 20 150.632 19.3558 150.632 18.5592V1.44083C150.632 0.645 149.992 0 149.211 0H149.213Z" fill="#1A1A1A"/>
</g>
<defs>
<clipPath id="clip0_136_1656">
<rect width="19.1862" height="20" fill="white" transform="translate(0.979492)"/>
</clipPath>
<clipPath id="clip1_136_1656">
<rect width="19.1862" height="20" fill="white" transform="translate(33.5961)"/>
</clipPath>
<clipPath id="clip2_136_1656">
<rect width="19.1862" height="20" fill="white" transform="translate(66.2126)"/>
</clipPath>
<clipPath id="clip3_136_1656">
<rect width="19.1862" height="20" fill="white" transform="translate(98.8292)"/>
</clipPath>
<clipPath id="clip4_136_1656">
<rect width="19.1862" height="20" fill="white" transform="translate(131.446)"/>
</clipPath>
</defs>
</svg>
