<svg width="80" height="20" viewBox="0 0 80 20" fill="none" xmlns="http://www.w3.org/2000/svg">
<path fill-rule="evenodd" clip-rule="evenodd" d="M71.6922 9.23156C63.0095 16.1798 50.4252 19.8873 39.5895 19.8873C24.3969 19.8873 10.7196 13.7861 0.371798 3.63883C-0.441126 2.84063 0.286657 1.75355 1.26249 2.37486C12.4289 9.42889 26.2372 13.6723 40.5006 13.6723C50.1198 13.6723 60.7009 11.5124 70.4306 7.02807C71.9009 6.34986 73.1298 8.07337 71.6922 9.23156Z" fill="#A0A0A0"/>
<path fill-rule="evenodd" clip-rule="evenodd" d="M75.3016 4.74615C74.1964 3.20663 67.9657 4.01817 65.1691 4.37905C64.3169 4.49193 64.1868 3.68662 64.9547 3.10797C69.9165 -0.684815 78.0597 0.410267 79.0093 1.68134C79.9589 2.95953 78.7621 11.8215 74.099 16.0516C73.3835 16.7005 72.7008 16.3556 73.0192 15.4934C74.0663 12.6553 76.4142 6.29277 75.3016 4.74615V4.74615Z" fill="#A0A0A0"/>
</svg>
