<svg width="50" height="48" viewBox="0 0 50 48" fill="none" xmlns="http://www.w3.org/2000/svg">
<g filter="url(#filter0_b_136_1737)">
<path d="M32.5287 25.2411C32.3055 24.8714 31.9883 24.5018 31.5772 24.2677C31.2483 24.0952 31.0369 23.8118 30.8489 23.4792C30.2499 22.4196 30.6023 21.0273 31.6007 20.3989C32.7754 19.6966 33.1512 18.1318 32.4699 16.9121L31.6829 15.4582C31.0134 14.2384 29.5451 13.8072 28.3822 14.5218C27.3485 15.1132 26.0211 14.7189 25.422 13.6717C25.2341 13.3267 25.1284 12.957 25.1519 12.5874C25.1871 12.1069 25.0462 11.651 24.8347 11.2814C24.4001 10.5175 23.6131 10 22.7438 10H21.0876C20.2301 10.0246 19.4431 10.5175 19.0084 11.2814C18.7853 11.651 18.6561 12.1069 18.6795 12.5874C18.703 12.957 18.5973 13.3267 18.4094 13.6717C17.8103 14.7189 16.483 15.1132 15.461 14.5218C14.2864 13.8072 12.8298 14.2384 12.1485 15.4582L11.3615 16.9121C10.6919 18.1318 11.0678 19.6966 12.2307 20.3989C13.2292 21.0273 13.5816 22.4196 12.9942 23.4792C12.7945 23.8118 12.5831 24.0952 12.2542 24.2677C11.8548 24.5018 11.5024 24.8714 11.3145 25.2411C10.8799 26.005 10.9034 26.966 11.338 27.7669L12.1485 29.2454C12.5831 30.0339 13.3936 30.5268 14.2394 30.5268C14.6387 30.5268 15.1086 30.4035 15.4845 30.1571C15.7782 29.9477 16.1306 29.8737 16.5182 29.8737C17.6811 29.8737 18.6561 30.8964 18.6795 32.1162C18.6795 33.5331 19.7602 34.642 21.1228 34.642H22.7203C24.0712 34.642 25.1519 33.5331 25.1519 32.1162C25.1871 30.8964 26.1621 29.8737 27.325 29.8737C27.7009 29.8737 28.0533 29.9477 28.3587 30.1571C28.7346 30.4035 29.1927 30.5268 29.6038 30.5268C30.4378 30.5268 31.2483 30.0339 31.6829 29.2454L32.5052 27.7669C32.9281 26.9414 32.9633 26.005 32.5287 25.2411Z" fill="url(#paint0_linear_136_1737)"/>
</g>
<g opacity="0.5" filter="url(#filter1_f_136_1737)">
<path d="M27.4641 23.8933C27.3491 23.7031 27.1855 23.5128 26.9735 23.3923C26.8039 23.3035 26.6949 23.1577 26.598 22.9864C26.2891 22.4411 26.4708 21.7245 26.9857 21.401C27.5913 21.0395 27.7851 20.2342 27.4339 19.6063L27.0281 18.858C26.6828 18.2302 25.9257 18.0082 25.3261 18.376C24.7931 18.6804 24.1087 18.4775 23.7998 17.9385C23.7029 17.7609 23.6484 17.5706 23.6605 17.3804C23.6786 17.1331 23.606 16.8984 23.4969 16.7082C23.2728 16.315 22.867 16.0486 22.4188 16.0486H21.5648C21.1227 16.0613 20.7169 16.315 20.4928 16.7082C20.3777 16.8984 20.3111 17.1331 20.3232 17.3804C20.3353 17.5706 20.2808 17.7609 20.1839 17.9385C19.875 18.4775 19.1906 18.6804 18.6636 18.376C18.0579 18.0082 17.3069 18.2302 16.9556 18.858L16.5498 19.6063C16.2046 20.2342 16.3984 21.0395 16.998 21.401C17.5128 21.7245 17.6945 22.4411 17.3917 22.9864C17.2887 23.1577 17.1797 23.3035 17.0101 23.3923C16.8042 23.5128 16.6225 23.7031 16.5256 23.8933C16.3015 24.2865 16.3136 24.7811 16.5377 25.1934L16.9556 25.9544C17.1797 26.3602 17.5976 26.6139 18.0337 26.6139C18.2396 26.6139 18.4819 26.5505 18.6757 26.4236C18.8272 26.3158 19.0089 26.2778 19.2087 26.2778C19.8084 26.2778 20.3111 26.8041 20.3232 27.432C20.3232 28.1613 20.8804 28.732 21.583 28.732H22.4067C23.1033 28.732 23.6605 28.1613 23.6605 27.432C23.6786 26.8041 24.1814 26.2778 24.781 26.2778C24.9748 26.2778 25.1565 26.3158 25.314 26.4236C25.5078 26.5505 25.744 26.6139 25.956 26.6139C26.386 26.6139 26.8039 26.3602 27.0281 25.9544L27.452 25.1934C27.6701 24.7685 27.6882 24.2865 27.4641 23.8933Z" fill="#E31352"/>
</g>
<g filter="url(#filter2_b_136_1737)">
<mask id="path-3-outside-1_136_1737" maskUnits="userSpaceOnUse" x="16.4834" y="12.2614" width="29" height="32" fill="black">
<rect fill="white" x="16.4834" y="12.2614" width="29" height="32"/>
<path d="M43.5813 31.5656C43.3108 31.1217 42.9263 30.6778 42.4279 30.3966C42.0292 30.1895 41.7729 29.8491 41.545 29.4496C40.8188 28.1771 41.246 26.505 42.4564 25.7503C43.8803 24.9069 44.336 23.0276 43.5101 21.5627L42.5561 19.8166C41.7444 18.3517 39.9645 17.8338 38.5547 18.692C37.3016 19.4023 35.6926 18.9288 34.9664 17.671C34.7385 17.2567 34.6104 16.8128 34.6388 16.3688C34.6816 15.7917 34.5107 15.2442 34.2544 14.8003C33.7275 13.8829 32.7735 13.2614 31.7197 13.2614H29.712C28.6725 13.291 27.7184 13.8829 27.1915 14.8003C26.921 15.2442 26.7644 15.7917 26.7928 16.3688C26.8213 16.8128 26.6932 17.2567 26.4653 17.671C25.7391 18.9288 24.13 19.4023 22.8912 18.692C21.4672 17.8338 19.7015 18.3517 18.8756 19.8166L17.9216 21.5627C17.1099 23.0276 17.5656 24.9069 18.9753 25.7503C20.1857 26.505 20.6129 28.1771 19.9009 29.4496C19.6588 29.8491 19.4025 30.1895 19.0038 30.3966C18.5196 30.6778 18.0925 31.1217 17.8646 31.5656C17.3378 32.4831 17.3662 33.6372 17.8931 34.5991L18.8756 36.3747C19.4025 37.3218 20.385 37.9137 21.4103 37.9137C21.8944 37.9137 22.464 37.7657 22.9197 37.4697C23.2757 37.2182 23.7029 37.1294 24.1728 37.1294C25.5825 37.1294 26.7644 38.3576 26.7928 39.8225C26.7928 41.5242 28.1029 42.8559 29.7547 42.8559H31.6913C33.3288 42.8559 34.6388 41.5242 34.6388 39.8225C34.6816 38.3576 35.8635 37.1294 37.2732 37.1294C37.7288 37.1294 38.156 37.2182 38.5263 37.4697C38.9819 37.7657 39.5373 37.9137 40.0356 37.9137C41.0467 37.9137 42.0292 37.3218 42.5561 36.3747L43.5528 34.5991C44.0654 33.6076 44.1082 32.4831 43.5813 31.5656Z"/>
</mask>
<path d="M43.5813 31.5656C43.3108 31.1217 42.9263 30.6778 42.4279 30.3966C42.0292 30.1895 41.7729 29.8491 41.545 29.4496C40.8188 28.1771 41.246 26.505 42.4564 25.7503C43.8803 24.9069 44.336 23.0276 43.5101 21.5627L42.5561 19.8166C41.7444 18.3517 39.9645 17.8338 38.5547 18.692C37.3016 19.4023 35.6926 18.9288 34.9664 17.671C34.7385 17.2567 34.6104 16.8128 34.6388 16.3688C34.6816 15.7917 34.5107 15.2442 34.2544 14.8003C33.7275 13.8829 32.7735 13.2614 31.7197 13.2614H29.712C28.6725 13.291 27.7184 13.8829 27.1915 14.8003C26.921 15.2442 26.7644 15.7917 26.7928 16.3688C26.8213 16.8128 26.6932 17.2567 26.4653 17.671C25.7391 18.9288 24.13 19.4023 22.8912 18.692C21.4672 17.8338 19.7015 18.3517 18.8756 19.8166L17.9216 21.5627C17.1099 23.0276 17.5656 24.9069 18.9753 25.7503C20.1857 26.505 20.6129 28.1771 19.9009 29.4496C19.6588 29.8491 19.4025 30.1895 19.0038 30.3966C18.5196 30.6778 18.0925 31.1217 17.8646 31.5656C17.3378 32.4831 17.3662 33.6372 17.8931 34.5991L18.8756 36.3747C19.4025 37.3218 20.385 37.9137 21.4103 37.9137C21.8944 37.9137 22.464 37.7657 22.9197 37.4697C23.2757 37.2182 23.7029 37.1294 24.1728 37.1294C25.5825 37.1294 26.7644 38.3576 26.7928 39.8225C26.7928 41.5242 28.1029 42.8559 29.7547 42.8559H31.6913C33.3288 42.8559 34.6388 41.5242 34.6388 39.8225C34.6816 38.3576 35.8635 37.1294 37.2732 37.1294C37.7288 37.1294 38.156 37.2182 38.5263 37.4697C38.9819 37.7657 39.5373 37.9137 40.0356 37.9137C41.0467 37.9137 42.0292 37.3218 42.5561 36.3747L43.5528 34.5991C44.0654 33.6076 44.1082 32.4831 43.5813 31.5656Z" fill="#FF749F" fill-opacity="0.35"/>
<path d="M42.7274 32.0861C43.0148 32.5576 43.6301 32.707 44.1017 32.4195C44.5733 32.1321 44.7226 31.5168 44.4352 31.0452L42.7274 32.0861ZM42.4279 30.3966L42.9192 29.5257C42.9092 29.52 42.8991 29.5146 42.889 29.5093L42.4279 30.3966ZM41.545 29.4496L42.4137 28.9542L42.4136 28.954L41.545 29.4496ZM42.4564 25.7503L41.9467 24.8899C41.9402 24.8938 41.9337 24.8977 41.9273 24.9017L42.4564 25.7503ZM43.5101 21.5627L42.6325 22.0422L42.639 22.0538L43.5101 21.5627ZM42.5561 19.8166L43.4336 19.3371L43.4308 19.332L42.5561 19.8166ZM38.5547 18.692L39.0478 19.562C39.0569 19.5568 39.0659 19.5516 39.0747 19.5462L38.5547 18.692ZM34.9664 17.671L34.0901 18.1528C34.0935 18.1589 34.0969 18.165 34.1003 18.171L34.9664 17.671ZM34.6388 16.3688L33.6415 16.295L33.6409 16.3048L34.6388 16.3688ZM34.2544 14.8003L33.3872 15.2983L33.3884 15.3004L34.2544 14.8003ZM29.712 13.2614V12.2614C29.7025 12.2614 29.693 12.2615 29.6835 12.2618L29.712 13.2614ZM27.1915 14.8003L28.0455 15.3208C28.05 15.3133 28.0544 15.3059 28.0587 15.2983L27.1915 14.8003ZM26.7928 16.3688L25.7941 16.4181C25.7943 16.423 25.7946 16.428 25.7949 16.4329L26.7928 16.3688ZM26.4653 17.671L27.3313 18.171C27.3348 18.165 27.3382 18.1589 27.3416 18.1528L26.4653 17.671ZM22.8912 18.692L22.375 19.5485C22.3812 19.5522 22.3875 19.5559 22.3938 19.5595L22.8912 18.692ZM18.8756 19.8166L18.0045 19.3254L17.9981 19.3371L18.8756 19.8166ZM17.9216 21.5627L18.7963 22.0473L18.7991 22.0422L17.9216 21.5627ZM18.9753 25.7503L19.5044 24.9017C19.4992 24.8985 19.494 24.8953 19.4887 24.8922L18.9753 25.7503ZM19.9009 29.4496L20.7561 29.9678C20.7621 29.9579 20.7679 29.948 20.7736 29.9379L19.9009 29.4496ZM19.0038 30.3966L18.5427 29.5093C18.5289 29.5165 18.5151 29.524 18.5016 29.5319L19.0038 30.3966ZM17.8646 31.5656L18.7318 32.0636C18.7396 32.05 18.7471 32.0362 18.7543 32.0222L17.8646 31.5656ZM17.8931 34.5991L17.0161 35.0795L17.0181 35.0832L17.8931 34.5991ZM18.8756 36.3747L18.0007 36.8589L18.0018 36.8609L18.8756 36.3747ZM22.9197 37.4697L23.4644 38.3084C23.4753 38.3013 23.4861 38.2939 23.4968 38.2864L22.9197 37.4697ZM26.7928 39.8225H27.7928C27.7928 39.816 27.7928 39.8095 27.7927 39.8031L26.7928 39.8225ZM34.6388 39.8225L33.6393 39.7933C33.639 39.8031 33.6388 39.8128 33.6388 39.8225H34.6388ZM38.5263 37.4697L37.9643 38.2969C37.97 38.3008 37.9758 38.3046 37.9816 38.3084L38.5263 37.4697ZM42.5561 36.3747L41.684 35.8852L41.6822 35.8886L42.5561 36.3747ZM43.5528 34.5991L44.4248 35.0886C44.4304 35.0786 44.4359 35.0685 44.4411 35.0584L43.5528 34.5991ZM44.4485 31.0676C44.1734 30.5887 43.5622 30.4234 43.0833 30.6985C42.6044 30.9735 42.4391 31.5847 42.7141 32.0636L44.4485 31.0676ZM44.4352 31.0452C44.1072 30.507 43.6114 29.9161 42.9192 29.5257L41.9366 31.2676C42.2411 31.4394 42.5143 31.7365 42.7274 32.0861L44.4352 31.0452ZM42.889 29.5093C42.7467 29.4353 42.6092 29.297 42.4137 28.9542L40.6764 29.945C40.9366 30.4013 41.3117 30.9436 41.9668 31.284L42.889 29.5093ZM42.4136 28.954C41.9507 28.1429 42.2358 27.0663 42.9855 26.5989L41.9273 24.9017C40.2562 25.9436 39.6869 28.2112 40.6765 29.9453L42.4136 28.954ZM42.966 26.6107C44.8858 25.4735 45.4581 22.9816 44.3812 21.0716L42.639 22.0538C43.2139 23.0736 42.8749 24.3402 41.9467 24.8899L42.966 26.6107ZM44.3877 21.0832L43.4336 19.3371L41.6785 20.2961L42.6326 22.0422L44.3877 21.0832ZM43.4308 19.332C42.3604 17.4002 39.9589 16.6664 38.0347 17.8379L39.0747 19.5462C39.97 19.0012 41.1283 19.3032 41.6813 20.3012L43.4308 19.332ZM38.0616 17.822C37.3094 18.2484 36.2975 17.9765 35.8324 17.171L34.1003 18.171C35.0877 19.8811 37.2939 20.5561 39.0478 19.562L38.0616 17.822ZM35.8426 17.1892C35.6809 16.8951 35.6235 16.6402 35.6368 16.4329L33.6409 16.3048C33.5972 16.9853 33.7961 17.6182 34.0901 18.1528L35.8426 17.1892ZM35.6361 16.4427C35.6968 15.6235 35.4537 14.8776 35.1204 14.3003L33.3884 15.3004C33.5677 15.6109 33.6664 15.96 33.6416 16.295L35.6361 16.4427ZM35.1216 14.3023C34.4397 13.1151 33.1761 12.2614 31.7197 12.2614V14.2614C32.3708 14.2614 33.0153 14.6507 33.3872 15.2983L35.1216 14.3023ZM31.7197 12.2614H29.712V14.2614H31.7197V12.2614ZM29.6835 12.2618C28.2794 12.3018 27.0159 13.0981 26.3244 14.3023L28.0587 15.2983C28.4209 14.6677 29.0656 14.2802 29.7404 14.261L29.6835 12.2618ZM26.3376 14.2799C25.9684 14.8857 25.7552 15.6304 25.7941 16.4181L27.7916 16.3195C27.7735 15.9531 27.8736 15.6028 28.0455 15.3208L26.3376 14.2799ZM25.7949 16.4329C25.8082 16.6402 25.7508 16.8951 25.5891 17.1892L27.3416 18.1528C27.6356 17.6182 27.8344 16.9853 27.7908 16.3048L25.7949 16.4329ZM25.5993 17.171C25.1321 17.9802 24.1211 18.2445 23.3886 17.8245L22.3938 19.5595C24.139 20.5601 26.3461 19.8774 27.3313 18.171L25.5993 17.171ZM23.4074 17.8355C21.4693 16.6674 19.0889 17.402 18.0045 19.3255L19.7467 20.3077C20.3141 19.3013 21.4651 19.0001 22.375 19.5485L23.4074 17.8355ZM17.9981 19.3371L17.044 21.0832L18.7991 22.0422L19.7532 20.2961L17.9981 19.3371ZM17.0469 21.078C15.9911 22.9836 16.5594 25.4702 18.4619 26.6084L19.4887 24.8922C18.5718 24.3436 18.2288 23.0716 18.7963 22.0473L17.0469 21.078ZM18.4462 26.5989C19.196 27.0663 19.4839 28.1468 19.0282 28.9614L20.7736 29.9379C21.7418 28.2073 21.1754 25.9436 19.5044 24.9017L18.4462 26.5989ZM19.0456 28.9314C18.826 29.2939 18.688 29.4338 18.5427 29.5093L19.4649 31.284C20.117 30.9451 20.4916 30.4044 20.7561 29.9678L19.0456 28.9314ZM18.5016 29.5319C17.8658 29.9011 17.2973 30.481 16.975 31.109L18.7543 32.0222C18.8877 31.7624 19.1735 31.4545 19.506 31.2614L18.5016 29.5319ZM16.9975 31.0676C16.2794 32.3179 16.3396 33.8445 17.0161 35.0795L18.7701 34.1186C18.3929 33.43 18.3961 32.6482 18.7318 32.0636L16.9975 31.0676ZM17.0181 35.0832L18.0007 36.8589L19.7506 35.8906L18.7681 34.1149L17.0181 35.0832ZM18.0018 36.8609C18.6951 38.1071 20.002 38.9137 21.4103 38.9137V36.9137C20.7681 36.9137 20.1099 36.5364 19.7495 35.8886L18.0018 36.8609ZM21.4103 38.9137C22.0727 38.9137 22.8344 38.7175 23.4644 38.3084L22.375 36.6311C22.0937 36.8138 21.7161 36.9137 21.4103 36.9137V38.9137ZM23.4968 38.2864C23.6242 38.1964 23.8218 38.1294 24.1728 38.1294V36.1294C23.5839 36.1294 22.9271 36.24 22.3426 36.6531L23.4968 38.2864ZM24.1728 38.1294C24.9914 38.1294 25.7742 38.874 25.793 39.8419L27.7927 39.8031C27.7545 37.8411 26.1736 36.1294 24.1728 36.1294V38.1294ZM25.7928 39.8225C25.7928 42.056 27.5303 43.8559 29.7547 43.8559V41.8559C28.6754 41.8559 27.7928 40.9924 27.7928 39.8225H25.7928ZM29.7547 43.8559H31.6913V41.8559H29.7547V43.8559ZM31.6913 43.8559C33.9045 43.8559 35.6388 42.0528 35.6388 39.8225H33.6388C33.6388 40.9956 32.7532 41.8559 31.6913 41.8559V43.8559ZM35.6384 39.8516C35.6669 38.8744 36.456 38.1294 37.2732 38.1294V36.1294C35.271 36.1294 33.6962 37.8408 33.6393 39.7933L35.6384 39.8516ZM37.2732 38.1294C37.6011 38.1294 37.8112 38.1929 37.9643 38.2969L39.0883 36.6426C38.5009 36.2435 37.8565 36.1294 37.2732 36.1294V38.1294ZM37.9816 38.3084C38.6095 38.7162 39.3564 38.9137 40.0356 38.9137V36.9137C39.7181 36.9137 39.3543 36.8151 39.0709 36.6311L37.9816 38.3084ZM40.0356 38.9137C41.4324 38.9137 42.738 38.1046 43.4299 36.8609L41.6822 35.8886C41.3204 36.5389 40.6609 36.9137 40.0356 36.9137V38.9137ZM43.4281 36.8642L44.4248 35.0886L42.6808 34.1096L41.684 35.8852L43.4281 36.8642ZM44.4411 35.0584C45.0816 33.8197 45.1732 32.3295 44.4485 31.0676L42.7141 32.0636C43.0432 32.6366 43.0493 33.3956 42.6645 34.1398L44.4411 35.0584Z" fill="url(#paint1_linear_136_1737)" mask="url(#path-3-outside-1_136_1737)"/>
</g>
<g filter="url(#filter3_bd_136_1737)">
<path d="M30.7407 32.131C28.5051 32.131 26.6967 30.2813 26.6967 27.9581C26.6967 25.635 28.5051 23.7705 30.7407 23.7705C32.9763 23.7705 34.742 25.635 34.742 27.9581C34.742 30.2813 32.9763 32.131 30.7407 32.131Z" fill="url(#paint2_linear_136_1737)"/>
<path d="M30.7407 31.931C28.6209 31.931 26.8967 30.1763 26.8967 27.9581C26.8967 25.739 28.6218 23.9705 30.7407 23.9705C32.8569 23.9705 34.542 25.7362 34.542 27.9581C34.542 30.1791 32.8578 31.931 30.7407 31.931Z" stroke="url(#paint3_linear_136_1737)" stroke-width="0.4"/>
</g>
<defs>
<filter id="filter0_b_136_1737" x="-1.99997" y="-3" width="47.8388" height="50.642" filterUnits="userSpaceOnUse" color-interpolation-filters="sRGB">
<feFlood flood-opacity="0" result="BackgroundImageFix"/>
<feGaussianBlur in="BackgroundImageFix" stdDeviation="6.5"/>
<feComposite in2="SourceAlpha" operator="in" result="effect1_backgroundBlur_136_1737"/>
<feBlend mode="normal" in="SourceGraphic" in2="effect1_backgroundBlur_136_1737" result="shape"/>
</filter>
<filter id="filter1_f_136_1737" x="0.363434" y="0.048645" width="43.2607" height="44.6833" filterUnits="userSpaceOnUse" color-interpolation-filters="sRGB">
<feFlood flood-opacity="0" result="BackgroundImageFix"/>
<feBlend mode="normal" in="SourceGraphic" in2="BackgroundImageFix" result="shape"/>
<feGaussianBlur stdDeviation="8" result="effect1_foregroundBlur_136_1737"/>
</filter>
<filter id="filter2_b_136_1737" x="-7.5166" y="-11.7386" width="76.474" height="79.5945" filterUnits="userSpaceOnUse" color-interpolation-filters="sRGB">
<feFlood flood-opacity="0" result="BackgroundImageFix"/>
<feGaussianBlur in="BackgroundImageFix" stdDeviation="12"/>
<feComposite in2="SourceAlpha" operator="in" result="effect1_backgroundBlur_136_1737"/>
<feBlend mode="normal" in="SourceGraphic" in2="effect1_backgroundBlur_136_1737" result="shape"/>
</filter>
<filter id="filter3_bd_136_1737" x="11.6967" y="8.77051" width="38.0454" height="38.3605" filterUnits="userSpaceOnUse" color-interpolation-filters="sRGB">
<feFlood flood-opacity="0" result="BackgroundImageFix"/>
<feGaussianBlur in="BackgroundImageFix" stdDeviation="7.5"/>
<feComposite in2="SourceAlpha" operator="in" result="effect1_backgroundBlur_136_1737"/>
<feColorMatrix in="SourceAlpha" type="matrix" values="0 0 0 0 0 0 0 0 0 0 0 0 0 0 0 0 0 0 127 0" result="hardAlpha"/>
<feOffset dx="5" dy="5"/>
<feGaussianBlur stdDeviation="5"/>
<feColorMatrix type="matrix" values="0 0 0 0 1 0 0 0 0 0.321569 0 0 0 0 0.54902 0 0 0 0.5 0"/>
<feBlend mode="normal" in2="effect1_backgroundBlur_136_1737" result="effect2_dropShadow_136_1737"/>
<feBlend mode="normal" in="SourceGraphic" in2="effect2_dropShadow_136_1737" result="shape"/>
</filter>
<linearGradient id="paint0_linear_136_1737" x1="23.5272" y1="23.9711" x2="3.51668" y2="32.5939" gradientUnits="userSpaceOnUse">
<stop stop-color="#FF759F"/>
<stop offset="1" stop-color="#FF196E"/>
</linearGradient>
<linearGradient id="paint1_linear_136_1737" x1="21.6976" y1="16.7092" x2="40.9084" y2="37.9933" gradientUnits="userSpaceOnUse">
<stop stop-color="white" stop-opacity="0.25"/>
<stop offset="1" stop-color="white" stop-opacity="0"/>
</linearGradient>
<linearGradient id="paint2_linear_136_1737" x1="34.1716" y1="25.2802" x2="25.2092" y2="25.5614" gradientUnits="userSpaceOnUse">
<stop stop-color="white"/>
<stop offset="1" stop-color="white" stop-opacity="0.2"/>
</linearGradient>
<linearGradient id="paint3_linear_136_1737" x1="27.9774" y1="24.7445" x2="33.35" y2="31.1478" gradientUnits="userSpaceOnUse">
<stop stop-color="white" stop-opacity="0.25"/>
<stop offset="1" stop-color="white" stop-opacity="0"/>
</linearGradient>
</defs>
</svg>
