<svg width="60" height="85" viewBox="0 0 60 85" fill="none" xmlns="http://www.w3.org/2000/svg">
<path d="M19.2361 39.5681C18.6029 38.9112 18.2863 38.5827 18.0252 38.2792C13.9847 33.5841 13.069 26.4324 15.8129 21.0003C15.9902 20.6492 16.2152 20.2619 16.6651 19.4873V19.4873C17.1149 18.7128 17.3399 18.3255 17.5531 18.0042C20.8512 13.034 26.768 11.5756 31.8482 14.4807C32.1765 14.6685 32.5437 14.9098 33.2781 15.3925L39.7682 19.6579C41.4227 20.7453 42.2499 21.289 42.8798 21.8293C47.8033 26.0521 49.5344 33.7025 46.9413 39.778C46.6096 40.5553 46.1028 41.4279 45.0892 43.1729V43.1729C44.0756 44.918 43.5688 45.7905 43.0757 46.4334C39.2215 51.458 32.6309 52.174 27.6134 48.1131C26.9714 47.5935 26.2582 46.8535 24.8317 45.3735L19.2361 39.5681Z" fill="url(#paint0_linear_136_1726)"/>
<g opacity="0.5" filter="url(#filter0_f_136_1726)">
<path d="M23.0487 36.2768C20.0582 33.1742 19.4041 28.0656 21.529 24.4073V24.4073C23.6538 20.749 27.8802 19.7073 31.3487 21.9869L35.1849 24.5082C39.5131 27.3528 40.9816 33.8426 38.3302 38.4076V38.4076C35.6787 42.9726 30.0878 43.58 26.3562 39.7084L23.0487 36.2768Z" fill="#0062FF"/>
</g>
<g filter="url(#filter1_b_136_1726)">
<mask id="path-3-outside-1_136_1726" maskUnits="userSpaceOnUse" x="2.00003" y="25.2241" width="56" height="60" fill="black">
<rect fill="white" x="2.00003" y="25.2241" width="56" height="60"/>
<path d="M54.5867 59.8513C52.3865 59.8513 50.5964 57.7268 50.5964 55.1156C50.5964 52.5012 52.3865 50.3767 54.5867 50.3767C55.1199 50.3767 55.6318 50.1254 56.007 49.6801C56.3848 49.2317 56.5965 48.6242 56.5965 47.9913L56.5938 39.3976C56.5938 32.1334 51.6121 26.2241 45.4913 26.2241H14.1052C7.98451 26.2241 3.00271 32.1334 3.00271 39.3976L3.00003 48.268C3.00003 48.9009 3.21174 49.5084 3.58959 49.9568C3.96477 50.4021 4.47661 50.6534 5.0099 50.6534C7.28507 50.6534 9.00016 52.5712 9.00016 55.1156C9.00016 57.7268 7.21004 59.8513 5.0099 59.8513C3.90045 59.8513 3.00003 60.92 3.00003 62.2367V70.824C3.00003 78.0882 7.97915 84.0007 14.1025 84.0007H45.494C51.6174 84.0007 56.5965 78.0882 56.5965 70.824V62.2367C56.5965 60.92 55.6961 59.8513 54.5867 59.8513"/>
</mask>
<path d="M54.5867 59.8513C52.3865 59.8513 50.5964 57.7268 50.5964 55.1156C50.5964 52.5012 52.3865 50.3767 54.5867 50.3767C55.1199 50.3767 55.6318 50.1254 56.007 49.6801C56.3848 49.2317 56.5965 48.6242 56.5965 47.9913L56.5938 39.3976C56.5938 32.1334 51.6121 26.2241 45.4913 26.2241H14.1052C7.98451 26.2241 3.00271 32.1334 3.00271 39.3976L3.00003 48.268C3.00003 48.9009 3.21174 49.5084 3.58959 49.9568C3.96477 50.4021 4.47661 50.6534 5.0099 50.6534C7.28507 50.6534 9.00016 52.5712 9.00016 55.1156C9.00016 57.7268 7.21004 59.8513 5.0099 59.8513C3.90045 59.8513 3.00003 60.92 3.00003 62.2367V70.824C3.00003 78.0882 7.97915 84.0007 14.1025 84.0007H45.494C51.6174 84.0007 56.5965 78.0882 56.5965 70.824V62.2367C56.5965 60.92 55.6961 59.8513 54.5867 59.8513" fill="#3EA0FE" fill-opacity="0.35"/>
<path d="M54.5867 60.8513C55.1389 60.8513 55.5867 60.4036 55.5867 59.8513C55.5867 59.299 55.1389 58.8513 54.5867 58.8513V60.8513ZM56.007 49.6801L55.2422 49.0358L55.2422 49.0358L56.007 49.6801ZM56.5965 47.9913L57.5965 47.9913L57.5965 47.991L56.5965 47.9913ZM56.5938 39.3976L55.5938 39.3976L55.5938 39.3979L56.5938 39.3976ZM3.00271 39.3976L4.00271 39.3979V39.3976H3.00271ZM3.00003 48.268L2.00003 48.2677V48.268H3.00003ZM3.58959 49.9568L4.35432 49.3125L4.35432 49.3125L3.58959 49.9568ZM54.5867 58.8513C54.0344 58.8513 53.5867 59.299 53.5867 59.8513C53.5867 60.4036 54.0344 60.8513 54.5867 60.8513V58.8513ZM54.5867 58.8513C53.0925 58.8513 51.5964 57.3418 51.5964 55.1156H49.5964C49.5964 58.1117 51.6806 60.8513 54.5867 60.8513V58.8513ZM51.5964 55.1156C51.5964 52.8857 53.0929 51.3767 54.5867 51.3767V49.3767C51.6802 49.3767 49.5964 52.1168 49.5964 55.1156H51.5964ZM54.5867 51.3767C55.4446 51.3767 56.2266 50.9714 56.7717 50.3245L55.2422 49.0358C55.037 49.2794 54.7953 49.3767 54.5867 49.3767V51.3767ZM56.7717 50.3245C57.3144 49.6804 57.5965 48.8392 57.5965 47.9913H55.5965C55.5965 48.4092 55.4553 48.7829 55.2422 49.0358L56.7717 50.3245ZM57.5965 47.991L57.5938 39.3973L55.5938 39.3979L55.5965 47.9916L57.5965 47.991ZM57.5938 39.3976C57.5938 31.7481 52.3177 25.2241 45.4913 25.2241V27.2241C50.9064 27.2241 55.5938 32.5187 55.5938 39.3976H57.5938ZM45.4913 25.2241H14.1052V27.2241H45.4913V25.2241ZM14.1052 25.2241C7.27884 25.2241 2.00271 31.7481 2.00271 39.3976H4.00271C4.00271 32.5187 8.69017 27.2241 14.1052 27.2241V25.2241ZM2.00271 39.3973L2.00003 48.2677L4.00003 48.2683L4.00271 39.3979L2.00271 39.3973ZM2.00003 48.268C2.00003 49.1159 2.28219 49.9571 2.82486 50.6012L4.35432 49.3125C4.14128 49.0596 4.00003 48.6859 4.00003 48.268H2.00003ZM2.82486 50.6012C3.36996 51.2481 4.15193 51.6534 5.0099 51.6534V49.6534C4.8013 49.6534 4.55957 49.5561 4.35432 49.3125L2.82486 50.6012ZM5.0099 51.6534C6.63061 51.6534 8.00016 53.0154 8.00016 55.1156H10.0002C10.0002 52.127 7.93953 49.6534 5.0099 49.6534V51.6534ZM8.00016 55.1156C8.00016 57.3418 6.50409 58.8513 5.0099 58.8513V60.8513C7.91598 60.8513 10.0002 58.1117 10.0002 55.1156H8.00016ZM5.0099 58.8513C3.1945 58.8513 2.00003 60.535 2.00003 62.2367H4.00003C4.00003 61.3049 4.6064 60.8513 5.0099 60.8513V58.8513ZM2.00003 62.2367V70.824H4.00003V62.2367H2.00003ZM2.00003 70.824C2.00003 78.473 7.27306 85.0007 14.1025 85.0007V83.0007C8.68523 83.0007 4.00003 77.7034 4.00003 70.824H2.00003ZM14.1025 85.0007H45.494V83.0007H14.1025V85.0007ZM45.494 85.0007C52.3235 85.0007 57.5965 78.473 57.5965 70.824H55.5965C55.5965 77.7034 50.9113 83.0007 45.494 83.0007V85.0007ZM57.5965 70.824V62.2367H55.5965V70.824H57.5965ZM57.5965 62.2367C57.5965 60.535 56.4021 58.8513 54.5867 58.8513V60.8513C54.9902 60.8513 55.5965 61.3049 55.5965 62.2367H57.5965Z" fill="url(#paint1_linear_136_1726)" mask="url(#path-3-outside-1_136_1726)"/>
</g>
<g filter="url(#filter2_bd_136_1726)">
<path d="M38.9913 53.7918L35.8318 57.4767L36.5795 62.6862C36.7081 63.5882 36.4053 64.4773 35.7862 65.0101C35.1726 65.5494 34.3713 65.6168 33.696 65.1867L29.7968 62.7312L25.8896 65.1899C25.6002 65.3728 25.284 65.4691 24.9705 65.4691C24.5604 65.4691 24.1558 65.3151 23.8074 65.0133C23.1911 64.4773 22.8882 63.5882 23.0169 62.6862L23.7619 57.4767L20.6023 53.7918C20.0557 53.1563 19.8654 52.2222 20.1012 51.3524C20.3397 50.4857 20.9561 49.8694 21.7091 49.7411L26.0665 48.9803L28.0201 44.2394C28.3604 43.4241 29.0411 42.917 29.7968 42.917H29.8022C30.5606 42.9202 31.2413 43.4274 31.5762 44.2426L33.5298 48.9803L37.8953 49.7443C38.6402 49.8694 39.2566 50.4857 39.4924 51.3524C39.7309 52.2222 39.5407 53.1563 38.9913 53.7918Z" fill="url(#paint2_linear_136_1726)"/>
<path d="M38.9156 53.7264L38.9154 53.7267L35.7559 57.4116L35.7264 57.446L35.7328 57.4909L36.4805 62.7004C36.605 63.5733 36.3108 64.4267 35.721 64.9343L35.7202 64.935C35.139 65.4457 34.3865 65.5079 33.7497 65.1023L33.7493 65.1021L29.8501 62.6466L29.7968 62.613L29.7436 62.6465L25.8364 65.1053L25.8362 65.1054C25.5612 65.2792 25.2633 65.3691 24.9705 65.3691C24.5865 65.3691 24.2046 65.2251 23.8729 64.9378C23.2855 64.4268 22.9914 63.5731 23.1159 62.7004L23.8609 57.4909L23.8673 57.446L23.8378 57.4116L20.6783 53.7267L20.6782 53.7266C20.1551 53.1186 19.9698 52.2196 20.1977 51.3788C20.4281 50.5416 21.0188 49.9602 21.7259 49.8396L21.7263 49.8396L26.0837 49.0788L26.138 49.0694L26.159 49.0184L28.1124 44.278C28.1124 44.2779 28.1124 44.2778 28.1125 44.2778C28.4406 43.4918 29.0896 43.017 29.7968 43.017H29.802C30.5124 43.0201 31.1611 43.4953 31.4837 44.2806L31.4838 44.2808L33.4374 49.0185L33.4584 49.0693L33.5126 49.0788L37.878 49.8428L37.8787 49.8429C38.5774 49.9603 39.1681 50.5414 39.3959 51.3786L39.396 51.3788C39.6265 52.2196 39.4412 53.1184 38.9156 53.7264Z" stroke="url(#paint3_linear_136_1726)" stroke-opacity="0.5" stroke-width="0.2"/>
</g>
<defs>
<filter id="filter0_f_136_1726" x="0.2845" y="0.783295" width="59.3709" height="61.4788" filterUnits="userSpaceOnUse" color-interpolation-filters="sRGB">
<feFlood flood-opacity="0" result="BackgroundImageFix"/>
<feBlend mode="normal" in="SourceGraphic" in2="BackgroundImageFix" result="shape"/>
<feGaussianBlur stdDeviation="10" result="effect1_foregroundBlur_136_1726"/>
</filter>
<filter id="filter1_b_136_1726" x="-22" y="1.22408" width="103.596" height="107.777" filterUnits="userSpaceOnUse" color-interpolation-filters="sRGB">
<feFlood flood-opacity="0" result="BackgroundImageFix"/>
<feGaussianBlur in="BackgroundImageFix" stdDeviation="12"/>
<feComposite in2="SourceAlpha" operator="in" result="effect1_backgroundBlur_136_1726"/>
<feBlend mode="normal" in="SourceGraphic" in2="effect1_backgroundBlur_136_1726" result="shape"/>
</filter>
<filter id="filter2_bd_136_1726" x="5.0018" y="27.917" width="49.5917" height="52.5522" filterUnits="userSpaceOnUse" color-interpolation-filters="sRGB">
<feFlood flood-opacity="0" result="BackgroundImageFix"/>
<feGaussianBlur in="BackgroundImageFix" stdDeviation="7.5"/>
<feComposite in2="SourceAlpha" operator="in" result="effect1_backgroundBlur_136_1726"/>
<feColorMatrix in="SourceAlpha" type="matrix" values="0 0 0 0 0 0 0 0 0 0 0 0 0 0 0 0 0 0 127 0" result="hardAlpha"/>
<feOffset dx="5" dy="5"/>
<feGaussianBlur stdDeviation="5"/>
<feColorMatrix type="matrix" values="0 0 0 0 0.15375 0 0 0 0 0.522433 0 0 0 0 0.9 0 0 0 0.5 0"/>
<feBlend mode="normal" in2="effect1_backgroundBlur_136_1726" result="effect2_dropShadow_136_1726"/>
<feBlend mode="normal" in="SourceGraphic" in2="effect2_dropShadow_136_1726" result="shape"/>
</filter>
<linearGradient id="paint0_linear_136_1726" x1="23.876" y1="7.07242" x2="19.5661" y2="53.9413" gradientUnits="userSpaceOnUse">
<stop stop-color="#39AFFD"/>
<stop offset="1" stop-color="#477FFF"/>
</linearGradient>
<linearGradient id="paint1_linear_136_1726" x1="11.5317" y1="32.9551" x2="58.6956" y2="77.5237" gradientUnits="userSpaceOnUse">
<stop stop-color="white" stop-opacity="0.25"/>
<stop offset="1" stop-color="white" stop-opacity="0"/>
</linearGradient>
<linearGradient id="paint2_linear_136_1726" x1="38.2045" y1="46.9895" x2="16.3755" y2="47.6078" gradientUnits="userSpaceOnUse">
<stop stop-color="white"/>
<stop offset="1" stop-color="white" stop-opacity="0.2"/>
</linearGradient>
<linearGradient id="paint3_linear_136_1726" x1="22.1123" y1="50.4821" x2="38.7484" y2="50.5619" gradientUnits="userSpaceOnUse">
<stop stop-color="white"/>
<stop offset="1" stop-color="white" stop-opacity="0"/>
</linearGradient>
</defs>
</svg>
